<?xml version="1.0" encoding="UTF-8"?>
<svg id="subjects" xmlns="http://www.w3.org/2000/svg" viewBox="0 0 1024 1024">
  <defs>
    <style>
      .cls-1 {
        fill: #2563eb;
      }
    </style>
  </defs>
  <path class="cls-1" d="M184.11,940.93v-70.26h243.58v-121.79h-17.57c-63.24,0-116.71-21.86-160.43-65.58-43.72-43.72-65.58-97.2-65.58-160.43,0-47.62,13.66-90.95,40.99-129.99,27.32-39.04,63.24-66.36,107.74-81.97,3.12-31.23,16.79-56.6,40.99-76.12,24.2-19.52,52.31-28.11,84.32-25.76l-24.59-69.09,48.01-17.05-16.39-43.84,77.29-28.11,16.39,43.33,46.84-16.39,132.33,345.46-50.36,17.57,16.39,43.33-74.95,26.93-16.39-43.33-50.36,18.74-29.28-79.63c-11.71,13.27-25.57,22.84-41.57,28.69-16,5.86-33.11,8.39-51.33,7.61-20.04-.78-38.65-7.03-55.82-18.74-17.18-11.71-30.84-26.54-40.99-44.5-27.32,13.27-48.99,32.78-64.99,58.52-16,25.73-24.01,53.85-24.01,84.35,0,43.27,15.14,80.04,45.43,110.32,30.28,30.28,67.06,45.43,110.32,45.43h406.36v70.26h-271.68v121.79h295.11v70.26H184.11ZM601,411.61l62.07-22.25-93.68-241.24-62.07,22.25,93.68,241.24ZM490.34,367.91c11.32-11.19,16.98-25.04,16.98-41.57s-5.59-30.46-16.77-41.78c-11.19-11.32-25.04-16.98-41.57-16.98s-30.46,5.59-41.78,16.77c-11.32,11.19-16.98,25.04-16.98,41.57s5.59,30.46,16.77,41.78c11.19,11.32,25.04,16.98,41.57,16.98s30.46-5.59,41.78-16.77Z"/>
</svg>