<?xml version="1.0" encoding="UTF-8"?>
<svg id="subjects" xmlns="http://www.w3.org/2000/svg" viewBox="0 0 1024 1024">
  <defs>
    <style>
      .cls-1 {
        fill: #2563eb;
      }
    </style>
  </defs>
  <path class="cls-1" d="M144.11,940.93c-33.44,0-57.13-15.53-71.07-46.58-13.94-31.06-9.36-59.32,13.74-84.81l296.22-334.44V152.59h-62.11c-10.35,0-18.91-3.38-25.68-10.15-6.77-6.77-10.15-15.33-10.15-25.68s3.38-18.91,10.15-25.68c6.77-6.77,15.33-10.15,25.68-10.15h382.22c10.35,0,18.91,3.38,25.68,10.15,6.77,6.77,10.15,15.33,10.15,25.68s-3.38,18.91-10.15,25.68c-6.77,6.77-15.33,10.15-25.68,10.15h-62.11v322.5l296.22,334.44c23.09,25.48,27.67,53.75,13.74,84.81s-37.63,46.58-71.07,46.58H144.11ZM227.72,833.43h568.56l-191.11-220.97h-186.33l-191.11,220.97ZM129.78,869.26h764.44l-324.89-367.89V152.59h-114.67v348.78l-324.89,367.89Z"/>
</svg>