<?xml version="1.0" encoding="UTF-8"?>
<svg id="prim-subjects" xmlns="http://www.w3.org/2000/svg" viewBox="0 0 1024 1024">
  <defs>
    <style>
      .cls-1 {
        fill: #0d9488;
      }
    </style>
  </defs>
  <g id="city">
    <path class="cls-1" d="M90.42,957V303.55h289.25v-107.74l132.33-128.82,132.33,128.82v302.13h289.25v459.05H90.42ZM160.68,886.74h124.13v-124.13h-124.13v124.13ZM160.68,692.34h124.13v-124.13h-124.13v124.13ZM160.68,497.95h124.13v-124.13h-124.13v124.13ZM449.93,886.74h124.13v-124.13h-124.13v124.13ZM449.93,692.34h124.13v-124.13h-124.13v124.13ZM449.93,497.95h124.13v-124.13h-124.13v124.13ZM449.93,303.55h124.13v-124.13h-124.13v124.13ZM739.18,886.74h124.13v-124.13h-124.13v124.13ZM739.18,692.34h124.13v-124.13h-124.13v124.13Z"/>
  </g>
</svg>