<?xml version="1.0" encoding="UTF-8"?>
<svg id="subjects" xmlns="http://www.w3.org/2000/svg" viewBox="0 0 1024 1024">
  <defs>
    <style>
      .cls-1 {
        fill: #2563eb;
      }
    </style>
  </defs>
  <path class="cls-1" d="M512,890c-26.29,0-48.81-9.19-67.53-27.56-18.73-18.37-28.09-40.7-28.09-66.98s9.36-48.79,28.09-67.5c18.73-18.72,41.24-28.08,67.53-28.08l27.84-26.71c6.19-6.2,13.47-11.17,21.84-14.92,8.36-3.75,16.93-5.62,25.69-5.62,18.75,0,34.5,6.56,47.25,19.69,12.75,13.12,19.13,28.96,19.13,47.51v20.55c0,15,5.44,27.94,16.31,38.81s23.81,16.31,38.81,16.31c11.85,0,22.52-3.58,32.01-10.74,9.48-7.17,16.2-16.33,20.15-27.47l14.22-39.41c6.75-19.5,18.02-35.26,33.79-47.28,15.78-12.01,33.93-18.02,54.44-18.02,8.68-21.71,15.45-44.57,20.33-68.57,4.87-24,7.31-48.37,7.31-73.12,0-70.5-17.44-134.44-52.31-191.81-34.88-57.38-80.81-102.94-137.81-136.69v43.88c0,25.99-9.25,48.24-27.75,66.75-18.51,18.5-40.76,27.75-66.75,27.75h-47.25v95.62c0,12.75-4.69,23.81-14.06,33.19-9.38,9.37-20.44,14.06-33.19,14.06h-47.25v79.9c0,17.24-5.95,31.85-17.85,43.85-11.9,12-26.57,18-44.02,18-10.5,0-20.44-2.44-29.81-7.31-9.38-4.88-17.06-11.44-23.06-19.69l-75.47-114.75h-47.16v46.9c0,24.23-8.06,45.16-24.19,62.79-16.12,17.62-35.81,27.94-59.06,30.94,21,81.75,65.53,149.81,133.59,204.19,68.06,54.37,146.16,81.56,234.28,81.56ZM607.02,605.38c-13.1,0-24.33-4.69-33.7-14.06-9.37-9.38-14.06-20.44-14.06-33.19s4.69-23.81,14.06-33.19c9.38-9.38,20.61-14.06,33.71-14.06h46.22c13.1,0,24.33,4.69,33.71,14.06,9.38,9.38,14.06,20.44,14.06,33.19,0,12.75-4.69,23.81-14.06,33.19-9.37,9.38-20.61,14.06-33.71,14.06,0,0-46.22,0-46.21,0ZM717.18,463.62c-15.29,0-27.8-6.19-37.55-18.56s-12.16-26.03-7.23-40.95l18.48-51.86c3.75-9.75,9.45-17.44,17.09-23.06,7.64-5.62,16.05-8.44,25.23-8.44,15.29,0,27.8,6.19,37.55,18.56,9.75,12.38,12.16,26.03,7.23,40.95l-18.48,51.86c-3.75,9.75-9.45,17.44-17.09,23.06-7.64,5.63-16.05,8.44-25.23,8.44ZM512.3,962c-62.06,0-120.37-11.81-174.94-35.44-54.58-23.62-102.3-55.88-143.18-96.75-40.88-40.87-73.13-88.63-96.75-143.26-23.62-54.63-35.44-113-35.44-175.12s11.81-120.49,35.44-175.12c23.62-54.63,55.87-102.19,96.75-142.69,40.87-40.5,88.63-72.56,143.26-96.19,54.63-23.62,113-35.44,175.12-35.44s120.49,11.81,175.12,35.44c54.63,23.63,102.19,55.69,142.69,96.19,40.5,40.5,72.56,88.12,96.19,142.88,23.62,54.75,35.44,113.15,35.44,175.2s-11.81,120.37-35.44,174.94c-23.63,54.58-55.69,102.24-96.19,142.98-40.5,40.73-88.12,72.98-142.87,96.75-54.75,23.76-113.15,35.64-175.2,35.64Z"/>
</svg>