<?xml version="1.0" encoding="UTF-8"?>
<svg id="subjects" xmlns="http://www.w3.org/2000/svg" viewBox="0 0 1024 1024">
  <defs>
    <style>
      .cls-1 {
        fill: #2563eb;
      }
    </style>
  </defs>
  <path class="cls-1" d="M283.74,929.39c-6.96,0-13.48-1.74-19.57-5.22-6.09-3.48-10.87-8.26-14.35-14.35l-109.57-195.65h92.61l54.78,104.35h117.39v-39.13h-93.91l-54.78-104.35H119.39l-82.17-143.48c-1.74-3.48-3.04-6.74-3.91-9.78-.87-3.04-1.3-6.3-1.3-9.78,0-1.74,1.74-8.26,5.22-19.57l82.17-143.48h136.96l54.78-104.35h93.91v-39.13h-117.39l-54.78,104.35h-92.61l109.57-195.65c3.48-6.09,8.26-10.87,14.35-14.35,6.09-3.48,12.61-5.22,19.57-5.22h153.91c11.3,0,20.65,3.7,28.04,11.09,7.39,7.39,11.09,16.74,11.09,28.04v228.26h-110.87l-39.13,39.13h150v169.57h-127.83l-50.87-104.35h-127.83l-39.13,39.13h140.87l52.17,104.35h152.61v280.43c0,11.3-3.7,20.65-11.09,28.04-7.39,7.39-16.74,11.09-28.04,11.09h-153.91ZM575.26,902.65c-17.83-17.83-26.74-39.35-26.74-64.57,0-18.26,4.78-34.78,14.35-49.57,9.57-14.78,22.17-25.65,37.83-32.61v-487.83c-15.65-6.96-28.26-17.83-37.83-32.61-9.57-14.78-14.35-31.3-14.35-49.57,0-25.22,8.91-46.74,26.74-64.57,17.83-17.83,39.35-26.74,64.57-26.74s46.74,8.91,64.57,26.74c17.83,17.83,26.74,39.35,26.74,64.57,0,18.26-4.78,34.78-14.35,49.57-9.57,14.78-22.17,25.65-37.83,32.61v148.7l130.43-78.26c-2.61-26.96,5.22-50.43,23.48-70.43,18.26-20,40.87-30,67.83-30,25.22,0,46.74,8.91,64.57,26.74,17.83,17.83,26.74,39.35,26.74,64.57s-8.91,46.74-26.74,64.57c-17.83,17.83-39.35,26.74-64.57,26.74-9.57,0-18.7-1.3-27.39-3.91-8.7-2.61-16.52-6.09-23.48-10.43l-140.87,84.78,151.3,121.3c6.09-2.61,12.61-4.78,19.57-6.52,6.96-1.74,13.91-2.61,20.87-2.61,25.22,0,46.74,8.91,64.57,26.74,17.83,17.83,26.74,39.35,26.74,64.57s-8.91,46.74-26.74,64.57c-17.83,17.83-39.35,26.74-64.57,26.74-30.43,0-54.57-11.74-72.39-35.22-17.83-23.48-23.26-49.13-16.3-76.96l-133.04-106.96v190.43c14.78,6.96,26.96,17.61,36.52,31.96,9.57,14.35,14.35,30.65,14.35,48.91,0,25.22-8.7,46.74-26.09,64.57-17.39,17.83-38.7,26.74-63.91,26.74s-46.74-8.91-64.57-26.74Z"/>
</svg>