<?xml version="1.0" encoding="UTF-8"?>
<svg id="subjects" xmlns="http://www.w3.org/2000/svg" viewBox="0 0 1024 1024">
  <defs>
    <style>
      .cls-1 {
        fill: #2563eb;
      }
    </style>
  </defs>
  <path class="cls-1" d="M512,82c61.03,0,107.75,21.54,140.15,64.62,32.4,43.08,60.66,92.26,84.77,147.55,19.59,46.67,38.43,97.83,56.51,153.47,18.08,55.64,37.49,111.1,58.22,166.37,19.96,53.15,42.19,103.59,66.67,151.34,24.49,47.75,52.56,89.21,84.21,124.39,6.03,7.18,9.04,14.72,9.04,22.62s-3.01,14.72-9.04,20.46c-6.03,5.74-13.56,8.8-22.61,9.15-9.04.36-17.33-2.33-24.87-8.08-61.79-45.23-110.01-96.03-144.67-152.39-34.66-56.36-72.04-105.22-112.13-146.58-26.21-27.57-54.51-49.61-84.87-66.13-30.37-16.51-64.09-24.77-101.16-24.77s-70.87,8.26-101.39,24.77c-30.52,16.51-58.88,38.56-85.1,66.13-40.09,41.36-77.47,90.21-112.13,146.58-34.66,56.36-82.89,107.16-144.67,152.39-7.54,5.74-15.82,8.44-24.87,8.08-9.04-.36-16.58-3.41-22.61-9.15-6.03-5.74-9.04-12.56-9.04-20.46s3.01-15.44,9.04-22.62c31.65-35.18,59.72-76.65,84.21-124.39,24.49-47.75,46.71-98.19,66.67-151.34,20.73-55.27,40.14-110.73,58.22-166.37,18.08-55.64,36.92-106.8,56.51-153.47,23.13-55.16,51.14-104.32,84.04-147.46,32.89-43.14,79.85-64.7,140.89-64.7ZM414.23,198.85c-22.98,34.82-43.14,71.26-60.47,109.31-24.87,53.85-46.15,110.03-63.86,168.55-17.71,58.52-37.11,114.7-58.21,168.55,19.56-24.47,38.39-46.02,56.49-64.66,18.1-18.64,36.57-34.78,55.41-48.42,26.37-17.95,52.93-31.23,79.68-39.85,26.75-8.62,56.33-12.92,88.73-12.92s61.98,4.31,88.73,12.92c26.75,8.62,53.31,21.9,79.68,39.85,18.84,13.64,37.31,29.78,55.41,48.42,18.1,18.64,36.93,40.19,56.49,64.66-21.1-53.85-40.5-110.03-58.21-168.55-17.71-58.52-38.99-114.7-63.86-168.55-17.33-38.05-37.49-74.49-60.47-109.31s-55.57-52.23-97.77-52.23-74.79,17.41-97.77,52.23Z"/>
</svg>