<?xml version="1.0" encoding="UTF-8"?>
<svg id="prim-subjects" xmlns="http://www.w3.org/2000/svg" viewBox="0 0 1024 1024">
  <defs>
    <style>
      .cls-1 {
        fill: #0d9488;
      }
    </style>
  </defs>
  <g id="pref">
    <g>
      <g>
        <rect class="cls-1" x="680.92" y="98.5" width="244.58" height="203.76"/>
        <path class="cls-1" d="M904,120v160.76h-201.58V120h201.58M947,77h-287.58v246.76h287.58V77h0Z"/>
      </g>
      <g>
        <polygon class="cls-1" points="200.95 925.5 200.95 769.56 98.5 769.56 98.5 601.16 301.88 601.16 301.88 925.5 200.95 925.5"/>
        <path class="cls-1" d="M280.38,622.66v281.34h-57.93v-155.94h-102.45v-125.4h160.38M323.38,579.66H77v211.4h102.45v155.94h143.93v-367.34h0Z"/>
      </g>
      <g>
        <rect class="cls-1" x="399.23" y="834.01" width="151.15" height="91.49"/>
        <path class="cls-1" d="M528.88,855.51v48.49h-108.15v-48.49h108.15M571.88,812.51h-194.15v134.49h194.15v-134.49h0Z"/>
      </g>
      <g>
        <polygon class="cls-1" points="859.26 925.5 859.26 819.57 722.99 819.57 722.99 925.5 646.65 925.5 646.65 732.7 399.23 732.7 399.23 601.16 680.92 601.16 680.92 396.61 925.5 396.61 925.5 925.5 859.26 925.5"/>
        <path class="cls-1" d="M904,418.11v485.89h-23.24v-105.93h-179.27v105.93h-33.34v-192.8h-247.42v-88.53h281.69v-204.55h201.58M947,375.11h-287.58v204.55h-281.69v174.53h247.42v192.8h119.34v-105.93h93.27v105.93h109.24V375.11h0Z"/>
      </g>
    </g>
  </g>
</svg>