<?xml version="1.0" encoding="UTF-8"?>
<svg id="prim" xmlns="http://www.w3.org/2000/svg" viewBox="0 0 1024 1024">
  <defs>
    <style>
      .cls-1 {
        stroke-miterlimit: 10;
        stroke-width: 50px;
      }

      .cls-1, .cls-2 {
        fill: none;
        stroke: #0d9488;
      }

      .cls-2 {
        stroke-linejoin: round;
        stroke-width: 30px;
      }
    </style>
  </defs>
  <g id="prim-subjects">
    <g id="waku">
      <g>
        <path class="cls-2" d="M498.52,412.68c10.57-8.24,25.88-6.27,34.03,4.3,8.24,10.57,6.27,25.88-4.3,34.12-10.57,8.24-25.88,6.27-34.03-4.3-8.24-10.57-6.27-25.88,4.3-34.12Z"/>
        <path class="cls-2" d="M397.32,507.79c-4.57-12.63,1.97-26.51,14.6-31.08,12.63-4.57,26.51,1.97,31.08,14.6,4.57,12.63-1.97,26.51-14.6,31.08-12.63,4.57-26.51-1.97-31.08-14.6Z"/>
        <path class="cls-2" d="M456.52,633.35c-13.43.45-24.63-10.12-25.08-23.55-.45-13.43,10.12-24.63,23.55-25.08,13.43-.45,24.63,10.12,25.08,23.55.45,13.43-10.12,24.63-23.55,25.08Z"/>
        <path class="cls-2" d="M532.82,554.45c-13.88,10.75-33.76,8.24-44.51-5.64-10.75-13.88-8.24-33.76,5.64-44.51,13.88-10.75,33.76-8.24,44.51,5.64,10.75,13.88,8.24,33.76-5.64,44.51Z"/>
        <path class="cls-2" d="M594.26,615.79c-3.76,12.9-17.19,20.33-30.09,16.57-12.9-3.76-20.33-17.19-16.57-30.09,3.76-12.9,17.19-20.33,30.09-16.57,12.9,3.76,20.33,17.19,16.57,30.09Z"/>
        <path class="cls-2" d="M626.59,513.07c-7.52,11.1-22.66,13.97-33.76,6.45-11.1-7.52-13.97-22.66-6.45-33.76,7.52-11.1,22.66-13.97,33.76-6.45,11.1,7.52,13.97,22.66,6.45,33.76Z"/>
      </g>
      <path class="cls-1" d="M955.16,362.35l-.9-1.07c-28.66-32.51-72.99-55.17-124.66-63.94-51.67-8.78-105.05-2.6-150.27,17.46,5.1-49.17-5.46-101.91-29.82-148.48-24.36-46.48-59.64-81.58-99.32-98.78l-1.34-.54-36.63,42.18-36.63-42.18-1.34.54c-39.76,17.19-75.05,52.3-99.32,98.78-24.36,46.48-34.93,99.14-29.82,148.3-45.23-20.06-98.6-26.24-150.36-17.46-51.67,8.78-96,31.52-124.66,63.94l-.9,1.07,28.75,47.82-51.4,21.76.18,1.43c4.12,43.17,26.6,87.5,63.23,125.02,36.72,37.52,83.47,63.85,131.83,74.24-33.05,36.81-55.43,85.7-63.14,137.65-7.61,51.85.27,101.02,22.3,138.36l.72,1.25,54.36-12.63,4.84,55.61,1.34.27c11.82,2.6,24.18,3.94,36.81,3.94,32.78,0,67.7-8.69,101.65-25.43,47.02-23.28,86.51-59.64,111.32-102.45,24.81,42.81,64.39,79.26,111.41,102.54,33.85,16.84,68.87,25.43,101.65,25.43,12.72,0,25.08-1.34,36.81-3.94l1.34-.27,4.84-55.61,54.36,12.63.72-1.25c22.03-37.34,29.91-86.42,22.3-138.36-7.61-51.94-30-100.75-63.05-137.56,48.36-10.39,95.2-36.72,131.91-74.24,36.72-37.52,59.11-81.85,63.23-125.02v-1.43l-51.32-21.76,29.02-47.82Z"/>
    </g>
  </g>
</svg>