<?xml version="1.0" encoding="UTF-8"?>
<svg id="prim-subjects" xmlns="http://www.w3.org/2000/svg" viewBox="0 0 1024 1024">
  <defs>
    <style>
      .cls-1 {
        fill: #0d9488;
      }
    </style>
  </defs>
  <g id="spec">
    <g>
      <g id="_レイヤー_2" data-name=" レイヤー 2">
        <g>
          <path class="cls-1" d="M818.48,657.68s-48.72,31.55-95.04,19.14c-46.32-12.41-72.76-64.1-72.76-64.1,0,0,48.72-31.55,95.04-19.14,46.32,12.41,72.76,64.1,72.76,64.1Z"/>
          <g>
            <path class="cls-1" d="M554.77,816.39h0c-14.55-11.1-32.69-17.78-52.39-17.78-47.8,0-86.7,38.89-86.7,86.7s38.89,86.7,86.7,86.7,86.7-38.89,86.7-86.7c0-28.1-13.5-53.05-34.3-68.91Z"/>
            <path class="cls-1" d="M725.32,798.61c-10.84,0-21.15,2.1-30.68,5.72h0c-32.69,12.41-56.02,44-56.02,80.97,0,47.8,38.89,86.7,86.7,86.7s86.7-38.89,86.7-86.7-38.89-86.7-86.7-86.7Z"/>
            <path class="cls-1" d="M667.24,805.12c6.69-4.85,13.98-8.87,21.76-11.97-8.74-17.65-17.13-36.05-23.55-53.09-22.59-60.08-39.24-153.25-39.42-154.21h-24.38c-.17.92-16.87,94.12-39.42,154.21-6.38,17-14.77,35.44-23.55,53.09,7.78,3.06,15.08,7.12,21.76,11.97,9.22-18.53,18.09-38.06,24.95-56.33,11.49-30.54,21.32-68.39,28.45-99.46,7.12,31.07,16.95,68.91,28.45,99.46,6.86,18.27,15.77,37.75,24.95,56.33Z"/>
          </g>
        </g>
      </g>
      <g id="_レイヤー_2-2" data-name=" レイヤー 2">
        <g>
          <circle class="cls-1" cx="144.13" cy="461.71" r="61.54"/>
          <circle class="cls-1" cx="289.56" cy="461.71" r="61.54"/>
          <circle class="cls-1" cx="435.05" cy="461.71" r="61.54"/>
          <circle class="cls-1" cx="216.7" cy="591.28" r="61.54"/>
          <circle class="cls-1" cx="362.43" cy="591.28" r="61.54"/>
          <circle class="cls-1" cx="289.56" cy="720.8" r="61.54"/>
          <polygon class="cls-1" points="358.87 298.15 220.46 298.15 220.46 326.58 275.6 326.58 275.6 381.47 303.78 381.47 303.78 326.58 358.87 326.58 358.87 298.15"/>
        </g>
      </g>
      <g id="_レイヤー_2-3" data-name=" レイヤー 2">
        <g>
          <path class="cls-1" d="M929.91,72.41s-24.47,47.9-67.47,59.41c-42.95,11.5-88.12-17.73-88.12-17.73,0,0,24.47-47.9,67.47-59.41,42.95-11.5,88.12,17.73,88.12,17.73Z"/>
          <path class="cls-1" d="M821.14,147.05c-28.43,0-54.17,7.31-68.98,11.08-3.21-34.7,3.87-68.18,15.51-91.28h-40.08c-6.03,21.83-6.88,61.53-3.16,89.91-15.23-3.96-38.38-9.71-63.65-9.71-80.2,0-120.23,65.16-120.23,132.82,0,53.14,21.55,121.36,53.84,161.34,32.25,39.98,53.75,53.28,79.78,53.28s40.12-9.48,66.81-9.48,40.78,9.48,66.81,9.48,47.53-13.3,79.78-53.28c32.25-39.98,53.84-108.21,53.84-161.34,0-67.66-40.03-132.82-120.23-132.82h-.05Z"/>
        </g>
      </g>
    </g>
  </g>
</svg>