<?xml version="1.0" encoding="UTF-8"?>
<svg id="prim-subjects" xmlns="http://www.w3.org/2000/svg" viewBox="0 0 1024 1024">
  <defs>
    <style>
      .cls-1 {
        fill: #0d9488;
      }
    </style>
  </defs>
  <g id="tokyo">
    <g id="_レイヤー_2" data-name=" レイヤー 2">
      <path class="cls-1" d="M604.98,105.93c37.32,8.86,73.04,23.04,106.48,42.3,39.93,23,75.36,52.49,105.3,87.65,30.14,35.39,53.66,75.3,69.91,118.6,11.31,30.15,18.87,61.39,22.61,93.34-186.39,20.74-340.46,150.11-397.3,323.17-56.81-173.07-210.85-302.43-397.24-323.17,3.74-31.95,11.3-63.2,22.61-93.35,16.24-43.3,39.76-83.21,69.9-118.6,29.94-35.16,65.36-64.66,105.28-87.65,33.42-19.26,69.12-33.44,106.42-42.29l57.67,57.67,35.36,35.36,35.36-35.36,57.67-57.67M588.61,51.59l-76.66,76.66-76.66-76.66C223.34,87.91,62,272.5,62,494.91c233.89,0,423.44,189.54,423.44,423.44v54.06h53.03v-53.97c0-233.89,189.64-423.53,423.53-423.53,0-222.41-161.34-407-373.39-443.32h0Z"/>
    </g>
  </g>
</svg>