<?xml version="1.0" encoding="UTF-8"?>
<svg id="logo" xmlns="http://www.w3.org/2000/svg" xmlns:xlink="http://www.w3.org/1999/xlink" viewBox="0 0 4800 1024">
  <defs>
    <style>
      .cls-1 {
        mask: url(#mask-1);
      }

      .cls-2 {
        fill: #fff;
      }

      .cls-3 {
        mask: url(#mask);
      }

      .cls-4 {
        stroke-width: 125px;
      }

      .cls-4, .cls-5, .cls-6 {
        stroke: #fff;
      }

      .cls-4, .cls-5, .cls-6, .cls-7 {
        fill: none;
        stroke-miterlimit: 10;
      }

      .cls-8 {
        filter: url(#luminosity-noclip-2);
      }

      .cls-5 {
        stroke-width: 60px;
      }

      .cls-6 {
        stroke-width: 95px;
      }

      .cls-9 {
        mask: url(#mask-2);
      }

      .cls-10 {
        filter: url(#luminosity-noclip-3);
      }

      .cls-7 {
        stroke: #000;
        stroke-width: 10px;
      }

      .cls-11 {
        filter: url(#luminosity-noclip);
      }
    </style>
    <filter id="luminosity-noclip" x="2843.85" y="124.47" width="1178.73" height="556.09" color-interpolation-filters="sRGB" filterUnits="userSpaceOnUse">
      <feFlood flood-color="#fff" result="bg"/>
      <feBlend in="SourceGraphic" in2="bg"/>
    </filter>
    <mask id="mask" x="2843.85" y="124.47" width="1178.73" height="556.09" maskUnits="userSpaceOnUse">
      <g class="cls-11">
        <polygon points="3756.17 452.62 3756.17 448.87 3750.93 451.75 3756.17 452.62"/>
      </g>
    </mask>
    <filter id="luminosity-noclip-2" x="2843.85" y="124.47" width="1178.73" height="556.09" color-interpolation-filters="sRGB" filterUnits="userSpaceOnUse">
      <feFlood flood-color="#fff" result="bg"/>
      <feBlend in="SourceGraphic" in2="bg"/>
    </filter>
    <mask id="mask-1" x="2843.85" y="124.47" width="1178.73" height="556.09" maskUnits="userSpaceOnUse">
      <g class="cls-8">
        <polyline points="3756.17 478.95 3760.59 476.51 3761.95 482.47 3755.07 482.47 3756.17 478.95"/>
      </g>
    </mask>
    <filter id="luminosity-noclip-3" x="4109.05" y="375.71" width="95" height="416.04" color-interpolation-filters="sRGB" filterUnits="userSpaceOnUse">
      <feFlood flood-color="#fff" result="bg"/>
      <feBlend in="SourceGraphic" in2="bg"/>
    </filter>
    <mask id="mask-2" x="4109.05" y="375.71" width="95" height="416.04" maskUnits="userSpaceOnUse">
      <g class="cls-10">
        <line class="cls-7" x1="4156.55" y1="376.75" x2="4156.55" y2="791.75"/>
      </g>
    </mask>
  </defs>
  <g id="ume">
    <g id="bl">
      <g id="text">
        <g>
          <g class="cls-3">
            <g class="cls-1">
              <g id="_1c" data-name="1c">
                <g>
                  <g>
                    <path class="cls-2" d="M2997.94,644.72l33.02-23.68v-23.36h17.76v43.2l-6.38,4.48v-.7l-44.4,31.74v-31.68ZM3132.28,644.66v.06l-6.38-4.48v-42.56h17.76v23.36l33.02,23.68v31.68l-44.4-31.74ZM2994.07,573.35v-28.16h35.06v-63.36h-30.51v-28.16h30.51v-40.96h17.76v40.96h80.38v-40.96h17.76v40.96h30.97v28.16h-30.97v63.36h35.52v28.16h-186.48ZM3046.89,545.19h80.38v-63.36h-80.38v63.36Z"/>
                    <path class="cls-2" d="M3237.7,645.36l71.5-56.96v-61.76h-83.79v-28.16h168.04v28.16h-66.49v81.6l-6.38,5.12v-1.43l-82.88,66.08v-32.64ZM3236.79,460.07v-28.16h145.27v28.16h-145.27Z"/>
                    <path class="cls-2" d="M3440.13,638.32l33.47-57.92-20.26-35.28v1.68l-6.38-11.2v-70.08h-8.65v-28.16h38.71v-27.52h17.76v27.52h38.94v28.16h-8.65v70.08l-6.38,10.88v-1.23l-20.49,35.16,33.7,57.92v42.24l-45.99-79.04-45.77,79.04v-42.24ZM3464.72,522.79l21.18,36.48,21.4-36.48v-57.28h-42.58v57.28ZM3555.8,674.16v-28.16h38.02v-171.84h-53.28v-28.16h53.28v-35.2h17.76v35.2h15.03l.46,28.16h-15.48v200h-55.78ZM3563.99,595.75v-20.16l-20.49-22.4v-39.36l31.88,35.31v-.75l6.38,7.04v40.32h-17.76Z"/>
                    <path class="cls-2" d="M3744.56,674.8v-43.84l-84.47,40.64v-30.72l84.47-40.64v-36.48h-59.88v45.12h-17.76v-73.28h77.64v-12.8h-84.47v-28.16h84.47v-12.16h11.61v-30.72h-5.2l20.23-11.2v-30.08h17.76v13.12h57.61v28.16h-22.09v25.28h-17.76v-25.28h-17.76v9.28l-6.38,3.52v-.21l-22.61,12.51,1.45,5.62h.89v12.16h84.25v28.16h-84.25v12.8h77.42v73.28h-46.38l-.07.3v-28.46h28.69v-16.96h-59.66v36.48l84.25,40.64v30.72l-84.25-40.64v43.84h-17.76ZM3660.08,448.87l15.03-8.32v-30.08h17.76v13.12h58.06v28.16h-22.54v25.28h-17.76v-25.28h-17.76v9.28l-6.38,3.52v-.21l-26.41,14.61v-30.08Z"/>
                    <rect class="cls-2" x="3894.61" y="522.47" width="127.96" height="28.16"/>
                  </g>
                  <g>
                    <rect class="cls-2" x="2843.85" y="224.31" width="127.96" height="28.16"/>
                    <polygon class="cls-2" points="3040.8 353.27 3040.8 146.23 3007.33 146.23 3007.33 124.47 3058.56 124.47 3058.56 353.27 3040.8 353.27"/>
                    <polygon class="cls-2" points="3130.97 353.27 3100.46 328.77 3100.46 328.95 3094.08 323.51 3094.08 153.91 3100.46 148.79 3100.46 148.97 3130.97 124.47 3185.16 124.47 3215.45 149.01 3215.45 148.79 3221.82 153.91 3221.82 196.79 3204.06 196.79 3204.06 172.47 3179.7 152.63 3136.44 152.63 3111.84 172.47 3111.84 304.95 3136.44 325.11 3179.7 325.11 3204.06 304.95 3204.06 277.43 3221.82 277.43 3221.82 323.51 3215.45 328.95 3215.45 328.73 3185.16 353.27 3130.97 353.27"/>
                    <rect class="cls-2" x="3257.57" y="124.47" width="17.76" height="228.8"/>
                    <path class="cls-2" d="M3311.08,353.27v-183.04h17.76v183.04h-17.76ZM3311.08,149.75v-25.28h17.76v25.28h-17.76Z"/>
                    <polygon class="cls-2" points="3393.5 353.27 3375.97 338.87 3375.97 338.73 3364.59 329.59 3364.59 193.91 3375.97 184.77 3375.97 184.63 3393.5 170.23 3437.91 170.23 3455.67 184.63 3455.67 184.77 3467.05 193.91 3467.05 231.99 3449.29 231.99 3449.29 211.83 3432.67 198.39 3398.97 198.39 3382.35 211.83 3382.35 311.67 3398.97 325.11 3432.67 325.11 3449.29 311.67 3449.29 288.95 3467.05 288.95 3467.05 329.59 3455.67 338.73 3455.67 338.87 3437.91 353.27 3393.5 353.27"/>
                    <polygon class="cls-2" points="3587.05 353.27 3544.47 249.27 3521.24 268.15 3521.24 353.27 3503.48 353.27 3503.48 124.47 3521.24 124.47 3521.24 235.51 3587.73 181.43 3587.73 170.23 3605.49 170.23 3605.49 199.67 3594.1 208.81 3594.1 208.95 3561.77 235.19 3610.27 353.27 3587.05 353.27"/>
                  </g>
                </g>
              </g>
            </g>
          </g>
          <g>
            <path class="cls-2" d="M257.81,280h-68.6v-79.2h68.6v-122.4h15.88v593.1l-85.05,135v-112.5l69.17-109.8v-304.2ZM302.04,200.8h149.68l43.66,40.5v510.3l-43.66,40.5h-69.74v-79.2h56.13l41.39-37.8v-357.3l-41.39-37.8h-136.07v350.1l-15.88,25.2V78.4h15.88v122.4ZM587.22,385.3h-15.88v-161.1l-63.5-55.8v-91.8l79.38,69.3v239.4ZM523.72,725.5l-15.88,14.4V252.1l15.88,15.3v458.1ZM615.57,385.3h-15.88v-227.7l15.88,14.4v213.3Z"/>
            <path class="cls-2" d="M811.17,83.8h15.88v708.29h-15.88V241.3h-55.56v-79.2h55.56v-78.3ZM855.4,162.1h329.41v79.2h-329.41v550.8h-15.88V83.8h15.88v78.3ZM1145.69,498.7h-15.88v-72h-208.65v-79.2h224.52v151.2ZM921.17,709.3v-120.6h15.88v135l-15.88-14.4ZM965.39,657.1l61.23,55.8h145.14v79.2h-158.75l-63.5-56.7v-146.7h15.88v68.4ZM1174.04,498.7h-15.88v-132.3l15.88,25.2v107.1Z"/>
            <path class="cls-2" d="M1751.78,205.3h-59.53l-244.36,225v225.9l60.67,55.8h177.46v79.2h-191.07l-62.93-56.7v-381.6l160.45-147.6h-269.88v-79.2h429.2v79.2ZM1403.66,708.4v-329.4l15.88-14.4v358.2l-15.88-14.4Z"/>
            <path class="cls-2" d="M1900.33,801.09v-97.2l323.74-375.3v-140.4h-306.73v-79.2h322.61v298.8l-93.55,108.9,161.59,187.2v97.2l-202.41-235.8-205.24,235.8ZM2268.29,375.4l-15.88,18.9V109h15.88v266.4Z"/>
            <path class="cls-2" d="M2525.69,792.09V82h15.88v710.09h-15.88ZM2569.92,333.1l269.31,72v81l-269.31-71.1v377.1h-15.88V82h15.88v251.1Z"/>
          </g>
        </g>
      </g>
      <g id="katate">
        <g id="katate-2" data-name="katate">
          <line id="ude" class="cls-4" x1="82.5" y1="915.87" x2="4717.5" y2="915.87"/>
          <g id="hira">
            <line class="cls-5" x1="4687.53" y1="897.71" x2="4687.53" y2="317.71"/>
            <line class="cls-5" x1="4308.65" y1="649.27" x2="4308.65" y2="107.6"/>
            <line class="cls-5" x1="4434.94" y1="649.27" x2="4434.94" y2="49.27"/>
            <line class="cls-5" x1="4561.24" y1="649.27" x2="4561.24" y2="132.6"/>
            <g class="cls-9">
              <line class="cls-6" x1="4156.55" y1="790.71" x2="4156.55" y2="375.71"/>
            </g>
          </g>
        </g>
      </g>
    </g>
  </g>
</svg>