<?xml version="1.0" encoding="UTF-8"?>
<svg id="_レイヤー_1" data-name="レイヤー_1" xmlns="http://www.w3.org/2000/svg" version="1.1" viewBox="0 0 971.2 1118.4">
  <!-- Generator: Adobe Illustrator 30.5.1, SVG Export Plug-In . SVG Version: 2.1.4 Build 3)  -->
  <defs>
    <style>
      .st0 {
        stroke: #1e293b;
        stroke-linejoin: round;
        stroke-width: 1.1px;
      }

      .st0, .st1 {
        fill-opacity: 0;
      }

      .st2 {
        fill: #94a3b8;
        font-family: KozGoPr6N-Regular-90ms-RKSJ-H, 'Kozuka Gothic Pr6N';
      }

      .st2, .st3 {
        font-size: 13px;
        isolation: isolate;
      }

      .st4 {
        fill: #64748b;
      }

      .st1 {
        fill: #dc2626;
      }

      .st3 {
        fill: #fff;
        font-family: Arial-BoldMT, Arial;
        font-weight: 700;
      }

      .st5 {
        fill: none;
        stroke: #cbd5e1;
        stroke-dasharray: 4 3;
      }
    </style>
  </defs>
  <g data-mapno="1">
    <path class="st0" d="M944.6,18.2l14.8-16.7,8.7-.9,2.6,2.7-3,3.9,2.2,4.1-1.7,3.7-9.6.2-6.9,5.4-9,2.7-18.6,17-5.9.8-2.6-3.7-3.9,1-2.2,9.1-12.4,9.2-6.1,9.8-6,.5-6,8.8-4.2-1.3,4.3-7.2-.3-5.3,2.2,3.7.6-5.4,4.1,1.4,4.1-3.4.6-5-3.2-.3-.8-3.5,6,1.1,1.5-4.3,11.7-8.6-.8-7.5,7.6,2,3.6-7.6,6.4-2-1.1-9.3,3.5-5,5.5,11.4,13.2-1,1.1-.5ZM625.2,25.8l3.1-18.4,2.9,3.7,4.3-.6,4.7-7.3,2.7-.2,26,30.5,7.3,14.8,15.9,18.9,23.6,18.6,17.7,7.6,17.8,3.1,2.3,8.5,3.5,1.9,20,1.5,18.7-17.3,6.8-10,1.4,5.8-12.7,24-1.3,9.2,3.6,6.9,9.3,3.9-2.4,2.3,1.9-2.4-6.3-2.3,3.4,13.2,5.4,8.3,5.1,1.7,8-8.2,7.1,1.5-11.4,5.5-2.3,7.7-5.5-1.3-12.3,2.8-2.6,6.3-5.1,4h-4.9c0,0-3.7-4.8-3.7-4.8l-3.6,5,2.5,3.1-15.6-.8-8.3-3.8-16.6,8.3-15.1,15-10.7,16.1-5.7,29.7-13.5-12.3-23-10-28.6-20.2-11.3-2.4,2.9-2-16.2,7.4-16.5,15.5-3.3-2.3,3.6-.6-4.2-1.5-9.8-13.6-11.5-.2-7.2,10.6-1.3,10.8,12.2,8.6h10.1l9.4,12.6,7.2,2.8,3.5,4.6-10.3,5.7-9.1-4-3.5,2.1.9-4-3.5-.9-2.1,4.7-7.3,3.7-1.8,10.6-7,2.2-2.8,5.3-5.3-1.1-2.9-2.9-2.1-9,4.2-12.7,2.4-1,.5-9.7-5-8.8-5-1.3-6.9-8,3.7-13-1.5-9.7,4.9-4.8,5.7-.3,6.6-8.6,2.9,3.7,2.8-.6,4-9.3,6.3-4.3-9.4-15,1-7.3,3.7.3,3-2.9,14.3,11.7,10.7-2.9-.3,3.1,7,3.1,6-3.5,6.5-8.4-4.4-25.9,2.6-5.4,8.2-3.5,4.1-5.6v-24.3l4.7-7.8,1.9-10.1-1.9-18.2-7.7-20.7-.2-.5ZM599.4,19.2l-3.1-12.6,4.7,2.7-1.3,9.9h-.3ZM605.1,22.6l2.2-2.4,5.3,3.4,1,3.9-2.4,3-5.4-2-1.2-5.7.5-.2ZM880.1,60.9h.2-.2ZM822.1,99.7l18-29.4,9.7,6,11.4-2.5-4.1,6.8-2.6-1.5-6.3,6.5-8.7.8-3.4,5.3-4.6,2-7.8,14.5-9,4.2-2.5,13.8.3-4.8h-5.7l-.9-7.2,16.2-14.2v-.3ZM617.9,75.6l-2.1-.3,2.2.2h-.1ZM611.7,76.6l1.6-1.9-.3,1.8h-1.3ZM864.4,123.4l-2.7-6.9,7.6-.8-1-1.9,4.6-2.8,4.3,2.8-.7,2.7-11.8,6.9h-.3ZM874.2,117.6h.1c0-.1-.1,0-.1,0ZM871.2,120.6l.3-.2-.3.2ZM867.7,121.4v-.3c0,0,0,.3,0,.3ZM866.9,122.1l.2-.2-.2.2ZM850.7,128.8l-4.1-.7,2.2-1.4,1.9,1.8v.3ZM798.2,131.9h.3-.3ZM853.2,132.1l-.2-.3.2.3ZM802.2,132.1h.1c0,0-.1,0-.1,0ZM839.4,139.3l-2.6-4.3,6.9-.6-4.1,4.7-.2.2ZM829.2,141.9l-2-2.5h4.3l-2.2,2.5h-.1ZM835.9,142.9l2.6-3.1-2.2,2.9-.4.2ZM841.7,142.1l.2-.3-.2.3ZM841.1,142.4l.3-.3v.2h-.3ZM828.7,144.3h.2c0-.1-.2,0-.2,0ZM833.9,145.4h.5-.5ZM815.4,154.4h.3c0-.1-.3,0-.3,0ZM814.9,155.6l.2-.2-.2.2ZM792.7,164.4l2.2-.5-1.7.5h-.5ZM791.4,165.9l.3-.2-.3.2ZM780.4,172.3h.3-.3ZM524.7,229.6l-2-8,7.2-4.8-5,12.5-.2.3ZM519.6,264.9l1.5-1.9-1.4,1.9h0ZM541.2,273.8h.1-.1ZM641.2,2.3v.2-.2ZM596.2,5.6h-.2.2ZM522.4,221.6v.2-.2Z"/>
    <circle class="st4" cx="660.2" cy="162.9" r="9"/>
    <text class="st3" transform="translate(655.9 168)"><tspan x="0" y="0">1</tspan></text>
    <circle class="st1" cx="614.2" cy="164.8" r="5"/>
  </g>
  <g data-mapno="2">
    <path class="st0" d="M593.7,261.3v-.2c.1,0,0,.2,0,.2ZM630.1,330.1l-6.4,6.2-4.8-1.5-4.4,2.8-1.5-2.7-14.8,9.7-2.8-2.5,1.9-10.5-5.9-.7.9-4.6-10.7,6.7-3.1-2-1.3,2.5-8.2-5.6-3.7,3.1-12.1-1.9-1.5,3-4-.6.3-7.5-3.9-3.9,6.6-8.3h5.8c0,.1,5.9-3.1,5.9-3.1l3.5-15.6-3.5-5.5,3.1-.2,1.3-7.8,5.9,4.8,3.9-2.8,4.4,3,.9,14.5,3.4,7.4,6-3.5,1-7.7,10.6,8.7,2.8-1.1,5.4-16.7-4.3-7.7-6.3,5.9-13.6,2.4,6.9-25.3,16.7,12.1,9.4-4.6-3.5,16.2,1.1,26.1,3.4,12.2,4.3,1,4.7,5.4.2.2ZM592.2,295.3l-.3-.4.3.4ZM591.1,300.3h-.1v-.2c.1,0,.1.2.1.2Z"/>
    <circle class="st4" cx="589.4" cy="308" r="9"/>
    <text class="st3" transform="translate(585 313)"><tspan x="0" y="0">2</tspan></text>
    <circle class="st1" cx="585.7" cy="307" r="5"/>
  </g>
  <g data-mapno="3">
    <path class="st0" d="M630.1,330.1l6.8,12.3-1.5,3.9,4,2.8-2.1,4.3,6.2,7.4,1.9,12.4-2.8,9.9,3.7-4,2.3,6.6-5.4,5.5,4.8-.6-7.6,8.2,4.7-1-5.3,3,2.1,2.1-1.8,1.4,3.7-.2-4.9,2.5,2.5,1.8-3.9,1.8,3.9,2.6-5.1-.4,2.8,2.4-2.6.8,1.7,1.8-5.7.6-.2-3.2-1,8.1-1.4-3.9-2.1,1.9-6.7-1.6-2.5,13.1-6-2.5-4.4,4.5-5.3-4.5,1.6-3.3h-7.2c0,.1-10-4.9-10-4.9l1.6-5.9-2.7-5.1,2.7-2.4-7.3-12.9,7.9-15.9-2.2-5.2,3.4-3.7-3.1-4.3,4.6-.5-.9-18.4,4-4.6,3.3,1.8,14.4-9.7,1.5,2.7,4.4-2.8,4.8,1.5,6.3-6.1h.1ZM644.7,378.5v-.2.2ZM644.9,395h.1c0-.1-.1,0-.1,0ZM644.4,400.9v-.2.2ZM631.4,423h0c0-.1.1,0,.1,0h-.1Z"/>
    <circle class="st4" cx="623.6" cy="389.9" r="9"/>
    <text class="st3" transform="translate(619.2 394.8)"><tspan x="0" y="0">3</tspan></text>
    <circle class="st1" cx="605.2" cy="376.3" r="5"/>
  </g>
  <g data-mapno="4">
    <path class="st0" d="M627.7,421l2.1,6.8-4.4-3.1,1,5-4.1,2.9,2,5.5-1.6-1.7-3.8,2.6v2l4,.3-3.4,3.6,1.8,2.8,1.7-1.1.2,3.7-3.1-2,1.9,4.4-3.1.4,1.2,2.9,3.2-.4-2.6,1.5,2.3,2.1-.4,4.1-5.5-7.9-6.7-1.1-5,3.4.9,2.7-2.2-3.5-3.2.5-1.9,3,2.9,1.7-4.1,1.2,2.2.4-5.6,10.7.2,11.5-3.6.3v5.7c-.1,0-3.8-.8-3.8-.8l.9,2.2-4.7-1.9-1.6-5.8h-8.3l-1.1-3.2-8.8-1.6.3-4.7,6.6-1.7,2.4-11,7-11.2-3.8-10.7,2.9-.4,2.1-7.7-4.6-7.3,4.3.3,8.8-4.9,7.6,5.3h7.2c0-.1-1.6,3.2-1.6,3.2l6.1,4.6,3.6-4.6,6,2.5,2.5-13.1,6.6,1.6h0ZM627.4,429.5v-3.4c0,0,0,3.1,0,3.1v.3ZM622.1,446.5l.3-.3-.3.3ZM622.7,453.3l-.6-1.7.8,1.7h-.2ZM625.9,455.9l.2-.2-.2.2ZM626.2,456.5l.2-.2-.2.2ZM617.9,457v-.3c.1,0,0,.3,0,.3ZM601.2,457.6v-.2.2c.1,0,0,0,0,0ZM601.9,457.8h.1c0-.1-.1,0-.1,0ZM601.6,457.8h0c0-.1,0,0,0,0h0ZM605.4,458.4h.3-.3ZM603.7,458.6v-.3h.1v.3ZM603.2,458.9h.2-.2ZM603.7,458.6h-.2v-.3l.2.3ZM603.7,460v-.2c.1,0,0,.2,0,.2ZM603.2,459.8v-.3.3ZM603.2,459.1v-.2h.2l-.2.2ZM600.4,459.5h0v-.2c0,0,0,.2,0,.2ZM602.9,459.9v-.3c0,0,0,.3,0,.3ZM601.2,460h.1-.1ZM605.4,460.5v-.2.2ZM624.9,463.4l-.3-2.5.5,2.5h-.2ZM617.2,462.5h.2c0-.1-.2,0-.2,0ZM621.6,464.8l-1.9-2.1,1.7,1.8.2.3Z"/>
    <circle class="st4" cx="605.2" cy="449.6" r="9"/>
    <text class="st3" transform="translate(600.8 454.7)"><tspan x="0" y="0">4</tspan></text>
    <circle class="st1" cx="591.9" cy="463.5" r="5"/>
  </g>
  <g data-mapno="5">
    <path class="st0" d="M595.7,342.8l-4.5,4.7.9,18.4-4.6.5,3.1,4.3-3.4,3.7,2.2,5.2-7.9,15.9,6.3,9.3-1,2.5,2,1.2-2.6,5.5,2.6,1.9-1.6,5.9-10.1,5.2-4.7-2.7-1.4-4.5-13.2-3.5-4.3-5.2-9.1.9,7.5-18.2,1.5-19.1-5.5-10-8.8,2.3-3-8.7,5,2.5,5.5-4.5,5.3-18.3-4.3-6.4,4,.6,1.5-3,8,2.2,9.7-3.1,6.3,5.3,1.3-2.5,2.1,2,4.8-.7,6.9-6-.9,4.6,5.9.7-1.5,10.9v.2ZM536.4,357.4v-.2c.1,0,0,.2,0,.2ZM552.6,373v-.2.2ZM528.1,407.9v.2-.2Z"/>
    <circle class="st4" cx="571.1" cy="371.4" r="9"/>
    <text class="st3" transform="translate(566.7 376.3)"><tspan x="0" y="0">5</tspan></text>
    <circle class="st1" cx="555.4" cy="375.4" r="5"/>
  </g>
  <g data-mapno="6">
    <path class="st0" d="M529.2,408.1h.1-.1ZM544.4,412l9.1-.9,4.3,5.2,9.9,1.4,13.4,15.7-2.1,7.7-2.9.4,3.8,10.7-7,11.2.4,5.5-3.1,6-6.4,1.4-.8,13.2,1.8,1.5-2.9,3.8-11.8-.8-2.6-4.2-5.9,1.6-8.5-5.4,3.3-18.5,4.2.6,5.3-6-9.1-5.9.7-6.4-8.6-3.8,10.5-14.6,5.2-19.1-.2-.3Z"/>
    <circle class="st4" cx="554.9" cy="455.8" r="9"/>
    <text class="st3" transform="translate(550.6 460.8)"><tspan x="0" y="0">6</tspan></text>
    <circle class="st1" cx="567.9" cy="465.1" r="5"/>
  </g>
  <g data-mapno="7">
    <path class="st0" d="M563.9,481h6c0,.1,3.6,4.5,3.6,4.5l3.9-1.4,5.9,2.1,1.7,6.4,5.9-.8,1.9-6.5,4.4,4.7,2.6,20.5-3.5,30.3-8.3,6.7-10.1-5.1.7,4.2-6,4.7-10.6-9,.5-4.8-5.3-4.7-11.5-2.9-3.5,4-7,1.7-13.2,8.8-7.2-1.2.6-13.9-4.3-4.3,3.4-6.4-.9-5.8,8.5-1.1,1.5-3.1h7.5l-1.8-8.1,9.1-10.1-1.6-2.2,4.8,3.1,5.9-1.6,2.6,4.2,11.8.8,2.9-3.8-1-9.9h0Z"/>
    <circle class="st4" cx="558.4" cy="516.7" r="9"/>
    <text class="st3" transform="translate(554.1 521.7)"><tspan x="0" y="0">7</tspan></text>
    <circle class="st1" cx="572.7" cy="494.5" r="5"/>
  </g>
  <g data-mapno="8">
    <path class="st0" d="M588.2,547.3l-8.6,21.9.6,7.4-3,6.8,6.6,18-1.2,2.4,1.5-1.6,6.6,10.8-15.8-12.7-.5,3-2-1.3-14.4,5-10.1-5.7-7.2-9.6-2.8.9-1.7-6.9,6.1-1.9,1.3-4.3,2.8.6,3.1-4.5,10.3-1.5,3.2-6.7-1.9-9.9,3.5-1.4-1.6-13.1,9.7,8.3,6-4.7-.3-4.3,9.7,5.2v-.2Z"/>
    <circle class="st4" cx="568.4" cy="572.2" r="9"/>
    <text class="st3" transform="translate(564.1 577.2)"><tspan x="0" y="0">8</tspan></text>
    <circle class="st1" cx="571.7" cy="577.8" r="5"/>
  </g>
  <g data-mapno="9">
    <path class="st0" d="M563.1,543l1.5,13.1-3.5,1.4,1.9,9.9-3.5,7.1-10,1.1-11.6,10.4-3.1-.3-1.9-4-9-1.1-3.3-5.3,5.7-11.7-6-1.8-1.3-2.8,3.7-9.6-2.4-3.1,4.9-5.5,23.7-10.9,8.4,2.9,5.3,4.7.5,5.2v.3Z"/>
    <circle class="st4" cx="540.9" cy="559" r="9"/>
    <text class="st3" transform="translate(536.6 564)"><tspan x="0" y="0">9</tspan></text>
    <circle class="st1" cx="545.2" cy="564.7" r="5"/>
  </g>
  <g data-mapno="10">
    <path class="st0" d="M489,554.5l4.5-.3,1.5-4.3,5-.9v-3.5c.1,0,2.5,0,2.5,0l-.6-5.2,3.7-.6,2.5-4.1,6.7,7.6,7.2,1.2-3.1,16.2,7.3,3.3-5.4,12.4,4.6,5.6,7.4-.2,2.2,3.7-9.2,1.3-5.4-3.8-1.8,1.5-9.1-3.2-4.1,9.1-16.7,7.9-5.3-10.3h2.8c0-.1-1.6-6.4-1.6-6.4l2.5-1.4-.3-6.2-8.8.2-3.1-4.9,5.6-12,7.9-2.6.6-.2Z"/>
    <circle class="st4" cx="505.7" cy="570" r="9"/>
    <text class="st3" transform="translate(498.1 575)"><tspan x="0" y="0">10</tspan></text>
    <circle class="st1" cx="506.4" cy="575" r="5"/>
  </g>
  <g data-mapno="11">
    <path class="st0" d="M534.7,585.8l7.4,10.2,3.5,14.6-5.9-2-10.4,3.6-.3-3.1-7.2,2.5-4.5-4.2-12.8-3.5-6.1,3.3-7.8-4.1,1.2-7.3,13.6-5.4,4.1-9.1,9.1,3.2,1.8-1.5,5.4,3.8,8.8-1.1h0Z"/>
    <circle class="st4" cx="519.4" cy="600.5" r="9"/>
    <text class="st3" transform="translate(512.1 605.5)"><tspan x="0" y="0">11</tspan></text>
    <circle class="st1" cx="534.2" cy="606.2" r="5"/>
  </g>
  <g data-mapno="12">
    <path class="st0" d="M540.1,592.5l7.8,8.8,10.1,5.7,14.4-5,2,1.3.5-3,17,13.9-10.3,1.7-7.5,6.4-4.7,9.2-.8,13.8-12.1,3.8-11.1,12.5-6.3-3.8,5-2.2-2.4-2.1,2.7-12.4-4-3.5,3.1-3.5,2.2,1.1.4-4.4,5.8-2,4.8-6-6.6-7-5.4,3.8,2.2-4.3-.9-9.8-5.7-12.7-.2-.3ZM549.1,616.8h.3c0,.1-.3,0-.3,0ZM539.7,637.7h.2-.2ZM538.7,637.8v-.2.2Z"/>
    <circle class="st4" cx="554.7" cy="631" r="9"/>
    <text class="st3" transform="translate(547.1 636)"><tspan x="0" y="0">12</tspan></text>
    <circle class="st1" cx="556.4" cy="620.8" r="5"/>
  </g>
  <g data-mapno="13">
    <path class="st0" d="M500.8,606.3l3.8-2.5,12.8,3.5,4.5,4.2,7.2-2.5.2,3.1,13-3.5,3.4,1.9,1.2,4.8-2.2,3.5-3.5,1.1-1.7-2.1,1.4,7.5-12.1-6.6-3.5.9,2.2,2.9-1.9,4.2-3.2-4.8-7.5-1.2-10.1-6.5-3.7-7.6-.3-.3ZM542.2,619.2h.2c0-.1-.2,0-.2,0ZM544.1,619v-.2.2ZM544.4,619.2h0,0ZM539.7,619.7h0c0,0,0,0,0,0ZM539.1,619.8v.3-.3ZM542.9,620.3h.2-.2ZM540.9,620.3l.2-.3-.2.3ZM538.9,621.8l.2-1.8,1.5,2.2-1.7-.3h0ZM540.9,621.5l1.3-.9-1.3.9ZM541.9,621.7l.7-.4-.7.4ZM541.6,622h.3c0-.1-.3,0-.3,0ZM539.7,623.2l.3-.6-.3.6ZM524.2,674.3l-3.8-1.3v-5.6l3.5,1.5.3,5.1v.3ZM516.4,683.8h.3-.3ZM517.4,686.3h.3-.3ZM516.4,694.3l.4-5.8-.4,5.5v.3ZM514.2,692.2h0c0-.1,0,0,0,0ZM513.4,694v-.2h.2l-.2.2ZM513.6,695h0c0,0,0,0,0,0ZM516.7,694.7v-.2c0,0,0,.2,0,.2ZM509.6,702.5l.6-3.3,1.6,2.1-2,1.2h-.2ZM512.6,701.3h-.2c0,0,.2,0,.2,0h0ZM506.9,702.7h0c0-.1.1,0,.1,0h-.1ZM527.2,710.5l-.6-3.9,2.4-.5,1,3-2.5,1.3h-.3ZM532.7,721.5l-1.5-2.5,1.6,2.4h-.1ZM542.7,767l-4-6.2,4.7,2.3-.6,3.9h-.1ZM536.6,763.2l-.3-.7.3.7ZM539.7,801l-.6-1.8,1.2,1.4-.6.4ZM553.2,856.8h-.2c0,0,.2,0,.2,0h0ZM564.7,910l.5-.2-.5.2ZM649.9,1059.1v-.2.2ZM650.4,1059.1h-.2v-.2l.2.2ZM651.9,1061.4v-.3c.1,0,0,.3,0,.3ZM651.1,1061.1h-.1.1c0-.1,0,0,0,0ZM652.7,1062.3v-.4c0,0,0,.4,0,.4ZM653.9,1064.2v-.2.2ZM655.2,1071.1h.2-.2ZM654.9,1071.3v-.2l.2.2h-.2ZM592.2,1084.2v-.2.2ZM654.2,1086.8h.2-.2ZM653.9,1089.3v-2.2c0,0,0,2,0,2v.2ZM655.4,1091.3l-1.3-1.7,1.5,1.7h-.2ZM653.7,1090.3h-.3v-.2c.1,0,.3.2.3.2ZM652.9,1091.2v-.2c0,0,0,.2,0,.2ZM655.4,1095.2l-1.6-3.6,2.1,3.6h-.5ZM656.7,1092.3v-.2.2ZM653.4,1095.3v-.2.2ZM653.6,1117.8l-2.6-5.7,2.6,5.6h0ZM517.7,732.8h0c0,.1-.2,0-.2,0h.2ZM650.4,1057.6h0c0,0,0,0,0,0Z"/>
    <circle class="st4" cx="526.2" cy="615.3" r="9"/>
    <text class="st3" transform="translate(518.5 620.3)"><tspan x="0" y="0">13</tspan></text>
    <circle class="st1" cx="536.2" cy="615.8" r="5"/>
  </g>
  <g data-mapno="14">
    <path class="st0" d="M509.7,617l5.1,3.8,7.5,1.2,3.2,4.8,1.9-4.2-2.8-2.1,3.7-1.9,12.5,6.8-7.5,3.5,2.8,1.6-3.1,1.7.3,6.7,5.4,2.3-4.2,3.9,1,2.7h-3.2l.7-4.4-2.7-4.5-6.3-1.5-13.6,4.5.6,5.9-6.2-.6-2.6-6,1.3-8.4h-4.1l9.4-8,.7-7.8h.2ZM538.7,627.8l1.6-1.1-1.5,1.1h0ZM537.2,627.8l-.6.3.6-.3ZM534.4,629h0c0,0,0,0,0,0ZM536.2,629.8l.5-.3-.5.3ZM533.9,629.7v-.3.3ZM535.4,632.8l.3-.3-.3.3ZM533.9,636.5h.1-.1ZM534.2,638.8h.1c0,0-.1,0-.1,0ZM533.2,648.5v-.2.2Z"/>
    <circle class="st4" cx="525.9" cy="633.2" r="9"/>
    <text class="st3" transform="translate(518.3 638.2)"><tspan x="0" y="0">14</tspan></text>
    <circle class="st1" cx="533.7" cy="630" r="5"/>
  </g>
  <g data-mapno="15">
    <path class="st0" d="M529.4,446.3l8.2,3.5-.7,6.4,6.7,2.8,2.4,4.1-10.3,6.4-2.6,15.6,5.4,5.4-9.1,10.1,1.8,8.1h-7.5l-1.5,3.1-8.2.8-1.1,2.1,1.7,4-3.4,6.4,4.3,4.3-.6,13.3-6.7-7-2.5,4.1-3.7.6.6,5.2h-2.4c0,0-.1,3.4-.1,3.4l-10.6,5.7-.7-7.4-4.7-3.1-1-6.3-2.5-.6-5.7,2-5,8.9-3.5-1.4-7.6,4.2-2.4-1.7.6-4.4-7-.7.5,2.8-5.4,5.9-2.5-10.5-3.5-2.1,13.8-5.2,7.8-6.1,7.4-.6,14.4-11.6,9.1-13.5,5.6-14,17.3-9.3,6.6-6.8,8.3-26.6v-.3ZM513.9,453.4l2.1-3.1-1.8,3h-.3ZM479,459.5h-.1.1c0,0,0,0,0,0ZM467.8,491.3l-1.9-1.2,6.6-8.4-2-2.5-3.4,1.6.6-6.5,12.9-14.8-3.8,14.8,6.6,1.4-5.1,10.2-10.3,5.4h-.2Z"/>
    <circle class="st4" cx="500.2" cy="513.7" r="9"/>
    <text class="st3" transform="translate(492.5 518.7)"><tspan x="0" y="0">15</tspan></text>
    <circle class="st1" cx="504.7" cy="485.5" r="5"/>
  </g>
  <g data-mapno="16">
    <path class="st0" d="M439,540.3l4,3.3,2,15.2-8,16.3-9.6-4.2-3.3,2.1-.5-2.2-4.8,2.1-2.2-1.8-8.8,10.7-1.3-4.2-3.6-1.2-3.8,4-.3-19.4,1.9-2.3-1.7-3,3.1-2.9,1.4-8.6,7.2-3.2-2.5,5.7,5.1,6.1,10,.7,4.3-3,1.9-7.2,8.9-2.9h.6Z"/>
    <circle class="st4" cx="417.8" cy="561.8" r="9"/>
    <text class="st3" transform="translate(410.1 566.8)"><tspan x="0" y="0">16</tspan></text>
    <circle class="st1" cx="419" cy="557" r="5"/>
  </g>
  <g data-mapno="17">
    <path class="st0" d="M405,488.8v-.2.2ZM404.4,503v-.2.2ZM403.3,504.3h-.1v-.3.3ZM402.3,504.3h-.1c0,0,.1,0,.1,0h0ZM411.4,541.5l-7.9,2.7-1.4,8.6-3.1,2.9,1.7,3-2.6,14.9,1,6.8,3,2.9-4.7,9.6-4.3,1-5.3-5.1-9.5-.8-5-7.5,17-18.9,7.1-13.6.7-8.5-2.1-8.3-2.6-.9,3.2-11.7,27.9-10.8,1.5,4.6-4.9,1.1-1,8-5.6.5-4.4,6.1-3.1-3-2.4,1.2-2.2,8.5,3.3-.9,2.5,2.4,3.5-3.6-.3,8.6v.2ZM406.5,533.8l-1.9-3.8,6.5-.6-.2,2.9-4.3,1.2v.3ZM404,533.2v-.2.2Z"/>
    <circle class="st4" cx="402.4" cy="543.5" r="9"/>
    <text class="st3" transform="translate(394.7 548.5)"><tspan x="0" y="0">17</tspan></text>
    <circle class="st1" cx="391.4" cy="563" r="5"/>
  </g>
  <g data-mapno="18">
    <path class="st0" d="M373.4,580.5l5,7.5,9.5.8,5.3,5.1,4.3-1-1.4,5.3,4.9,8.5-1.9,2.9-12.5.6-.9,2.2-6.4-2.4-4.1,7.8-6.2-2.4.9,7.8-2.6-1.1-.5,3.3-5.8,2.3-1.9-1.9-2.5,6.8-3.6-.5-5.2,3.9-8-1.9-3.5-9.9,2.8-.2.7,3.5,6.1-3.3-3.9,3.3,6.2.5,2.5-2.8-3.5-.9,1.3-1.4,5.6,2-.9-6.3,2.3,2.1,5.5-1.3-1.4-5.3,3.1-2.5.3,4.9,2.5.8,1.2-6.4-6.8-12,8.1-12.2-.3-3.5,5.3-2.1.4-.6ZM367.4,583.2h.2-.2ZM352.5,619.3v-.2c.1,0,0,.2,0,.2Z"/>
    <circle class="st4" cx="363.2" cy="614" r="9"/>
    <text class="st3" transform="translate(355.5 619)"><tspan x="0" y="0">18</tspan></text>
    <circle class="st1" cx="372.4" cy="594" r="5"/>
  </g>
  <g data-mapno="19">
    <path class="st0" d="M490.7,603l11.5,4.6,2.6,6.6,5,2.7-.2,6.3-12.1,10.5-9.1,1.5-5.7-4.6-1.2,13.6-4.4,1.3-3.8-8-5.3-.9,1-10.6-4.2-11.5,2.6-2.8-2.3-1.9,8.8-10.4,3.9,4.2,6.5-1.1,3.9,2.9,2.1-2.2.4-.2Z"/>
    <circle class="st4" cx="485" cy="621" r="9"/>
    <text class="st3" transform="translate(477.4 626)"><tspan x="0" y="0">19</tspan></text>
    <circle class="st1" cx="483" cy="617.3" r="5"/>
  </g>
  <g data-mapno="20">
    <path class="st0" d="M489,554.5l-8.5,2.8-5.6,12,3.1,4.9,8.8-.2.3,6.2-2.5,1.4,1.6,6.3h-2.8c0,.1,3.3,2.9,3.3,2.9l-.6,5.4,3.8,2.5.7,4.4-5.1,2.4-1.3-2.9-6.5,1.1-3.9-4.2-8.8,10.4,2.3,2.2-2.6,2.5,1.9,4-3.7,5.2v10.6l-12.8,8.9-8.9-.9-5,2-1.4-3.2,2.7-4.6-1.4-3.8,2.9-.2-2-2.6,1.9-3.6-5.3-5.1,1.2-3.1-3.9-6.1-6.6-3.5,12.8-11.5.9-3.6-2.8-3.9,4.7-9.5-3.2-5,5.5-7.6-.7-2.6,2.9-1.5v-9.6l6-6.8-.5-2.8,7,.7-.6,4.4,2.4,1.7,7.6-4.2,3.5,1.4,5-8.9,7.9-1.5,1.3,6.4,5,3.7v6.6Z"/>
    <circle class="st4" cx="459.9" cy="590.3" r="9"/>
    <text class="st3" transform="translate(452.3 595.3)"><tspan x="0" y="0">20</tspan></text>
    <circle class="st1" cx="464.9" cy="559.7" r="5"/>
  </g>
  <g data-mapno="21">
    <path class="st0" d="M436.8,575l3.2,5-4.7,9.5,2.8,3.9-.9,3.6-12.8,11.5,6.6,3.5,3.9,6.1-1.2,3.1,5.3,5.1-1.9,3.6,2,2.6-2.9.2,1.4,3.8-2,2.9-6.2,3.5-5.8-4-5.9,2.2-4.7-2.2-4.4-7.7-7.3,4-3.1-.8-4.1,7-.6,6.7-6.7-7.3-6.6,1.5,2.6-9-2-8.2-3.9-1-2-6.1,4.4-8.1,6.4,2.4.9-2.2,12.5-.6,1.6-5.7-4.6-5.7,2-9.7,4.1-5.2-3-2.9,2.2-2.8h5.2l1.3,4.2,8.8-10.7,2.2,1.8,3.3-2.3,1.7,2.4,3.6-2.1,9,4,.3.2Z"/>
    <circle class="st4" cx="410.9" cy="611.7" r="9"/>
    <text class="st3" transform="translate(403.2 616.7)"><tspan x="0" y="0">21</tspan></text>
    <circle class="st1" cx="395.9" cy="633.3" r="5"/>
  </g>
  <g data-mapno="22">
    <path class="st0" d="M466.7,618.5l2.3,7.5-1,10.6,5.6,1.2,3,7.5,4.9-1.1-1-6.6,3.3-7.5,4.6,5.1,15.2-2.5-.7,11.5,5.8,3.5-2,4.7,3.8,7.4-8.1,15.9-1.1-1.3-5.2,4.4-4.9-5.2,1.9-18.8,6-1.8-10-5.6-6.4,2.4-3.1,4.1,1,2.7-7.5,4.1-7.5,14,1.4,4.3-7.7-3.6-27.4-.8.2-8,10.4-9.2,5.7-10.5-1-2,15.8-10.6v-10.6l3.4-4.7.3-.5ZM511.4,653.7h.3-.3ZM498.2,654v-.2.2c.1,0,0,0,0,0ZM466.7,677.8v-.2.2Z"/>
    <circle class="st4" cx="479.5" cy="654.8" r="9"/>
    <text class="st3" transform="translate(471.9 659.8)"><tspan x="0" y="0">22</tspan></text>
    <circle class="st1" cx="474.4" cy="657.2" r="5"/>
  </g>
  <g data-mapno="23">
    <path class="st0" d="M435.5,639.2l.7,5.2,5-2,7.3,1.1-9.3,18.6-7.2,4.6-.2,8-22,5.5,2.7-4.9,2.3,1.5,7.6-5.4,1.1,3,2.2-2.9-2.7-4.8-3.8-.7-2.2,3.3-10.4-3.3,1.6-7.8-3.2,10.8,2.9,4.1-6-2.8-1.5-12.5,3.6-7.3-5.3,4.4-5.3-7.3,4.3-12.5,11-3.8,4.2,7.7,4.7,2.2,5.9-2.2,5.8,4,6.2-3.5v-.3ZM400.3,656h.1c0-.1-.1,0-.1,0ZM400.4,658.8l.2-.3-.2.3ZM400,665l-.3-2.3.5,2.3h-.2ZM423.5,667.2v-.2.2ZM423.5,668.3v.3c.1,0,0-.3,0-.3ZM419.9,668.2h.3-.3ZM413.7,669.5l.3-.2-.3.2ZM424.2,671.2h0c0-.1,0,0,0,0ZM411.4,672.2h0,0ZM425.2,671.8h.1c0,0-.1,0-.1,0ZM420.9,672.5h.2-.2ZM409,673l.5-.3-.5.3ZM409.3,675v-.2.2Z"/>
    <circle class="st4" cx="417.5" cy="657" r="9"/>
    <text class="st3" transform="translate(409.9 662)"><tspan x="0" y="0">23</tspan></text>
    <circle class="st1" cx="404.7" cy="645.3" r="5"/>
  </g>
  <g data-mapno="24">
    <path class="st0" d="M393.7,648l4.6,6.4-5.7,1.9.8,3.2-6.6,11.6v7.2l14.3,5.9,2.1,4.4,2.3-.8-.6,3.9-4.6.4h4.5c0,.1-.4,5.3-.4,5.3l-6.2,1,4.5-1.8-2.7-2.2-.8,2.3-1.4-1.6-3.3,1.9,1.6-3.3-3-.3-2.7,5-.4-2-2.2,2.5-2.1-1.6.2,2.7-2.1-1.4-6.4,3.1-2.4,2.2.9,4.4h-2c0,0,.7-2.6.7-2.6l-3.2,3.1,3.6,3-.4,3.1-2.8-1.7,1,3-3.9,1-6.5,11.7h-2.2l-5.1-5.4v-3.2l7.3-5.3.3-4,4.1.8,1.2-16.7-2.9-4.4,7.6-5.5-3.5-4-5-1.2-.5-4.7,2.2-.8-3-6.6,3.5-1.6.7-4.8,6.6,2.5,5.4-2.6,3.6-9.3-.5-9.4,4.6-1.8,6.7,7.3.2-.2ZM393.4,657.5l.3-.6-.3.6ZM408.3,682.3l.2-.3-.2.3ZM404.9,682.3h.2c0,0-.2,0-.2,0ZM402.4,684.2l1.9-1.7-1.7,1.7h-.2ZM402.2,683.5h.1-.1ZM401.5,683.8l.3-.3-.3.3ZM401.4,684.5v-.3.3ZM403.8,685.8v-.3.3ZM402.3,685.5l.3-.3-.3.3ZM404.2,687v-.2.2ZM403.9,687.3v-.2.2ZM402.9,692.8l.3-.4-.3.4ZM395.5,694h.3c0,0-.3,0-.3,0ZM400.4,695.8h0c0,0,0,0,0,0ZM400.4,696h.2-.2ZM400.3,696h0c0,0,.1,0,.1,0h-.1ZM393.9,696.3l.2-.2-.2.2ZM400.7,696.3h.1-.1ZM400.7,696.7h.1c0-.1-.1,0-.1,0ZM400.3,696.8h.1c0,0-.1,0-.1,0ZM387.8,699.3h.1-.1ZM379.7,702.2v-.2c-.1,0,0,0,0,0v.2ZM379.9,702.7h0c0-.1,0,0,0,0ZM377.2,703.7h-.3c0-.1.3,0,.3,0ZM376,704.2l.3-.2-.3.2ZM379,704.7v-.3.3ZM373.9,709.2v-.2.2ZM374.3,709.8h0c0,0,0,0,0,0Z"/>
    <circle class="st4" cx="384.4" cy="691.3" r="9"/>
    <text class="st3" transform="translate(376.7 696.3)"><tspan x="0" y="0">24</tspan></text>
    <circle class="st1" cx="385.9" cy="671.3" r="5"/>
  </g>
  <g data-mapno="25">
    <path class="st0" d="M375.2,617.8l1.7,6.4,3.9,1,2,8.2-3.1,8.3,3.7,4.9-1.6,9.3-3.5,6.1-5.2,2-6-2.5-.7,4.8-3.5,1.6-3.8-5.9h-3.6c0,0-2.3-8.4-2.3-8.4l2-14.4-4.5-3.2,2.3-3.9,3.7.4,2.4-6.7,1.9,1.9,5.8-2.3.5-3.3,2.6,1.1-.9-7.8,6.2,2.2v.2Z"/>
    <circle class="st4" cx="367.8" cy="643.7" r="9"/>
    <text class="st3" transform="translate(360.1 648.7)"><tspan x="0" y="0">25</tspan></text>
    <circle class="st1" cx="355.7" cy="655.5" r="5"/>
  </g>
  <g data-mapno="26">
    <path class="st0" d="M308.4,617.8l2.6.7,14.1-7.7,4.1,4.9-5.4,9.1,2.6-3.7-.3,3.8,4.1,1-.4,3.8,3.6-2.3-2.6-.7v-2.8l5.6-2.9-.2,7.9,3.5,5.2,11.2,1.2,4.2,3.9-1.9,16,2.2,6.9h3.6c0,0,4.1,4.1,4.1,4.1v6.6c.1,0-4.9-3-4.9-3l-1.6,2.9-6.4-1.2-3.7-9.8-3.5-1.6.6-2.6-3.4,3.3-2.9-2,.5-2.3-5.2-1.2.4-6.8-9.5-2.5-1.5-5.2-4.2,1.4-6.8-4.3.5-5.5h5.4l-.2-5.9-.4-1.9-5.1,1.6-3.6-4.3.6-3.7.2-.4ZM334.7,616.7l.2-.4-.2.4ZM337.2,621.5l.2-.2-.2.2ZM330.5,627.3h.5c0,0-.5,0-.5,0Z"/>
    <circle class="st4" cx="334.8" cy="638.8" r="9"/>
    <text class="st3" transform="translate(327.1 643.8)"><tspan x="0" y="0">26</tspan></text>
    <circle class="st1" cx="350.4" cy="654.7" r="5"/>
  </g>
  <g data-mapno="27">
    <path class="st0" d="M332.2,653.3l8.1,7.5,3.4-3.3-.6,2.6,6.7,7.1-4.4,11.2,1.2,12-26.7,7.3-.9-2.4,6-1.9,7.2-6.9.3-3.8h2.5l-1.3-3.8,3.1.8-2.1-.4,1.3-2.9-2.3-2.9,2.6-2.3-1.9-10.1,2.4-1.2-5.7-2,.8-4.6h.3ZM333.9,675.5v-.4c.1,0,0,.4,0,.4ZM333.2,676.3h0c0,0,0,0,0,0ZM334.5,677.5l.4-.2-.4.2ZM334.4,678.3l.2-.2-.2.2ZM334.9,681.8h-.2c0,.1.2,0,.2,0ZM333.2,682.7l-.2.5.2-.5ZM330.4,687.5l.6-.4-.6.4ZM325.4,687.5l1.7.6h-2.2c0-.1.5-.6.5-.6Z"/>
    <circle class="st4" cx="335.4" cy="677.3" r="9"/>
    <text class="st3" transform="translate(327.8 682.3)"><tspan x="0" y="0">27</tspan></text>
    <circle class="st1" cx="339.2" cy="673.8" r="5"/>
  </g>
  <g data-mapno="28">
    <path class="st0" d="M308.4,617.8l-.8,4.1,3.4,4.2,5.3-1.5.4,1.9.2,5.9h-5.4l-.5,5.5,6.8,4.3,4.2-1.4,1.5,5.2,9.5,2.5-2,9.4,5.7,2-2.4,1.2,1.9,10.1-3.1,3-3.3-2.6-13.4,5.7-13.7-8.1-12.9.7-.5-3-2.5,4.6-4.2.4.6-2.7-3.6-3.6.3-11,6.8-7.3-1.2-4.3,6.2-3.1-6.9-19.7,7.9-3.2,4.1,1.9,11.4-1.1h.2ZM299,617.5v-.3c.1,0,.1.3.1.3h-.1ZM300.4,669.5l.2-.6-.2.6ZM330.3,672.5h.2-.2ZM328.5,672.8h.4-.4ZM329.9,672.8v-.6.6ZM331,672.8l.2-.2-.2.2ZM307.7,673.5l.5-.8-.5.8ZM308.4,673.2h.1-.1ZM326.7,674.3l.5-.2-.5.2ZM297.5,674h0c0,0,0,0,0,0ZM293,675.5l-1.6-1.1,1.7.9v.2ZM324.9,676v-1.9c0,0,1.3,1.9,1.3,1.9h-1.3ZM294.4,676l.2-.2-.2.2ZM289.5,676.5l.5-.5-.5.5ZM291.8,676.8v-.3.3ZM287.9,676h.2-.2ZM292.4,676.3h.1c0,0,0,0,0,0h-.1ZM295.3,676.7l-.3-.3h0c0,0,.3.3.3.3ZM324.7,677.3l.2-.2-.2.2ZM290.9,677h0,0ZM304.7,688.8l10.1-10.5,1.1,1.9-6.3,9,2.8,8.6-10.5,4.6-.3-3.8-3.1.8v-3c0,0,6-7.2,6-7.2l.2-.4ZM289.9,679.3v-.2c.1,0,0,.2,0,.2ZM312.5,697.3v-.3c.1,0,0,.3,0,.3ZM305.8,704.2h.2-.2Z"/>
    <circle class="st4" cx="306" cy="649.8" r="9"/>
    <text class="st3" transform="translate(298.4 654.8)"><tspan x="0" y="0">28</tspan></text>
    <circle class="st1" cx="323.3" cy="673.5" r="5"/>
  </g>
  <g data-mapno="29">
    <path class="st0" d="M349,668.5l1.2,2.9,4.5,1.3,3.5-3,5,3,1.2-1.9-.3,9.1,8.5,4.9-7.6,5.8,2.9,4.4-1.2,16.7-4.1-.8-4.2,3.2-2.7,7-2.9-2.7-9.1,2,.9-6.9-4.6-4.7,5.2-8.2,3.8-.6-3.7-8.9,1.6-3.8-1.6-9,3.4-9.5.3-.3Z"/>
    <circle class="st4" cx="356.2" cy="694.8" r="9"/>
    <text class="st3" transform="translate(348.5 699.8)"><tspan x="0" y="0">29</tspan></text>
    <circle class="st1" cx="353.9" cy="674" r="5"/>
  </g>
  <g data-mapno="30">
    <path class="st0" d="M345.4,691.2l3.7,8.9-3.8.6-5.2,8.2,4.6,4.7-.9,6.9,10.9-1.4,2.7,7.4,5,2.4-4.1,6.4,1.6,1.7-7.6,4.6-1.6,3.7v-2.9c-.1,0-15-3.7-15-3.7l-5.4-6.7,3.2-2.9-7.7-3.5-4.3-5.8-4.1.3,2.7-4.5-2.2-1.1,4.9-3.2-4.4-2.4,2.1-3.4,4.1-.9-7-6.5.7-2.5,3.7,2,22.8-6.4h.6ZM316.8,696.3h.3c0,0-.3,0-.3,0ZM315,697.3h.1-.1ZM323.3,704.5v-.3.3ZM319.4,706.8h.1-.1ZM318.4,706.8l.2-.2-.2.2ZM320.4,712.3h.1-.1ZM361.9,712.5l-1.6,4.6h-3.4c0,0,5-4.4,5-4.4v-.2ZM319.2,713h.3c0-.1-.3,0-.3,0ZM318.9,713h0c0-.1,0-.1,0-.1h0ZM318.9,713.8l-.2-.3.2.3ZM318,716.2h.2c0-.1-.2,0-.2,0ZM356.3,718.3l-.3,2.8.3-3v.2ZM321.7,721.3h.3c0,0-.3,0-.3,0ZM331.8,730.5v-.2h.1v.2ZM331.9,731h.2c0-.1-.2,0-.2,0ZM337.8,739.2l-.2-.2h.2v.2ZM353.9,744.3l-1-1.8,2.5.6-1.5,1.1h0ZM353.2,744.5v-.2c.1,0,0,.2,0,.2Z"/>
    <circle class="st4" cx="337.2" cy="720.3" r="9"/>
    <text class="st3" transform="translate(329.5 725.3)"><tspan x="0" y="0">30</tspan></text>
    <circle class="st1" cx="322.5" cy="700.3" r="5"/>
  </g>
  <g data-mapno="31">
    <path class="st0" d="M284.9,620.2l6.9,15.2-2.5,6.8-3.3-1-10.4,4.8-1.7-6.5-5.9-1.3.2-2.6-8.1,5.9-4.6-4.1-7.1-1.4-1.4,5.1-2.9,1.6,1,2.6h-6.1c0,0,.7,3.5.7,3.5l-5.7,1.3-1,2.4-6.3-.7,2.7-5.8-1.9-2.9,7.4-2.7.6-8-4.6-4.1-.4-4,9.1,5.3,7.4-4.4,22.6.7,15.3-4.9v-.8Z"/>
    <circle class="st4" cx="257.2" cy="636.5" r="9"/>
    <text class="st3" transform="translate(249.5 641.5)"><tspan x="0" y="0">31</tspan></text>
    <circle class="st1" cx="278.7" cy="626.8" r="5"/>
  </g>
  <g data-mapno="32">
    <path class="st0" d="M231.8,588.5l-3-3-.2-4.5,4.9-3.6,4.8,4.9-.7,3.5-3,.5,1.6,1.7-4.2.5h-.2ZM220.2,595.7l-2.3-2.8,6.7-3.1-2.3,4.5-3-1.7.9,2.8v.3ZM228.3,590l.3-.2-.3.2ZM223.3,595.8v-3.8c0,0,2.2-1.2,2.2-1.2l1.8,2.7-3.7,2.3h-.3ZM228,592v-.3.3ZM223,598.2l-2.8-2.2,2.9,2.2h0ZM222.7,598.3v-.4.4ZM223.8,598.3v-.4.3c.1,0,0,0,0,0ZM222,598.2v-.2c0,0,0,0,0,0v.2ZM231.8,624l-2.2,1.5,5.9,6.9-.6,8-7.4,2.7,1.9,2.9-2.6,5.5-12.6-1.6-5.7,8.2-5.6,3.3,3.7,3.2-8.2,3-4.9-1.4-1.7,2.4-7.4-1.6-5.2,5.7-.2,7.2-3.5,3,.7,3.6-3.3,2.1-1.8,7.1-1.9-1.9-5.7,1.3-.2-6.9-4.5.2-1.5-3.9,2.8-4.2-1.6-6.1,7.2-1.5,11.3-12.9,10.7-7.3,5.1-7.6,9.7-5.4,2.3-5.3-1.5-3.9,15.7-4.4,5.5-4.9,2.6,2.5,8.5-.5-3.7,1h0ZM226.2,621.8v-.3.3ZM231.5,622.3l.2-.2-.2.2ZM222.7,623.2v-.2c-.1,0,0,0,0,0v.2ZM191.8,646.2v-.2h0v.2ZM191.8,646.2v-.2h.2l-.2.2ZM175.2,661.5h.1c0-.1-.1,0-.1,0ZM175.8,661.7l.2-.2-.2.2ZM165.5,665.3h0c0,0,0,0,0,0ZM166.7,524.7h0c0,0,0,0,0,0ZM167,524.8h-.2.2Z"/>
    <circle class="st4" cx="197.3" cy="653.8" r="9"/>
    <text class="st3" transform="translate(189.6 658.8)"><tspan x="0" y="0">32</tspan></text>
    <circle class="st1" cx="222.5" cy="628.5" r="5"/>
  </g>
  <g data-mapno="33">
    <path class="st0" d="M286.4,641.8l.3,5.4-6.9,7.7,1.4,6.5-1.9,2.9,3.9,4.8-.6,2.7-6.5-1.3,2.8,2.6-3.5,4.9-4,1.9-6.6-1.1,4.7,1.3-5.1,7.2-4.9-1.3-2.2,2.1-2.3-5,.3,3.1-1.9-.4-.6-3.6-7.2,4.5-2.5-3,1.9,3.4-2.5.7-4.2-10.3-.3-10.6-3.8-4.8-.3-12.1,5.3-.9.3-4.1,5.5.2-1-2.6,2.9-1.6,1.4-5.1,7.1,1.4,4.6,4.1,8.1-5.9-.2,2.6,5.9,1.3,1.7,6.5,10.7-4.5.2.4ZM282.7,672.8l-2.2-1,2.3.8v.2ZM277.4,671.8h0,0ZM279.9,672.7h.3-.3ZM279.5,673.7h.1-.1ZM281,673.3v-.2c.1,0,0,.2,0,.2ZM279.9,674.5h.3c0-.1-.3,0-.3,0ZM281.4,674.2h.1-.1ZM278,675v-.2.2ZM275.3,678.7h.3-.3ZM276.9,678.3h.3c0,0-.3,0-.3,0ZM266.8,678.5v-.2c-.1,0,0,0,0,0v.2ZM276.7,679h.1c0,0-.1,0-.1,0ZM274.9,679h0,0ZM272,681.2h.2-.2ZM272.5,681.2v-.3h.1c0,.1-.1.3-.1.3ZM268.5,684.2h-.2.2ZM253.8,686.8h.1-.1ZM260.4,687.5h0,0c0,0,0,0,0,0ZM243.8,688.5h-.1v-.3c.1,0,.1.3.1.3ZM243.8,688.8h.2-.2ZM256.5,689.2h.1-.1ZM258.8,688.8h.1-.1ZM259.4,689.3v-.2.2ZM263.5,689.2h.2c0-.1.1,0,.1,0h-.3ZM244.3,691l.4-.5-.4.5ZM246,692.2l-.4-2,.6,1.9h-.2ZM243.7,691.3v-.2h.1v.2ZM247.9,691.7v-.3.3ZM247.3,693.3l.3-.2-.3.2ZM245,693.5l-.2-.2.2.2ZM244.3,694v-.5.5ZM245.3,696h.2c0,0-.2,0-.2,0Z"/>
    <circle class="st4" cx="261.5" cy="664.5" r="9"/>
    <text class="st3" transform="translate(253.9 669.5)"><tspan x="0" y="0">33</tspan></text>
    <circle class="st1" cx="264.4" cy="675.3" r="5"/>
  </g>
  <g data-mapno="34">
    <path class="st0" d="M226.7,651.5h5.4c0-.1,3.4,3.9,3.4,3.9l-1.2,6.8,3.6,4.4.5,11,3.2,5-3.2,8.8-6.5-.4.2-3.1-7.8,2.6-2.2,3.8-10.7.8-2.5,4.3-10.4,2.8.9-2.9-3.2-5.3,1.9-1.2-7.4-.4-6.7,6,.6,2.8-4.7-1.5-5.1-15.2,4.2-4.6.2-7.2,5.2-5.7,7.4,1.6,1.7-2.4,4.9,1.4,6.3-2.2,1.4-2.7-3.2-1.3,5.6-3.3,5.7-8.2,12,1.5h.5ZM230.2,692.8l-1.8-2.1,3-.8-1.1,2.6v.3ZM228.3,691.8v-.3c0,0,0,.3,0,.3ZM239,691.5l.2-.3-.2.3ZM233,692.5h0c0-.1,0,0,0,0ZM231.5,692l.2-.2-.2.2ZM234.5,693.5l.7-.5-.7.5ZM226.7,692.7l.3-.3-.3.3ZM224.8,692.7l.3-.2-.3.2ZM225.5,695v-2.3l.4,1.8-.4.5ZM229.3,697.3l-2.1-4.7,3,2.3-.6,2.4h-.3ZM227,693v-.3.3ZM232.7,694.3l.3-.2-.3.2ZM242.2,693h.1-.1ZM194.8,693.7l.2-.2-.2.2ZM241.3,694l.2-.2-.2.2ZM195.7,694.3l.3-.3-.3.3ZM223.8,696v-1.9,1.7c.1,0,0,.2,0,.2ZM193.5,696h.2c0,0-.2,0-.2,0ZM217.8,695.5l-.2-.5.2.5ZM195,695.3h-.3c0,0,.1-.3.1-.3l.2.3ZM242,695.3h.1c0,0-.1,0-.1,0ZM224.2,698.5v-3l2.6-.5-2.2,3.3-.4.2ZM219.8,695.8h.2c0,0-.2,0-.2,0ZM186,700l2.7-4.6-2.7,4.5h0ZM216.3,697h0,0ZM193.2,705.8l1.2-3.2-3.8-4.3,4.8,2.9-2-2.6,2.2-2.4.6,8.7-2.5.6-.5.3ZM190.2,696.7h-.2.2c0-.1,0,0,0,0ZM211.5,696.7h.1c0-.1-.1,0-.1,0ZM214.8,697.3v-.3c0,0,0,.3,0,.3ZM217.3,697h.3-.3ZM214.5,701.3l-1.9-2,5-2.1-3,4h0ZM211,697.8l.3-.4-.3.4ZM190.3,697.5h0,0ZM215.8,697.7h.2c0-.1-.2,0-.2,0ZM214.8,697.8h0c0,0,.2,0,.2,0h-.2ZM214.3,698.5l.2-.2-.2.2ZM209.3,698h.1c0,0-.1,0-.1,0ZM210,698.5h.1-.1ZM209.8,698.3h-.3c0,0,.2,0,.2,0h.1ZM213.8,698.8v-.2.2ZM189.8,699.7v-.3.3ZM205.8,700.7h.3-.3ZM207.8,704.2l-2.5-2.2,3.5.2-.9,1.7v.3ZM204.3,703.3l.6-1.8-.5,1.7h-.1ZM188,702h0c0-.1,0,0,0,0ZM199,708.5l-5-1.4,3.8-5.5.6,5.3,2.5-.4-1.8,2h-.1ZM197.2,702.2v-.2c.1,0,0,.2,0,.2ZM187.2,702.5h.3-.3ZM211.3,702.3h0,0ZM211.7,704.5l1.5-2.6-1.2,2.4-.3.2ZM213.5,702.3v-.3.2c0,0,0,0,0,0ZM209.5,704h.4-.4ZM191.8,704.7l-.7-1.7.9,1.7h-.2ZM200,704.3h.2c0,0-.2,0-.2,0ZM193.3,704.7l.6-.3-.6.3ZM204.7,704.5h.1-.1ZM203.8,704.5v-.2c0,0,0,.2,0,.2ZM208.8,704.7h.2c0-.1-.2,0-.2,0ZM188,706.3h0c0,0,0,0,0,0ZM210.2,706.5h.2-.2ZM199,709.3l.3-.3-.3.3ZM198,710.5h.1-.1ZM195,709.8h0,0ZM196,711.2l.2-.2-.2.2Z"/>
    <circle class="st4" cx="207.8" cy="681.3" r="9"/>
    <text class="st3" transform="translate(200.1 686.3)"><tspan x="0" y="0">34</tspan></text>
    <circle class="st1" cx="194.8" cy="690.5" r="5"/>
  </g>
  <g data-mapno="35">
    <path class="st0" d="M132.3,669.8l-.5-2.3.6,2.3h-.1ZM158.5,674.2l1.6,6.1-2.8,4.2,1.5,3.9,4.5-.2-.9,5.9,8.7,1.6,1.8-7.1,3.3-2.3,3.7,13.4,4.8,1.7-1.6,11.5-4.5,3,1.3,6.7-4.1-5.1-4.4.3-4.9-5-4.8,1.8,3.2-3.1-4.1-2.5-9.5,4.3-3.1-2.3-1.7,3.2-2.5-3.9-1.4,4.6-4.2,2.6-4.1-.4-.4-3.8-6.4-3.4-6.3,8.2.5-8.3-2.5-2.9,3.4-5.7-3.1-4.5,1.6-4.2,6.4-.5-4.9-1.3,1.9-2.8,7.4,1.5,1.2,2.6,7.2-.8,5.1-2.4-1-1.7,10-11.8,2,1.2,1.8-2.1.3-.2ZM148.5,680.3h-.1c0,0,.1,0,.1,0h0ZM150,680.8h0v-.2c0,0,0,.2,0,.2ZM144,683.8h.3c0,0-.3,0-.3,0ZM138.8,684.8l.3-.3-.3.3ZM145,685.2h.2c0-.1-.2,0-.2,0ZM142,684.5h0c0,0,0,0,0,0ZM143.7,685.5h.1c0,0-.1,0-.1,0ZM143.7,686.8v-.2c.1,0,0,.2,0,.2ZM135.2,690.3l-1.3-1.9,3.8-.4-2.4,2.3h-.1ZM140.8,688.8v-.2c.1,0,0,.2,0,.2ZM138.5,689.8h.2c0,0-.2,0-.2,0ZM118.5,693.7l1-1.9-.8,1.6-.2.3ZM124.2,692.7l.3-.2-.3.2ZM120.8,703.2l.3-.2-.3.2ZM120.8,703.3h.5-.5ZM187.8,706.2h0c0,0,0,0,0,0ZM116.2,707.8l-1.1-1.3,1.2,1.3h0ZM191.8,710h0c0-.1,0,0,0,0ZM160.3,711.8l2.2-1.6-1.9,1.6h-.3ZM191.2,711.5v-.3c.1,0,0,.3,0,.3ZM193,711.3h.1c0,0-.1,0-.1,0ZM159.8,714.3l-.6-3.1.9,3h-.3ZM192.8,712.5h.2-.2ZM152.5,713.8l.8-2.1-.6,2h-.2ZM163.3,712h0c0-.1.2-.2.2-.2l-.2.2ZM185.8,713.5v-.2c0,0,0,.2,0,.2ZM188.7,713.5h.1-.1ZM127,713.5v-.2c0,0,0,0,0,0v.2ZM164.5,717l1.8-3.3-1.4,3.3h-.4ZM160.5,714.3h.2-.2ZM119.2,714.8h.3c0,0-.3,0-.3,0ZM189.5,715.3h.1c0,0-.1,0-.1,0ZM182.8,721.3l-1-5.5,4.7-.2,2,3.2,6.8-2.9-4.7,2.3v2.7l-3.8-2.1-3.7,2-.3.5ZM195.3,715.8l.2-.2-.2.2ZM189.7,716.5h.2c0,0-.2,0-.2,0ZM196.2,715.8v-.2.2ZM158.5,716.8l.3-.2-.3.2ZM180.5,716.5h.3c0,0-.3,0-.3,0ZM169.8,716.8l-.2-.3.2.3ZM122.5,717v-.2.2ZM195,718v-.3.3ZM191.5,718.8h0v-.2c0,0,0,.2,0,.2ZM175.3,719.5l.3-.3-.3.3ZM175.8,720.8l.5-.2-.5.2ZM174,721.5h.2-.2ZM187.7,720.8h.1-.1ZM190.3,721.8h.2c0,0-.2,0-.2,0ZM175.3,725.3l1.2-4.1,2.1,1.6-2.8,2.3-.5.2ZM181.5,722l.2-.3-.2.3ZM178.5,723.8l.3-.3-.3.3ZM185.2,726.5l-4-2.3,4.3,1.9-.3.4ZM185,724.2h.2c0-.1-.2,0-.2,0ZM191.5,724.5l.3-.2-.3.2ZM171.3,726.3l.6-.4-.6.4ZM170.2,725.2v-.3c-.1,0,0,.3,0,.3ZM191.5,725.8v-.3c0,0,0,.3,0,.3ZM175.5,726v-.2c0,0,0,.2,0,.2ZM179.3,729.5l.9-2.9-.6,2.7-.3.2ZM174.2,728.2h.3-.3Z"/>
    <circle class="st4" cx="150.3" cy="701.2" r="9"/>
    <text class="st3" transform="translate(142.7 706.2)"><tspan x="0" y="0">35</tspan></text>
    <circle class="st1" cx="148" cy="702.5" r="5"/>
  </g>
  <g data-mapno="36">
    <path class="st0" d="M295.4,700.8l1-2-.8,1.8-.2.2ZM296.9,702.5l-1.6-1.4,2.5-1.8-.8,3v.2ZM288.2,701.3l7.1-1.7,2.5,3.3-2.5,9.6,5.5,4.8-3.6,4,5.7,1.3-16.4,9.9-4.3,6.4-5.7-.9-.9-6.8-5.5-.6-1.1-7.7-5.7,2.2-11.7-4.5.7-8.1,4.9-3.9,7.4-2,2.4,2.4,8.6-6,11.6,1.2,1-2.3v-.6ZM299.2,721.2h.2c0-.1-.2,0-.2,0ZM298.4,721.5l.2-.4-.2.4ZM300.9,721.5v-.2c.1,0,0,.2,0,.2ZM305.7,722.2h.4c0-.1-.4,0-.4,0ZM301.9,721.8l.6-.2-.6.2ZM305,722h.1-.1ZM305.4,722.3h-.2c0,0,.2-.2.2-.2v.2ZM290.9,734.2l.3-.3-.3.3ZM288.7,733.8v-.2.2ZM287.4,734.2h.2-.2ZM282.7,739.3h.1c0,0-.1,0-.1,0Z"/>
    <circle class="st4" cx="282.4" cy="719.5" r="9"/>
    <text class="st3" transform="translate(274.7 724.5)"><tspan x="0" y="0">36</tspan></text>
    <circle class="st1" cx="293.9" cy="709.3" r="5"/>
  </g>
  <g data-mapno="37">
    <path class="st0" d="M283,681l1.6.2-1.3,7.2-2.8-.8.9-1.8-3.1,3.7v-3.7c-.1,0-4.2.5-4.2.5l1.4-3.4,7.4-2h.1ZM274.9,683.5h0c0,0,0,0,0,0ZM274.3,683.5h.2-.2ZM266,684.3h.1c0,0-.1,0-.1,0ZM267.9,684.8v.3c0,0,0-.3,0-.3ZM266.2,684.5h.2c0,0-.2,0-.2,0ZM271.2,686.8l-1.7-1.7h2.8c0-.1-.9,1.7-.9,1.7h-.2ZM266.4,685.3l.2-.4-.2.4ZM266.9,685.8v-.3c.1,0,0,.3,0,.3ZM272.9,686.2h.3c0-.1-.3,0-.3,0ZM266,686l.3-.2-.3.2ZM267,687.8l-1.1-2,1.1,1.8v.2ZM267.3,686.2v-.3c.1,0,0,.3,0,.3ZM265.4,686.3h0c0,0,0,0,0,0ZM276.2,686.5v-.2h.2c0,0-.2.2-.2.2ZM267.5,686.8v-.3c.1,0,0,.3,0,.3ZM265.4,687.2h.2-.2ZM267.7,688.2h.3-.3ZM270,689.3v-.2c.1,0,0,.2,0,.2ZM258.3,689.5h0c0-.1,0,0,0,0ZM273.3,689.3h.1-.1ZM263.5,689.2h.3v.2l-.3-.2ZM256.9,689.7v-.2c0,0,.2,0,.2,0l-.2.2ZM272.3,690.2h.3-.3ZM273.3,689.8h0c0,0,0,0,0,0ZM273.9,689.8h0c0,0,0,0,0,0h0ZM251.7,691.3l.2-.3-.2.3ZM269.3,691.5l.5-.5-.5.5ZM258.4,690v-.3c.1,0,0,.3,0,.3ZM256.9,690.2h.6c0-.1-.6,0-.6,0ZM256.3,692l-.5-1.7.8,1.4-.3.3ZM253.3,693l.5-2.9-.3,2.8h-.2ZM252.3,712.5l-3.8-1.9,2.4-8.4-4.3-4.1,5.6,2.3,10.4-9.2,8,2.2,3.4-3,1.2,4.1,2.2-2.4,2.5,4.9,8.3,4.3-1,2.9-11.6-1.2-8.6,6-2.4-2.4-4.1.6-8,5.3h-.2ZM275.5,690.8h.2-.2ZM263.9,690.8h0c0,0,0,0,0,0ZM259,691.2v-.4.4ZM259.4,691v-.4.4ZM250.9,691.8v-.6c0,0,0,.6,0,.6ZM256.9,692.8h.3-.3ZM249.7,694.3h.1-.1ZM250.7,694h0c0,0,0,0,0,0ZM252.2,695.7h.1-.1ZM249.7,698.5l1.4-1.5-1.3,1.2v.3ZM252.3,697.8h.2c0,0-.2,0-.2,0ZM249.9,702v-.3.3ZM250,702.2h.2-.2ZM241.8,704.3h-.2c0,0,.2,0,.2,0ZM245.3,706h0,0Z"/>
    <circle class="st4" cx="265.5" cy="699" r="9"/>
    <text class="st3" transform="translate(257.9 704)"><tspan x="0" y="0">37</tspan></text>
    <circle class="st1" cx="269.4" cy="693.7" r="5"/>
  </g>
  <g data-mapno="38">
    <path class="st0" d="M218.3,702.3l.4-4.5,2.7-1.5,1.6,4.3-4.6,1.6h0ZM230,699.5l1.1-3.2-.8,2.9-.3.3ZM228,696.8h0c0,0,0,0,0,0ZM228.7,698.5l-.4-1.8.6,1.6-.2.2ZM226.5,699.3l.9-2.3-.4,2-.5.3ZM228.8,700h.3-.3ZM217.8,699.3h.1-.1ZM227.3,699.8h.4-.4ZM225.5,702.3l-2.2-2.4,3.5.7-1.2,1.4v.3ZM232,700h.4-.4ZM227.2,700.8l.2-.3-.2.3ZM217,701.8l.2-.3-.2.3ZM217,702.7v-.3c0,0,0,.3,0,.3ZM233,702.7h.3c0-.1-.3,0-.3,0ZM214.5,703.2v-.3.3ZM221.8,707v-4.8c-.1,0,3.7.8,3.7.8l-3.4,3.7-.3.3ZM224.2,702.7h.1-.1ZM215.5,702.5l.3-.2-.3.2ZM217.3,702.3h0,0ZM235.2,703.3h.1c0,0-.1,0-.1,0ZM237.3,703.8v-.3c.1,0,0,.3,0,.3ZM220.5,704.7v-.3.3ZM248.4,710.5l4.1,2.2-.7,6.8-22.5,5.3-8.5,17.7-9.8,1.1,4.4,8-5,2.5-5,8-3.2-2.6,3.4,11.6-1.8,2.7-6.6-1.4-1.1,3-.3-4.7,3.3,1.2-3.5-5-4.8,1.6,1.2-2.7,3.8.7-1.8-3.8,2.7-.3-3-.5,1.2-1.9-2.8-1.9,4,2.3,3.3-3.3-1.1-2.8-3.3,1,2.7-3.4-7.2-.2,2.2-2-1.9-1.7.9-5.2h-4.6c0,.1-8,6.4-8,6.4l-1.7-1.5-3.9,2.6,30.2-20.1,5.4-17.1,7.3-3.9-1.4-2.8,2.3-1.5,8.4,12.5,9.5-4,9.1,1.4,3.7-3.7.4-.6ZM219,706.2l.3-.2-.3.2ZM227.7,706.5v-.5c.1,0,0,.5,0,.5ZM228.8,706.5h.3c0,0-.3,0-.3,0ZM219.8,706.7h.3-.3ZM229.2,707.3h0c0,0,0,0,0,0ZM206,709.3h.3c0,0-.3,0-.3,0ZM225.2,709.8h0c0,0,0,0,0,0ZM200.8,711.8v-.2c.1,0,0,.2,0,.2ZM224.8,712h0c0-.1,0,0,0,0ZM201.3,716.3l-1.1-1.4,3.2-2.9-1.9,4.3h-.2ZM237.3,713.8v-.3c.1,0,0,.3,0,.3ZM198.7,715.3l1-1.8-.9,1.4v.4ZM196.3,715.2l1.5-1.4-1.3,1.1-.2.3ZM205.5,715.2l.5-.2-.5.2ZM209,714.8h.1-.1ZM204,715.8h.1-.1ZM198,717.3h.1-.1ZM204.7,720.5l1.4-3.2-1.4,3v.2ZM203.3,719.5h.2c0,0-.2,0-.2,0ZM198,722v-.6c.1,0,0,.6,0,.6ZM195.3,728.3h.3c0,0-.3,0-.3,0ZM189.3,744.2l.3-.2-.3.2ZM190.3,745h0,0ZM189,748.3v-.2.2ZM190,749l.3-.4-.3.4ZM197.5,757.5l.2-.3-.2.3ZM190.3,757v-.2c-.1,0,0,.2,0,.2ZM190.2,759.2l.7-1.8-.7,1.7h0ZM195.5,757.5h.3-.3ZM192,759.3h0c0,0,0,0,0,0ZM185.8,759.2h0c0-.1,0,0,0,0ZM185.8,759.3h0c0,0,0,0,0,0h0ZM190.3,759.5h.2c0,0-.2,0-.2,0ZM186.5,760.5l-1.3-1.1,1.5.8-.2.3ZM191.8,759.5h.3-.3ZM191.8,760.5h-.2l.2-.3v.3ZM187.8,761.5l.2-.3-.2.3ZM188,761.2l.4-.2-.4.2ZM193,763.5l-.2-.2.2.2ZM192.5,764h0c0-.1,0,0,0,0ZM188,764h.3-.3ZM193.7,773h.1-.1ZM192,773.5h.1c0-.1-.1,0-.1,0ZM199.7,774.8l-.3-.2.3.2Z"/>
    <circle class="st4" cx="205.3" cy="744.7" r="9"/>
    <text class="st3" transform="translate(197.7 749.7)"><tspan x="0" y="0">38</tspan></text>
    <circle class="st1" cx="209.2" cy="722" r="5"/>
  </g>
  <g data-mapno="39">
    <path class="st0" d="M251.4,719.8l11.9,5.2,5.7-2.2,1.1,7.7,5.5.6.9,6.8,5.4.6-6.1,17.5-11.5-13.8-9.6-3-7.8,2.1-.2-2.8.6,3.1-10.5,4.4,4.2.5-4.4.5-1.3,2.6-1.5-2.8-2.6,4.2,1.5,4.1-1.9,6-1.9-.6-4.1,7.8-4,.6-.2,7.5-2.7,3.1,3.3,5.6-3.9-3.5-6.3,2.3-4.1-2.9-4.1,2,4.2-7.9-3.1-1.3,1.8-2.7-3.7-11,3.5,2,5-8,5-2.5-4.4-8,9.8-1.1,8.5-17.7,21.3-5.1h.7ZM281.4,739.5h.1-.1ZM282.2,739.5v-.2.2ZM234.5,749.5v-.2.2ZM234.8,749.7h0c0-.1,0,0,0,0ZM235.5,750l-.2-.3.2.2h0ZM204.3,774.5h.1c0-.1-.1,0-.1,0ZM204,774.5h.1c0,0-.1,0-.1,0ZM205.8,774.8l.5-.2-.5.2ZM195.7,781.3l.6-.2-.6.2ZM202.2,783l.3-.2-.3.2ZM198.7,786.5v-3c.1,0,.2,2.9.2,2.9h-.2ZM201.3,784h.2c0,0-.2,0-.2,0ZM195.8,784.7h.1-.1Z"/>
    <circle class="st4" cx="232.8" cy="753.8" r="9"/>
    <text class="st3" transform="translate(225.2 758.8)"><tspan x="0" y="0">39</tspan></text>
    <circle class="st1" cx="245.3" cy="738" r="5"/>
  </g>
  <g data-mapno="40">
    <path class="st0" d="M83.6,699.3l.4-.4-.4.4ZM113,712.5l.2-.4-.2.4ZM112.3,713h0c0-.1,0,0,0,0ZM117.3,713.8v-.3c0,0,0,.3,0,.3ZM119,715h.2-.2ZM134.5,734.8l-.7,6.4-6.6-.8-6.5,4.1-2.8,5.8,1.6,4.3-2,1.7,2.9,2.8-1.6,4.4-8.2-3.5-.9,3.5-4.1-.3-3.7,3.6.5,2.6h-5.3l1.5-2.6-4.1-8.5,9.3-8v-5.4l-6,2.4-6.3-4.7-11.1.6,5.3-3.8-3-2.7,5.7-4.8,3,4.9,6-1,1.5-5-3.6,2.6-3.2-2.6,2.4,1.6,5.1-3.7-.2-5.2,3.9-4.1,4.6.4,6.2-3.7,3.1,1.6-3.7,2.5h2.8l1-2.5,3.3,1.7,6.1-4.3-2.6,8.9,1.6-.5,4.4,10.9,4.1.3h.3ZM117.3,717l-2-.9,3.1.4-1.1.5ZM98.7,719.5l-1-1.4,1.2,1.3h-.2ZM102.2,719h.2-.2ZM80.2,721v-.2.2ZM100.7,721.2h.3-.3ZM127.3,723.3v-2.1l.4,2.1h-.4ZM124.8,722.8h-.3,0c0,0,.2,0,.2,0ZM126.2,725h.2-.2ZM95.7,727l.2-.3-.2.3ZM89.7,731.2h.2-.2ZM97.7,732.5l.4-.3-.4.3ZM92.8,735.5l.2-.2-.2.2ZM81.1,737.8v-.3.3Z"/>
    <circle class="st4" cx="107.7" cy="737.5" r="9"/>
    <text class="st3" transform="translate(100.1 742.5)"><tspan x="0" y="0">40</tspan></text>
    <circle class="st1" cx="98.3" cy="735.5" r="5"/>
  </g>
  <g data-mapno="41">
    <path class="st0" d="M72.1,736.5l.2-.3-.2.3ZM73.6,736.3h0c0,0,0,0,0,0ZM71,736.8h0,0ZM67.1,737.8h.3-.3ZM72.7,739h.3-.3ZM80.5,743.3l11.1-.6,6.3,4.7,6-2.4v5.4l-7.7,5.7-.8,5.8-5.2-3.5-5.8,4.4,4.6,9.3-10-3.4-4.1-4,1-4.2-5.8-1-2.8-6.1,1.5-2.9,2.9,2.7.7-6.5-4.1-2.5,1.2-1.8,2.5,1.8-.8-5.7,1.5,2.1,2.5-2,1.6,5.3,3.5-.3.2-.3ZM77.1,740h.3c0-.1-.3,0-.3,0ZM78.1,743.2h.2-.2ZM72,747.3l.3-.3h-.2c0,0,0,.3,0,.3ZM70.7,751.8h.2-.2ZM88.7,772.5h.2c0-.1-.2,0-.2,0Z"/>
    <circle class="st4" cx="80.3" cy="751.3" r="9"/>
    <text class="st3" transform="translate(72.7 756.3)"><tspan x="0" y="0">41</tspan></text>
    <circle class="st1" cx="92.7" cy="755.7" r="5"/>
  </g>
  <g data-mapno="42">
    <path class="st0" d="M51.9,672.8h0c0,0,0,0,0,0ZM49.4,688.8l-1.4,7.4v-4.5l-2.2,2.2v-3c0,0-.9,2.8-.9,2.8l-2.9-1.3,2.3-.7,1.8-5.2-1.6-1,3-2.9-2.7-1.5,1.7-5.1,3.5.4,2.5-3.7,2.2,2.2-3.1,3.4,2.1,2.9-4.3,7.3v.3ZM54.1,674.2h-.2c0-.1.2-.1.2-.1h0ZM43.7,688.8h.2-.2ZM44.1,689.3v-.2.2ZM50.6,693h0c0,0,0,0,0,0ZM50.1,694h.2c0,0-.2,0-.2,0ZM47.4,693h.1c0,0-.1,0-.1,0ZM47.4,693.3h.1c0,0-.1,0-.1,0ZM47.2,693.7h0v-.2c0,0,0,.2,0,.2ZM47.4,694h-.2v-.2l.2.2ZM47.2,695.8l-2.1-1.3,2.1.6v.7ZM41.4,708.3l-2.2-1,1.3-12,4.5,2.1-1.1-3,4.1,2.9-6.5,10.9h-.1ZM50.1,695.3h.3c0,0-.3,0-.3,0ZM46.6,696h.2c0,0-.2,0-.2,0ZM48.4,697.7l1.6-1.7-1.2,1.3-.4.4ZM42.7,707.5h.1c0,0-.1,0-.1,0ZM63.8,721v-.2.2ZM63.2,720.8h0c0,0,0,0,0,0ZM64.3,720.8h.2-.2ZM65.2,729.8l-3.5-3.6,2.1.5-1.8-2.6,2.5-3.3,4.5,4.3-3.8,4.3v.4ZM62.6,722.8h0c0,0,0,0,0,0ZM61.1,728.3h.2-.2ZM67.1,728.5l.2-.2-.2.2ZM61,728.8h0,0ZM62,729.2h0c0-.1,0,0,0,0ZM60.7,730.3h.2-.2ZM57.5,735.5h.3c0,0-.3,0-.3,0ZM57.5,743.3l-2.7-.3,2.4-2,.4,2v.3ZM66,746.8l1.1-3.6,1.7,2.1-2.7,1.5h0ZM65.7,744.3v-.3.3ZM55.3,745.8l1-1.7-.8,1.5-.2.2ZM50.9,750l.7-5.1.2,4.8-.9.3ZM64.8,746h0c0-.1,0-.1,0-.1h0ZM63.7,746.8v-.2c0,0,0,.2,0,.2ZM69.7,750l-.8-3.7,3,2-1.8,1.2-.4.5ZM49.1,760.2l-1.2-1.8,2.4,1.2-.9-2.7,2.5-.4v-6.4c0,0,4.1-.3,4.1-.3l1.5-3.1.8,2.9-3.2,5.5-5.8,5.1h-.2ZM68.2,747.5l.3-.2-.3.2ZM68.7,750.5l-1.5,2.9,2.8,6.1,5.8,1v5.2c0,0,6.8,5.5,6.8,5.5l5.6,1-5.5,5.3,4.6,1.2,5.7-2.1,2.6,3.5-.6,7.8-5.7,3.8-2.9,1-1.8-2.7v-2.8c0,0,3.7-2.3,3.7-2.3l-.7-2.9-5.2-.7-6.3,2-2.5,5.5-7.4,5.2,3.6-4.8-1-2.3,3.7-2.5-2.5,1.1-2.1-5.5-3.5-.7-3.2-5.4,2-9.7,4,2.8-1,3.4,1.1-1.8,2.8,2.1-1.6,6.6,2.8,2,1.6-3,6,2.2-3.6-4.4.7-5.1-3.4-2.9-2.6,1.5-2.4-3.6.6,2.3h-1.9l2.1-4.5-2.5,1-.5-2.3-2.8,3.5,1.7-2.2-3-1.5.2-3.1-.6,2-.6-2.1-2.9.3,3.3-5.1-2.9-.9.7-3.1,4.6-1,.3,2.5,5.3.3v.4ZM68.2,747.7h-.3.3ZM60,748.3h-.2.2ZM58.7,752.7v-.2h0v.2ZM36.9,755.8l-2.2-1.4,3.1-1.8-.6,3.2h-.3ZM58.1,753.5h0,0ZM58.2,754h.2c0,0,0,0,0,0h-.2ZM58.1,754.5h0c0-.1,0,0,0,0ZM58.1,755v-.2.2ZM57.5,755v-.2c0,0,0,.2,0,.2h0ZM57.7,755h.3-.3ZM34.7,755.8h.2c0,0-.2,0-.2,0ZM57.8,755.7l.2-.2-.2.2ZM57.6,755.5h0c0-.1.2,0,.2,0h-.2ZM47.2,755.8l.2-.3-.2.3ZM57.6,756.8h.2-.2ZM37.7,757.3h0,0ZM34.6,757.5h0c0-.1,0,0,0,0ZM33.7,759.5v-2.1c0,0,2.4.4,2.4.4l-2.2,1.5-.2.2ZM58.2,757.8v-.2.2ZM37.7,760.8l-.5-3,.5,2.8v.2ZM32.4,758.5l.3-.3-.3.3ZM58.6,758v-.3h.2c0,0-.2.3-.2.3ZM47.9,758v-.2.2ZM59.2,758.3h.2-.2ZM59.5,758.3h.2-.2ZM59.7,759v-.2.2ZM60.2,759h0,0ZM58.7,758.8v-.2.2ZM47.6,758.8h-.1c0,0,.1,0,.1,0h0ZM28.1,759v-.3.3ZM30.4,759.3h.1c0,0-.1,0-.1,0ZM58.8,760.5v-1.7c0,0,.5,1.6.5,1.6h-.5ZM47.2,759.5h0,0ZM60.3,759.3h0c0,0,0,0,0,0h0ZM47.7,759.8v-.3.3ZM32.4,759.5h0c0,0,0,0,0,0ZM33.9,759.8h0,0ZM31.9,759.8l-.2-.2h.2v.2ZM32.4,760.5v-.2.2ZM26.7,760.3h0c0,0,0,0,0,0ZM32.9,760h.1-.1ZM56.1,760.3h0c0,0,0,0,0,0ZM63.2,760.8v-.4.4ZM34.2,780l.4-4.8-3.4-3.5,3.2-.9-1.1-2.1,2.3-.4,1.2-7.8-1.5,10,3.8-1.2.9,1.9-2,2.2-1.8-1.4-1.8,8h-.2ZM61.6,760.8l-.2-.3.2.2h0ZM63,761.3h.2-.2ZM26.7,761.3h0c0,0,0,0,0,0ZM62.6,761.3h0c0,0,.2,0,.2,0h-.3ZM56.7,762.3l-1.6-.5,1.8.2-.2.3ZM63.5,762.2v-.4.4ZM37.7,762.3v-.3.2c0,0,0,0,0,0ZM62.7,762.3h.2c0,0-.2,0-.2,0ZM67,762.3h0c0,0,0,0,0,0ZM68.5,766v-.3.3ZM60.1,768.3l1.3-2.1-1.3,2h0ZM69.8,767h.2c0-.1-.2,0-.2,0ZM61.2,768.3v-.3.3ZM57.8,769.7l1-1.6-1,1.4v.2ZM42.4,770.3l1.2-1.8-.8,1.5-.4.3ZM39.9,768.7h0c0-.1,0,0,0,0ZM51.9,768.8h0c0,0,0,0,0,0ZM47.7,770v-.2.2ZM40.4,769.3h.1c0,0-.1,0-.1,0ZM31.7,769.7l.2-.2-.2.2ZM56.7,769.3h.3c0,0-.3,0-.3,0ZM62,770.3h.2-.2ZM57.6,769.7v-.2c0,0,0,.2,0,.2ZM66.6,770h0,0ZM66.3,770h.2-.2ZM32.4,771h.2c0,0-.2,0-.2,0ZM30.6,772.8v-.4.4ZM69.7,772h0c0,0,0,0,0,0ZM60.2,774.5l-.8-1.7,1,1.6h-.2ZM32.7,778.5l-2.9-1.5,1.1-3.5,1.8,4.7v.3ZM29.6,775l-1.3-1.2,1.5,1-.2.2ZM74.7,775.2h0c0-.1,0,0,0,0ZM40.2,774.3h.2-.2ZM33.7,774.5h-.3.2c0-.1,0,0,0,0ZM69.5,774.5h0c0,0,0,0,0,0ZM75.7,775.3h0c0,0,0,0,0,0h0ZM28.9,775.5h-.2v-.3l.2.3ZM27.1,776.2h.3-.3ZM33.1,776.2h.3c0-.1-.3,0-.3,0ZM59.7,776.5v-.2c0,0,0,.2,0,.2ZM28.6,781l-2.5-4.4,2,2.4,1.2-2.1-.6,4h0ZM33.1,777.2v-.3c-.1,0,0,.3,0,.3ZM69.2,776.8v-.2c0,0,0,.2,0,.2ZM57.2,776.8l-.3-.2h.2v.2ZM75.3,777.2v-.2c.1,0,0,.2,0,.2ZM69.5,777.3h.3c0,0-.3,0-.3,0ZM33.6,777.5v-.2.2ZM57.7,777.3h.3c0,0-.3,0-.3,0ZM32.9,777.5h.1c0,0-.1,0-.1,0ZM70.2,777.3h.2c0,0-.2,0-.2,0ZM33.4,777.5h.2-.2ZM31.4,777.8h.2-.2ZM33.2,778.5v-.4.4ZM25.1,783l-1.4-4.2,3.3,1.2-1.6,2.9h-.3ZM16.3,780.8v-.2c.1,0,0,.2,0,.2ZM28.2,781h.1c0,0-.1,0-.1,0ZM20.7,793.7l-8.2-2.1.5-2,1.5,2.4,1.2-1.3-.2-8.9,1.4,2.6,3.2-1.6.7,1.9,1.6-3.6-.3,2.6,2.5.4,1.8,5.8-5.7-.2v4ZM67,781.5l.3-.2v.2h-.3ZM30.7,784.2v-2.6c.1,0,0,2.5,0,2.5h0ZM29.7,783v-.3c.1,0,0,.3,0,.3ZM77.7,784l.3-.2-.3.2ZM78.3,783.7v-.2l.2.2h-.2ZM25.4,784.3h.2-.2ZM12.4,785.8h.1c0,0-.1,0-.1,0ZM24.9,785.5h.2c0-.1-.2,0-.2,0ZM24.6,785.5h-.3c0-.1.2-.1.2-.1h.1ZM68.2,787.2l-.9-1.4,1.2,1.3h-.3ZM26.4,786.8h.2-.2ZM13.6,790.2l.5-2.4-.2,2.2-.3.2ZM67,789.5v-.3c0,0,0,.3,0,.3ZM20.9,791.2l-.2-.2h.2v.2ZM20.9,791.3h0c0,0,.1,0,.1,0h-.1ZM23.9,792.3v-.3.3ZM27.7,792.7h.3-.3ZM26.7,793v-.2.2ZM17.6,793.3h.4-.4ZM26.7,794.3l.2-.2-.2.2ZM68,795l.5-.4-.5.4ZM3.4,823.7v-.5c.1,0,0,.5,0,.5ZM2,824h0c0-.1.2,0,.2,0h-.2ZM1.6,824.3h.2c0,0-.2,0-.2,0ZM1.3,825.3l.2-.3-.2.3ZM.7,826.3h.2c0,0-.2,0-.2,0ZM52.2,671.5v.2-.2ZM51.6,672v-.2c0,0,0,.2,0,.2h0ZM.6,826.3h0c0,.1,0,0,0,0Z"/>
    <circle class="st4" cx="70.7" cy="770.8" r="9"/>
    <text class="st3" transform="translate(63 775.8)"><tspan x="0" y="0">42</tspan></text>
    <circle class="st1" cx="72.7" cy="784" r="5"/>
  </g>
  <g data-mapno="43">
    <path class="st0" d="M141.3,779.2l-3.5.9-7,13.3-4.1,1.7v6.2l4.4,6.2-3.3,4.3,3.1,5.1-4.5-.9-1.8,3-10.2,1.4-7.8-5.1-2.5,2.8-6.6.9-1.3-4.7,9.5-12.7-1.6-5.7,5.7-5.5-9.5,1.5,7-6,.3-4.5-8.1-6.8-1.4-5.1h4.7c0-.1-.8-2.6-.8-2.6l3.7-3.6,4.1.3.9-3.5,14.6,8.3,1.7-3.5-2.1-3.9,3.7-2.2,4.8,3,4.9,9.3-.5,4.8,3.5,3.1v.2ZM98.5,795.2l-1.3-2.2,2.5-2.1-1,4.2h-.2ZM101.6,793.5l1-1.6-.7,1.6h-.3ZM94.7,792.3l.2-.3-.2.3ZM99.7,792.5v-.2h.2l-.2.2ZM100.6,795.7l.4-2.7v2.2c-.1,0-.4.5-.4.5ZM96.6,793.3h.3c0,0-.3,0-.3,0ZM100.1,794v-.3.3ZM83.6,795h.5-.5ZM95.2,803l-5.6,1.1-1.2-2.5-.2,5.9-2.2-.6-2.8,5.9-5.2,1.9.2-4.9,3.6-.9-4.3-1.7,2.3-11.6,7.5-.5.7,5.5,5.4-3.8,6.8-.8-2.7,7.6-2.5-.4.2-.2ZM97.1,795.3h0,0ZM98.3,795.7l.4-.2-.4.2ZM87.7,795.7l.2-.2-.2.2ZM97.6,795.8h.2c0,0-.2,0-.2,0ZM99.2,796v-.3c0,0,0,.3,0,.3ZM99.1,796.2h.2-.2ZM96.2,796.3v-.5c0,0,0,.5,0,.5ZM98.7,796.5l.2-.2-.2.2ZM101.7,798.8h.3-.3ZM89.3,803.3v-.3h.2c0,0-.2.3-.2.3ZM89.6,803.5h0c0-.1,0,0,0,0ZM98.3,805.2l.3-.3-.3.3ZM94.1,804.2l.2-.5-.2.5ZM97.7,804h0c0,0,0,0,0,0ZM94.6,804.3l.3-.6-.3.6ZM93.7,805h0,0ZM89.3,805.3h.3-.3ZM92.8,805.2l.3-.3v.2h-.3ZM95,805.5h0,0ZM93.2,806.8l.3-.2-.3.2ZM95.6,806.2h-.2c0-.1.2-.3.2-.3v.3ZM92.8,808.7l3.4-2.4-3.2,2.3h-.2ZM92.7,807.7v-.2c0,0,0,.2,0,.2ZM85,811h.5c0,0-.5,0-.5,0ZM77.2,814.5v-.2c0,0,0,.2,0,.2ZM81.8,814.8h.2-.2ZM95.7,814.8l.3-.3-.3.3ZM80.7,817l-1.3-1.7,1.3,1.4v.3ZM77.3,815.8l-.3-.4.3.4ZM80.8,816h0c0-.1-.2-.3-.2-.3l.3.3ZM81.1,816.7h0,0ZM80.7,817h-.2.2ZM77.3,817.7h0v-.3c0,0,0,.3,0,.3Z"/>
    <circle class="st4" cx="114.8" cy="790.5" r="9"/>
    <text class="st3" transform="translate(107.1 795.5)"><tspan x="0" y="0">43</tspan></text>
    <circle class="st1" cx="113.7" cy="781.5" r="5"/>
  </g>
  <g data-mapno="44">
    <path class="st0" d="M155.7,729.2l3.2-.7-2.6.6h-.6ZM167.5,784l-1.8.6.5-5-4.3-.8-2.5,3.5-6.7,1.1-4.6-4.6-5.4,2-5-5,.5-4.8-7.8-11.9-5,.3-.2,8.9-6.8-3.8,2-5.4-2.9-2.8,2-1.7-1.6-4.3,4.3-7.7,5-2.2,6.6.8.7-6.4,11.6,2.4,4.2-6.3,6.6.9,3.8,6.1v5.6c-.1,0-1.7,3.3-1.7,3.3l-3.7-.9.9,2.6-2.5,1.5-4.4-.7v3.6c.1,0,4.1,2.9,4.1,2.9l15-1.2-5,7.9,4.8-.4-2.2,2.7,2.8,1.1,4.2-1.7.8,2-4.3.6-1.7,3.4,9.2,3.3-5.3.6,1.9,1.7-3.3,3.1,3,.4-5.5,1.3-.3,3.3h0ZM170.5,754.5h.2c0-.1-.2,0-.2,0ZM165.3,759.8h-.2c0,0,.2,0,.2,0h0ZM172,760.5h.3c0,0-.3,0-.3,0ZM171.8,761h.3c0-.1-.3,0-.3,0ZM166.3,761.8h.1c0,0-.1,0-.1,0ZM173,764.3l.6-.4-.6.4ZM168,764.2v-.3h.2c0,.1-.2.3-.2.3ZM169.5,770.8l.9-2-.8,1.7v.3ZM168.8,769.3v-.3.3ZM176.5,772.3v-.2.2ZM170.8,771.8h0c0,0,0,0,0,0ZM175.3,774.5v-.2c-.1,0,0,.1,0,.1h0ZM174.5,776.5h0c0,0,0,0,0,0h0ZM168.8,782.7h.3-.3ZM169.5,785.8h0,0Z"/>
    <circle class="st4" cx="153.8" cy="760.3" r="9"/>
    <text class="st3" transform="translate(146.2 765.3)"><tspan x="0" y="0">44</tspan></text>
    <circle class="st1" cx="154.8" cy="756.3" r="5"/>
  </g>
  <g data-mapno="45">
    <path class="st0" d="M167.5,784l-9.6,11.3,2.2,2.8-3.3.6-.8,2.5,2.2.8-4.9,7.6-5.8,21.2.3,14.6-4.1,4.9-1.4,10.4-4.6-.7-4.4-4.4,1.3-9.1-6.4-.5-3.1-8.1-5.3-2,1.8-4-5.3-3.4-4.5-7.2,12.7-2.4,1.8-3,4.5.9-3.1-5.1,3.3-4.3-4.4-6.2v-6.2l4.1-1.7,7.6-13.8,4.7,1.3,5.1-2,4.6,4.6,6.7-1.1,2.5-3.5,4.3.8-.5,5,1.8-.7h0ZM165.7,787.5h.1-.1ZM164.8,789.2v-.2.2ZM157.3,799.8h.2-.2ZM160.2,799.8h.2-.2ZM148.2,840.3v-.2.2ZM145.5,852.8l-.2-.7.2.7ZM144,853.5v-.2h.2l-.2.2ZM144.3,855v-.4.4ZM143.7,856.3v-.4.4Z"/>
    <circle class="st4" cx="143.3" cy="814" r="9"/>
    <text class="st3" transform="translate(135.6 819)"><tspan x="0" y="0">45</tspan></text>
    <circle class="st1" cx="145.8" cy="830.7" r="5"/>
  </g>
  <g data-mapno="46">
    <path class="st0" d="M88.7,811.8l2-3.2-1.9,3.1h0ZM86.6,813.2l.9-2.4-1,2.1v.3ZM87.2,811h0c0,0,0,0,0,0ZM89.2,812v-.2c0,0,0,.2,0,.2ZM87.2,812.3v-.2.2ZM88.2,814.3l-.5-2.2.7,1.8-.2.4ZM86.1,820.8l-3.3-5.1,4-2.8,1.7,4.1-2.3,3.7h0ZM87.1,813.2h0c0-.1,0-.1,0-.1h0ZM88.7,813.2h.2c0-.1,0,0,0,0h-.2ZM112.6,820l-.7,2.4,4.5,6.1,5.3,3.4-1.8,4,5.3,2,3.1,8.1,5.3-.3,1.9,3.3-2.1,6.6-2.5-.8-4.2,4.5,4.2,3.5-1.3,3.2h2.2c0,0-5.7,3.1-5.7,3.1l-2.2,4.4-14.2,7.8,6.9-18.9-5-6.9v-5.2l-5-1.8,3.9-2.2,1.5,4,2.6-.4,2.8-5.2-1.3-2.5-7.9-.7-5.4,12.4,2.8,9.8,4.5,2.6-3.8,6.1-3.4-.7-2.5-4.4h-11.7l.6-3.1-2.5-1.1,1.7-1.3-4.9-3.6,7.9-.7,2.9-8.9-7.9-11.5,2.6-6.5-2.2-10.9h6.3c0,0,2.4-3.4,2.4-3.4l4.5,3,7.4-4.1,4.7,4.7h.4ZM86.2,824v-.4h0c0,.1,0,.4,0,.4ZM86.2,824.5l.3-.2-.3.2ZM72.6,836.8l-1.8-4.6,4.6.8-2.8,3.6v.2ZM75.3,833.2l.2-.2h.2c0,0-.4.2-.4.2ZM76.7,833.2h0c0-.1,0,0,0,0h0ZM77.6,833.5h-.2c0-.1.2-.1.2-.1h0ZM71.1,835.8v-.2.2ZM70.5,838.3l.5-2.5-.3,2.1-.2.4ZM65.1,846.8l-2.7-2.1,6.8-7-4,8.7v.4ZM112.2,842.5v-.2c0,0,0,0,0,0v.2ZM112.7,847.2l.2-.4-.2.4ZM131.3,857.5v-.4.4ZM127,861h.5c0,0-.5,0-.5,0ZM86.2,861.8l.3-.3-.3.3ZM110.5,866l.3-.3-.3.3ZM53.7,870.3v-.5.5ZM51.9,871.3h0,0ZM110.3,881.3h-.2l.2-.2v.2ZM53.4,888.8h0c0,0,0,0,0,0ZM75.3,891.5l-.3-2.1.5,2.1h-.2ZM51.6,889.8l.3-.2-.3.2ZM123.3,901l5-11.2,1.1,7.9-5.5,11.9.9,4.5-5.1,2.9-1-6.7,4.6-8.7v-.6ZM99.5,892.2l-2.2-.6h2.4l-.2.6ZM91.7,893.7l1.6-1.7-1.6,1.5v.2ZM118.8,896.2l.2-2.1v2.1h-.2ZM88.5,912.8l-3-3.7,5.7,2.6-2.5,1h-.2ZM103.2,923.5l-3.9-.7-3-7.3,5.7-5.4,8.2,5.1-.8,4.4-5.9,3.7-.3.2ZM75.3,938.5l-.8-3.1,1,3.1h-.2ZM57,941.8h.2c0,0-.2,0-.2,0ZM60.7,942.5v-.3.3ZM72.6,945.8l-1.2-3.6,3.4,3.5h-1.9c0,0-.3,0-.3,0ZM56.7,953.5l.2-.5-.2.5ZM64.7,957.5l-1.2-2.6,2.8-1.1-1.5,3.6h0ZM60,966l-.6-1.8.9,1.8h-.3ZM47.6,978l.2-.3-.2.3ZM46.7,978.3l.3-.5-.3.5ZM41.7,983.2l-1.5-1.4,1.5,1.3h0ZM31.4,999.5h.2c0-.1-.2,0-.2,0ZM31.2,1001.3l.3-.2-.3.2ZM61.8,1020.6l2-5.1.9,5.8-14.2,9.3,3.2,2-3.5,3.1-3-.8,2,3.1-5.5-3.9.6-2.7-1.3,1.6-5.4-2.7,6.6-.4-3-2.4,11.9-5.8,1.6,1.8,2.2-4.4,3.7-.8-1.5,3.4,2.5-.9.2-.2ZM76.1,1029.2l-1.3-2.5,4.7-3.1-3.4,5.5h0ZM41.2,1028.7l-1.2-1.2,1.5,1.1h-.3ZM46.4,1040.6l-3.3-2.6-1.6,1.7-1.9-5.9,4.4,1.1-1.2,2.4,4.6.3-.6,2.4-.4.6ZM39.4,1033.7l.2-.3-.2.3ZM39.6,1037.9h0,0ZM38.4,1043.1l1.2-2.8-1,2.7h-.2ZM43.4,1043.6l-2-2.6,2.2,2.4-.2.2ZM44.6,1042.8h0c0,0,0,0,0,0ZM43.4,1043.8v-.2.2c0,0,0,0,0,0ZM26.7,1057.1l-.6-7,3.8-.4v3.9c0,0,3.1,2.5,3.1,2.5l-2.3,5.4-3,.3-1.1-4.6h0ZM11.4,1075.8l6.5-1.7-7.4,5.6-1.7-3.1,2.2-.7h.4ZM5.1,1096.1l-2.2-1.6,2.1-.8.7,2.1-.6.3ZM51.4,873.5h0c0,.1-.2,0-.2,0h.2ZM51.4,890.3h0c0,.1,0,0,0,0Z"/>
    <circle class="st4" cx="106.7" cy="851.8" r="9"/>
    <text class="st3" transform="translate(99.1 856.8)"><tspan x="0" y="0">46</tspan></text>
    <circle class="st1" cx="105" cy="850.2" r="5"/>
  </g>
  <rect class="st5" x="20.2" y="937.3" width="150" height="150" rx="6" ry="6"/>
  <text class="st2" transform="translate(27.1535 1084.35)"><tspan x="0" y="0">沖縄</tspan></text>
  <g data-mapno="47">
    <path class="st0" d="M68.2,956.5l1.4-5.2,6.6-5.3-7.4,9.4-.6,1.1ZM67.1,957l.3-1.1-.3,1.1ZM69.6,958.5h.9-.9ZM68.7,965l-2.6-2.6,2.3-2,.9,4.4-.6.2ZM67.8,967l.3-.2-.3.2ZM88.6,985l-.3-2.9,7.4-5.5,1.5-7.5,5.4,2.9,1.7,9.6-8.3,12.4h-8l.3,3.2-2.6-.3,2.6,3.4-5.2,3.6-5.7-2.1,1.7,3.4-9.5,4.9v3.7l-7.4-1.9-4,3.2,8.6,9.8.3,3.6-5.2-5.2-2.6,1.3.9,1.8-2.9,1.1-5.4,10.1,1.7,3.6,4.3-2.1.9,2.3-9.8,8.1-6.3,1-.9-6.5,2.1-.7-2.3-.3-.9-4.4,3.4-1-.5-3.9,8.6-6.7-4.6-13.5,2.3,2.1,3.1-2.6,2.6,1,4.3-7,6.9-1.3,6-6.5-8.3-2.8-1.4-10.7,12,2.6-2.6,3.7,4,2.3,9.5-3.1-2-3.1,3.7-2.6.9-.5ZM105.2,982.2l-.6-.3h.3l.3.3ZM56.5,986.3l-4.9-.6-.3-2.3,5.2-.8,2,3.1-2,.6ZM76.2,987.3l-.5-2.1.8,1.8-.3.3ZM77.3,992.5l-3.7-2.6,2.3-1,1.4,2.8v.8ZM83.7,990.5l.3-.2-.3.2ZM61.6,994l.3-2.5v1.8l-.3.7ZM57.6,992.5l-.3-.5.3.5ZM77.1,993.5l.3-.2-.3.2ZM73.8,1019.6l.6-1.6-.6,1.6ZM68.2,1024.9l5.2-5.2.5,1.8-5.1,2.6-.6.8ZM59.8,1024.4l2.3.5-2.6-.3.3-.2ZM70.5,1027.3l-.9-2.1.9,1.6v.5ZM67.8,1026.8l-.5-1,.5,1ZM73.3,1028.3l.5-.3-.5.3ZM32.1,1031.9l.3-.3-.3.3ZM35.2,1032.4l-.3-.3.3-.5v.8ZM35.4,1032.2v-.2h.3l-.3.2ZM69.1,1033.9l-.6-2,.6,1.5v.5ZM63.6,1043.3l2.3-1.9-2.3,1.9ZM53.2,1045.8l.3-.5-.3.5Z"/>
    <circle class="st4" cx="95.2" cy="955.3" r="9"/>
    <text class="st3" transform="translate(87.5 960.3)"><tspan x="0" y="0">47</tspan></text>
    <circle class="st1" cx="44.9" cy="1037.1" r="5"/>
  </g>
</svg>