<?xml version="1.0" encoding="UTF-8"?>
<svg id="_レイヤー_1" data-name="レイヤー_1" xmlns="http://www.w3.org/2000/svg" version="1.1" viewBox="0 0 1004.8 1146.1">
  <!-- Generator: Adobe Illustrator 30.5.1, SVG Export Plug-In . SVG Version: 2.1.4 Build 3)  -->
  <defs>
    <style>
      .st0 {
        stroke-linecap: round;
      }

      .st0, .st1, .st2 {
        stroke-linejoin: round;
      }

      .st0, .st1, .st2, .st3 {
        fill: none;
      }

      .st0, .st2 {
        stroke: #1e293b;
        stroke-width: 1.1px;
      }

      .st1 {
        stroke: #94a3b8;
        stroke-width: .7px;
      }

      .st4 {
        fill: #94a3b8;
        font-family: KozGoPr6N-Regular-90ms-RKSJ-H, 'Kozuka Gothic Pr6N';
      }

      .st4, .st5 {
        font-size: 20px;
        isolation: isolate;
      }

      .st6 {
        fill-opacity: 0;
      }

      .st5 {
        fill: #fff;
        font-family: ArialNarrow-Bold, Arial;
        font-weight: 700;
      }

      .st7 {
        fill: #64748b;
      }

      .st3 {
        stroke: #cbd5e1;
        stroke-dasharray: 4 3;
      }
    </style>
  </defs>
  <path class="st1" d="M384.5,635.3l4.2,3.9-2,14.4,2.3,8.5h3.6c0,0,3.8,5.8,3.8,5.8M396.5,667.8l1.6,3M398,670.8l-1.2,1.9-5-3-3.5,3-4.5-1.3-1.2-2.9M382.6,668.5l-2.5-6.9-3.5-1.6.6-2.6-3.4,3.3-8.1-7.5M365.8,653.3l.9-4.8-9.5-2.5-1.5-5.2-4.2,1.4-6.8-4.3.5-5.5h5.4l-.2-5.9-.4-1.9-5.3,1.5-3.4-4.2.8-4.1M596.7,543l1.5,13.1-3.5,1.4,1.9,9.9-3.2,6.7-10.3,1.5-3.1,4.5-2.8-.6-1.3,4.3-6.3,2.4M569.5,586.3l-1.2-.5M114.1,743.3l11.1-.6,6.3,4.7,6-2.4v5.4l-7.7,5.7-.8,5.8M568.3,585.8l-1-3.5-8.3-.3-4.6-5.6,5.4-12.4-7.3-3.3,3.1-16.2M121.8,772.2l-5.6-1-6.9-5.5v-5.2c0,0-5.7-1-5.7-1l-2.8-6.1,1.5-2.9M168.1,734.8l-.7,6.4-6.6-.8-6.5,4.1-2.8,5.8,1.6,4.3-2,1.7,2.9,2.8-2.3,4.7M285.9,712.5l-.9,7.4M533,632.8l-11.1,2.5-5.7-4.6-1.2,13.6-4.9,1.1-3-7.5-5.6-1.2,1-10.6-2.3-7.5M500.3,618.5l-1.9-4,2.6-2.8-2.3-1.9,8.8-10.4,3.9,4.2,6.5-1.1,1.3,2.9,5.1-2.4M285,719.8l-22,5-8.5,17.7-9.8,1.1,4.4,8-5,2.5-5,8-3.2-2.6,3.4,11.6-1.8,2.7M415,643.3l1.9,3.3-4.3,14.8-5.4,2.6-6.6-2.5-.7,4.8-3.5,1.6M174.9,779.2l-3.5.9-7,13.3-4.1,1.7v6.2l4.4,6.2-3.3,4.3,3.1,5.1-4.5-.9-2.7,3.3-11.1.8M146.2,820l-5.1-4.8-7.4,4.1-4.5-3M578,412l9.1-.9,4.3,5.2,9.9,1.4,8.8,8.4M131.7,769.5h4.7c0-.1-.8-2.6-.8-2.6l3.7-3.6,4.1.3.9-3.5,7.5,3.8M151.8,763.8l7.1,4.5.2-8.9h5.6l7.2,11.6-.5,4.8,3.5,3.3M568.3,585.8l-8.9,1-5.4-3.8-1.8,1.5-9.1-3.2-4.1,9.1-13.6,5.4-1.9,2.9M628.3,485.9l-3.6.3v5.7c-.1,0-3.8-.8-3.8-.8l.9,2.2-4.7-1.9-1.6-5.8h-8.3l-3.6-4.4h-6M597.5,481v-5l6.6-1.7,2.4-11,7-11.2-3.8-10.7,2.9-.4,2.1-7.7-4.6-7.3M610.2,426l4.3.3,6.4-4.6M620.8,421.8l10,5h7.2c0-.1-1.6,3.2-1.6,3.2l6.1,4.6,3.6-4.6,6,2.5,2.5-13.1,6.7,1.6M597.5,481l-.9,8.4,1.8,1.5-2.9,3.8-5.7.7-3.1-2.7-3.3,1.1-2.3-4.1-5.9,1.6-6-2.7M379,691.2l3.7,8.9-3.8.6-4.9,6.8,4.4,6.7-1.9,4.1.9,2.2,9.1-2,2.2,1.8M388.6,720.3l2.3,6.2,5,2.4M352.5,695.3l3,2.2,23.4-6.4M470.4,575l3.2,5-4.7,9.5,2.8,3.9-.9,3.6-12.8,11.5,6.6,3.5,3.9,6.1-1.2,3.1,5.3,5.1-1.9,3.6,2,2.6-2.9.2,1.4,3.8-2,2.6M395.5,712.5l.4,2.4-4.8,2.8M391.1,717.8l-.2-2.6,4.6-2.6M431,592.8l4.7-9.6-3-2.9M432.8,580.3l3.8-4,3.6,1.2,1.3,4.2,8.8-10.7,2.2,1.8,4.8-2.1.5,2.2,3.3-2.1,9.3,4.2M663.7,330.1l-6.4,6.2-4.8-1.5-4.4,2.8-1.5-2.7-14.4,9.7-2.8-1.9M408.8,617.8l4.1-7.8,6.4,2.4.9-2.2,12.5-.6,2-3.4-5-8,1.4-5.3M389.9,718.3l-.3,2.8M389.5,721l.3-2.8M382.6,668.5l-3.7,9.8,1.6,7.1-1.6,5.7M367.3,673.5l2.6-2.3-1.9-10.1,2.4-1.2-5.7-2-.8-4.1,1.9-.5M470.4,575l5.5-7.6-.7-2.6,2.9-1.5.6-10.5M478.6,552.8l5.4-5.9-.5-2.8,7,.7-.6,4.4,2.4,1.7,7.6-4.2,3.5,1.4,5-8.9,6.1-2,3,2.5v4.4c.1,0,5.1,3.7,5.1,3.7v6.6M192.1,674.2l1.6,6.1-2.8,4.2,1.5,3.9,4.5-.2-1.4,3.5,2.6,4.1,4.7-2,1.9,1.9,1.8-7.1,3.3-2.1M201.1,784l-1.8.6-1-5.4-12.5,4.2-4.1-4.6-5.1,2-1.8-1.7M482.1,643.5l14.4-9.1v-10.6l3.7-5.2M624.5,612.8l-16.1-12.4-.5,3-2-1.3-14.4,5-10.1-5.7-7.8-8.8M573.7,592.5h-2.2c0,.1-1.9-6.3-1.9-6.3M388.6,720.3l.9.8M389.9,718.3l1.3-.5M395.5,712.5l4.8-.8.6-3.3.6-13.4-2.9-4.4,7.6-5.5-3.5-4-5-1.2.3-9.1M265.4,624l-2.2,1.5,5.9,6.9-.6,8-7.4,2.7,1.9,2.9-2.7,5.5M221.6,706.3h-.3M629.3,342.8l-4.5,4.7.9,18.4-4.6.5,3.1,4.3-3.4,3.7,2.2,5.2-7.7,14.3,7.1,14.5-2.7,2.4,2.7,5.1-1.6,5.9M581.3,331.5l4,.6,2.2-3.1,1.9,2h10.7c0,0,2.5-3.1,2.5-3.1l8.2,5.6,1.3-2.5,3.1,2,10.7-6.7-.9,4.6,5.9.7-1.5,11.1M315.5,738.7l-5.4-.7-.9-6.8-5.5-.6-1.1-7.7-5.7,2.2-11.9-5.2M274.9,685.8l-3.2-18.8-4-5.5,1.4-6.1-2.5-2.9M266.6,652.5l1-2.4,5.7-1.3-.7-3.4h6.1c0,0-1-2.7-1-2.7l2.9-1.6,1.4-5.1,7.1,1.4,4.6,4.1,8.1-5.9-.2,2.6,5.9,1.3,1.7,6.5,10.9-4.1M260.3,651.5l6.3,1M285.9,712.5l-3.8-1.9M218.1,701.2l-4.7-1.5-3.7-13.2M321.8,701.3l-1,2.9-11.6-1.2-8.6,6-2.4-2.4-4.1.6-8.2,5.3M209.8,686.5l-1.4-2,4.2-4.6.2-7.2,5.2-5.7,7.4,1.6,1.7-2.4,4.9,1.4,8.2-3-3.7-3.2,5.6-3.3,5.7-8.2,12.5,1.6M578.3,618.8l2.2-3.5-1.2-4.8M579.3,610.5l.3-5-5.9-13M472.6,540.3l3.5,2.1,2.5,10.5M432.8,580.3l-.3-19.4,1.9-2.3-1.7-3,3.1-2.9,1.4-8.6,7.9-2.7M534.4,606.3l3.8-2.5,12.8,3.5,4.5,4.2,7.2-2.5.3,3.1,10.4-3.6,5.9,2M574.5,625.3l-12.5-6.8-3.7,1.9,2.8,2.1-1.9,4.2-3.2-4.8-7.5-1.2-5.1-3.8M431,592.8l-4.3,1-5.3-5.1-9.5-.8-5-7.5M146.2,820l-.7,2.4,4.5,6.1,5.3,3.4-1.3,4.6,4.8,1.4,3.1,8.1,6.4.5-1.3,9.1M469.1,639.2l.7,5.2,5-2,7.3,1.1M482.1,643.5l-9.3,18.6-7.2,4.6-.2,8M427.3,648l.2-6.1,4.3-7.4,7.2-.5,2.3-2.5,5.3,7.5,4.7,2.2,5.9-2.2,5.8,4,6.2-3.8"/>
  <path class="st2" d="M342,617.8l2.6.7,14.1-7.7,4.1,4.9-5.4,9.1,2.6-3.7-.3,3.8,4.1,1-.4,3.8,3.6-2.3-2.6-.7v-2.8l5.6-2.9,1.1,2.6M368.3,616.7h0M370.8,621.5h0M364.1,627.3h0M105.7,736.5v-1.7,1.7M107.2,736.3h0M104.6,736.8h0M100.7,737.8h0M106.3,739h0M128.9,761.8l-5.2-3.5-5.8,4.4,3.9,9.4M102.3,750.5l2.9,2.7.7-6.5-4.1-2.5,1.2-1.8,2.5,1.8-.8-5.7,1.5,2.1,2.5-2,1.6,5.3,3.7-.6M110.7,740h0M111.7,743.2h0M105.6,747.3h0M104.3,751.8h0M122.3,772.5h0M129.2,816.3l10.1-14.8-1.6-5.7,5.7-5.5-9.5,1.5,7-6,.3-4.5-8.1-6.8-1.4-5.1M132.1,795.2l-1.3-2.2,2.5-2.1-1.2,4.3M135.2,793.5l1-1.6-1,1.6M128.3,792.3h0M133.3,792.5h0M134.2,795.7l.4-2.7-.4,2.7M130.2,793.3h0M133.7,794h0M117.2,795h0M128.8,803l-5.6,1.1-1.2-2.5-.2,5.9-2.2-.6-2.8,5.9-5.2,1.9.2-4.9,3.6-.9-4.3-1.7,2.3-11.6,7.5-.5.7,5.5,5.4-3.8,6.8-.8-2.7,7.6-2.3-.6M130.7,795.3h0M131.9,795.7h0M121.3,795.7h0M131.2,795.8h0M132.8,796h0M132.7,796.2h0M129.8,796.3h0M132.3,796.5h0M135.3,798.8h0M122.9,803.3h0M123.2,803.5h0M131.9,805.2l-.3-1.7.3,1.7M127.7,804.2h0M131.3,804h0M128.2,804.3h0M127.3,805h0M122.9,805.3h0M126.4,805.2h0M128.6,805.5h0M126.8,806.8l1.5-.9-1.5.9M129.2,806.2h0M126.4,808.7l3.4-2.4-3.4,2.4M126.3,807.7h0M118.6,811h0M110.8,814.5h0M115.4,814.8h0M129.3,814.8h0M114.3,817l-.9-2,.9,2M110.9,815.8h0M114.4,816h0M114.7,816.7h0M114.3,817h0M110.9,817.7h0M316.6,681l1.6.2-1.3,7.2-2.8-.8.9-1.8-3.1,3.7v-3.7c-.1,0-4.2.5-4.2.5l1.4-3.4,7.5-1.9M308.5,683.5h0M307.9,683.5h0M299.6,684.3h0M302.1,684.2l-.7.6M299.8,684.5h0M304.8,686.8l-1.7-1.7h2.8c0-.1-1.1,1.7-1.1,1.7M300,685.3h0M300.5,685.8h0M306.5,686.2h0M299.6,686h0M300.6,687.8l-1.1-2,1.1,2M300.9,686.2h0M299,686.3h0M309.8,686.5h0M301.1,686.8h0M299,687.2h0M301.3,688.2h0M303.6,689.3h0M291.9,689.5h0M306.9,689.3h0M297.5,689.2h-.3M290.5,689.7h0M305.9,690.2h0M306.9,689.8h0M307.5,689.8h0M285.3,691.3l-.7-1.6.7,1.6M302.9,691.5l.8-1.7-.8,1.7M292,690h0M290.5,690.2h0M289.9,692l1.1-1.6-1.1,1.6M286.9,693l.5-2.9-.5,2.9M282,710.5l2.4-8.4-4.3-4.1,5.6,2.3,10.4-9.2,8,2.2,3.4-3,1.2,4.1,2.2-2.4,2.5,4.9,8.3,4.3M309.1,690.8h0M297.5,690.8h0M292.6,691.2h0M293,691h0M284.5,691.8h0M290.5,692.8h0M283.3,694.3h0M284.3,694h0M285.8,695.7h0M283.3,698.5l1.4-1.5-1.4,1.5M285.9,697.8h0M283.5,702h0M283.6,702.2h0M275.4,704.3h0M278.9,706h0M465.5,674.7l-22,5.5,2.7-4.9,2.3,1.5,7.6-5.4,1.1,3,1.1-5.9-5.4-2.5-1.7,3.3-7.2-.7-3.7-2.6,1.5-7.8-3.1,10.8,2.9,4.1-2.6-.3-3.8-3.3,1.1-4.2-2-2.5,3.4-12.3-5.9,4.1M433.9,656h0M434,658.8h0M433.6,665l-.3-2.3.3,2.3M457.1,667.2h0M457.1,668.3h0M453.5,668.2h0M447.3,669.5h0M457.8,671.2h0M445,672.2h0M458.8,671.8h0M454.5,672.5h0M442.6,673h0M442.9,675h0M661.3,421l2.1,6.8-4.4-3.1,1,5-4.1,2.9,2,5.5-1.6-1.7-3.8,2.6v2l4,.3-3.4,3.6,1.8,2.8,1.7-1.1.2,3.7-3.1-2,1.9,4.4-3.1.4,1.2,2.9,3.2-.4-2.6,1.5,2.3,2.1-.4,4.1-5.5-7.9-6.7-1.1-5,3.4.9,2.7-2.2-3.5-3.2.5-1.9,3,2.9,1.7-4.1,1.2,2.2.4-5.6,10.7.2,11.5M661,429.5v-3.4c0,0,0,3.4,0,3.4M655.7,446.5h0M656.3,453.3l-.6-1.7.6,1.7M659.5,455.9h0M659.8,456.5h0M651.5,457h0M634.8,457.6h0M635.5,457.8h0M635.2,457.8h0M639,458.4h0M637.3,458.6h0M636.8,458.9h0M637.3,458.6h0M637.3,460h0M636.8,459.8h0M636.8,459.1h0M634,459.5h0M636.5,459.9h0M634.8,460h0M639,460.5h0M658.5,463.4l-.3-2.5.3,2.5M650.8,462.5l.3-1.6-.3,1.6M655.2,464.8l-1.9-2.1,1.9,2.1M542.3,647.8l-2,4.7,3.5,9.6-6.4,8-.9,5.4-1.6-1-5.2,4.4-4.9-5.2,1.1-16.4,1.2-3.2,5.6-1-10-5.6-6.4,2.4-3.1,4.1,1,2.7-7.5,4.1-7.5,14,1.4,4.3-7.7-3.6-27.4-.8M545,653.7h0M531.8,654h0M500.3,677.8h0M621.8,547.3l-8.6,21.9.6,7.4-3,6.8,6.6,18-1.2,2.4,1.5-1.6,6.9,10.5M28.9,1051.3h0M25.1,1112.1l4.4-8.1,2.8,1.4.9,4.9-4.3,6.4h-4.1l-2.5,5.1-2.9-1.1.8,1.7-4.8,4.4-5.9.7,4.6,6.8-4-1.9-3.8,6.6,3.5,2-8.2,4.6-1-6.1,5.9-6-2.4-6.8,4.1.2,8.8-7.5-4.2-1.5-.8-5.4,6.2,1.3-1.3,1.8,2,1.2,4.9-1.5,1.3-3.2M33.6,1110.6h0M562.8,408.1h0M563,446.3l10.1-14.9,5-19.4M396,728.8l-4.1,6.4,1.6,1.7-7.6,4.6-.4,3.4-1.3-2.6-14.9-3.7-5.4-6.7,3.2-2.9-7.7-3.5-4.3-5.8-4.1.3,2.7-4.5-2.2-1.1,4.9-3.2-4.4-2.4,2.1-3.4,4.1-.9-7-6.5,1.4-2.7M350.4,696.3h0M348.6,697.3h0M356.9,704.5h0M353,706.8h0M352,706.8h0M354,712.3h0M352.8,713h0M352.5,713h0M352.5,713.8h0M351.6,716.2h0M355.3,721.3h0M365.4,730.5h0M365.5,731h0M371.4,739.2h0M387.5,744.3l-1-1.8,2.5.6-1.5,1.2M386.8,744.5h0M85.5,672.8h0M83.1,688.8l-1.4,7.4v-4.5l-2.2,2.2v-3c0,0-.9,2.8-.9,2.8l-2.9-1.3,2.3-.7,1.8-5.2-1.6-1,3-2.9-2.7-1.5,1.7-5.1,3.5.4,2.5-3.7,2.2,2.2-3.1,3.4,2.1,2.9-4.3,7.6M87.7,674.2h0M77.3,688.8h0M77.7,689.3h0M84.2,693h0M83.7,694h0M81.1,693h0M81.1,693.3h0M80.8,693.7h0M81.1,694h0M80.8,695.8l-1.8-1.8,1.8,1.8M75.1,708.3l-2.2-1,1.3-12,4.5,2.1-1.1-3,4.1,2.9-6.6,11M83.7,695.3h0M80.2,696h0M82,697.7l1.6-1.7-1.6,1.7M76.3,707.5h0M97.4,721h0M96.8,720.8h0M97.9,720.8h0M98.8,729.8l-3.5-3.6,2.1.5-1.8-2.6,2.5-3.3,4.5,4.3-3.8,4.7M96.2,722.8h0M94.7,728.3h0M100.7,728.5h0M94.6,728.8h0M95.6,729.2h0M94.3,730.3h0M91.1,735.5h0M91.1,743.3l-2.7-.3,2.8-2v2.3M99.6,746.8l1.1-3.6,1.7,2.1-2.8,1.5M99.3,744.3h0M88.9,745.8l1-1.7-1,1.7M84.6,750l.9-5.1-.9,5.1M98.4,746h0M97.3,746.8h0M103.3,750l-.8-3.7,3,2-2.2,1.7M82.7,760.2l-1.2-1.8,2.4,1.2-.9-2.7,2.5-.4v-6.4c0,0,4.1-.3,4.1-.3l1.5-3.1.8,2.9-3.2,5.5-6,5.1M101.8,747.5h0M121.8,772.2l-5.5,5.3h11.5c0,0,2.2,4.2,2.2,4.2l-1.4,6.2-8.6,4.8-1.9-5.5,3.8-3.7-5.9-2.2-6.3,2-2.5,5.5-7.4,5.2,3.6-4.8-1-2.3,3.7-2.5-2.5,1.1-2.1-5.5-3.5-.7-3.2-5.4,2-9.7,4,2.8-1,3.4,1.1-1.8,2.8,2.1-1.6,6.6,2.8,2,1.6-3,6,2.2-3.6-4.4.7-5.1-3.4-2.9-2.6,1.5-2.4-3.6.6,2.3h-1.9l2.1-4.5-2.5,1-.5-2.3-2.8,3.5,1.7-2.2-3-1.5.2-3.1-.6,2-.6-2.1-2.9.3,3.3-5.1-2.9-.9.7-3.1,4.6-1,.3,2.5,5-1.1.3,1.8M101.8,747.7h0M93.6,748.3h0M92.3,752.7h0M70.5,755.8l-2.2-1.4,3.1-1.8-.9,3.2M91.7,753.5h0M91.8,754h0M91.7,754.5h0M91.7,755h0M91.1,755h0M91.3,755h0M68.3,755.8h0M91.4,755.7h0M91.2,755.5h0M80.8,755.8h0M91.2,756.8h0M71.3,757.3h0M68.2,757.5h0M67.3,759.5v-2.1c0,0,2.4.4,2.4.4l-2.4,1.7M91.8,757.8h0M71.3,760.8l-.5-3,.5,3M66,758.5h0M92.2,758h0M81.5,758h0M92.8,758.3h0M93.1,758.3h0M93.3,759h0M93.8,759h0M92.3,758.8h0M81.2,758.8h0M61.7,759h0M64.1,759.3h0M92.4,760.5l.5-1.7-.5,1.7M80.8,759.5h0M93.9,759.3h0M81.3,759.8h0M66.1,759.5h0M67.5,759.8h0M65.6,759.8h0M66.1,760.5h0M60.3,760.3h0M66.6,760h0M89.7,760.3h0M96.8,760.8h0M67.8,780l.4-4.8-3.4-3.5,3.2-.9-1.1-2.1,2.3-.4,1.2-7.8-1.5,10,3.8-1.2.9,1.9-2,2.2-1.8-1.4-2,8M95.2,760.8h0M96.6,761.3h0M60.3,761.3h0M96.2,761.3h0M90.3,762.3l-1.6-.5,1.6.5M97.1,762.2h0M71.3,762.3h0M96.3,762.3h0M100.6,762.3h0M102.1,766h0M93.7,768.3l1.3-2.1-1.3,2.1M103.4,767h0M94.8,768.3h0M91.4,769.7l1-1.6-1,1.6M76.1,770.3l1.2-1.8-1.2,1.8M73.5,768.7h0M85.6,768.8h0M81.3,770h0M74.1,769.3h0M65.3,769.7h0M90.3,769.3h0M95.6,770.3h0M91.2,769.7h0M100.2,770h0M99.9,770h0M66.1,771h0M64.2,772.8h0M103.3,772h0M93.8,774.5l-.8-1.7.8,1.7M66.3,778.5l-2.9-1.5,1.1-3.5,1.8,5M63.2,775l-1.3-1.2,1.3,1.2M108.3,775.2h0M73.8,774.3h0M67.3,774.5h0M103.1,774.5h0M109.3,775.3h0M62.5,775.5h0M60.7,776.2h0M66.7,776.2h0M93.3,776.5h0M62.2,781l-2.5-4.4,2,2.4,1.2-2.1-.7,4.1M66.7,777.2h0M102.8,776.8h0M90.8,776.8h0M108.9,777.2h0M103.1,777.3h0M67.2,777.5h0M91.3,777.3h0M66.6,777.5h0M103.8,777.3h0M67,777.5h0M65.1,777.8h0M66.8,778.5h0M58.7,783l-.2-4.5,2.2,2.5-2,2M49.9,780.8h0M61.8,781h0M54.3,793.7l-8.2-2.1.5-2,1.5,2.4,1.2-1.3-.2-8.9,1.4,2.6,3.2-1.6.7,1.9,1.6-3.6-.3,2.6,2.5.4,1.8,5.8-5.7-.2v4M100.6,781.5h0M64.3,784.2v-2.6c.1,0,0,2.6,0,2.6M63.3,783h0M111.3,784h0M111.9,783.7h0M59,784.3h0M46.1,785.8l.4-1.5-.4,1.5M58.5,785.5h0M58.2,785.5h0M101.8,787.2l-.9-1.4.9,1.4M60.1,786.8h0M47.2,790.2l.5-2.4-.5,2.4M100.6,789.5h0M54.6,791.2h0M54.6,791.3h0M57.5,792.3h0M61.3,792.7h0M60.3,793h0M51.2,793.3h0M60.3,794.3h0M101.6,795h0M37,823.7h0M35.6,824h0M35.2,824.3h0M34.9,825.3h0M34.3,826.3h0M85.8,671.5h0M85.2,672h0M34.2,826.3h0M578,412l7.5-18.2,1.5-19.1-5.5-10-8.8,2.3-3-8.7,5.7,2.3,6.3-6.9,3.8-16.5-4.3-5.6M570,357.4h0M586.2,373h0M561.7,407.9h0M316.3,671.8l-6.5-1.3,2.8,2.6-3.5,4.9-4,1.9-6.6-1.1,4.7,1.3-5.1,7.2-4.9-1.3-2.2,2.1-2.3-5,.3,3.1-1.9-.4v-3.6l-7.8,4.5-2.5-3,1.9,2.5-1.7,1.6-2.1-2.1M316.3,672.8l-2.2-1,2.2,1M311,671.8h0M313.5,672.7h0M313.1,673.7h0M314.6,673.3h0M313.5,674.5h0M315,674.2h0M311.6,675h0M308.9,678.7l1.6-.7-1.6.7M310.5,678.3h0M300.4,678.5h0M310.3,679h0M308.5,679h0M305.6,681.2h0M306.1,681.2h0M301.5,684.8l.7-.6M287.4,686.8h0M294,687.5h0M277.4,688.5h0M277.4,688.8h0M290.1,689.2h0M292.4,688.8h0M293,689.3h0M297.1,689.2h.3M277.9,691l.7-1.6-.7,1.6M279.6,692.2l-.4-2,.4,2M277.3,691.3h0M281.5,691.7h0M280.9,693.3h0M278.6,693.5h0M277.9,694h0M278.9,696h0M117.2,699.3h0M146.6,712.5h0M145.9,713h0M150.9,713.8h0M152.6,715h0M131.7,769.5l-2.7-7.6M114.1,743.3l5.3-3.8-3-2.7,5.7-4.8,3,4.9,6-1,1.5-5-3.6,2.6-3.2-2.6,2.4,1.6,5.1-3.7-.2-5.2,3.9-4.1,4.6.4,6.2-3.7,3.1,1.6-3.7,2.5h2.8l1-2.5,3.3,1.7,6.1-4.3-2.6,8.9,1.6-.5,4.4,10.9,4.4.4M150.9,717l-2-.9,2,.9M132.3,719.5l.9-1.5-.9,1.5M135.8,719h0M113.8,721h0M134.3,721.2h0M160.9,723.3v-2.1,2.1M158.4,722.8h0M159.8,725h0M129.3,727h0M123.3,731.2h0M131.3,732.5h0M126.4,735.5v-1.7c0,0,0,1.7,0,1.7M114.7,737.8h0M627.3,261.3h0M581.3,331.5l.3-7.5-3.9-3.9,6.6-8.3h5.8c0,.1,5.9-3.1,5.9-3.1l3.5-15.6-3.5-5.5,3.1-.2,1.3-7.8,5.9,4.8,3.9-2.8,4.4,3,.9,14.5,3.4,7.4,6-3.5,1-7.7,10.6,8.7,4.1-3,4.1-14.8-4.3-7.7-6.3,5.9-13.6,2.4,6.9-25.3,16.7,12.1,9.4-4.6-3.5,16.2,1.1,26.1,4.1,13.3h3.6c0-.1,4.9,5.5,4.9,5.5M625.8,295.3h0M624.7,300.3h0M352.5,695.3l6-2,7.2-6.9.3-3.8.6,1.6,2.5-2.4-1.9-3,2.3,2v-4.5l-2.3-2.9M367.5,675.5h0M366.8,676.3h0M368.1,677.5h0M368,678.3h0M368.5,681.8h0M366.8,682.7h0M364,687.5h0M359,687.5l1.7.6-1.9,1.3.2-1.9M189.3,729.2l3.2-.7-3.2.7M168.1,734.8l11.6,2.4,3.5-5.7,3.8-1,5,3,2.5,5.6-1.9,7.7-3.7-.9.9,2.6-7.2,2.1.9,4,3.5,1.2,15-1.2-5,7.9,4.8-.4-2.2,2.7,2.8,1.1,4.2-1.7.8,2-4.3.6-1.7,3.4,9.2,3.3-5.3.6,1.9,1.7-3.3,3.1,3,.4-5.5,1.3-.3,3.4M204.1,754.5h0M198.9,759.8h0M205.6,760.5h0M205.4,761h0M199.9,761.8h0M206.6,764.3h0M201.6,764.2h0M203.1,770.8l.9-2-.9,2M202.4,769.3h0M210.1,772.3h0M204.4,771.8h0M208.9,774.5h0M208.1,776.5h0M202.4,782.7h0M203.1,785.8h0M431.8,654.5l-5.6,1.7.8,3.2-6.6,11.6v7.2l14.3,5.9,2.1,4.4,2.3-.8-.6,3.9-4.6.4h4.5c0,.1-.4,5.3-.4,5.3l-6.2,1,4.5-1.8-2.7-2.2-.8,2.3-1.4-1.6-3.3,1.9,1.6-3.3-3-.3-2.7,5-.4-2-2.2,2.5-2.1-1.6.2,2.7-2.1-1.4-6.4,3.1-2.4,2.2.9,4.4h-2c0,0,.7-2.6.7-2.6l-3.2,3.1,3.6,3-.4,3.1-2.8-1.7,1,3-5.8,3.1-4.6,9.6M427,657.5l.4-1.8-.4,1.8M441.9,682.3h0M438.5,682.3h0M436,684.2l1.9-1.7-1.9,1.7M435.8,683.5h0M435.1,683.8h0M435,684.5h0M437.4,685.8l1-1.4-1,1.4M435.9,685.5h0M437.8,687h0M437.5,687.3h0M436.5,692.8h0M429.1,694h0M434,695.8h0M434,696h0M433.9,696h0M427.5,696.3h0M434.3,696.3h0M434.3,696.7h0M433.9,696.8h0M421.4,699.3h0M413.3,702.2h0M413.5,702.7h0M410.8,703.7h0M409.6,704.2h0M412.6,704.7h0M407.5,709.2h0M407.9,709.8h0M274.9,685.8l-3.8,6.3-5.6-1.1.2-3.1-7.8,2.6-2.2,3.8-11.4,1.1-1.8,4-5.6,2.2-2.2-1.6-2.6,2.2-1-10-7.5.3-6,5.9.6,2.8M263.8,692.8l-1.8-2.1,3-.8-1.2,2.9M261.9,691.8h0M272.6,691.5h0M266.6,692.5h0M265.1,692h0M268.1,693.5l1.7-1.4-1.7,1.4M260.3,692.7h0M258.4,692.7h0M259.1,695l.3-2.3-.3,2.3M262.9,697.3l-2.1-4.7,3,2.3-.9,2.4M260.6,693h0M266.3,694.3l1.1-1.5-1.1,1.5M275.8,693h0M228.4,693.7h0M274.9,694h0M229.3,694.3h0M257.4,696v-1.9c.1,0,0,1.9,0,1.9M227.1,696l.5-1.6-.5,1.6M251.4,695.5h0M228.6,695.3h0M275.6,695.3h0M257.8,698.5v-3l2.6-.5-2.6,3.5M253.4,695.8h0M219.6,700l2.7-4.6-2.7,4.6M249.9,697h0M226.8,705.8l1.2-3.2-3.8-4.3,4.8,2.9-2-2.6,2.2-2.4.6,8.7-3,.9M223.8,696.7h0M245.1,696.7h0M248.4,697.3h0M250.9,697h0M248.1,701.3l-1.9-2,5-2.1-3.1,4.1M244.6,697.8h0M223.9,697.5h0M249.4,697.7h0M248.4,697.8h0M247.9,698.5h0M242.9,698h0M243.6,698.5h0M243.4,698.3h0M247.4,698.8h0M223.4,699.7h0M239.4,700.7h0M241.4,704.2l-2.5-2.2,3.5.2-1,2M237.9,703.3l.6-1.8-.6,1.8M221.6,702h0M232.6,708.5l-5-1.4,3.8-5.5.6,5.3,2.5-.4-1.9,2M230.8,702.2h0M220.8,702.5h0M244.9,702.3h0M245.3,704.5l1.5-2.6-1.5,2.6M247.1,702.3h0M243.1,704l.6-1.6-.6,1.6M225.4,704.7l-.7-1.7.7,1.7M233.6,704.3h0M226.9,704.7h0M238.3,704.5h0M237.4,704.5h0M242.4,704.7h0M221.4,706.2h.3M243.8,706.5h0M232.6,709.3h0M231.6,710.5h0M228.6,709.8h0M229.6,711.2h0M978.2,18.2l14.8-16.7,8.7-.9,2.6,2.7-3,3.9,2.2,4.1-1.7,3.7-9.6.2-6.9,5.4-9,2.7-18.6,17-5.9.8-2.6-3.7-3.9,1-2.2,9.1-12.4,9.2-6.1,9.8-6,.5-6,8.8-4.2-1.3,4.3-7.2-.3-5.3,2.2,3.7.6-5.4,4.1,1.4,4.1-3.4.6-5-3.2-.3-.8-3.5,6,1.1,1.5-4.3,11.7-8.6-.8-7.5,7.6,2,3.6-7.6,6.4-2-1.1-9.3,3.5-5,5.5,11.4,14.3-1.5M658.8,25.8l3.1-18.4,2.9,3.7,4.3-.6,4.7-7.3,2.7-.2,26,30.5,7.3,14.8,15.9,18.9,23.6,18.6,17.7,7.6,17.8,3.1,2.3,8.5,3.5,1.9,20,1.5,18.7-17.3,6.8-10,1.4,5.8-12.7,24-1.3,9.2,3.6,6.9,9.3,3.9-2.4,2.3,1.9-2.4-6.3-2.3,3.4,13.2,5.4,8.3,5.1,1.7,8-8.2,7.1,1.5-11.4,5.5-2.3,7.7-5.5-1.3-12.3,2.8-2.6,6.3-5.1,4h-4.9c0,0-3.7-4.8-3.7-4.8l-3.6,5,2.5,3.1-15.6-.8-8.3-3.8-16.6,8.3-15.1,15-10.7,16.1-5.7,29.7-13.5-12.3-23-10-28.6-20.2-11.3-2.4,2.9-2-16.2,7.4-16.5,15.5-3.3-2.3,3.6-.6-4.2-1.5-9.8-13.6-11.5-.2-7.2,10.6-1.3,10.8,12.2,8.6h10.1l9.4,12.6,7.2,2.8,3.5,4.6-10.3,5.7-9.1-4-3.5,2.1.9-4-3.5-.9-2.1,4.7-7.3,3.7-1.8,10.6-7,2.2-2.8,5.3-5.3-1.1-2.9-2.9-2.1-9,4.2-12.7,2.4-1,.5-9.7-5-8.8-5-1.3-6.9-8,3.7-13-1.5-9.7,4.9-4.8,5.7-.3,6.6-8.6,2.9,3.7,2.8-.6,4-9.3,6.3-4.3-9.4-15,1-7.3,3.7.3,3-2.9,14.3,11.7,10.7-2.9-.3,3.1,7,3.1,6-3.5,6.5-8.4-4.4-25.9,2.6-5.4,8.2-3.5,4.1-5.6v-24.3l4.7-7.8,1.9-10.1-1.9-18.2-7.9-21.2M633,19.2l-3.1-12.6,4.7,2.7-1.6,9.9M638.7,22.6l2.2-2.4,5.3,3.4,1,3.9-2.4,3-5.4-2-.7-5.9M913.7,60.9h0M855.7,99.7l18-29.4,9.7,6,11.4-2.5-4.1,6.8-2.6-1.5-6.3,6.5-8.7.8-3.4,5.3-4.6,2-7.8,14.5-9,4.2-2.5,13.8.3-4.8h-5.7l-.9-7.2,16.2-14.5M651.5,75.6l-2.1-.3,2.1.3M645.3,76.6l1.6-1.9-1.6,1.9M898,123.4l-2.7-6.9,7.6-.8-1-1.9,4.6-2.8,4.3,2.8-.7,2.7-12.1,6.9M907.8,117.6h0M904.8,120.6h0M901.3,121.4h0M900.5,122.1h0M884.3,128.8l-4.1-.7,2.2-1.4,1.9,2.1M831.8,131.9h0M886.8,132.1h0M835.8,132.1h0M873,139.3l-2.6-4.3,6.9-.6-4.3,4.9M862.8,141.9l-2-2.5h4.3l-2.3,2.5M869.5,142.9l2.6-3.1-2.6,3.1M875.3,142.1h0M874.7,142.4h0M862.3,144.3h0M867.5,145.4h0M849,154.4h0M848.5,155.6h0M826.3,164.4l2.2-.5-2.2.5M825,165.9h0M814,172.3h0M558.3,229.6l-2-8,7.2-4.8-5.2,12.8M553.2,264.9l1.5-1.9-1.5,1.9M574.8,273.8h0M674.8,2.3h0M629.8,5.6h0M556,221.6h0M367.3,673.5l-3.8-1.9-13.4,5.7-13.7-8.1-12.9.7-.5-3-2.5,4.6-4.2.4M318.5,620.2l7.9-3.2,4.1,1.9,11.6-1.1M332.6,617.5h0M334,669.5h0M363.9,672.5h0M362.1,672.8h0M363.5,672.8h0M364.6,672.8h0M341.3,673.5h0M342,673.2h0M360.3,674.3l1.6-1-1.6,1M331.1,674h0M326.6,675.5l-1.6-1.1,1.6,1.1M358.5,676v-1.9c0,0,0,1.9,0,1.9M328,676h0M323.1,676.5l1.1-1.7-1.1,1.7M325.4,676.8h0M321.5,676h0M326,676.3h0M328.9,676.7h0M358.3,677.3h0M324.5,677h0M338.3,688.8l10.1-10.5,1.1,1.9-6.3,9,2.8,8.6-10.5,4.6-.3-3.8-3.1.8v-3c0,0,6.2-7.6,6.2-7.6M323.5,679.3h0M346.1,697.3h0M339.4,704.2h0M624.5,612.8l.6,2.9-10,.3-8.8,8.2-3.4,7.4-.8,13.8-12.1,3.8-11.1,12.5-6.3-3.8,5-2.2-2.4-2.1,2.7-12.4-4-3.5,3.1-3.5,2.2,1.1.4-4.4,5.8-2,4.8-6-6.6-7-4.3,4.3-1.1-1.3M582.7,616.8h0M573.3,637.7h0M572.3,637.8h0M445,541.5l-2.6,6.7,5.4,5,9.1.3,4.3-3,1.9-7.2,9.5-3M578.3,618.8l-3.5,1.1-1.7-2.1,1.4,7.5M575.8,619.2h0M577.7,619h0M578,619.2h0M573.3,619.7h0M572.7,619.8h0M576.5,620.3h0M574.5,620.3h0M572.5,621.8l.2-1.8,1.5,2.2-1.7-.4M574.5,621.5h0M575.5,621.7h0M575.2,622h0M573.3,623.2h0M557.8,674.3l-3.8-1.3v-5.6l3.5,1.5.3,5.4M550,683.8h0M551,686.3h0M550,694.3l.4-5.8-.4,5.8M547.8,692.2h0M547,694h0M547.2,695h0M550.3,694.7h0M543.2,702.5l1.2-3.2,1,2-2.2,1.2M546.2,701.3h0M540.5,702.7h0M560.8,710.5l-.6-3.9,2.4-.5,1,3-2.8,1.4M566.3,721.5l-2.1-.7,1.2-2.1.9,2.8M576.3,767l-4-6.2,4.7,2.3-.7,3.9M570.2,763.2h0M573.3,801l-.6-1.8.6,1.8M586.8,856.8h0M598.3,910h0M683.5,1059.1h0M684,1059.1h0M685.5,1061.4h0M684.7,1061.1h0M686.3,1062.3h0M687.5,1064.2h0M688.8,1071.1h0M688.5,1071.3h0M625.8,1084.2h0M687.8,1086.8h0M687.5,1089.3v-2.2c0,0,0,2.2,0,2.2M689,1091.3l-1.3-1.7,1.3,1.7M687.3,1090.3h0M686.5,1091.2h0M689,1095.2l-1.6-3.6,1.6,3.6M690.3,1092.3h0M687,1095.3h0M687.2,1117.8l-2.6-5.7,2.6,5.7M551.3,732.8h0M684,1057.6h0M165.9,669.8l-.5-2.3.5,2.3M218.1,701.2l-1.5,11.7-4.5,3,1,6.9-3.8-5.3-4.4.3-4.9-5-4.8,1.8,3.2-3.1-4.1-2.5-9.5,4.3-3.1-2.3-1.7,3.2-2.5-3.9-1.4,4.6-4.2,2.6-4.1-.4-.4-3.8-6.4-3.4-6.3,8.2.5-8.3-2.5-2.9,3.4-5.7-3.1-4.5,1.6-4.2,6.4-.5-4.9-1.3,1.9-2.8,7.4,1.5,1.2,2.6,7.2-.8,5.1-2.4-1-1.7,10-11.8,2,1.2,2.1-2.3M182.1,680.3h0M183.6,680.8h0M177.6,683.8h0M172.4,684.8h0M178.6,685.2h0M175.6,684.5h0M177.3,685.5h0M177.3,686.8h0M168.8,690.3l-1.3-1.9,3.8-.4-2.5,2.3M174.4,688.8h0M172.1,689.8h0M152.1,693.7l1-1.9-1,1.9M157.8,692.7h0M154.4,703.2h0M154.4,703.3h0M221.6,706.3h-.3M149.8,707.8l-1.1-1.3,1.1,1.3M225.4,710h0M193.9,711.8l2.2-1.6-2.2,1.6M224.8,711.5h0M226.6,711.3h0M193.4,714.3l-.6-3.1.6,3.1M226.4,712.5h0M186.1,713.8l.8-2.1-.8,2.1M196.9,712h0M219.4,713.5h0M222.3,713.5h0M160.6,713.5h0M198.1,717l1.8-3.3-1.8,3.3M194.1,714.3h0M152.8,714.8h0M223.1,715.3h0M216.4,721.3l-1-5.5,4.7-.2,2,3.2,6.8-2.9-4.7,2.3v2.7l-4.4-2.1-3.4,2.5M228.9,715.8h0M223.3,716.5h0M229.8,715.8h0M192.1,716.8h0M214.1,716.5h0M203.4,716.8h0M156.1,717h0M228.6,718h0M225.1,718.8h0M208.9,719.5h0M209.4,720.8h0M207.6,721.5h0M221.3,720.8h0M223.9,721.8h0M208.9,725.3l1.2-4.1,2.1,1.6-3.3,2.5M215.1,722h0M212.1,723.8h0M218.8,726.5l-4-2.3,2.4-.6,1.6,2.9M218.6,724.2h0M225.1,724.5h0M204.9,726.3l.4-1.7-.4,1.7M203.8,725.2h0M225.1,725.8h0M209.1,726h0M212.9,729.5l.9-2.9-.9,2.9M207.8,728.2h0M628.3,485.9l4.5,13.7v25.5l-2,14.3-9,8M438.6,488.8h0M438,503h0M436.9,504.3h0M435.9,504.3h0M407,580.5l14.8-15.9,9-15.7,1-9.4-2.1-8.3-2.6-.9,3.2-11.7,27.9-10.8,1.5,4.6-4.9,1.1-1,8-5.6.5-4.4,6.1-3.1-3-2.4,1.2-2.2,8.5,3.3-.9,2.5,2.4,3.5-3.6-.3,8.8M440.1,533.8l-1.9-3.8,6.5-.6-.2,2.9-4.4,1.5M437.6,533.2h0M371.1,623.5l1.4,3.7,6.9-3.1-3.9,3.3,6.2.5,2.5-2.8-3.5-.9,1.3-1.4,5.6,2-.9-6.3,2.3,2.1,5.5-1.3-1.4-5.3,3.1-2.5.3,4.9,2.5.8,1.2-6.4-6.8-12,8.1-12.2-.3-3.5,5.7-2.7M401,583.2h0M386.1,619.3h0M251.9,702.3l.4-4.5,2.7-1.5,1.6,4.3-4.7,1.7M263.6,699.5l1.1-3.2-1.1,3.2M261.6,696.8h0M262.3,698.5l-.4-1.8.4,1.8M260.1,699.3l.9-2.3-.9,2.3M262.4,700l.4-1.5-.4,1.5M251.4,699.3h0M260.9,699.8h0M259.1,702.3l-2.2-2.4,3.5.7-1.3,1.7M265.6,700h0M260.8,700.8h0M250.6,701.8h0M250.6,702.7h0M266.6,702.7h0M248.1,703.2h0M255.4,707v-4.8c-.1,0,3.7.8,3.7.8l-3.7,4M257.8,702.7h0M249.1,702.5h0M250.9,702.3h0M268.8,703.3h0M270.9,703.8h0M254.1,704.7h0M237.4,773.8l-6.6-1.4-1.1,3-.3-4.7,3.3,1.2-3.5-5-4.8,1.6,1.2-2.7,3.8.7-1.8-3.8,2.7-.3-3-.5,1.2-1.9-2.8-1.9,4,2.3,3.3-3.3-1.1-2.8-3.3,1,2.7-3.4-7.2-.2,2.2-2-1.9-1.7.9-5.2h-4.6c0,.1-8,6.4-8,6.4l-1.7-1.5-3.9,2.6,30.2-20.1,5.4-17.1,7.3-3.9-1.4-2.8,2.3-1.5,8.4,12.5,9.5-4,9.1,1.4,4.1-4.3M252.6,706.2h0M261.3,706.5h0M262.4,706.5h0M253.4,706.7h0M262.8,707.3h0M239.6,709.3h0M258.8,709.8h0M234.4,711.8h0M258.4,712h0M234.9,716.3l-1.1-1.4,3.2-2.9-2.1,4.3M270.9,713.8h0M232.3,715.3l1-1.8-1,1.8M229.9,715.2l1.5-1.4-1.5,1.4M239.1,715.2h0M242.6,714.8h0M237.6,715.8h0M231.6,717.3h0M238.3,720.5l1.4-3.2-1.4,3.2M236.9,719.5h0M231.6,722h0M228.9,728.3h0M222.9,744.2h0M223.9,745h0M222.6,748.3h0M223.6,749h0M231.1,757.5h0M223.9,757h0M223.8,759.2l.7-1.8-.7,1.8M229.1,757.5h0M225.6,759.3h0M219.4,759.2h0M219.4,759.3h0M223.9,759.5h0M220.1,760.5l-1.3-1.1,1.3,1.1M225.4,759.5h0M225.4,760.5h0M221.4,761.5h0M221.6,761.2h0M226.6,763.5h0M226.1,764h0M221.6,764h0M227.3,773h0M225.6,773.5h0M233.3,774.8h0M265.4,588.5l-3-3-.2-4.5,4.9-3.6,4.5,6.9-3.4,2,1.6,1.7-4.4.5M253.8,595.7l-2.3-2.8,6.7-3.1-2.3,4.5-3-1.7.9,3.1M261.9,590h0M256.9,595.8v-3.8c0,0,2.2-1.2,2.2-1.2l1.8,2.7-4,2.3M261.6,592h0M256.6,598.2l-2.8-2.2,2.8,2.2M256.3,598.3h0M257.4,598.3h0M255.6,598.2h0M192.1,674.2l7.2-1.5,11.3-12.9,10.7-7.3,5.1-7.6,9.7-5.4,2.3-5.3-1.5-3.9,15.7-4.4,5.5-4.9,2.6,2.5,8.5-.5-3.8,1M259.8,621.8h0M265.1,622.3h0M256.3,623.2h0M225.4,646.2h0M225.4,646.2h0M208.8,661.5h0M209.4,661.7h0M199.1,665.3h0M200.3,524.7h0M200.6,524.8h0M663.7,330.1l6.8,12.3-1.5,3.9,4,2.8-2.1,4.3,5.7,5.4,2.4,14.4-2.8,9.9,3.7-4,2.3,6.6-5.6,4.5,1.2,2.3,3.8-2-7.6,8.3,4.7-1-1,1.9-4.3,1.1,2.1,2.1-1.8,1.4,3.7-.2-4.9,2.5,2.5,1.8-3.9,1.8,3.9,2.6-5.1-.4,2.9,2.9-2.7.3.8,2.1-4.8.3-.2-3.2-1,8.1-1.4-3.9-2.1,1.9M678.3,378.5h0M678.5,395h0M678,400.9h0M665,423h0M265.4,624l2,4,5.8,1.6,6-4.1,24,.4,15.3-5.7M329,700.8l1-2-1,2M330.5,702.5l-1.6-1.4,2.5-1.8-.9,3.2M321.8,701.3l7.1-1.7,2.5,3.3-2.5,9.6,5.5,4.8-3.6,4,5.7,1.3-16.4,9.9-4.6,6.2M332.8,721.2h0M332,721.5h0M334.5,721.5h0M339.3,722.2h0M335.5,721.8h0M338.6,722h0M339,722.3h0M324.5,734.2h0M322.3,733.8h0M321,734.2h0M316.3,739.3h0M122.3,811.8l2-3.2-2,3.2M120.2,813.2l.9-2.4-.9,2.4M120.8,811h0M122.8,812h0M120.8,812.3h0M121.8,814.3l-.5-2.2.5,2.2M119.7,820.8l-3.3-5.1,4-2.8,1.7,4.1-2.4,3.8M120.7,813.2h0M122.3,813.2h0M166.9,855.7l-2.5-.8-4.2,4.5,4.2,3.5-1.3,3.2h2.2c0,0-5.7,3.1-5.7,3.1l-2.2,4.4-14.2,7.8,6.9-18.9-5-6.9v-5.2l-5-1.8,3.9-2.2,3.4,3.9,3.5-5.5-7.6-4-7,13.2,2.8,9.8,4.5,2.6-1.5,4.4-5,1.3-3.2-4.7h-11.7l.6-3.1-2.5-1.1,1.7-1.3-4.9-3.6,7.9-.7,2.9-8.9-7.9-11.5,2.6-6.5-2.5-9.8,2.5-2.3,4.1,1.1,2.4-3.3M119.8,824h0M119.8,824.5h0M106.2,836.8l-1.8-4.6,4.6.8-2.8,3.8M108.9,833.2h0M110.3,833.2h0M111.2,833.5h0M104.7,835.8h0M104.1,838.3l.5-2.5-.5,2.5M98.7,846.8l-2.7-2.1,6.8-7-4.1,9.1M145.8,842.5h0M146.3,847.2h0M164.9,857.5h0M160.6,861h0M119.8,861.8h0M144.1,866h0M87.3,870.3h0M85.5,871.3h0M143.9,881.3h0M87.1,888.8h0M108.9,891.5l-.3-2.1,1.7.8-1.4,1.3M85.2,889.8h0M156.9,901l5-11.2,1.1,7.9-5.5,11.9.9,4.5-5.1,2.9-1-6.7,4.6-9.3M133.1,892.2l-2.2-.6,2.2.6M125.3,893.7l1.6-1.7-1.6,1.7M152.4,896.2l.2-2.1-.2,2.1M122.1,912.8l-3-3.7,5.7,2.6-2.7,1.1M136.8,923.5l-3.9-.7-3-7.3,5.7-5.4,8.2,5.1-.8,4.4-6.2,3.9M108.9,938.5l-.8-3.1.8,3.1M90.6,941.8h0M94.3,942.5h0M106.2,945.8l-1.2-3.6,3.4,3.5h-2.2M90.3,953.5h0M98.3,957.5l-1.2-2.6,2.8-1.1-1.6,3.7M93.6,966l-.6-1.8.6,1.8M81.2,978h0M80.3,978.3h0M75.3,983.2l-1.5-1.4,1.5,1.4M65.1,999.5h0M64.8,1001.3h0M95.4,1020.6l2-5.1.9,5.8-14.2,9.3,3.2,2-3.5,3.1-3-.8,2,3.1-5.5-3.9.6-2.7-1.3,1.6-5.4-2.7,6.6-.4-3-2.4,11.9-5.8,1.6,1.8,2.2-4.4,3.7-.8-1.3,3.5,2.5-1.2M109.7,1029.2l-1.3-2.5,4.7-3.1-3.4,5.6M74.8,1028.7l-1.2-1.2,1.2,1.2M80.1,1040.6l-3.3-2.6-1.6,1.7-1.9-5.9,2.7-.5-1.1,1.9,3.1.6-1.5,1.5,5.2.8-1.6,2.5M73,1033.7h0M73.2,1037.9h0M72,1043.1l1.2-2.8-1.2,2.8M77.1,1043.6l-2-2.6,2,2.6M78.2,1042.8h0M77,1043.8h0M60.3,1057.1l-.6-7,3.8-.4v3.9c0,0,3.1,2.5,3.1,2.5l-2.3,5.4-3,.3-1-4.7M45,1075.8l6.5-1.7-7.4,5.6-1.7-3.1,2.6-.8M38.7,1096.1l-2.2-1.6,2.1-.8v2.4M85.1,873.5h0M85.1,890.3h0M472.6,540.3l13.8-5.2,7.8-6.1,7.4-.6,14.4-11.6,9.1-13.5,5.6-14,17.3-9.3,6.6-6.8,8.3-26.9M547.5,453.4l2.1-3.1-2.1,3.1M512.6,459.5h0M501.4,491.3l-1.9-1.2,6.6-8.4-2-2.5-3.4,1.6.6-6.5,12.9-14.8-3.8,14.8h6c0-.1-.7,4.7-.7,4.7l-3.8,6.9-10.5,5.4M315.5,738.7l-6.1,17.4-11.5-13.8-8.8-2.8-8.6,1.9-.2-2.8.6,3.1-10.5,4.4,4.2.5-4.4.5-1.3,2.6-1.5-2.8-2.6,4.2,1.5,4.1-1.9,6-1.9-.6-4.1,7.8-4.3,1.1v7c0,0-2.6,3.1-2.6,3.1l3.3,5.6-3.9-3.5-6.3,2.3-4.1-2.9-4.1,2,1.3-5.1,2.9-1.2-.6-2.9h-2.5M315,739.5h0M315.8,739.5h0M268.1,749.5h0M268.4,749.7h0M269.1,750h0M237.9,774.5h0M237.6,774.5h0M239.4,774.8h0M229.3,781.3h0M235.8,783h0M232.3,786.5v-3c.1,0,0,3,0,3M234.9,784h0M229.4,784.7h0M201.1,784l-9,9.9-.6,3.1,2.2,1.1-3.3.6-.8,2.5,2.2.8-4.5,6.5-4.6,15.8-1.3,21.1-4.1,4.9-1.4,10.4-4.6-.7-4.4-4.4M199.3,787.5h0M198.4,789.2h0M190.9,799.8h0M193.8,799.8h0M181.8,840.3h0M179.1,852.8l-.5-1.7.5,1.7M177.6,853.5h0M177.9,855h0M177.3,856.3h0M574.5,625.3l-7.5,3.5,2.8,1.6-3.1,1.7.3,6.7,5.4,2.3-4.2,3.9,1,2.7h-3.2l.7-4.4-2.7-4.5-6.3-1.5-10.7,2.4-3,2.6.7,5.4h-2.4M572.3,627.8l1.6-1.1-1.6,1.1M570.8,627.8h0M568,629h0M569.8,629.8h0M567.5,629.7h0M569,632.8h0M567.5,636.5h0M567.8,638.8h0M566.8,648.5h0"/>
  <path class="st0" d="M371.1,623.5l-1.3,5.3,3.5,5.2,11.2,1.2M555.7,544.5l13.2-8.8,7-1.7,3.5-4,11.5,2.9,5.3,4.7.5,5.5M524.3,603l10.1,3.3M534.4,606.3l4,7.9,5,2.7M543.3,617l-.9,7.8-9.4,8M408.8,617.8l1.7,6.4,2.5-.7,1.6,2.7,1.8,7.2-3.1,8.4,1.8,1.5M384.5,635.3l2-3.2,3.7.4,2.4-6.7,1.9,1.9,5.8-2.3.5-3.3,2.6,1.1-.9-7.8,6.2,2.4M522.6,554.5l4.5-.3,1.5-4.3,5-.9v-3.5c.1,0,2.5,0,2.5,0l-.6-5.2,3.7-.6,2.5-4.1,6.3,7M548,542.7l7.6,1.8M569.3,488.7l-2.6-4.3,3.4-16.9,4.2.6,5.3-6-9.1-5.9.7-6.4-8.2-3.5M523.5,598.7l-3.8-2.5.6-5.4-3.3-2.8h2.8c0-.1-1.6-6.4-1.6-6.4l2.5-1.4-.4-6.5-8.7.5-3.1-4.9,5.6-12,8.5-2.8M427.3,648l-6.9-7.1-5.3,2.4M523.5,598.7l.7,4.4M533,632.8h4.1l-.7,11.5,5.8,3.5M596.7,543l9.6,8.3,6-4.7-.3-4.3,9.8,5M301.5,684.8l.7-.6M320,641.8l5.3-2v-4.5l-6.9-15.2M297.1,689.2h.3M320,641.8l.3,5.4-6.9,7.7,1.4,6.5-1.9,2.9,3.9,4.8-.6,2.7M548,542.7l1-13.3-4.3-4.3,3.4-6.4-1.7-4,1.1-2.1,8.2-.8,1.5-3.1h7.5l-1.8-8.1,9.1-10.1-2.8-1.8M431.8,654.5l-4.5-6.6"/>
  <rect class="st3" x="53.8" y="937.3" width="150" height="150" rx="6" ry="6"/>
  <text class="st4" transform="translate(59.75 1086.35)"><tspan x="0" y="0">沖縄</tspan></text>
  <g data-mapno="1">
    <path class="st6" d="M978.2,18.2l14.8-16.7,8.7-.9,2.6,2.7-3,3.9,2.2,4.1-1.7,3.7-9.6.2-6.9,5.4-9,2.7-18.6,17-5.9.8-2.6-3.7-3.9,1-2.2,9.1-12.4,9.2-6.1,9.8-6,.5-6,8.8-4.2-1.3,4.3-7.2-.3-5.3,2.2,3.7.6-5.4,4.1,1.4,4.1-3.4.6-5-3.2-.3-.8-3.5,6,1.1,1.5-4.3,11.7-8.6-.8-7.5,7.6,2,3.6-7.6,6.4-2-1.1-9.3,3.5-5,5.5,11.4,13.2-1,1.1-.5ZM658.8,25.8l3.1-18.4,2.9,3.7,4.3-.6,4.7-7.3,2.7-.2,26,30.5,7.3,14.8,15.9,18.9,23.6,18.6,17.7,7.6,17.8,3.1,2.3,8.5,3.5,1.9,20,1.5,18.7-17.3,6.8-10,1.4,5.8-12.7,24-1.3,9.2,3.6,6.9,9.3,3.9-2.4,2.3,1.9-2.4-6.3-2.3,3.4,13.2,5.4,8.3,5.1,1.7,8-8.2,7.1,1.5-11.4,5.5-2.3,7.7-5.5-1.3-12.3,2.8-2.6,6.3-5.1,4h-4.9c0,0-3.7-4.8-3.7-4.8l-3.6,5,2.5,3.1-15.6-.8-8.3-3.8-16.6,8.3-15.1,15-10.7,16.1-5.7,29.7-13.5-12.3-23-10-28.6-20.2-11.3-2.4,2.9-2-16.2,7.4-16.5,15.5-3.3-2.3,3.6-.6-4.2-1.5-9.8-13.6-11.5-.2-7.2,10.6-1.3,10.8,12.2,8.6h10.1l9.4,12.6,7.2,2.8,3.5,4.6-10.3,5.7-9.1-4-3.5,2.1.9-4-3.5-.9-2.1,4.7-7.3,3.7-1.8,10.6-7,2.2-2.8,5.3-5.3-1.1-2.9-2.9-2.1-9,4.2-12.7,2.4-1,.5-9.7-5-8.8-5-1.3-6.9-8,3.7-13-1.5-9.7,4.9-4.8,5.7-.3,6.6-8.6,2.9,3.7,2.8-.6,4-9.3,6.3-4.3-9.4-15,1-7.3,3.7.3,3-2.9,14.3,11.7,10.7-2.9-.3,3.1,7,3.1,6-3.5,6.5-8.4-4.4-25.9,2.6-5.4,8.2-3.5,4.1-5.6v-24.3l4.7-7.8,1.9-10.1-1.9-18.2-7.7-20.7-.2-.5ZM633,19.2l-3.1-12.6,4.7,2.7-1.3,9.9h-.3ZM638.7,22.6l2.2-2.4,5.3,3.4,1,3.9-2.4,3-5.4-2-1.2-5.7.5-.2ZM913.7,60.9h.2-.2ZM855.7,99.7l18-29.4,9.7,6,11.4-2.5-4.1,6.8-2.6-1.5-6.3,6.5-8.7.8-3.4,5.3-4.6,2-7.8,14.5-9,4.2-2.5,13.8.3-4.8h-5.7l-.9-7.2,16.2-14.2v-.3ZM651.5,75.6l-2.1-.3,2.2.2h-.1ZM645.3,76.6l1.6-1.9-.3,1.8h-1.3ZM898,123.4l-2.7-6.9,7.6-.8-1-1.9,4.6-2.8,4.3,2.8-.7,2.7-11.8,6.9h-.3ZM907.8,117.6h.1c0-.1-.1,0-.1,0ZM904.8,120.6l.3-.2-.3.2ZM901.3,121.4v-.3c0,0,0,.3,0,.3ZM900.5,122.1l.2-.2-.2.2ZM884.3,128.8l-4.1-.7,2.2-1.4,1.9,1.8v.3ZM831.8,131.9h.3-.3ZM886.8,132.1l-.2-.3.2.3ZM835.8,132.1h.1c0,0-.1,0-.1,0ZM873,139.3l-2.6-4.3,6.9-.6-4.1,4.7-.2.2ZM862.8,141.9l-2-2.5h4.3l-2.2,2.5h-.1ZM869.5,142.9l2.6-3.1-2.2,2.9-.4.2ZM875.3,142.1l.2-.3-.2.3ZM874.7,142.4l.3-.3v.2h-.3ZM862.3,144.3h.2c0-.1-.2,0-.2,0ZM867.5,145.4h.5-.5ZM849,154.4h.3c0-.1-.3,0-.3,0ZM848.5,155.6l.2-.2-.2.2ZM826.3,164.4l2.2-.5-1.7.5h-.5ZM825,165.9l.3-.2-.3.2ZM814,172.3h.3-.3ZM558.3,229.6l-2-8,7.2-4.8-5,12.5-.2.3ZM553.2,264.9l1.5-1.9-1.4,1.9h0ZM574.8,273.8h.1-.1ZM674.8,2.3v.2-.2ZM629.8,5.6h-.2.2ZM556,221.6v.2-.2Z"/>
    <circle class="st7" cx="767.7" cy="127.6" r="11"/>
    <text class="st5" transform="translate(762.3 134.5)"><tspan x="0" y="0">1</tspan></text>
  </g>
  <g data-mapno="2">
    <path class="st6" d="M661.3,421l2.1,6.8-4.4-3.1,1,5-4.1,2.9,2,5.5-1.6-1.7-3.8,2.6v2l4,.3-3.4,3.6,1.8,2.8,1.7-1.1.2,3.7-3.1-2,1.9,4.4-3.1.4,1.2,2.9,3.2-.4-2.6,1.5,2.3,2.1-.4,4.1-5.5-7.9-6.7-1.1-5,3.4.9,2.7-2.2-3.5-3.2.5-1.9,3,2.9,1.7-4.1,1.2,2.2.4-5.6,10.7.2,11.5-3.6.3v5.7c-.1,0-3.8-.8-3.8-.8l.9,2.2-4.7-1.9-1.6-5.8h-8.3l-1.1-3.2-8.8-1.6.3-4.7,6.6-1.7,2.4-11,7-11.2-3.8-10.7,2.9-.4,2.1-7.7-4.6-7.3,4.3.3,8.8-4.9,7.6,5.3h7.2c0-.1-1.6,3.2-1.6,3.2l6.1,4.6,3.6-4.6,6,2.5,2.5-13.1,6.6,1.6h0ZM661,429.5v-3.4c0,0,0,3.1,0,3.1v.3ZM655.7,446.5l.3-.3-.3.3ZM656.3,453.3l-.6-1.7.8,1.7h-.2ZM659.5,455.9l.2-.2-.2.2ZM659.8,456.5l.2-.2-.2.2ZM651.5,457v-.3c.1,0,0,.3,0,.3ZM634.8,457.6v-.2.2c.1,0,0,0,0,0ZM635.5,457.8h.1c0-.1-.1,0-.1,0ZM635.2,457.8h0c0-.1,0,0,0,0h0ZM639,458.4h.3-.3ZM637.3,458.6v-.3h.1v.3ZM636.8,458.9h.2-.2ZM637.3,458.6h-.2v-.3l.2.3ZM637.3,460v-.2c.1,0,0,.2,0,.2ZM636.8,459.8v-.3.3ZM636.8,459.1v-.2h.2l-.2.2ZM634,459.5h0v-.2c0,0,0,.2,0,.2ZM636.5,459.9v-.3c0,0,0,.3,0,.3ZM634.8,460h.1-.1ZM639,460.5v-.2.2ZM658.5,463.4l-.3-2.5.5,2.5h-.2ZM650.8,462.5h.2c0-.1-.2,0-.2,0ZM655.2,464.8l-1.9-2.1,1.7,1.8.2.3ZM562.8,408.1h.1-.1ZM578,412l9.1-.9,4.3,5.2,9.9,1.4,13.4,15.7-2.1,7.7-2.9.4,3.8,10.7-7,11.2.4,5.5-3.1,6-6.4,1.4-.8,13.2,1.8,1.5-2.9,3.8-11.8-.8-2.6-4.2-5.9,1.6-8.5-5.4,3.3-18.5,4.2.6,5.3-6-9.1-5.9.7-6.4-8.6-3.8,10.5-14.6,5.2-19.1-.2-.3ZM629.3,342.8l-4.5,4.7.9,18.4-4.6.5,3.1,4.3-3.4,3.7,2.2,5.2-7.9,15.9,6.3,9.3-1,2.5,2,1.2-2.6,5.5,2.6,1.9-1.6,5.9-10.1,5.2-4.7-2.7-1.4-4.5-13.2-3.5-4.3-5.2-9.1.9,7.5-18.2,1.5-19.1-5.5-10-8.8,2.3-3-8.7,5,2.5,5.5-4.5,5.3-18.3-4.3-6.4,4,.6,1.5-3,8,2.2,9.7-3.1,6.3,5.3,1.3-2.5,2.1,2,4.8-.7,6.9-6-.9,4.6,5.9.7-1.5,10.9v.2ZM570,357.4v-.2c.1,0,0,.2,0,.2ZM586.2,373v-.2.2ZM561.7,407.9v.2-.2ZM627.3,261.3v-.2c.1,0,0,.2,0,.2ZM663.7,330.1l-6.4,6.2-4.8-1.5-4.4,2.8-1.5-2.7-14.8,9.7-2.8-2.5,1.9-10.5-5.9-.7.9-4.6-10.7,6.7-3.1-2-1.3,2.5-8.2-5.6-3.7,3.1-12.1-1.9-1.5,3-4-.6.3-7.5-3.9-3.9,6.6-8.3h5.8c0,.1,5.9-3.1,5.9-3.1l3.5-15.6-3.5-5.5,3.1-.2,1.3-7.8,5.9,4.8,3.9-2.8,4.4,3,.9,14.5,3.4,7.4,6-3.5,1-7.7,10.6,8.7,2.8-1.1,5.4-16.7-4.3-7.7-6.3,5.9-13.6,2.4,6.9-25.3,16.7,12.1,9.4-4.6-3.5,16.2,1.1,26.1,3.4,12.2,4.3,1,4.7,5.4.2.2ZM625.8,295.3l-.3-.4.3.4ZM624.7,300.3h-.1v-.2c.1,0,.1.2.1.2ZM597.5,481h6c0,.1,3.6,4.5,3.6,4.5l3.9-1.4,5.9,2.1,1.7,6.4,5.9-.8,1.9-6.5,4.4,4.7,2.6,20.5-3.5,30.3-8.3,6.7-10.1-5.1.7,4.2-6,4.7-10.6-9,.5-4.8-5.3-4.7-11.5-2.9-3.5,4-7,1.7-13.2,8.8-7.2-1.2.6-13.9-4.3-4.3,3.4-6.4-.9-5.8,8.5-1.1,1.5-3.1h7.5l-1.8-8.1,9.1-10.1-1.6-2.2,4.8,3.1,5.9-1.6,2.6,4.2,11.8.8,2.9-3.8-1-9.9h0ZM663.7,330.1l6.8,12.3-1.5,3.9,4,2.8-2.1,4.3,6.2,7.4,1.9,12.4-2.8,9.9,3.7-4,2.3,6.6-5.4,5.5,4.8-.6-7.6,8.2,4.7-1-5.3,3,2.1,2.1-1.8,1.4,3.7-.2-4.9,2.5,2.5,1.8-3.9,1.8,3.9,2.6-5.1-.4,2.8,2.4-2.6.8,1.7,1.8-5.7.6-.2-3.2-1,8.1-1.4-3.9-2.1,1.9-6.7-1.6-2.5,13.1-6-2.5-4.4,4.5-5.3-4.5,1.6-3.3h-7.2c0,.1-10-4.9-10-4.9l1.6-5.9-2.7-5.1,2.7-2.4-7.3-12.9,7.9-15.9-2.2-5.2,3.4-3.7-3.1-4.3,4.6-.5-.9-18.4,4-4.6,3.3,1.8,14.4-9.7,1.5,2.7,4.4-2.8,4.8,1.5,6.3-6.1h.1ZM678.3,378.5v-.2.2ZM678.5,395h.1c0-.1-.1,0-.1,0ZM678,400.9v-.2.2ZM665,423h0c0-.1.1,0,.1,0h-.1Z"/>
    <circle class="st7" cx="624.2" cy="414.3" r="11"/>
    <text class="st5" transform="translate(618.8 421.3)"><tspan x="0" y="0">2</tspan></text>
  </g>
  <g data-mapno="3">
    <path class="st6" d="M596.7,543l1.5,13.1-3.5,1.4,1.9,9.9-3.5,7.1-10,1.1-11.6,10.4-3.1-.3-1.9-4-9-1.1-3.3-5.3,5.7-11.7-6-1.8-1.3-2.8,3.7-9.6-2.4-3.1,4.9-5.5,23.7-10.9,8.4,2.9,5.3,4.7.5,5.2v.3ZM522.6,554.5l4.5-.3,1.5-4.3,5-.9v-3.5c.1,0,2.5,0,2.5,0l-.6-5.2,3.7-.6,2.5-4.1,6.7,7.6,7.2,1.2-3.1,16.2,7.3,3.3-5.4,12.4,4.6,5.6,7.4-.2,2.2,3.7-9.2,1.3-5.4-3.8-1.8,1.5-9.1-3.2-4.1,9.1-16.7,7.9-5.3-10.3h2.8c0-.1-1.6-6.4-1.6-6.4l2.5-1.4-.3-6.2-8.8.2-3.1-4.9,5.6-12,7.9-2.6.6-.2ZM621.8,547.3l-8.6,21.9.6,7.4-3,6.8,6.6,18-1.2,2.4,1.5-1.6,6.6,10.8-15.8-12.7-.5,3-2-1.3-14.4,5-10.1-5.7-7.2-9.6-2.8.9-1.7-6.9,6.1-1.9,1.3-4.3,2.8.6,3.1-4.5,10.3-1.5,3.2-6.7-1.9-9.9,3.5-1.4-1.6-13.1,9.7,8.3,6-4.7-.3-4.3,9.7,5.2v-.2ZM573.7,592.5l7.8,8.8,10.1,5.7,14.4-5,2,1.3.5-3,17,13.9-10.3,1.7-7.5,6.4-4.7,9.2-.8,13.8-12.1,3.8-11.1,12.5-6.3-3.8,5-2.2-2.4-2.1,2.7-12.4-4-3.5,3.1-3.5,2.2,1.1.4-4.4,5.8-2,4.8-6-6.6-7-5.4,3.8,2.2-4.3-.9-9.8-5.7-12.7-.2-.3ZM582.7,616.8h.3c0,.1-.3,0-.3,0ZM573.3,637.7h.2-.2ZM572.3,637.8v-.2.2ZM534.4,606.3l3.8-2.5,12.8,3.5,4.5,4.2,7.2-2.5.2,3.1,13-3.5,3.4,1.9,1.2,4.8-2.2,3.5-3.5,1.1-1.7-2.1,1.4,7.5-12.1-6.6-3.5.9,2.2,2.9-1.9,4.2-3.2-4.8-7.5-1.2-10.1-6.5-3.7-7.6-.3-.3ZM575.8,619.2h.2c0-.1-.2,0-.2,0ZM577.7,619v-.2.2ZM578,619.2h0,0ZM573.3,619.7h0c0,0,0,0,0,0ZM572.7,619.8v.3-.3ZM576.5,620.3h.2-.2ZM574.5,620.3l.2-.3-.2.3ZM572.5,621.8l.2-1.8,1.5,2.2-1.7-.3h0ZM574.5,621.5l1.3-.9-1.3.9ZM575.5,621.7l.7-.4-.7.4ZM575.2,622h.3c0-.1-.3,0-.3,0ZM573.3,623.2l.3-.6-.3.6ZM557.8,674.3l-3.8-1.3v-5.6l3.5,1.5.3,5.1v.3ZM550,683.8h.3-.3ZM551,686.3h.3-.3ZM550,694.3l.4-5.8-.4,5.5v.3ZM547.8,692.2h0c0-.1,0,0,0,0ZM547,694v-.2h.2l-.2.2ZM547.2,695h0c0,0,0,0,0,0ZM550.3,694.7v-.2c0,0,0,.2,0,.2ZM543.2,702.5l.6-3.3,1.6,2.1-2,1.2h-.2ZM546.2,701.3h-.2c0,0,.2,0,.2,0h0ZM540.5,702.7h0c0-.1.1,0,.1,0h-.1ZM560.8,710.5l-.6-3.9,2.4-.5,1,3-2.5,1.3h-.3ZM566.3,721.5l-1.5-2.5,1.6,2.4h-.1ZM576.3,767l-4-6.2,4.7,2.3-.6,3.9h-.1ZM570.2,763.2l-.3-.7.3.7ZM573.3,801l-.6-1.8,1.2,1.4-.6.4ZM586.8,856.8h-.2c0,0,.2,0,.2,0h0ZM598.3,910l.5-.2-.5.2ZM683.5,1059.1v-.2.2ZM684,1059.1h-.2v-.2l.2.2ZM685.5,1061.4v-.3c.1,0,0,.3,0,.3ZM684.7,1061.1h-.1.1c0-.1,0,0,0,0ZM686.3,1062.3v-.4c0,0,0,.4,0,.4ZM687.5,1064.2v-.2.2ZM688.8,1071.1h.2-.2ZM688.5,1071.3v-.2l.2.2h-.2ZM625.8,1084.2v-.2.2ZM687.8,1086.8h.2-.2ZM687.5,1089.3v-2.2c0,0,0,2,0,2v.2ZM689,1091.3l-1.3-1.7,1.5,1.7h-.2ZM687.3,1090.3h-.3v-.2c.1,0,.3.2.3.2ZM686.5,1091.2v-.2c0,0,0,.2,0,.2ZM689,1095.2l-1.6-3.6,2.1,3.6h-.5ZM690.3,1092.3v-.2.2ZM687,1095.3v-.2.2ZM687.2,1117.8l-2.6-5.7,2.6,5.6h0ZM551.3,732.8h0c0,.1-.2,0-.2,0h.2ZM684,1057.6h0c0,0,0,0,0,0ZM568.3,585.8l7.4,10.2,3.5,14.6-5.9-2-10.4,3.6-.3-3.1-7.2,2.5-4.5-4.2-12.8-3.5-6.1,3.3-7.8-4.1,1.2-7.3,13.6-5.4,4.1-9.1,9.1,3.2,1.8-1.5,5.4,3.8,8.8-1.1h0ZM543.3,617l5.1,3.8,7.5,1.2,3.2,4.8,1.9-4.2-2.8-2.1,3.7-1.9,12.5,6.8-7.5,3.5,2.8,1.6-3.1,1.7.3,6.7,5.4,2.3-4.2,3.9,1,2.7h-3.2l.7-4.4-2.7-4.5-6.3-1.5-13.6,4.5.6,5.9-6.2-.6-2.6-6,1.3-8.4h-4.1l9.4-8,.7-7.8h.2ZM572.3,627.8l1.6-1.1-1.5,1.1h0ZM570.8,627.8l-.6.3.6-.3ZM568,629h0c0,0,0,0,0,0ZM569.8,629.8l.5-.3-.5.3ZM567.5,629.7v-.3.3ZM569,632.8l.3-.3-.3.3ZM567.5,636.5h.1-.1ZM567.8,638.8h.1c0,0-.1,0-.1,0ZM566.8,648.5v-.2.2Z"/>
    <circle class="st7" cx="574.8" cy="634" r="11"/>
    <text class="st5" transform="translate(569.5 641)"><tspan x="0" y="0">3</tspan></text>
  </g>
  <g data-mapno="4">
    <path class="st6" d="M469.1,639.2l.7,5.2,5-2,7.3,1.1-9.3,18.6-7.2,4.6-.2,8-22,5.5,2.7-4.9,2.3,1.5,7.6-5.4,1.1,3,2.2-2.9-2.7-4.8-3.8-.7-2.2,3.3-10.4-3.3,1.6-7.8-3.2,10.8,2.9,4.1-6-2.8-1.5-12.5,3.6-7.3-5.3,4.4-5.3-7.3,4.3-12.5,11-3.8,4.2,7.7,4.7,2.2,5.9-2.2,5.8,4,6.2-3.5v-.3ZM433.9,656h.1c0-.1-.1,0-.1,0ZM434,658.8l.2-.3-.2.3ZM433.6,665l-.3-2.3.5,2.3h-.2ZM457.1,667.2v-.2.2ZM457.1,668.3v.3c.1,0,0-.3,0-.3ZM453.5,668.2h.3-.3ZM447.3,669.5l.3-.2-.3.2ZM457.8,671.2h0c0-.1,0,0,0,0ZM445,672.2h0,0ZM458.8,671.8h.1c0,0-.1,0-.1,0ZM454.5,672.5h.2-.2ZM442.6,673l.5-.3-.5.3ZM442.9,675v-.2.2ZM524.3,603l11.5,4.6,2.6,6.6,5,2.7-.2,6.3-12.1,10.5-9.1,1.5-5.7-4.6-1.2,13.6-4.4,1.3-3.8-8-5.3-.9,1-10.6-4.2-11.5,2.6-2.8-2.3-1.9,8.8-10.4,3.9,4.2,6.5-1.1,3.9,2.9,2.1-2.2.4-.2ZM500.3,618.5l2.3,7.5-1,10.6,5.6,1.2,3,7.5,4.9-1.1-1-6.6,3.3-7.5,4.6,5.1,15.2-2.5-.7,11.5,5.8,3.5-2,4.7,3.8,7.4-8.1,15.9-1.1-1.3-5.2,4.4-4.9-5.2,1.9-18.8,6-1.8-10-5.6-6.4,2.4-3.1,4.1,1,2.7-7.5,4.1-7.5,14,1.4,4.3-7.7-3.6-27.4-.8.2-8,10.4-9.2,5.7-10.5-1-2,15.8-10.6v-10.6l3.4-4.7.3-.5ZM545,653.7h.3-.3ZM531.8,654v-.2.2c.1,0,0,0,0,0ZM500.3,677.8v-.2.2ZM470.4,575l3.2,5-4.7,9.5,2.8,3.9-.9,3.6-12.8,11.5,6.6,3.5,3.9,6.1-1.2,3.1,5.3,5.1-1.9,3.6,2,2.6-2.9.2,1.4,3.8-2,2.9-6.2,3.5-5.8-4-5.9,2.2-4.7-2.2-4.4-7.7-7.3,4-3.1-.8-4.1,7-.6,6.7-6.7-7.3-6.6,1.5,2.6-9-2-8.2-3.9-1-2-6.1,4.4-8.1,6.4,2.4.9-2.2,12.5-.6,1.6-5.7-4.6-5.7,2-9.7,4.1-5.2-3-2.9,2.2-2.8h5.2l1.3,4.2,8.8-10.7,2.2,1.8,3.3-2.3,1.7,2.4,3.6-2.1,9,4,.3.2ZM522.6,554.5l-8.5,2.8-5.6,12,3.1,4.9,8.8-.2.3,6.2-2.5,1.4,1.6,6.3h-2.8c0,.1,3.3,2.9,3.3,2.9l-.6,5.4,3.8,2.5.7,4.4-5.1,2.4-1.3-2.9-6.5,1.1-3.9-4.2-8.8,10.4,2.3,2.2-2.6,2.5,1.9,4-3.7,5.2v10.6l-12.8,8.9-8.9-.9-5,2-1.4-3.2,2.7-4.6-1.4-3.8,2.9-.2-2-2.6,1.9-3.6-5.3-5.1,1.2-3.1-3.9-6.1-6.6-3.5,12.8-11.5.9-3.6-2.8-3.9,4.7-9.5-3.2-5,5.5-7.6-.7-2.6,2.9-1.5v-9.6l6-6.8-.5-2.8,7,.7-.6,4.4,2.4,1.7,7.6-4.2,3.5,1.4,5-8.9,7.9-1.5,1.3,6.4,5,3.7v6.6ZM472.6,540.3l4,3.3,2,15.2-8,16.3-9.6-4.2-3.3,2.1-.5-2.2-4.8,2.1-2.2-1.8-8.8,10.7-1.3-4.2-3.6-1.2-3.8,4-.3-19.4,1.9-2.3-1.7-3,3.1-2.9,1.4-8.6,7.2-3.2-2.5,5.7,5.1,6.1,10,.7,4.3-3,1.9-7.2,8.9-2.9h.6ZM438.6,488.8v-.2.2ZM438,503v-.2.2ZM436.9,504.3h-.1v-.3.3ZM435.9,504.3h-.1c0,0,.1,0,.1,0h0ZM445,541.5l-7.9,2.7-1.4,8.6-3.1,2.9,1.7,3-2.6,14.9,1,6.8,3,2.9-4.7,9.6-4.3,1-5.3-5.1-9.5-.8-5-7.5,17-18.9,7.1-13.6.7-8.5-2.1-8.3-2.6-.9,3.2-11.7,27.9-10.8,1.5,4.6-4.9,1.1-1,8-5.6.5-4.4,6.1-3.1-3-2.4,1.2-2.2,8.5,3.3-.9,2.5,2.4,3.5-3.6-.3,8.6v.2ZM440.1,533.8l-1.9-3.8,6.5-.6-.2,2.9-4.3,1.2v.3ZM437.6,533.2v-.2.2ZM407,580.5l5,7.5,9.5.8,5.3,5.1,4.3-1-1.4,5.3,4.9,8.5-1.9,2.9-12.5.6-.9,2.2-6.4-2.4-4.1,7.8-6.2-2.4.9,7.8-2.6-1.1-.5,3.3-5.8,2.3-1.9-1.9-2.5,6.8-3.6-.5-5.2,3.9-8-1.9-3.5-9.9,2.8-.2.7,3.5,6.1-3.3-3.9,3.3,6.2.5,2.5-2.8-3.5-.9,1.3-1.4,5.6,2-.9-6.3,2.3,2.1,5.5-1.3-1.4-5.3,3.1-2.5.3,4.9,2.5.8,1.2-6.4-6.8-12,8.1-12.2-.3-3.5,5.3-2.1.4-.6ZM401,583.2h.2-.2ZM386.1,619.3v-.2c.1,0,0,.2,0,.2ZM563,446.3l8.2,3.5-.7,6.4,6.7,2.8,2.4,4.1-10.3,6.4-2.6,15.6,5.4,5.4-9.1,10.1,1.8,8.1h-7.5l-1.5,3.1-8.2.8-1.1,2.1,1.7,4-3.4,6.4,4.3,4.3-.6,13.3-6.7-7-2.5,4.1-3.7.6.6,5.2h-2.4c0,0-.1,3.4-.1,3.4l-10.6,5.7-.7-7.4-4.7-3.1-1-6.3-2.5-.6-5.7,2-5,8.9-3.5-1.4-7.6,4.2-2.4-1.7.6-4.4-7-.7.5,2.8-5.4,5.9-2.5-10.5-3.5-2.1,13.8-5.2,7.8-6.1,7.4-.6,14.4-11.6,9.1-13.5,5.6-14,17.3-9.3,6.6-6.8,8.3-26.6v-.3ZM547.5,453.4l2.1-3.1-1.8,3h-.3ZM512.6,459.5h-.1.1c0,0,0,0,0,0ZM501.4,491.3l-1.9-1.2,6.6-8.4-2-2.5-3.4,1.6.6-6.5,12.9-14.8-3.8,14.8,6.6,1.4-5.1,10.2-10.3,5.4h-.2Z"/>
    <circle class="st7" cx="470.8" cy="610" r="11"/>
    <text class="st5" transform="translate(465.4 617)"><tspan x="0" y="0">4</tspan></text>
  </g>
  <g data-mapno="5">
    <path class="st6" d="M342,617.8l2.6.7,14.1-7.7,4.1,4.9-5.4,9.1,2.6-3.7-.3,3.8,4.1,1-.4,3.8,3.6-2.3-2.6-.7v-2.8l5.6-2.9-.2,7.9,3.5,5.2,11.2,1.2,4.2,3.9-1.9,16,2.2,6.9h3.6c0,0,4.1,4.1,4.1,4.1v6.6c.1,0-4.9-3-4.9-3l-1.6,2.9-6.4-1.2-3.7-9.8-3.5-1.6.6-2.6-3.4,3.3-2.9-2,.5-2.3-5.2-1.2.4-6.8-9.5-2.5-1.5-5.2-4.2,1.4-6.8-4.3.5-5.5h5.4l-.2-5.9-.4-1.9-5.1,1.6-3.6-4.3.6-3.7.2-.4ZM368.3,616.7l.2-.4-.2.4ZM370.8,621.5l.2-.2-.2.2ZM364.1,627.3h.5c0,0-.5,0-.5,0ZM408.8,617.8l1.7,6.4,3.9,1,2,8.2-3.1,8.3,3.7,4.9-1.6,9.3-3.5,6.1-5.2,2-6-2.5-.7,4.8-3.5,1.6-3.8-5.9h-3.6c0,0-2.3-8.4-2.3-8.4l2-14.4-4.5-3.2,2.3-3.9,3.7.4,2.4-6.7,1.9,1.9,5.8-2.3.5-3.3,2.6,1.1-.9-7.8,6.2,2.2v.2ZM379,691.2l3.7,8.9-3.8.6-5.2,8.2,4.6,4.7-.9,6.9,10.9-1.4,2.7,7.4,5,2.4-4.1,6.4,1.6,1.7-7.6,4.6-1.6,3.7v-2.9c-.1,0-15-3.7-15-3.7l-5.4-6.7,3.2-2.9-7.7-3.5-4.3-5.8-4.1.3,2.7-4.5-2.2-1.1,4.9-3.2-4.4-2.4,2.1-3.4,4.1-.9-7-6.5.7-2.5,3.7,2,22.8-6.4h.6ZM350.4,696.3h.3c0,0-.3,0-.3,0ZM348.6,697.3h.1-.1ZM356.9,704.5v-.3.3ZM353,706.8h.1-.1ZM352,706.8l.2-.2-.2.2ZM354,712.3h.1-.1ZM395.5,712.5l-1.6,4.6h-3.4c0,0,5-4.4,5-4.4v-.2ZM352.8,713h.3c0-.1-.3,0-.3,0ZM352.5,713h0c0-.1,0-.1,0-.1h0ZM352.5,713.8l-.2-.3.2.3ZM351.6,716.2h.2c0-.1-.2,0-.2,0ZM389.9,718.3l-.3,2.8.3-3v.2ZM355.3,721.3h.3c0,0-.3,0-.3,0ZM365.4,730.5v-.2h.1v.2ZM365.5,731h.2c0-.1-.2,0-.2,0ZM371.4,739.2l-.2-.2h.2v.2ZM387.5,744.3l-1-1.8,2.5.6-1.5,1.1h0ZM386.8,744.5v-.2c.1,0,0,.2,0,.2ZM365.8,653.3l8.1,7.5,3.4-3.3-.6,2.6,6.7,7.1-4.4,11.2,1.2,12-26.7,7.3-.9-2.4,6-1.9,7.2-6.9.3-3.8h2.5l-1.3-3.8,3.1.8-2.1-.4,1.3-2.9-2.3-2.9,2.6-2.3-1.9-10.1,2.4-1.2-5.7-2,.8-4.6h.3ZM367.5,675.5v-.4c.1,0,0,.4,0,.4ZM366.8,676.3h0c0,0,0,0,0,0ZM368.1,677.5l.4-.2-.4.2ZM368,678.3l.2-.2-.2.2ZM368.5,681.8h-.2c0,.1.2,0,.2,0ZM366.8,682.7l-.2.5.2-.5ZM364,687.5l.6-.4-.6.4ZM359,687.5l1.7.6h-2.2c0-.1.5-.6.5-.6ZM427.3,648l4.6,6.4-5.7,1.9.8,3.2-6.6,11.6v7.2l14.3,5.9,2.1,4.4,2.3-.8-.6,3.9-4.6.4h4.5c0,.1-.4,5.3-.4,5.3l-6.2,1,4.5-1.8-2.7-2.2-.8,2.3-1.4-1.6-3.3,1.9,1.6-3.3-3-.3-2.7,5-.4-2-2.2,2.5-2.1-1.6.2,2.7-2.1-1.4-6.4,3.1-2.4,2.2.9,4.4h-2c0,0,.7-2.6.7-2.6l-3.2,3.1,3.6,3-.4,3.1-2.8-1.7,1,3-3.9,1-6.5,11.7h-2.2l-5.1-5.4v-3.2l7.3-5.3.3-4,4.1.8,1.2-16.7-2.9-4.4,7.6-5.5-3.5-4-5-1.2-.5-4.7,2.2-.8-3-6.6,3.5-1.6.7-4.8,6.6,2.5,5.4-2.6,3.6-9.3-.5-9.4,4.6-1.8,6.7,7.3.2-.2ZM427,657.5l.3-.6-.3.6ZM441.9,682.3l.2-.3-.2.3ZM438.5,682.3h.2c0,0-.2,0-.2,0ZM436,684.2l1.9-1.7-1.7,1.7h-.2ZM435.8,683.5h.1-.1ZM435.1,683.8l.3-.3-.3.3ZM435,684.5v-.3.3ZM437.4,685.8v-.3.3ZM435.9,685.5l.3-.3-.3.3ZM437.8,687v-.2.2ZM437.5,687.3v-.2.2ZM436.5,692.8l.3-.4-.3.4ZM429.1,694h.3c0,0-.3,0-.3,0ZM434,695.8h0c0,0,0,0,0,0ZM434,696h.2-.2ZM433.9,696h0c0,0,.1,0,.1,0h-.1ZM427.5,696.3l.2-.2-.2.2ZM434.3,696.3h.1-.1ZM434.3,696.7h.1c0-.1-.1,0-.1,0ZM433.9,696.8h.1c0,0-.1,0-.1,0ZM421.4,699.3h.1-.1ZM413.3,702.2v-.2c-.1,0,0,0,0,0v.2ZM413.5,702.7h0c0-.1,0,0,0,0ZM410.8,703.7h-.3c0-.1.3,0,.3,0ZM409.6,704.2l.3-.2-.3.2ZM412.6,704.7v-.3.3ZM407.5,709.2v-.2.2ZM407.9,709.8h0c0,0,0,0,0,0ZM342,617.8l-.8,4.1,3.4,4.2,5.3-1.5.4,1.9.2,5.9h-5.4l-.5,5.5,6.8,4.3,4.2-1.4,1.5,5.2,9.5,2.5-2,9.4,5.7,2-2.4,1.2,1.9,10.1-3.1,3-3.3-2.6-13.4,5.7-13.7-8.1-12.9.7-.5-3-2.5,4.6-4.2.4.6-2.7-3.6-3.6.3-11,6.8-7.3-1.2-4.3,6.2-3.1-6.9-19.7,7.9-3.2,4.1,1.9,11.4-1.1h.2ZM332.6,617.5v-.3c.1,0,.1.3.1.3h-.1ZM334,669.5l.2-.6-.2.6ZM363.9,672.5h.2-.2ZM362.1,672.8h.4-.4ZM363.5,672.8v-.6.6ZM364.6,672.8l.2-.2-.2.2ZM341.3,673.5l.5-.8-.5.8ZM342,673.2h.1-.1ZM360.3,674.3l.5-.2-.5.2ZM331.1,674h0c0,0,0,0,0,0ZM326.6,675.5l-1.6-1.1,1.7.9v.2ZM358.5,676v-1.9c0,0,1.3,1.9,1.3,1.9h-1.3ZM328,676l.2-.2-.2.2ZM323.1,676.5l.5-.5-.5.5ZM325.4,676.8v-.3.3ZM321.5,676h.2-.2ZM326,676.3h.1c0,0,0,0,0,0h-.1ZM328.9,676.7l-.3-.3h0c0,0,.3.3.3.3ZM358.3,677.3l.2-.2-.2.2ZM324.5,677h0,0ZM338.3,688.8l10.1-10.5,1.1,1.9-6.3,9,2.8,8.6-10.5,4.6-.3-3.8-3.1.8v-3c0,0,6-7.2,6-7.2l.2-.4ZM323.5,679.3v-.2c.1,0,0,.2,0,.2ZM346.1,697.3v-.3c.1,0,0,.3,0,.3ZM339.4,704.2h.2-.2ZM382.6,668.5l1.2,2.9,4.5,1.3,3.5-3,5,3,1.2-1.9-.3,9.1,8.5,4.9-7.6,5.8,2.9,4.4-1.2,16.7-4.1-.8-4.2,3.2-2.7,7-2.9-2.7-9.1,2,.9-6.9-4.6-4.7,5.2-8.2,3.8-.6-3.7-8.9,1.6-3.8-1.6-9,3.4-9.5.3-.3Z"/>
    <circle class="st7" cx="380.6" cy="678.2" r="11"/>
    <text class="st5" transform="translate(375.3 685.2)"><tspan x="0" y="0">5</tspan></text>
  </g>
  <g data-mapno="6">
    <path class="st6" d="M320,641.8l.3,5.4-6.9,7.7,1.4,6.5-1.9,2.9,3.9,4.8-.6,2.7-6.5-1.3,2.8,2.6-3.5,4.9-4,1.9-6.6-1.1,4.7,1.3-5.1,7.2-4.9-1.3-2.2,2.1-2.3-5,.3,3.1-1.9-.4-.6-3.6-7.2,4.5-2.5-3,1.9,3.4-2.5.7-4.2-10.3-.3-10.6-3.8-4.8-.3-12.1,5.3-.9.3-4.1,5.5.2-1-2.6,2.9-1.6,1.4-5.1,7.1,1.4,4.6,4.1,8.1-5.9-.2,2.6,5.9,1.3,1.7,6.5,10.7-4.5.2.4ZM316.3,672.8l-2.2-1,2.3.8v.2ZM311,671.8h0,0ZM313.5,672.7h.3-.3ZM313.1,673.7h.1-.1ZM314.6,673.3v-.2c.1,0,0,.2,0,.2ZM313.5,674.5h.3c0-.1-.3,0-.3,0ZM315,674.2h.1-.1ZM311.6,675v-.2.2ZM308.9,678.7h.3-.3ZM310.5,678.3h.3c0,0-.3,0-.3,0ZM300.4,678.5v-.2c-.1,0,0,0,0,0v.2ZM310.3,679h.1c0,0-.1,0-.1,0ZM308.5,679h0,0ZM305.6,681.2h.2-.2ZM306.1,681.2v-.3h.1c0,.1-.1.3-.1.3ZM302.1,684.2h-.2.2ZM287.4,686.8h.1-.1ZM294,687.5h0,0c0,0,0,0,0,0ZM277.4,688.5h-.1v-.3c.1,0,.1.3.1.3ZM277.4,688.8h.2-.2ZM290.1,689.2h.1-.1ZM292.4,688.8h.1-.1ZM293,689.3v-.2.2ZM297.1,689.2h.2c0-.1.1,0,.1,0h-.3ZM277.9,691l.4-.5-.4.5ZM279.6,692.2l-.4-2,.6,1.9h-.2ZM277.3,691.3v-.2h.1v.2ZM281.5,691.7v-.3.3ZM280.9,693.3l.3-.2-.3.2ZM278.6,693.5l-.2-.2.2.2ZM277.9,694v-.5.5ZM278.9,696h.2c0,0-.2,0-.2,0ZM260.3,651.5h5.4c0-.1,3.4,3.9,3.4,3.9l-1.2,6.8,3.6,4.4.5,11,3.2,5-3.2,8.8-6.5-.4.2-3.1-7.8,2.6-2.2,3.8-10.7.8-2.5,4.3-10.4,2.8.9-2.9-3.2-5.3,1.9-1.2-7.4-.4-6.7,6,.6,2.8-4.7-1.5-5.1-15.2,4.2-4.6.2-7.2,5.2-5.7,7.4,1.6,1.7-2.4,4.9,1.4,6.3-2.2,1.4-2.7-3.2-1.3,5.6-3.3,5.7-8.2,12,1.5h.5ZM263.8,692.8l-1.8-2.1,3-.8-1.1,2.6v.3ZM261.9,691.8v-.3c0,0,0,.3,0,.3ZM272.6,691.5l.2-.3-.2.3ZM266.6,692.5h0c0-.1,0,0,0,0ZM265.1,692l.2-.2-.2.2ZM268.1,693.5l.7-.5-.7.5ZM260.3,692.7l.3-.3-.3.3ZM258.4,692.7l.3-.2-.3.2ZM259.1,695v-2.3l.4,1.8-.4.5ZM262.9,697.3l-2.1-4.7,3,2.3-.6,2.4h-.3ZM260.6,693v-.3.3ZM266.3,694.3l.3-.2-.3.2ZM275.8,693h.1-.1ZM228.4,693.7l.2-.2-.2.2ZM274.9,694l.2-.2-.2.2ZM229.3,694.3l.3-.3-.3.3ZM257.4,696v-1.9,1.7c.1,0,0,.2,0,.2ZM227.1,696h.2c0,0-.2,0-.2,0ZM251.4,695.5l-.2-.5.2.5ZM228.6,695.3h-.3c0,0,.1-.3.1-.3l.2.3ZM275.6,695.3h.1c0,0-.1,0-.1,0ZM257.8,698.5v-3l2.6-.5-2.2,3.3-.4.2ZM253.4,695.8h.2c0,0-.2,0-.2,0ZM219.6,700l2.7-4.6-2.7,4.5h0ZM249.9,697h0,0ZM226.8,705.8l1.2-3.2-3.8-4.3,4.8,2.9-2-2.6,2.2-2.4.6,8.7-2.5.6-.5.3ZM223.8,696.7h-.2.2c0-.1,0,0,0,0ZM245.1,696.7h.1c0-.1-.1,0-.1,0ZM248.4,697.3v-.3c0,0,0,.3,0,.3ZM250.9,697h.3-.3ZM248.1,701.3l-1.9-2,5-2.1-3,4h0ZM244.6,697.8l.3-.4-.3.4ZM223.9,697.5h0,0ZM249.4,697.7h.2c0-.1-.2,0-.2,0ZM248.4,697.8h0c0,0,.2,0,.2,0h-.2ZM247.9,698.5l.2-.2-.2.2ZM242.9,698h.1c0,0-.1,0-.1,0ZM243.6,698.5h.1-.1ZM243.4,698.3h-.3c0,0,.2,0,.2,0h.1ZM247.4,698.8v-.2.2ZM223.4,699.7v-.3.3ZM239.4,700.7h.3-.3ZM241.4,704.2l-2.5-2.2,3.5.2-.9,1.7v.3ZM237.9,703.3l.6-1.8-.5,1.7h-.1ZM221.6,702h0c0-.1,0,0,0,0ZM232.6,708.5l-5-1.4,3.8-5.5.6,5.3,2.5-.4-1.8,2h-.1ZM230.8,702.2v-.2c.1,0,0,.2,0,.2ZM220.8,702.5h.3-.3ZM244.9,702.3h0,0ZM245.3,704.5l1.5-2.6-1.2,2.4-.3.2ZM247.1,702.3v-.3.2c0,0,0,0,0,0ZM243.1,704h.4-.4ZM225.4,704.7l-.7-1.7.9,1.7h-.2ZM233.6,704.3h.2c0,0-.2,0-.2,0ZM226.9,704.7l.6-.3-.6.3ZM238.3,704.5h.1-.1ZM237.4,704.5v-.2c0,0,0,.2,0,.2ZM242.4,704.7h.2c0-.1-.2,0-.2,0ZM221.6,706.3h0c0,0,0,0,0,0ZM243.8,706.5h.2-.2ZM232.6,709.3l.3-.3-.3.3ZM231.6,710.5h.1-.1ZM228.6,709.8h0,0ZM229.6,711.2l.2-.2-.2.2ZM165.9,669.8l-.5-2.3.6,2.3h-.1ZM192.1,674.2l1.6,6.1-2.8,4.2,1.5,3.9,4.5-.2-.9,5.9,8.7,1.6,1.8-7.1,3.3-2.3,3.7,13.4,4.8,1.7-1.6,11.5-4.5,3,1.3,6.7-4.1-5.1-4.4.3-4.9-5-4.8,1.8,3.2-3.1-4.1-2.5-9.5,4.3-3.1-2.3-1.7,3.2-2.5-3.9-1.4,4.6-4.2,2.6-4.1-.4-.4-3.8-6.4-3.4-6.3,8.2.5-8.3-2.5-2.9,3.4-5.7-3.1-4.5,1.6-4.2,6.4-.5-4.9-1.3,1.9-2.8,7.4,1.5,1.2,2.6,7.2-.8,5.1-2.4-1-1.7,10-11.8,2,1.2,1.8-2.1.3-.2ZM182.1,680.3h-.1c0,0,.1,0,.1,0h0ZM183.6,680.8h0v-.2c0,0,0,.2,0,.2ZM177.6,683.8h.3c0,0-.3,0-.3,0ZM172.4,684.8l.3-.3-.3.3ZM178.6,685.2h.2c0-.1-.2,0-.2,0ZM175.6,684.5h0c0,0,0,0,0,0ZM177.3,685.5h.1c0,0-.1,0-.1,0ZM177.3,686.8v-.2c.1,0,0,.2,0,.2ZM168.8,690.3l-1.3-1.9,3.8-.4-2.4,2.3h-.1ZM174.4,688.8v-.2c.1,0,0,.2,0,.2ZM172.1,689.8h.2c0,0-.2,0-.2,0ZM152.1,693.7l1-1.9-.8,1.6-.2.3ZM157.8,692.7l.3-.2-.3.2ZM154.4,703.2l.3-.2-.3.2ZM154.4,703.3h.5-.5ZM221.4,706.2h0c0,0,0,0,0,0ZM149.8,707.8l-1.1-1.3,1.2,1.3h0ZM225.4,710h0c0-.1,0,0,0,0ZM193.9,711.8l2.2-1.6-1.9,1.6h-.3ZM224.8,711.5v-.3c.1,0,0,.3,0,.3ZM226.6,711.3h.1c0,0-.1,0-.1,0ZM193.4,714.3l-.6-3.1.9,3h-.3ZM226.4,712.5h.2-.2ZM186.1,713.8l.8-2.1-.6,2h-.2ZM196.9,712h0c0-.1.2-.2.2-.2l-.2.2ZM219.4,713.5v-.2c0,0,0,.2,0,.2ZM222.3,713.5h.1-.1ZM160.6,713.5v-.2c0,0,0,0,0,0v.2ZM198.1,717l1.8-3.3-1.4,3.3h-.4ZM194.1,714.3h.2-.2ZM152.8,714.8h.3c0,0-.3,0-.3,0ZM223.1,715.3h.1c0,0-.1,0-.1,0ZM216.4,721.3l-1-5.5,4.7-.2,2,3.2,6.8-2.9-4.7,2.3v2.7l-3.8-2.1-3.7,2-.3.5ZM228.9,715.8l.2-.2-.2.2ZM223.3,716.5h.2c0,0-.2,0-.2,0ZM229.8,715.8v-.2.2ZM192.1,716.8l.3-.2-.3.2ZM214.1,716.5h.3c0,0-.3,0-.3,0ZM203.4,716.8l-.2-.3.2.3ZM156.1,717v-.2.2ZM228.6,718v-.3.3ZM225.1,718.8h0v-.2c0,0,0,.2,0,.2ZM208.9,719.5l.3-.3-.3.3ZM209.4,720.8l.5-.2-.5.2ZM207.6,721.5h.2-.2ZM221.3,720.8h.1-.1ZM223.9,721.8h.2c0,0-.2,0-.2,0ZM208.9,725.3l1.2-4.1,2.1,1.6-2.8,2.3-.5.2ZM215.1,722l.2-.3-.2.3ZM212.1,723.8l.3-.3-.3.3ZM218.8,726.5l-4-2.3,4.3,1.9-.3.4ZM218.6,724.2h.2c0-.1-.2,0-.2,0ZM225.1,724.5l.3-.2-.3.2ZM204.9,726.3l.6-.4-.6.4ZM203.8,725.2v-.3c-.1,0,0,.3,0,.3ZM225.1,725.8v-.3c0,0,0,.3,0,.3ZM209.1,726v-.2c0,0,0,.2,0,.2ZM212.9,729.5l.9-2.9-.6,2.7-.3.2ZM207.8,728.2h.3-.3ZM265.4,588.5l-3-3-.2-4.5,4.9-3.6,4.8,4.9-.7,3.5-3,.5,1.6,1.7-4.2.5h-.2ZM253.8,595.7l-2.3-2.8,6.7-3.1-2.3,4.5-3-1.7.9,2.8v.3ZM261.9,590l.3-.2-.3.2ZM256.9,595.8v-3.8c0,0,2.2-1.2,2.2-1.2l1.8,2.7-3.7,2.3h-.3ZM261.6,592v-.3.3ZM256.6,598.2l-2.8-2.2,2.9,2.2h0ZM256.3,598.3v-.4.4ZM257.4,598.3v-.4.3c.1,0,0,0,0,0ZM255.6,598.2v-.2c0,0,0,0,0,0v.2ZM265.4,624l-2.2,1.5,5.9,6.9-.6,8-7.4,2.7,1.9,2.9-2.6,5.5-12.6-1.6-5.7,8.2-5.6,3.3,3.7,3.2-8.2,3-4.9-1.4-1.7,2.4-7.4-1.6-5.2,5.7-.2,7.2-3.5,3,.7,3.6-3.3,2.1-1.8,7.1-1.9-1.9-5.7,1.3-.2-6.9-4.5.2-1.5-3.9,2.8-4.2-1.6-6.1,7.2-1.5,11.3-12.9,10.7-7.3,5.1-7.6,9.7-5.4,2.3-5.3-1.5-3.9,15.7-4.4,5.5-4.9,2.6,2.5,8.5-.5-3.7,1h0ZM259.8,621.8v-.3.3ZM265.1,622.3l.2-.2-.2.2ZM256.3,623.2v-.2c-.1,0,0,0,0,0v.2ZM225.4,646.2v-.2h0v.2ZM225.4,646.2v-.2h.2l-.2.2ZM208.8,661.5h.1c0-.1-.1,0-.1,0ZM209.4,661.7l.2-.2-.2.2ZM199.1,665.3h0c0,0,0,0,0,0ZM200.3,524.7h0c0,0,0,0,0,0ZM200.6,524.8h-.2.2ZM318.5,620.2l6.9,15.2-2.5,6.8-3.3-1-10.4,4.8-1.7-6.5-5.9-1.3.2-2.6-8.1,5.9-4.6-4.1-7.1-1.4-1.4,5.1-2.9,1.6,1,2.6h-6.1c0,0,.7,3.5.7,3.5l-5.7,1.3-1,2.4-6.3-.7,2.7-5.8-1.9-2.9,7.4-2.7.6-8-4.6-4.1-.4-4,9.1,5.3,7.4-4.4,22.6.7,15.3-4.9v-.8Z"/>
    <circle class="st7" cx="240.1" cy="673.5" r="11"/>
    <text class="st5" transform="translate(234.8 680.5)"><tspan x="0" y="0">6</tspan></text>
  </g>
  <g data-mapno="7">
    <path class="st6" d="M316.6,681l1.6.2-1.3,7.2-2.8-.8.9-1.8-3.1,3.7v-3.7c-.1,0-4.2.5-4.2.5l1.4-3.4,7.4-2h.1ZM308.5,683.5h0c0,0,0,0,0,0ZM307.9,683.5h.2-.2ZM299.6,684.3h.1c0,0-.1,0-.1,0ZM301.5,684.8v.3c0,0,0-.3,0-.3ZM299.8,684.5h.2c0,0-.2,0-.2,0ZM304.8,686.8l-1.7-1.7h2.8c0-.1-.9,1.7-.9,1.7h-.2ZM300,685.3l.2-.4-.2.4ZM300.5,685.8v-.3c.1,0,0,.3,0,.3ZM306.5,686.2h.3c0-.1-.3,0-.3,0ZM299.6,686l.3-.2-.3.2ZM300.6,687.8l-1.1-2,1.1,1.8v.2ZM300.9,686.2v-.3c.1,0,0,.3,0,.3ZM299,686.3h0c0,0,0,0,0,0ZM309.8,686.5v-.2h.2c0,0-.2.2-.2.2ZM301.1,686.8v-.3c.1,0,0,.3,0,.3ZM299,687.2h.2-.2ZM301.3,688.2h.3-.3ZM303.6,689.3v-.2c.1,0,0,.2,0,.2ZM291.9,689.5h0c0-.1,0,0,0,0ZM306.9,689.3h.1-.1ZM297.1,689.2h.3v.2l-.3-.2ZM290.5,689.7v-.2c0,0,.2,0,.2,0l-.2.2ZM305.9,690.2h.3-.3ZM306.9,689.8h0c0,0,0,0,0,0ZM307.5,689.8h0c0,0,0,0,0,0h0ZM285.3,691.3l.2-.3-.2.3ZM302.9,691.5l.5-.5-.5.5ZM292,690v-.3c.1,0,0,.3,0,.3ZM290.5,690.2h.6c0-.1-.6,0-.6,0ZM289.9,692l-.5-1.7.8,1.4-.3.3ZM286.9,693l.5-2.9-.3,2.8h-.2ZM285.9,712.5l-3.8-1.9,2.4-8.4-4.3-4.1,5.6,2.3,10.4-9.2,8,2.2,3.4-3,1.2,4.1,2.2-2.4,2.5,4.9,8.3,4.3-1,2.9-11.6-1.2-8.6,6-2.4-2.4-4.1.6-8,5.3h-.2ZM309.1,690.8h.2-.2ZM297.5,690.8h0c0,0,0,0,0,0ZM292.6,691.2v-.4.4ZM293,691v-.4.4ZM284.5,691.8v-.6c0,0,0,.6,0,.6ZM290.5,692.8h.3-.3ZM283.3,694.3h.1-.1ZM284.3,694h0c0,0,0,0,0,0ZM285.8,695.7h.1-.1ZM283.3,698.5l1.4-1.5-1.3,1.2v.3ZM285.9,697.8h.2c0,0-.2,0-.2,0ZM283.5,702v-.3.3ZM283.6,702.2h.2-.2ZM275.4,704.3h-.2c0,0,.2,0,.2,0ZM278.9,706h0,0ZM251.9,702.3l.4-4.5,2.7-1.5,1.6,4.3-4.6,1.6h0ZM263.6,699.5l1.1-3.2-.8,2.9-.3.3ZM261.6,696.8h0c0,0,0,0,0,0ZM262.3,698.5l-.4-1.8.6,1.6-.2.2ZM260.1,699.3l.9-2.3-.4,2-.5.3ZM262.4,700h.3-.3ZM251.4,699.3h.1-.1ZM260.9,699.8h.4-.4ZM259.1,702.3l-2.2-2.4,3.5.7-1.2,1.4v.3ZM265.6,700h.4-.4ZM260.8,700.8l.2-.3-.2.3ZM250.6,701.8l.2-.3-.2.3ZM250.6,702.7v-.3c0,0,0,.3,0,.3ZM266.6,702.7h.3c0-.1-.3,0-.3,0ZM248.1,703.2v-.3.3ZM255.4,707v-4.8c-.1,0,3.7.8,3.7.8l-3.4,3.7-.3.3ZM257.8,702.7h.1-.1ZM249.1,702.5l.3-.2-.3.2ZM250.9,702.3h0,0ZM268.8,703.3h.1c0,0-.1,0-.1,0ZM270.9,703.8v-.3c.1,0,0,.3,0,.3ZM254.1,704.7v-.3.3ZM282,710.5l4.1,2.2-.7,6.8-22.5,5.3-8.5,17.7-9.8,1.1,4.4,8-5,2.5-5,8-3.2-2.6,3.4,11.6-1.8,2.7-6.6-1.4-1.1,3-.3-4.7,3.3,1.2-3.5-5-4.8,1.6,1.2-2.7,3.8.7-1.8-3.8,2.7-.3-3-.5,1.2-1.9-2.8-1.9,4,2.3,3.3-3.3-1.1-2.8-3.3,1,2.7-3.4-7.2-.2,2.2-2-1.9-1.7.9-5.2h-4.6c0,.1-8,6.4-8,6.4l-1.7-1.5-3.9,2.6,30.2-20.1,5.4-17.1,7.3-3.9-1.4-2.8,2.3-1.5,8.4,12.5,9.5-4,9.1,1.4,3.7-3.7.4-.6ZM252.6,706.2l.3-.2-.3.2ZM261.3,706.5v-.5c.1,0,0,.5,0,.5ZM262.4,706.5h.3c0,0-.3,0-.3,0ZM253.4,706.7h.3-.3ZM262.8,707.3h0c0,0,0,0,0,0ZM239.6,709.3h.3c0,0-.3,0-.3,0ZM258.8,709.8h0c0,0,0,0,0,0ZM234.4,711.8v-.2c.1,0,0,.2,0,.2ZM258.4,712h0c0-.1,0,0,0,0ZM234.9,716.3l-1.1-1.4,3.2-2.9-1.9,4.3h-.2ZM270.9,713.8v-.3c.1,0,0,.3,0,.3ZM232.3,715.3l1-1.8-.9,1.4v.4ZM229.9,715.2l1.5-1.4-1.3,1.1-.2.3ZM239.1,715.2l.5-.2-.5.2ZM242.6,714.8h.1-.1ZM237.6,715.8h.1-.1ZM231.6,717.3h.1-.1ZM238.3,720.5l1.4-3.2-1.4,3v.2ZM236.9,719.5h.2c0,0-.2,0-.2,0ZM231.6,722v-.6c.1,0,0,.6,0,.6ZM228.9,728.3h.3c0,0-.3,0-.3,0ZM222.9,744.2l.3-.2-.3.2ZM223.9,745h0,0ZM222.6,748.3v-.2.2ZM223.6,749l.3-.4-.3.4ZM231.1,757.5l.2-.3-.2.3ZM223.9,757v-.2c-.1,0,0,.2,0,.2ZM223.8,759.2l.7-1.8-.7,1.7h0ZM229.1,757.5h.3-.3ZM225.6,759.3h0c0,0,0,0,0,0ZM219.4,759.2h0c0-.1,0,0,0,0ZM219.4,759.3h0c0,0,0,0,0,0h0ZM223.9,759.5h.2c0,0-.2,0-.2,0ZM220.1,760.5l-1.3-1.1,1.5.8-.2.3ZM225.4,759.5h.3-.3ZM225.4,760.5h-.2l.2-.3v.3ZM221.4,761.5l.2-.3-.2.3ZM221.6,761.2l.4-.2-.4.2ZM226.6,763.5l-.2-.2.2.2ZM226.1,764h0c0-.1,0,0,0,0ZM221.6,764h.3-.3ZM227.3,773h.1-.1ZM225.6,773.5h.1c0-.1-.1,0-.1,0ZM233.3,774.8l-.3-.2.3.2ZM329,700.8l1-2-.8,1.8-.2.2ZM330.5,702.5l-1.6-1.4,2.5-1.8-.8,3v.2ZM321.8,701.3l7.1-1.7,2.5,3.3-2.5,9.6,5.5,4.8-3.6,4,5.7,1.3-16.4,9.9-4.3,6.4-5.7-.9-.9-6.8-5.5-.6-1.1-7.7-5.7,2.2-11.7-4.5.7-8.1,4.9-3.9,7.4-2,2.4,2.4,8.6-6,11.6,1.2,1-2.3v-.6ZM332.8,721.2h.2c0-.1-.2,0-.2,0ZM332,721.5l.2-.4-.2.4ZM334.5,721.5v-.2c.1,0,0,.2,0,.2ZM339.3,722.2h.4c0-.1-.4,0-.4,0ZM335.5,721.8l.6-.2-.6.2ZM338.6,722h.1-.1ZM339,722.3h-.2c0,0,.2-.2.2-.2v.2ZM324.5,734.2l.3-.3-.3.3ZM322.3,733.8v-.2.2ZM321,734.2h.2-.2ZM316.3,739.3h.1c0,0-.1,0-.1,0ZM285,719.8l11.9,5.2,5.7-2.2,1.1,7.7,5.5.6.9,6.8,5.4.6-6.1,17.5-11.5-13.8-9.6-3-7.8,2.1-.2-2.8.6,3.1-10.5,4.4,4.2.5-4.4.5-1.3,2.6-1.5-2.8-2.6,4.2,1.5,4.1-1.9,6-1.9-.6-4.1,7.8-4,.6-.2,7.5-2.7,3.1,3.3,5.6-3.9-3.5-6.3,2.3-4.1-2.9-4.1,2,4.2-7.9-3.1-1.3,1.8-2.7-3.7-11,3.5,2,5-8,5-2.5-4.4-8,9.8-1.1,8.5-17.7,21.3-5.1h.7ZM315,739.5h.1-.1ZM315.8,739.5v-.2.2ZM268.1,749.5v-.2.2ZM268.4,749.7h0c0-.1,0,0,0,0ZM269.1,750l-.2-.3.2.2h0ZM237.9,774.5h.1c0-.1-.1,0-.1,0ZM237.6,774.5h.1c0,0-.1,0-.1,0ZM239.4,774.8l.5-.2-.5.2ZM229.3,781.3l.6-.2-.6.2ZM235.8,783l.3-.2-.3.2ZM232.3,786.5v-3c.1,0,.2,2.9.2,2.9h-.2ZM234.9,784h.2c0,0-.2,0-.2,0ZM229.4,784.7h.1-.1Z"/>
    <circle class="st7" cx="269.3" cy="729.5" r="11"/>
    <text class="st5" transform="translate(263.9 736.5)"><tspan x="0" y="0">7</tspan></text>
  </g>
  <g data-mapno="8">
    <path class="st6" d="M105.7,736.5l.2-.3-.2.3ZM107.2,736.3h0c0,0,0,0,0,0ZM104.6,736.8h0,0ZM100.7,737.8h.3-.3ZM106.3,739h.3-.3ZM114.1,743.3l11.1-.6,6.3,4.7,6-2.4v5.4l-7.7,5.7-.8,5.8-5.2-3.5-5.8,4.4,4.6,9.3-10-3.4-4.1-4,1-4.2-5.8-1-2.8-6.1,1.5-2.9,2.9,2.7.7-6.5-4.1-2.5,1.2-1.8,2.5,1.8-.8-5.7,1.5,2.1,2.5-2,1.6,5.3,3.5-.3.2-.3ZM110.7,740h.3c0-.1-.3,0-.3,0ZM111.7,743.2h.2-.2ZM105.6,747.3l.3-.3h-.2c0,0,0,.3,0,.3ZM104.3,751.8h.2-.2ZM122.3,772.5h.2c0-.1-.2,0-.2,0ZM174.9,779.2l-3.5.9-7,13.3-4.1,1.7v6.2l4.4,6.2-3.3,4.3,3.1,5.1-4.5-.9-1.8,3-10.2,1.4-7.8-5.1-2.5,2.8-6.6.9-1.3-4.7,9.5-12.7-1.6-5.7,5.7-5.5-9.5,1.5,7-6,.3-4.5-8.1-6.8-1.4-5.1h4.7c0-.1-.8-2.6-.8-2.6l3.7-3.6,4.1.3.9-3.5,14.6,8.3,1.7-3.5-2.1-3.9,3.7-2.2,4.8,3,4.9,9.3-.5,4.8,3.5,3.1v.2ZM132.1,795.2l-1.3-2.2,2.5-2.1-1,4.2h-.2ZM135.2,793.5l1-1.6-.7,1.6h-.3ZM128.3,792.3l.2-.3-.2.3ZM133.3,792.5v-.2h.2l-.2.2ZM134.2,795.7l.4-2.7v2.2c-.1,0-.4.5-.4.5ZM130.2,793.3h.3c0,0-.3,0-.3,0ZM133.7,794v-.3.3ZM117.2,795h.5-.5ZM128.8,803l-5.6,1.1-1.2-2.5-.2,5.9-2.2-.6-2.8,5.9-5.2,1.9.2-4.9,3.6-.9-4.3-1.7,2.3-11.6,7.5-.5.7,5.5,5.4-3.8,6.8-.8-2.7,7.6-2.5-.4.2-.2ZM130.7,795.3h0,0ZM131.9,795.7l.4-.2-.4.2ZM121.3,795.7l.2-.2-.2.2ZM131.2,795.8h.2c0,0-.2,0-.2,0ZM132.8,796v-.3c0,0,0,.3,0,.3ZM132.7,796.2h.2-.2ZM129.8,796.3v-.5c0,0,0,.5,0,.5ZM132.3,796.5l.2-.2-.2.2ZM135.3,798.8h.3-.3ZM122.9,803.3v-.3h.2c0,0-.2.3-.2.3ZM123.2,803.5h0c0-.1,0,0,0,0ZM131.9,805.2l.3-.3-.3.3ZM127.7,804.2l.2-.5-.2.5ZM131.3,804h0c0,0,0,0,0,0ZM128.2,804.3l.3-.6-.3.6ZM127.3,805h0,0ZM122.9,805.3h.3-.3ZM126.4,805.2l.3-.3v.2h-.3ZM128.6,805.5h0,0ZM126.8,806.8l.3-.2-.3.2ZM129.2,806.2h-.2c0-.1.2-.3.2-.3v.3ZM126.4,808.7l3.4-2.4-3.2,2.3h-.2ZM126.3,807.7v-.2c0,0,0,.2,0,.2ZM118.6,811h.5c0,0-.5,0-.5,0ZM110.8,814.5v-.2c0,0,0,.2,0,.2ZM115.4,814.8h.2-.2ZM129.3,814.8l.3-.3-.3.3ZM114.3,817l-1.3-1.7,1.3,1.4v.3ZM110.9,815.8l-.3-.4.3.4ZM114.4,816h0c0-.1-.2-.3-.2-.3l.3.3ZM114.7,816.7h0,0ZM114.3,817h-.2.2ZM110.9,817.7h0v-.3c0,0,0,.3,0,.3ZM33.6,1110.6h-.3c0-.1.1-.1.1-.1h.2ZM85.5,672.8h0c0,0,0,0,0,0ZM83.1,688.8l-1.4,7.4v-4.5l-2.2,2.2v-3c0,0-.9,2.8-.9,2.8l-2.9-1.3,2.3-.7,1.8-5.2-1.6-1,3-2.9-2.7-1.5,1.7-5.1,3.5.4,2.5-3.7,2.2,2.2-3.1,3.4,2.1,2.9-4.3,7.3v.3ZM87.7,674.2h-.2c0-.1.2-.1.2-.1h0ZM77.3,688.8h.2-.2ZM77.7,689.3v-.2.2ZM84.2,693h0c0,0,0,0,0,0ZM83.7,694h.2c0,0-.2,0-.2,0ZM81.1,693h.1c0,0-.1,0-.1,0ZM81.1,693.3h.1c0,0-.1,0-.1,0ZM80.8,693.7h0v-.2c0,0,0,.2,0,.2ZM81.1,694h-.2v-.2l.2.2ZM80.8,695.8l-2.1-1.3,2.1.6v.7ZM75.1,708.3l-2.2-1,1.3-12,4.5,2.1-1.1-3,4.1,2.9-6.5,10.9h-.1ZM83.7,695.3h.3c0,0-.3,0-.3,0ZM80.2,696h.2c0,0-.2,0-.2,0ZM82,697.7l1.6-1.7-1.2,1.3-.4.4ZM76.3,707.5h.1c0,0-.1,0-.1,0ZM97.4,721v-.2.2ZM96.8,720.8h0c0,0,0,0,0,0ZM97.9,720.8h.2-.2ZM98.8,729.8l-3.5-3.6,2.1.5-1.8-2.6,2.5-3.3,4.5,4.3-3.8,4.3v.4ZM96.2,722.8h0c0,0,0,0,0,0ZM94.7,728.3h.2-.2ZM100.7,728.5l.2-.2-.2.2ZM94.6,728.8h0,0ZM95.6,729.2h0c0-.1,0,0,0,0ZM94.3,730.3h.2-.2ZM91.1,735.5h.3c0,0-.3,0-.3,0ZM91.1,743.3l-2.7-.3,2.4-2,.4,2v.3ZM99.6,746.8l1.1-3.6,1.7,2.1-2.7,1.5h0ZM99.3,744.3v-.3.3ZM88.9,745.8l1-1.7-.8,1.5-.2.2ZM84.6,750l.7-5.1.2,4.8-.9.3ZM98.4,746h0c0-.1,0-.1,0-.1h0ZM97.3,746.8v-.2c0,0,0,.2,0,.2ZM103.3,750l-.8-3.7,3,2-1.8,1.2-.4.5ZM82.7,760.2l-1.2-1.8,2.4,1.2-.9-2.7,2.5-.4v-6.4c0,0,4.1-.3,4.1-.3l1.5-3.1.8,2.9-3.2,5.5-5.8,5.1h-.2ZM101.8,747.5l.3-.2-.3.2ZM102.3,750.5l-1.5,2.9,2.8,6.1,5.8,1v5.2c0,0,6.8,5.5,6.8,5.5l5.6,1-5.5,5.3,4.6,1.2,5.7-2.1,2.6,3.5-.6,7.8-5.7,3.8-2.9,1-1.8-2.7v-2.8c0,0,3.7-2.3,3.7-2.3l-.7-2.9-5.2-.7-6.3,2-2.5,5.5-7.4,5.2,3.6-4.8-1-2.3,3.7-2.5-2.5,1.1-2.1-5.5-3.5-.7-3.2-5.4,2-9.7,4,2.8-1,3.4,1.1-1.8,2.8,2.1-1.6,6.6,2.8,2,1.6-3,6,2.2-3.6-4.4.7-5.1-3.4-2.9-2.6,1.5-2.4-3.6.6,2.3h-1.9l2.1-4.5-2.5,1-.5-2.3-2.8,3.5,1.7-2.2-3-1.5.2-3.1-.6,2-.6-2.1-2.9.3,3.3-5.1-2.9-.9.7-3.1,4.6-1,.3,2.5,5.3.3v.4ZM101.8,747.7h-.3.3ZM93.6,748.3h-.2.2ZM92.3,752.7v-.2h0v.2ZM70.5,755.8l-2.2-1.4,3.1-1.8-.6,3.2h-.3ZM91.7,753.5h0,0ZM91.8,754h.2c0,0,0,0,0,0h-.2ZM91.7,754.5h0c0-.1,0,0,0,0ZM91.7,755v-.2.2ZM91.1,755v-.2c0,0,0,.2,0,.2h0ZM91.3,755h.3-.3ZM68.3,755.8h.2c0,0-.2,0-.2,0ZM91.4,755.7l.2-.2-.2.2ZM91.2,755.5h0c0-.1.2,0,.2,0h-.2ZM80.8,755.8l.2-.3-.2.3ZM91.2,756.8h.2-.2ZM71.3,757.3h0,0ZM68.2,757.5h0c0-.1,0,0,0,0ZM67.3,759.5v-2.1c0,0,2.4.4,2.4.4l-2.2,1.5-.2.2ZM91.8,757.8v-.2.2ZM71.3,760.8l-.5-3,.5,2.8v.2ZM66,758.5l.3-.3-.3.3ZM92.2,758v-.3h.2c0,0-.2.3-.2.3ZM81.5,758v-.2.2ZM92.8,758.3h.2-.2ZM93.1,758.3h.2-.2ZM93.3,759v-.2.2ZM93.8,759h0,0ZM92.3,758.8v-.2.2ZM81.2,758.8h-.1c0,0,.1,0,.1,0h0ZM61.7,759v-.3.3ZM64.1,759.3h.1c0,0-.1,0-.1,0ZM92.4,760.5v-1.7c0,0,.5,1.6.5,1.6h-.5ZM80.8,759.5h0,0ZM93.9,759.3h0c0,0,0,0,0,0h0ZM81.3,759.8v-.3.3ZM66.1,759.5h0c0,0,0,0,0,0ZM67.5,759.8h0,0ZM65.6,759.8l-.2-.2h.2v.2ZM66.1,760.5v-.2.2ZM60.3,760.3h0c0,0,0,0,0,0ZM66.6,760h.1-.1ZM89.7,760.3h0c0,0,0,0,0,0ZM96.8,760.8v-.4.4ZM67.8,780l.4-4.8-3.4-3.5,3.2-.9-1.1-2.1,2.3-.4,1.2-7.8-1.5,10,3.8-1.2.9,1.9-2,2.2-1.8-1.4-1.8,8h-.2ZM95.2,760.8l-.2-.3.2.2h0ZM96.6,761.3h.2-.2ZM60.3,761.3h0c0,0,0,0,0,0ZM96.2,761.3h0c0,0,.2,0,.2,0h-.3ZM90.3,762.3l-1.6-.5,1.8.2-.2.3ZM97.1,762.2v-.4.4ZM71.3,762.3v-.3.2c0,0,0,0,0,0ZM96.3,762.3h.2c0,0-.2,0-.2,0ZM100.6,762.3h0c0,0,0,0,0,0ZM102.1,766v-.3.3ZM93.7,768.3l1.3-2.1-1.3,2h0ZM103.4,767h.2c0-.1-.2,0-.2,0ZM94.8,768.3v-.3.3ZM91.4,769.7l1-1.6-1,1.4v.2ZM76.1,770.3l1.2-1.8-.8,1.5-.4.3ZM73.5,768.7h0c0-.1,0,0,0,0ZM85.6,768.8h0c0,0,0,0,0,0ZM81.3,770v-.2.2ZM74.1,769.3h.1c0,0-.1,0-.1,0ZM65.3,769.7l.2-.2-.2.2ZM90.3,769.3h.3c0,0-.3,0-.3,0ZM95.6,770.3h.2-.2ZM91.2,769.7v-.2c0,0,0,.2,0,.2ZM100.2,770h0,0ZM99.9,770h.2-.2ZM66.1,771h.2c0,0-.2,0-.2,0ZM64.2,772.8v-.4.4ZM103.3,772h0c0,0,0,0,0,0ZM93.8,774.5l-.8-1.7,1,1.6h-.2ZM66.3,778.5l-2.9-1.5,1.1-3.5,1.8,4.7v.3ZM63.2,775l-1.3-1.2,1.5,1-.2.2ZM108.3,775.2h0c0-.1,0,0,0,0ZM73.8,774.3h.2-.2ZM67.3,774.5h-.3.2c0-.1,0,0,0,0ZM103.1,774.5h0c0,0,0,0,0,0ZM109.3,775.3h0c0,0,0,0,0,0h0ZM62.5,775.5h-.2v-.3l.2.3ZM60.7,776.2h.3-.3ZM66.7,776.2h.3c0-.1-.3,0-.3,0ZM93.3,776.5v-.2c0,0,0,.2,0,.2ZM62.2,781l-2.5-4.4,2,2.4,1.2-2.1-.6,4h0ZM66.7,777.2v-.3c-.1,0,0,.3,0,.3ZM102.8,776.8v-.2c0,0,0,.2,0,.2ZM90.8,776.8l-.3-.2h.2v.2ZM108.9,777.2v-.2c.1,0,0,.2,0,.2ZM103.1,777.3h.3c0,0-.3,0-.3,0ZM67.2,777.5v-.2.2ZM91.3,777.3h.3c0,0-.3,0-.3,0ZM66.6,777.5h.1c0,0-.1,0-.1,0ZM103.8,777.3h.2c0,0-.2,0-.2,0ZM67,777.5h.2-.2ZM65.1,777.8h.2-.2ZM66.8,778.5v-.4.4ZM58.7,783l-1.4-4.2,3.3,1.2-1.6,2.9h-.3ZM49.9,780.8v-.2c.1,0,0,.2,0,.2ZM61.8,781h.1c0,0-.1,0-.1,0ZM54.3,793.7l-8.2-2.1.5-2,1.5,2.4,1.2-1.3-.2-8.9,1.4,2.6,3.2-1.6.7,1.9,1.6-3.6-.3,2.6,2.5.4,1.8,5.8-5.7-.2v4ZM100.6,781.5l.3-.2v.2h-.3ZM64.3,784.2v-2.6c.1,0,0,2.5,0,2.5h0ZM63.3,783v-.3c.1,0,0,.3,0,.3ZM111.3,784l.3-.2-.3.2ZM111.9,783.7v-.2l.2.2h-.2ZM59,784.3h.2-.2ZM46.1,785.8h.1c0,0-.1,0-.1,0ZM58.5,785.5h.2c0-.1-.2,0-.2,0ZM58.2,785.5h-.3c0-.1.2-.1.2-.1h.1ZM101.8,787.2l-.9-1.4,1.2,1.3h-.3ZM60.1,786.8h.2-.2ZM47.2,790.2l.5-2.4-.2,2.2-.3.2ZM100.6,789.5v-.3c0,0,0,.3,0,.3ZM54.6,791.2l-.2-.2h.2v.2ZM54.6,791.3h0c0,0,.1,0,.1,0h-.1ZM57.5,792.3v-.3.3ZM61.3,792.7h.3-.3ZM60.3,793v-.2.2ZM51.2,793.3h.4-.4ZM60.3,794.3l.2-.2-.2.2ZM101.6,795l.5-.4-.5.4ZM37,823.7v-.5c.1,0,0,.5,0,.5ZM35.6,824h0c0-.1.2,0,.2,0h-.2ZM35.2,824.3h.2c0,0-.2,0-.2,0ZM34.9,825.3l.2-.3-.2.3ZM34.3,826.3h.2c0,0-.2,0-.2,0ZM85.8,671.5v.2-.2ZM85.2,672v-.2c0,0,0,.2,0,.2h0ZM34.2,826.3h0c0,.1,0,0,0,0ZM117.2,699.3l.4-.4-.4.4ZM146.6,712.5l.2-.4-.2.4ZM145.9,713h0c0-.1,0,0,0,0ZM150.9,713.8v-.3c0,0,0,.3,0,.3ZM152.6,715h.2-.2ZM168.1,734.8l-.7,6.4-6.6-.8-6.5,4.1-2.8,5.8,1.6,4.3-2,1.7,2.9,2.8-1.6,4.4-8.2-3.5-.9,3.5-4.1-.3-3.7,3.6.5,2.6h-5.3l1.5-2.6-4.1-8.5,9.3-8v-5.4l-6,2.4-6.3-4.7-11.1.6,5.3-3.8-3-2.7,5.7-4.8,3,4.9,6-1,1.5-5-3.6,2.6-3.2-2.6,2.4,1.6,5.1-3.7-.2-5.2,3.9-4.1,4.6.4,6.2-3.7,3.1,1.6-3.7,2.5h2.8l1-2.5,3.3,1.7,6.1-4.3-2.6,8.9,1.6-.5,4.4,10.9,4.1.3h.3ZM150.9,717l-2-.9,3.1.4-1.1.5ZM132.3,719.5l-1-1.4,1.2,1.3h-.2ZM135.8,719h.2-.2ZM113.8,721v-.2.2ZM134.3,721.2h.3-.3ZM160.9,723.3v-2.1l.4,2.1h-.4ZM158.4,722.8h-.3,0c0,0,.2,0,.2,0ZM159.8,725h.2-.2ZM129.3,727l.2-.3-.2.3ZM123.3,731.2h.2-.2ZM131.3,732.5l.4-.3-.4.3ZM126.4,735.5l.2-.2-.2.2ZM114.7,737.8v-.3.3ZM189.3,729.2l3.2-.7-2.6.6h-.6ZM201.1,784l-1.8.6.5-5-4.3-.8-2.5,3.5-6.7,1.1-4.6-4.6-5.4,2-5-5,.5-4.8-7.8-11.9-5,.3-.2,8.9-6.8-3.8,2-5.4-2.9-2.8,2-1.7-1.6-4.3,4.3-7.7,5-2.2,6.6.8.7-6.4,11.6,2.4,4.2-6.3,6.6.9,3.8,6.1v5.6c-.1,0-1.7,3.3-1.7,3.3l-3.7-.9.9,2.6-2.5,1.5-4.4-.7v3.6c.1,0,4.1,2.9,4.1,2.9l15-1.2-5,7.9,4.8-.4-2.2,2.7,2.8,1.1,4.2-1.7.8,2-4.3.6-1.7,3.4,9.2,3.3-5.3.6,1.9,1.7-3.3,3.1,3,.4-5.5,1.3-.3,3.3h0ZM204.1,754.5h.2c0-.1-.2,0-.2,0ZM198.9,759.8h-.2c0,0,.2,0,.2,0h0ZM205.6,760.5h.3c0,0-.3,0-.3,0ZM205.4,761h.3c0-.1-.3,0-.3,0ZM199.9,761.8h.1c0,0-.1,0-.1,0ZM206.6,764.3l.6-.4-.6.4ZM201.6,764.2v-.3h.2c0,.1-.2.3-.2.3ZM203.1,770.8l.9-2-.8,1.7v.3ZM202.4,769.3v-.3.3ZM210.1,772.3v-.2.2ZM204.4,771.8h0c0,0,0,0,0,0ZM208.9,774.5v-.2c-.1,0,0,.1,0,.1h0ZM208.1,776.5h0c0,0,0,0,0,0h0ZM202.4,782.7h.3-.3ZM203.1,785.8h0,0ZM122.3,811.8l2-3.2-1.9,3.1h0ZM120.2,813.2l.9-2.4-1,2.1v.3ZM120.8,811h0c0,0,0,0,0,0ZM122.8,812v-.2c0,0,0,.2,0,.2ZM120.8,812.3v-.2.2ZM121.8,814.3l-.5-2.2.7,1.8-.2.4ZM119.7,820.8l-3.3-5.1,4-2.8,1.7,4.1-2.3,3.7h0ZM120.7,813.2h0c0-.1,0-.1,0-.1h0ZM122.3,813.2h.2c0-.1,0,0,0,0h-.2ZM146.2,820l-.7,2.4,4.5,6.1,5.3,3.4-1.8,4,5.3,2,3.1,8.1,5.3-.3,1.9,3.3-2.1,6.6-2.5-.8-4.2,4.5,4.2,3.5-1.3,3.2h2.2c0,0-5.7,3.1-5.7,3.1l-2.2,4.4-14.2,7.8,6.9-18.9-5-6.9v-5.2l-5-1.8,3.9-2.2,1.5,4,2.6-.4,2.8-5.2-1.3-2.5-7.9-.7-5.4,12.4,2.8,9.8,4.5,2.6-3.8,6.1-3.4-.7-2.5-4.4h-11.7l.6-3.1-2.5-1.1,1.7-1.3-4.9-3.6,7.9-.7,2.9-8.9-7.9-11.5,2.6-6.5-2.2-10.9h6.3c0,0,2.4-3.4,2.4-3.4l4.5,3,7.4-4.1,4.7,4.7h.4ZM119.8,824v-.4h0c0,.1,0,.4,0,.4ZM119.8,824.5l.3-.2-.3.2ZM106.2,836.8l-1.8-4.6,4.6.8-2.8,3.6v.2ZM108.9,833.2l.2-.2h.2c0,0-.4.2-.4.2ZM110.3,833.2h0c0-.1,0,0,0,0h0ZM111.2,833.5h-.2c0-.1.2-.1.2-.1h0ZM104.7,835.8v-.2.2ZM104.1,838.3l.5-2.5-.3,2.1-.2.4ZM98.7,846.8l-2.7-2.1,6.8-7-4,8.7v.4ZM145.8,842.5v-.2c0,0,0,0,0,0v.2ZM146.3,847.2l.2-.4-.2.4ZM164.9,857.5v-.4.4ZM160.6,861h.5c0,0-.5,0-.5,0ZM119.8,861.8l.3-.3-.3.3ZM144.1,866l.3-.3-.3.3ZM87.3,870.3v-.5.5ZM85.5,871.3h0,0ZM143.9,881.3h-.2l.2-.2v.2ZM87.1,888.8h0c0,0,0,0,0,0ZM108.9,891.5l-.3-2.1.5,2.1h-.2ZM85.2,889.8l.3-.2-.3.2ZM156.9,901l5-11.2,1.1,7.9-5.5,11.9.9,4.5-5.1,2.9-1-6.7,4.6-8.7v-.6ZM133.1,892.2l-2.2-.6h2.4l-.2.6ZM125.3,893.7l1.6-1.7-1.6,1.5v.2ZM152.4,896.2l.2-2.1v2.1h-.2ZM122.1,912.8l-3-3.7,5.7,2.6-2.5,1h-.2ZM136.8,923.5l-3.9-.7-3-7.3,5.7-5.4,8.2,5.1-.8,4.4-5.9,3.7-.3.2ZM108.9,938.5l-.8-3.1,1,3.1h-.2ZM90.6,941.8h.2c0,0-.2,0-.2,0ZM94.3,942.5v-.3.3ZM106.2,945.8l-1.2-3.6,3.4,3.5h-1.9c0,0-.3,0-.3,0ZM90.3,953.5l.2-.5-.2.5ZM98.3,957.5l-1.2-2.6,2.8-1.1-1.5,3.6h0ZM93.6,966l-.6-1.8.9,1.8h-.3ZM81.2,978l.2-.3-.2.3ZM80.3,978.3l.3-.5-.3.5ZM75.3,983.2l-1.5-1.4,1.5,1.3h0ZM65.1,999.5h.2c0-.1-.2,0-.2,0ZM64.8,1001.3l.3-.2-.3.2ZM95.4,1020.6l2-5.1.9,5.8-14.2,9.3,3.2,2-3.5,3.1-3-.8,2,3.1-5.5-3.9.6-2.7-1.3,1.6-5.4-2.7,6.6-.4-3-2.4,11.9-5.8,1.6,1.8,2.2-4.4,3.7-.8-1.5,3.4,2.5-.9.2-.2ZM109.7,1029.2l-1.3-2.5,4.7-3.1-3.4,5.5h0ZM74.8,1028.7l-1.2-1.2,1.5,1.1h-.3ZM80.1,1040.6l-3.3-2.6-1.6,1.7-1.9-5.9,4.4,1.1-1.2,2.4,4.6.3-.6,2.4-.4.6ZM73,1033.7l.2-.3-.2.3ZM73.2,1037.9h0,0ZM72,1043.1l1.2-2.8-1,2.7h-.2ZM77.1,1043.6l-2-2.6,2.2,2.4-.2.2ZM78.2,1042.8h0c0,0,0,0,0,0ZM77,1043.8v-.2.2c0,0,0,0,0,0ZM60.3,1057.1l-.6-7,3.8-.4v3.9c0,0,3.1,2.5,3.1,2.5l-2.3,5.4-3,.3-1.1-4.6h0ZM45,1075.8l6.5-1.7-7.4,5.6-1.7-3.1,2.2-.7h.4ZM38.7,1096.1l-2.2-1.6,2.1-.8.7,2.1-.6.3ZM85.1,873.5h0c0,.1-.2,0-.2,0h.2ZM85.1,890.3h0c0,.1,0,0,0,0ZM201.1,784l-9.6,11.3,2.2,2.8-3.3.6-.8,2.5,2.2.8-4.9,7.6-5.8,21.2.3,14.6-4.1,4.9-1.4,10.4-4.6-.7-4.4-4.4,1.3-9.1-6.4-.5-3.1-8.1-5.3-2,1.8-4-5.3-3.4-4.5-7.2,12.7-2.4,1.8-3,4.5.9-3.1-5.1,3.3-4.3-4.4-6.2v-6.2l4.1-1.7,7.6-13.8,4.7,1.3,5.1-2,4.6,4.6,6.7-1.1,2.5-3.5,4.3.8-.5,5,1.8-.7h0ZM199.3,787.5h.1-.1ZM198.4,789.2v-.2.2ZM190.9,799.8h.2-.2ZM193.8,799.8h.2-.2ZM181.8,840.3v-.2.2ZM179.1,852.8l-.2-.7.2.7ZM177.6,853.5v-.2h.2l-.2.2ZM177.9,855v-.4.4ZM177.3,856.3v-.4.4Z"/>
    <path class="st6" d="M101.8,956.5l1.4-5.2,6.6-5.3-7.4,9.4-.6,1.1ZM100.7,957l.3-1.1-.3,1.1ZM103.2,958.5h.9-.9ZM102.3,965l-2.6-2.6,2.3-2,.9,4.4-.6.2ZM101.4,967l.3-.2-.3.2ZM122.2,985l-.3-2.9,7.4-5.5,1.5-7.5,5.4,2.9,1.7,9.6-8.3,12.4h-8l.3,3.2-2.6-.3,2.6,3.4-5.2,3.6-5.7-2.1,1.7,3.4-9.5,4.9v3.7l-7.4-1.9-4,3.2,8.6,9.8.3,3.6-5.2-5.2-2.6,1.3.9,1.8-2.9,1.1-5.4,10.1,1.7,3.6,4.3-2.1.9,2.3-9.8,8.1-6.3,1-.9-6.5,2.1-.7-2.3-.3-.9-4.4,3.4-1-.5-3.9,8.6-6.7-4.6-13.5,2.3,2.1,3.1-2.6,2.6,1,4.3-7,6.9-1.3,6-6.5-8.3-2.8-1.4-10.7,12,2.6-2.6,3.7,4,2.3,9.5-3.1-2-3.1,3.7-2.6.9-.5ZM138.8,982.2l-.6-.3h.3l.3.3ZM90.1,986.3l-4.9-.6-.3-2.3,5.2-.8,2,3.1-2,.6ZM109.8,987.3l-.5-2.1.8,1.8-.3.3ZM110.9,992.5l-3.7-2.6,2.3-1,1.4,2.8v.8ZM117.3,990.5l.3-.2-.3.2ZM95.2,994l.3-2.5v1.8l-.3.7ZM91.2,992.5l-.3-.5.3.5ZM110.7,993.5l.3-.2-.3.2ZM107.4,1019.6l.6-1.6-.6,1.6ZM101.8,1024.9l5.2-5.2.5,1.8-5.1,2.6-.6.8ZM93.4,1024.4l2.3.5-2.6-.3.3-.2ZM104.1,1027.3l-.9-2.1.9,1.6v.5ZM101.4,1026.8l-.5-1,.5,1ZM106.9,1028.3l.5-.3-.5.3ZM65.7,1031.9l.3-.3-.3.3ZM68.8,1032.4l-.3-.3.3-.5v.8ZM69.1,1032.2v-.2h.3l-.3.2ZM102.7,1033.9l-.6-2,.6,1.5v.5ZM97.2,1043.3l2.3-1.9-2.3,1.9ZM86.8,1045.8l.3-.5-.3.5Z"/>
    <circle class="st7" cx="116.8" cy="800" r="11"/>
    <text class="st5" transform="translate(111.5 807)"><tspan x="0" y="0">8</tspan></text>
  </g>
</svg>