<?xml version="1.0" encoding="UTF-8"?>
<svg id="_レイヤー_1" xmlns="http://www.w3.org/2000/svg" version="1.1" viewBox="0 0 945.3 945.7">
  <!-- Generator: Adobe Illustrator 30.5.1, SVG Export Plug-In . SVG Version: 2.1.4 Build 3)  -->
  <defs>
    <style>
      .st0, .st1 {
        isolation: isolate;
      }

      .st2 {
        stroke: #1e293b;
        stroke-linejoin: round;
        stroke-width: 1.1px;
      }

      .st1 {
        fill: #fff;
      }

      .st2 {
        fill: transparent;
      }

      .st1 {
        font-family: Arial-BoldMT, Arial;
        font-size: 16px;
        font-weight: 700;
      }

      .st3 {
        fill: #64748b;
      }
    </style>
  </defs>
  <g data-mapno="1">
    <path class="st2" d="M545.1,422.1l4,5.7,3.3,7.8-1.6,5.1-16.3,30.6-1.3,1.1-8,2.9-5.6,12.3-11.2-4.3-11.5-3-2.1.2-4,3.8-1.8-1.5v-1.4l-4.4-.6v-1c-.1,0-5.6-1.5-5.6-1.5l-11-8.4-2-5.7-2.1-3.6-2-6.6-6.2.5-1.6-.5-1.1-1.1-1.6-4.1-3.2-2.8-1.1-2.1-1.9-5.1-1.2-6,.7-4.3,2.9-8.8,13-9.1,3.4-3.4,10.7-16.9,6.7-9.4-1.2-1.1,2.1-2.2h.7c0,.1,3.4-2.3,3.4-2.3l1.8-.6,6.3.2,4.6,1.5,8.8,1,8.1,2.1,10.9.4,2.5,1.1,3.2,3,3,1.1,3.8,1.2,2.9-1.6,3.1,1.4.6-1.5-2.1-1.9.4-.8-1.1-.6-.4.5-2.4-2.5,1-2.8h2.9c0,.1.6-.4.6-.4v-2.3c0,0,4.8.3,4.8.3l.6-6.5,7.7.9-.6,6.4,2.3.3-1.3,3.8,9.2,4.1,9.9.9-1.1,7.4,7.1.7-.3,5.4-1.2-.2-.3,3.3,1.6,1.7-6.2,5.7-.6-.6-3.6,3.2-2.5,1.4-19.3,8-6,2.1h0Z"/>
    <circle class="st3" cx="515.6" cy="418.6" r="10"/>
    <g class="st0">
      <text class="st1" transform="translate(510.3 424.5)"><tspan x="0" y="0">1</tspan></text>
    </g>
  </g>
  <g data-mapno="2">
    <path class="st2" d="M541.3,522.5l-6,5.6-13.4-9.4.5-1.9,9.3-14.4.3-1.8-.4-3.1-2.4-4.8-8.8-4-1-1.3,5.6-12.3,8-2.9,1.3-1.1,16.3-30.6,1.6-5.1-3.3-7.8-4.1-5.6,17-6.5,10.9-5.1,3.6-3.2.6.6,6.2-5.7-1.6-1.7.3-3.3,1.2.2v-1.2l2.3.4,14.6,5.7-.7,4.3,1.4,7.7,1.3,2.7,7.2,10.1,1,3.6-1,8.2-9.8,16.2-3,7.7-1,5.4.3,9.9,3.9,13.3.8,5.7.2,16,1.2,14.6-2.8.3-22.1,18.4h-1.8c0,0-17.8,14.7-17.8,14.7l-8.8-10.6,8.6-7.1-2.5-3.2-.4-.5-8.7,7.2-1.9-2.3-1-13.4,2.2-1.9,4.1,4.9,2.7-2.2-9.1-10.3-.4.3-.7.6h0Z"/>
    <circle class="st3" cx="562.1" cy="481.6" r="10"/>
    <g class="st0">
      <text class="st1" transform="translate(556.6 487.5)"><tspan x="0" y="0">2</tspan></text>
    </g>
  </g>
  <g data-mapno="3">
    <path class="st2" d="M506.2,632.8l1.3-22.4,3.3-8.8h6.9l.4-.6v.6h3.2l.5,18.4-5.2.2.3,12.6h-10.7,0ZM513.3,590.8h0c0,0,0,0,0,0ZM519.3,601.3v-.2c0,0,0,.2,0,.2ZM550.6,607l.6,1-.4-.5-1.1.4-3.5,5.6-1.2-.4,4.3-7.2h1v.9c0,0,.3.2.3.2h0ZM553.1,618.8h0c0,0,0,0,0,0ZM534.8,529l.5.6-5.4,12.5-3.2-1.9-.8,1.9-5.1,21.1v1.5h3.4l.2,26.7h-2.1l-2,2.8-1.4.5,1.3-.7,2-2.7-2.1-1.6-2,3,1.9-3-5.3-3.6-1.5,4.8,1.3-4.9-3.1-2-1.9.5-4.6,11.3,1,.5-1-.4-1.2,3.2-1.8,27.1-.8.5v-.9h-2v1.3c.1,0,1.3-.2,1.3-.2l-2.9,1.7v1.7l-10.8,5.5-4.7-.9-2.9-5.6-10.8,2h-3.9l-.5.3.4.9-1.2,1.2.5,1.1-2.2,1.1-3.3-.3-3.9-9.5-4.2.4-3-1.2.8-7.7-1.4-.3-.4-5.3-3.3-3.4-.8.9-1.2-1.5-.4-1.4.4-1.8-1.4-.7-1.6,3.1-2.7-1,.2-1.4-1.2-.7,1.4-4.6-2.3-2.5-10-3.1-.5,1.9h-1.5c0,0-.5,1.2-.5,1.2l-1.8.3-1.7,1.2-2.2-.6-1.2-1.3-2.2.3-.5-2.4.7-.3-.2-.5,1-1.4-2.5-4.7-1.6-1.2.5-5.3,2.2-1,1.2-1.8,4.2-2.2-1.4-1.4,5.6-8.3h3.1l1-1.7-.3-1.8,2.2-4-1.6-1.3.8-2.2-1.7-7.2-.6-7.6-1.6-.6-.6-3.6,3.2-8.1-2.1,1.6-10.4-4.5-.6,1.4-8.9-2.6-4.2-3.6,2.4-4.3-4.3-3.2-5.2-7-4.4-3.8,4.3-6.2,1.8-.9,1.7-1.9,6.1-8.3,1.6.6.8-1.4-2.6-2.3,2.3-5.8-.7-.4,1.6-2.6,4.3,2.1,1.2-.7-1.2-2.8,7.7-3.5,1.3-2.7-.9-4.3.7-.2-.8-2.3,1-.4-1.2-2.8h1l.2-.9,3.2-2.1,1.1,1.5,2.7-.7.4,2.7,1.4-1-.2-1.8,4.6-.8,1.2.8,2.2.2,1.4-.8,2.1-5,.3-2.3,2.2-4.2h2.9l3,5.8,2.1-1.5,3.5,3.3,1,3.1,1.7,2.1,4,.6,3.8-.6,2,6.6,2.1,3.6,2,5.7,11,8.4,5.5,1.5v1c.1,0,4.4.6,4.4.6v1.4l1.9,1.5,4-3.8.9-.2,8.9,1.8,15,5.5,1,1.3,8.6,3.8,2.6,5,.3,4.4-9.5,14.9-.5,1.9,13.4,9.4-.5.7h0ZM560.6,614.3l8.3-5.4-.4-3.4-3.6-5.8-2.4-2-4.1,2.9-1.5,4.5-4.7-1.6,1.7-4.3-.4-.9.5.8,2.4.5.2-.8,1.6.3,9-6,.6.9.7-.4,14.2,21.5-19.5,13-9.7,7.8-7-10.8.9-.6-.2-1,.9.6,3.6-2.3,1.7-2.7h2.2l5-3.5-.2-1.8.2.5h0ZM541.1,603.8l-2.9-.7,1.2-3.4.7-.3,2.7.5.6.6-.7,2.5-1.5.8h0ZM539.6,621l4.1-6.5,1.2.4v.5c0,0-4.4,6.8-4.4,6.8h-1c0,0,0-.9,0-.9l.2-.3Z"/>
    <circle class="st3" cx="457.4" cy="542.3" r="10"/>
    <g class="st0">
      <text class="st1" transform="translate(452.2 548.3)"><tspan x="0" y="0">3</tspan></text>
    </g>
  </g>
  <g data-mapno="4">
    <path class="st2" d="M417.8,344.6l.6.3.7-1.1.8.7,2-.4,1.7.6.5.4-1.1,2.2,2.8,1.8.3,2,4.7,1.6,1,1.6,1.5.7,3.8-2.3h1.6c0,.1.4,1.4.4,1.4l1.1.6,6.8-.3,1.8.4-.4,3.4,2,2.8h1.2l.9-1h2.2c0-.1.4-1.7.4-1.7h3.2l1.2-3.2,19.1,3.7,1.2,2,3.5,12.5,2.7,2.3-3,2.1h-.7c0-.1-2.1,2.1-2.1,2.1l1.2,1.1-6.7,9.4-10.7,16.9-3.4,3.4-12.5,8.5-1,1.4-3.1,11.8,1.2,6.5,2.7,6.7-2.1,1.5-3-5.8h-2.8c0-.1-1.8,3.1-1.8,3.1l-2.9,8.4-1.4.8-2.2-.2-1.2-.8-4.6.8.2,1.8-1.4,1-.4-2.7-2.7.7-1.1-1.5-1.3.6-1.9,1.5-.2.9h-1l1.2,2.8-1,.4.8,2.3-.7.2.9,4.3-1.3,2.7-7.7,3.5-1-2-1.9.5-1.6-3.9-3.1,1.5h-2.1v-8.7l5-11.6-8.9-8.2h-2.2l-3.4-2.5-2.6-.2-2.4-.9-.6-5-2.7-3.4-1.1-3.3h-2.6c0-.1-5.5.9-5.5.9l-.4-.8h-.6c0,.1-.6-3.8-.6-3.8l-5,1.3v.5l-13.8,6.5-19.5,16.5-5.3-7.2-1.3-5.5-.6-.9,2.3-1.4.3-3.4.6-.2-.4-2-4.8,1.1-1-.7-1.6-3.1.4-2.1,1.9-3.3h.9l1.1-2.8v-.6l-1.7-.9.7-1.1h-1.2c0,.1,0-1,0-1l-.7-.9,2.9-2.5,2.1-2.7,3.8-9.7,3.5-6.2v-2.7c.1,0-2.6-7.5-2.6-7.5l.5-7.5,2.1-7.9,1.4-1.9,6-3.8,2.3-2.1,3.1-1.3,2.1-2.4.9-1.9-4.3-.4-.2,1-2.9-1.6-.7,2.6h-.6l-2.7-.9v-2.2c.1,0-2.8.2-2.8.2l-16.4,4.3-2.9-2.5-3.5-1.1,3.3-3.3.6-3.1-1.8-.4v-1h.9c0-.1-.1-1.3-.1-1.3l-2-.2v-1.4h-1.1l-1.1,1-1.6-1.7-.5-1.8.5-1.5.7.2.4-2.4-1.2-2.7-.4-3.5h-2.1c0,.1-3.4-3.7-3.4-3.7l-1.6-.8-.4,1-1.4-.4v-.8c-.1,0-.8-.3-.8-.3v1.9l-.5.3-4.4,1.7-.4-1.1.8-1-.6-.9.4-2.4,1.8.3.8-4.3h2.8v-2.8l-1.4-4.4.5-3.8,3.2-8.4,1.2-6.8,11.5,8.1,3.6,11.1,3.8-.5.7,4.2,5.9-.7,7.3.4,12.1,1.4,2.6,1.1,2.1.3.2-1.1h4.9c0-.1,3.5-1.1,3.5-1.1l2.2-3.7,6.1.3,6.6,1.5-1.2,2.6,3.2,2.4-.8,2.2.4.6-.9.6.4,2.2,1,2.3,1.5.7-1.5,7.7-2.2,2,.8,4.3,1.4.4v2.4c-.1,0,1.3.8,1.3.8l3-.6.9-.7h3.5c0,.1,1.2.8,1.2.8l3.4.5,1.8-3.9,1.5-.6,1.2.2,6.1,5.2,3.9-2.1,2.7,2.7,5.9,1.7,1.3-1h.8l.5,1v.2h.1Z"/>
    <circle class="st3" cx="375.8" cy="372.8" r="10"/>
    <g class="st0">
      <text class="st1" transform="translate(370.6 378.8)"><tspan x="0" y="0">4</tspan></text>
    </g>
  </g>
  <g data-mapno="5">
    <path class="st2" d="M496.8,375.6l-2.5-.7-6.3-.2-2.2.9-1.7-1.3-1.6-2.5-2.9-11-1.2-2-19.1-3.7-1.2,3.2h-3.2l-.4,1.6h-2.2c0,.1-.9,1.1-.9,1.1h-1.2l-2-2.8.4-3.4-1.8-.4-6.8.3-1.1-.6-.4-1.3h-1.6c0-.1-3.8,2.2-3.8,2.2l-.8-.3-1.7-2-4.7-1.6-.3-2-2.3-1.1-.5-.7.2-.9,1.3-1.9-.7-.7-6.9-4.4-4.6-1.1-1.5-.9.9-6.1.9-1.2-.4-1.8.8-1.2,1.8,1,1.4-3,4.6-.6,1.6-1.3.9.7h.7l1.9-2.7,4.1-1.4-2.3-4.7.5-1.7-1.7-1.8-.8-6.2-1-2.4,4.3-1.2-.2-1,2.8-1-1.4-1.7,2.7-.4,1,.6.7-1.5,7.1,4.3,1.9-1.8,1.9,2.6,1.5,3.6,2.2.9,1.2-.5v-1.4c-.1,0,1.3-.4,1.3-.4l-.2-.6.5.2,2.9-2.1.9,1.7,2-1,2.2.2-1.5-2.9,5-2.3-.3-.7h-1.2v-.5l1.3-.4-1-1.7v-1.6l-2.4-3.1,8.2-8.2,4.7,4.9,1.7-1.2.8-1-.8-1.1,5.4-5-.8-.7.3-.5-2.4-1.7,1.8-2.6,1.9.2.4-.5,1.7-3.8h1.1c0-.1,4.2,2.5,4.2,2.5l.4-.9,3.5,6h1.5c0-.1,1.4,2.1,1.4,2.1l3-2.3.7-1.1-1-.6,1.2-1.2h1c0,.1,4.6-2,4.6-2l2.3-.3,11.2,7.6,1.8.4,3.7,3.7,2.7-2.1,2.4,2.3,1,.2,5.6,9.8.8,2.8h.8c0,.1-1.7,7.7-1.7,7.7l.2,1.9-3,9.1,5.2,5.3,5.1,6.5,4.1,8-2.4.3-2.4-4-2.3,1.1-2.6-3.3-1.4,1.1.6,1.1,1,.2,1,1.2,1.4,3.5v2.9c0,0-1,1.6-1,1.6v1.5l5.3,2.1v5.2l-2,.6,3.5.7v1.7h-4.1c0-.1,0,5.7,0,5.7,0,0,5.4-.5,5.4-.5l2.7.7,4.1-1.2v2.3c0,0,2.6-.1,2.6-.1l.4,1.6v2l-5.9-.7-.2,10.6-.5,2.7-4.9-.3v2.3c0,0-.5.5-.5.5h-2.9c0-.1-1,2.7-1,2.7l2.4,2.5.4-.5,1.1.6-.4.8,2.1,1.9-.6,1.5-3.1-1.4-2.9,1.6-3.8-1.2-3-1.1-3.2-3-2.5-1.1-10.9-.4-8.1-2.1-8.8-1-2.1-.8h0Z"/>
    <circle class="st3" cx="485.3" cy="324.8" r="10"/>
    <g class="st0">
      <text class="st1" transform="translate(480.1 330.8)"><tspan x="0" y="0">5</tspan></text>
    </g>
  </g>
  <g data-mapno="6">
    <path class="st2" d="M541.1,341.7l-2.6-1v-1.5l.8-1.6v-2.9c0,0-1.3-3.5-1.3-3.5l-1-1.2-1-.2-.6-1.1,1.4-1.1,2.6,3.3,2.3-1.1,2.4,4,2.4-.3-4.1-8-5.1-6.5-5.2-5.3,3-9.1-.2-1.9,1.7-7.6h-.8c0-.1-.8-2.9-.8-2.9l-4.1-7.5,1.1-1.4,2,1,2.1,2.4,3.4,8.5,5.6.2.6-1,3.7-1.1,14.3,6.5,4.2,3.9,9,1h3.4v-1.5c0,0,2.1-1,2.1-1l.2-2.8,2.5-1.7,3.2-3.6,4.1.6,2.1-.8h2.6l4.5-2.6,4.6-8.1,3,.9-.4,1.2,1.3,1.5,1-.5h3.7v1.2h1.3c0,.1.3,3,.3,3l16.9-.9,22,3.6-1,12.4-2.1,11.4-3.3,8.2-1.8,3-19.2,22.4-6.3,9.1-5.8,11.9-3.6,9.5-3.9,7.2-5.4,7.5-2.8,6.6-14.6-5.7-2.3-.4.3-4.2-7.1-.7,1.1-7.4-9.9-.9-9.2-4.1,1.3-3.8-2.3-.3.6-6.4-7.7-.9v-6.8c0,0,6,.7,6,.7l-.4-3.6h-2.5c0,.1,0-2.2,0-2.2l-4.1,1.2-2.7-.7-5.5.5v-5.8c0,0,4.3.1,4.3.1v-1.7l-3.6-.7,2-.6v-5.2l-2.5-1.1h-.1Z"/>
    <circle class="st3" cx="584.6" cy="328.9" r="10"/>
    <g class="st0">
      <text class="st1" transform="translate(579.3 335)"><tspan x="0" y="0">6</tspan></text>
    </g>
  </g>
  <g data-mapno="7">
    <path class="st2" d="M616.6,369.8l4.9-10.2,6.3-9.1,19.2-22.4,1.8-3,3.3-8.2,2.1-11.4,1.2-15,3-10.5,1.2-2.7,7.3-10.5,1.3-4.6-.4-3.9,5.6-8.7,4-3.8,6-2.6,9.1,18.7,2.7,4,13.1,17.3,12.9,15.8,19.9,23-8.2,7.1-1.2-1-4.8-1.7-3.4.3-3.6,2.3-2.6,4.6.4,3.6,2.3,3.9,4.7,4.1,7.6,3.2,1.3,1.1.8,1.7-1,2.9-9.5,9.1-2.9,4.5-.2,3.1,1.5,3.4.9.9-1.9.5-10.6-.4-4.8-3.4-27-12.9,2.7,48.8-16.7,1.2v2.2c0,0-5.1.3-5.1.3l1.1,10.9-6.6.4.2,4.8-11.8.7-.6-5.7-11.4.7-1.7-3.5-1.8-1.1-6.5,3.8-.9-4-3.2.5-.3-1.8-4,.5-.2-2.6h-2.6c0,.1-.2,1.3-.2,1.3l-5.3,3.6-3.3-5.6-1.4-7.7,1.4-6.3,2.1-4.6,6.9-9.9,2.4-4.8,4.1-10.4.4-.8h0Z"/>
    <circle class="st3" cx="670.3" cy="338.9" r="10"/>
    <g class="st0">
      <text class="st1" transform="translate(665 345)"><tspan x="0" y="0">7</tspan></text>
    </g>
  </g>
  <g data-mapno="8">
    <path class="st2" d="M585.1,582.5l-2.1,1.4-.9-.5.2-.7,19.7-13.2h1.3v1l-18.2,12h0ZM607.3,568l-1.3.8-.9-.8,14.9-10.2h1l-.4,1.3-13.3,8.9h0ZM655.1,595.3l-.6-5.1.6,5.1ZM655.8,595l-.6-5,.6,5ZM654.6,589l-.4-2.8v.7l.4,2.1ZM657.3,614.3l-.4-3.3.4,3.3h0ZM656.8,610.5l-.8-6.7.9,6.7h-.1ZM657.6,611l-.9-7.3,1.7,14-1-6.7h.2ZM659.1,606.8l5.8-.7-5.8.7ZM666.3,613.3l5.2-.6-5.2.6ZM659.1,599.3l4.9-.5-5.8.6h.9,0ZM660.8,591.8l2.4-.2-2.4.2ZM665.6,606l5.3-.6-5.3.6ZM664.6,598.8l5.2-.6-5.2.6ZM673.6,597.8l-3.1.2,5.2-.6-2.1.4h0ZM663.8,591.5l2.4-.3-2.4.3ZM673.6,582.8l-18,2.1-.9,1.2.3,2.7-.3-2.7.9-1.2,22.7-2.7,1.2,1-1.2-.9-4.7.5h0ZM666.8,591l2.3-.3-2.3.3ZM669.6,590.8l2.3-.3-2.3.3ZM673.6,590.3h-1l2.3-.2-1.3.2h0ZM675.6,590l2.3-.3-2.3.3ZM678.3,589.8l2.9-.4-2.9.4ZM681.3,584.3l-1.4-.6,1.5.6h0ZM679.8,583.8l-.5-.6.6.5h0ZM681.8,584h.2-.2ZM673.6,612.5h-1.4l5.3-.5-3.9.4h0ZM673.6,605l-2.3.3,5.3-.7-3,.4h0ZM678.1,612l2.9-.3-2.9.3ZM677.1,604.5l5.8-.7-5.8.7ZM702.8,597.3l1.9-.2-1.9.2ZM677.1,597.3h-.7l5.8-.6-5.1.6ZM699.1,596.3l.6,1.2,2.3-.2-2.4.3-.4-.4-.3-2.5v.9l.2.7h0ZM698.8,594l-.3-2.5.4-.5,2.4-.3-2.7.8.2,2.5h0ZM702.1,590.8l2-.2-2,.2ZM704.6,590.5l2-.2-2,.2ZM695.6,580.5l-.5,1.7,21.6-2.6-.5,7-20.3,2.4,1.1,10.5v-.7l-11.6,1.3-1.9-16.3h-.9c0,0,.9,0,.9,0l6.7-8.5-.3-2.1,8.7-1v-.7l-3,8.9h0ZM704.1,578.5l-2,.2,2-.2ZM707.1,590l2-.2-2,.2ZM709.8,589.8l2.1-.2-2.1.2ZM706.6,578.3l-2,.2,2-.2ZM705.3,597l1.9-.2-1.9.2ZM709.1,596.5h.8l-2,.2,1.2-.2ZM710.6,596.3l2-.2-2,.2ZM713.3,596l2.6-.7.3-2.6-.6,3-2.3.3ZM716.1,592v-2.5c0,0-.3-.4-.3-.4l-3.5.3,3.5-.4.5.5-.2,2.5h0ZM699.8,576l-.9,2.6.3.5,2.3-.2-2.3.2-.4-.5,1-2.6h0ZM709.1,578l-1.9.2,1.9-.2ZM712.1,577.5l-2.1.2,2.1-.2ZM714.6,577.3l-2,.2,2-.2ZM717.3,575.3l-.4,1.8-1.7.2,1.7-.3.5-2.8v1.1h0ZM700.1,575.3l.8-2.2,2.5-.6-2.5.6-.8,2.2ZM706.1,572.3l-2,.2,2-.2ZM717.6,573.5v-2.2l-.4-.4-2.7.3,2.8-.3.4.4v2.2h0ZM603.8,690.5h.2c0,0-.2,0-.2,0ZM607.3,655l-16.9-25.6,12.2-8.2,15.5,23.5-.6.6,3.3,3.5-.6.6,3.7,4.2-1.3,2.1-1.1-.4-2.6,6.2-.9-.3-2.3,5.2-1.1-.4-7.3-11h0ZM641.1,719l-26.3,17.8-2.8-2,27.4-18.3,1.7,2.5h0ZM563.1,658.3l-1-1.5-3.1,1.9,3.1-2-3.8-5.7-.5.3-.3-.4,3.6-2.4-7.6-12.6,9.7-7.8,19.5-13,6.8,10.3-.8,1.6-9.7,6.4,30.9,46.7-4.7,7.7-2,1.3.6.9-8.7,14.5-.6-.6.2,1.1-.5.3-25.4-38.4.9-.6h-1.2l-.6-.9-6.4,4.2,6.3-4.3-4.4-6.6-3.2,1.9,2.9-2.3h0ZM658.6,618.3v-.7.7ZM651.6,622.5l-2.9.3,10.2-1.2-.4-3.3.5,3.3,25.8-3-.3-1.3.3,1.2,2.9-.2-36.1,4.2h0ZM660.1,614l5.8-.6-5.8.6ZM607.3,730.8l-2.8,5.1-.4-.2,2.8-4.8-3.3-4.9,3-5-.7-.4,7.9-13.1.8.4,2.1-1.6-.6-.9,3.2-5.2-.8-.5,7.1-11.5,1,.6,1.5-.6,29.4-20,22.1,14.1-71,47.6-1.3.9h0ZM665.3,745l-21.1-31.8,38.9-26.3,18,34.4-30.4,20.2-5.4,3.5h0ZM717.8,661.5l-2.3-3.2-11.8,13.7,11.7-13.8-4.8-7.3,6.1-4.1-3.2-4.9-6.1,4.1-5.3.7-4.2-35.6,29.6-3.5.3,2.4h3.6l2-.7-.3-2.4,2.6-.3-4,58.4-8.1,5.5-5.8-9h0ZM684.3,615.8v.9-1h0ZM708.6,572l-2,.2,2-.2ZM711.3,571.5l-2,.2,2-.2h0ZM713.8,571.3l-1.9.3,1.9-.3h0ZM656.8,603l-.9-6.6,1,7.2v-.6h0ZM659.1,592h1.2c0,0-2.9.2-2.9.2l1.7-.2ZM750.6,521l-.4,5.2-6.8-.3-1.1,7v4.1l-.9.6v4.4l-.7,3.4-.6.3-.9,9.2-3,45.8-9.2,1.1-.6.6-39.5,4.5-.3,1.5.5,3.9-2.9.4v1.5-1.6l2.8-.3-1.2-10.1,11.5-1.4v-.7.7c0,0,21.5-2.5,21.5-2.5l2.1-30.8-22.3,2.6v.7-.7c0,0-11.6,1.1-11.6,1.1l-3.4,4.3-32.6,3.8-1-9.4,2.8-1.1-.5-4.4,1.5-.7v-1.5h-.8l-.2,1h-.5l-.2-.7h-1.1l-4.6,1.3-.9,1,.8,6.9-.5.4,2.2,18.8-14.9,1.7.3,11.6-3,5.7,4.9,15.8-8.8,14.5h-.8c0,0-17.4-26.4-17.4-26.4l-12.4,8.3-5.1-7.8-1.2.4-16.7-25,1.1-1.5,5.7-3.5,2,.9,1.8,2.7,4-2.6.6-3.1,1.2-.8.2.3.7-.4-.2-.4,5-3.4.6.2-.2-.4,3.9-2.2,3.5-2.7.4.2.3-.7,7.6-5.1.4.3v-.5l2.1-1.5.5.2.7-.9,1.6,2.5-.2.4h.4c0,0,2,2.9,2,2.9l1.1-.2-.3-.4,3.4-2.2,1.6-2.5-1-10.2-2.5-1.8-5.1-6.5-.7.5-1.5-1.8-1.4,1.1-.9-.2-.2.8,5.4,6.4-1.1,3.6-38.5,25.7h-3.6c0,0-7.2-8.8-7.2-8.8v-1.2l27.9-23.1h.8c0,0,6.5-5.3,6.5-5.3h.8l7.3-5.9-3.9-4.7v-.9l2.3-1.4v-.7l-2.4,1.2-.6-4.6-2.9.2-1.2-14.6v-9.4l-.5-9.5-3.7-13.3-1-5.4v-7.3l1.8-8.1,3.3-7.1,7.3-11.1,2.1-5.9.3-5.3-1-3.6-5.2-7.2,5.3-3.6.2-1.2h2.6c0-.1.2,2.5.2,2.5l4-.5.3,1.8,3.2-.5.9,4,6.5-3.8,1.8,1.1,1.7,3.5,11.4-.7.6,5.7,11.8-.7-.2-4.8,6.6-.4-1.1-10.9,5.2-.3v-2.2c0,0,16.6-1.2,16.6-1.2l-2.7-48.8,27,12.9,4.8,3.4,10.6.4,1.9-.5,19.3,9.7,3,1.7,3.5,3.2,6.9,11.7.4,14.4-.8,8.1-2.9,13.3-.2,2,.5,1-2.8,5.9,7.1,7-3.5,17.2-3.2,50.7h0ZM676.3,654l11.2-5.7-11,5.6h-.2ZM680.3,682l13.8-3.7-13.8,3.6h0ZM557.3,663.3l-1.8-2.7,1.9,2.6h-.1ZM656.1,602.5v.6l-.7-6.8v.9l.7,5.3ZM655.8,596.5h0c0,0,0,0,0,0Z"/>
    <circle class="st3" cx="669.1" cy="508.5" r="10"/>
    <g class="st0">
      <text class="st1" transform="translate(663.8 514.5)"><tspan x="0" y="0">8</tspan></text>
    </g>
  </g>
  <g data-mapno="9">
    <path class="st2" d="M495.3,738.8l.5.6-.5-.6h0ZM516.3,653.5h-1.2,1.2ZM530.1,751.3v8.9l-17.4.2v-14.1c0,0-15.1-.3-15.1-.3v1.2l-2.1.4-.4-1.1,1.6-.6.5-.8v-3.5c.1,0-.7-.9-.7-.9h.6l.2-1.2-1.9-2.5-1.9-.2v.7c-.1,0-1-.2-1-.2l.9-5.1-.4-2.2,1.2-21.1,7.1-12.9.4-2.4,3.2-39.8h8.8c0,0,0,2.1,0,2.1h1.4l.2-1.7v1.7h1.3v-2.2h1.5l6,6.1-1.3,1.3.3.7.6-.6.9,1-.6.7.7.3,1.2-1.1,1.3,1.7,1.3-.3,5.2,18.7-1.1.7,25.6,42.2-16.8,10.4-3.7-6.2-3.3-.6v.4l-4.2-.2.8,15.9h-1.1l.2,6.5h0ZM352.2,686.8l.4-2.7-.3-2h1l-.6-1.7.5-3.5-.5-5.7.6-3.8,1.5-2.4,4.7-3.6,11.2-15.8.8-4.3,1.3-.5,1.5.4.7-1.3-4.1-2-3-2.6-13.7-5,4.6-1.5,1.6-1.1,7.9-.9,2.3,1.3.5,2.2,3.3-.8.7,1.1,4.6-2.1,3.6-.3,1-2.4h2.4c0,0,1.8-.6,1.8-.6l4.6-3.2,2.6-1-.3-1,7.8-3.5-.9-1.4,1.4-1-1-4.5v-3.4c.1,0-.6-1.6-.6-1.6l.6-4.7-1.8-4.2-1.4-6.9,3.7-3.4,1.9-5.9,6.1-2.9v-1.2h3l1.1-.7,1.4,1.4-4.2,2.2-1.2,1.8-2.4,1.3-.3,5,1.6,1.2,2.5,4.7-1,1.4.2.5-.7.3.5,2.4,2.2-.3,1.2,1.3,2.2.6,1.7-1.2,1.8-.3.5-1.1h1.5c0,0,.5-2,.5-2l10,3.1,2.3,2.5-1.4,4.6,1.2.7-.2,1.4,2.7,1,1.6-3.1,1.4.7-.4,1.8.4,1.4,1.2,1.5.8-.9,3.3,3.4.4,5.3,1.4.3-.8,7.7,3,1.2,4.2-.4,3.9,9.5,3.3.3,2.2-1.1-.5-1.1,1.2-1.2-.4-.9.5-.4h3.9l10.8-1.9,2.9,5.6,4.2.9,2-.4,9.2-5.1v.8l4.3-.5-.5,8.3,1.4.2v1.9h-1l-.6.7v9.6l-2.9,35.8.8.2-.2,2.8-.6,2-5.4,9.9-2,.2-.2,2.5.4.8-.8,2.6.3,2.4-1.1,13.6h-.3l.4,1.4-.7,11.1h-.7l-.2,3.4-.7,1.6.5,1.6-3.5,1.3-17.5,6.2h-3.8c0,0,0-.9,0-.9l-3.2.3-.2,2.2-7.8-.5-7.5.5-1.2-2.7.2-1.2-2.1-.9,1.1-4.3,3.2-6.5-4.4-1.8.3-3.4-2-2.1-3.8,1.4v-1.3l-6.5.5-8.7-.3-1.4,3.3-.6,2.9-3,1.8-.6-.8v-2.4c-.1,0-2.2-3.9-2.2-3.9l-.2-1.8h-.5l-.9-5.4-1.9-1.2-3.9-1-.5-1.1-1.2-.9-1.3-5.1,1.1-.3.3-1.5-.7-1.1-4.2-1.7-3.3-.6-28-2.4-7.6-7.1-3.8-5-3.1-6.3-.6-1.4h0ZM549.6,629.8l9.7,15.3-7.9,5.1-5.8-8,.9-.9-.8-.8-.8.7-1.3-1.9-.2-12.2,3-2,3.2,4.7h0ZM506.2,632.8h10.7l-.3-12.7,5.2-.2.9,28.2h-1v1c0,0-16.3.2-16.3.2l.2-7.9h-1.1v-2.4h1.3l.4-6.3h0Z"/>
    <circle class="st3" cx="422.3" cy="661.5" r="10"/>
    <g class="st0">
      <text class="st1" transform="translate(416.9 667.5)"><tspan x="0" y="0">9</tspan></text>
    </g>
  </g>
  <g data-mapno="10">
    <path class="st2" d="M312.8,696.8l.6,4.9-.4,6,.9,1.5h-1.7v-7.3c-.1,0-.1-.5-.1-.5-.1,0-1.1.3-1.1.3l-.3-.6-1.3-8.3-1.7-3.4-4.2-4.5-3.9-.9-6.1.7-13.1,5.4-2.1-.3-6.4-2.9-5-3.9.3-1.4-1.3-.8,2.5-1.6-1.4-2,.9-1.5-1.1-.9v-2.1c.1,0-1.3-.4-1.3-.4l1.3-2.1-1-.2-.5-1.1,1.6-8.7,1.7-.5v-.8c.1,0,2.7-2.1,2.7-2.1l-.9-2.3.6-2.8,4.6-.8-2.2-7.1,1.4-.9-1.1-.5-1.2-3.8-2.2-2.5-1.5-2.9-1.2-9.2-1.5-1.3-2.9-1,.8-1.7-.3-2.9.7-4.1-2.1-5.1,7.1-.6,10.6,3.2,10.2,3.9,11.7,8.1,4.1,6.2,4.3.9.7-3.8,4-11.8,1.8-4.2,5.8-10.2-.2-2.2,4.7-9.1,1.2-4.1v-2.3h-.6l-.5-2,.3-.7-3.1-5.4-1.6-5.1,1.1-6.9-.8-4.5-1-1.5-.3-5.4,1.9-2.9v-3.4c-.1,0-1-.6-1-.6v-2.6c-.1,0-2.9-4.7-2.9-4.7l-5.8-6.4-.8-3.1-3.1-2.3-8.7-13.5-.9-5-2.3-2.8,7.6-.3,4.7.5,7.4,2.9h4.5l7.6,3.6,2.6,3.2.8,2.1-.4.4,1.6,3.7h1.4l1.4,1.9,8.3,14.6,5.4,5.7.8,1.8,1.9,1.3-.3,1.6,2.6.8,7.5,7.7,23.7,19.8,4.5,1.8.8-1.5,12.2-2.3,1.9,1.3.5-.5,1,1.3,2.1,1.1h.9v1.2l-6.1,2.9-1.9,5.9-3.7,3.4,1.4,6.9,1.8,4.2-.6,4.7.7,1.6v3.4c-.1,0,.9,4.5.9,4.5l-1.4,1,.9,1.4-7.8,3.5.3,1-2.6,1-4.6,3.2-1.8.7h-2.4c0,0-1,2.3-1,2.3l-3.6.3-4.6,2.1-.7-1.1-3.3.8-.5-2.2-2.3-1.3-7.9.9-1.6,1.1-4.6,1.5,13.7,5,3,2.6,4.1,2-.7,1.3-1.5-.4-1.3.5-.8,4.3-11.2,15.8-4.7,3.6-1.5,2.4-.6,3.8.5,5.7-.5,3.5.6,1.6h-1l.3,2.1-.4,2.7-1.5-3-2.6-2.8-6.7-5.4-2-.8h-5.7l-4.1-1.6h-1.9c0,0-5-5.1-5-5.1l-.7.4,1.9,12.2-.5,6.6h1.3l-.7,6.5-5.2-.8-1.9-.8-1.6,4.3-2.5.2h0Z"/>
    <circle class="st3" cx="340.3" cy="614.5" r="10"/>
    <g class="st0">
      <text class="st1" transform="translate(331.8 620.5)"><tspan x="0" y="0">10</tspan></text>
    </g>
  </g>
  <g data-mapno="11">
    <path class="st2" d="M505.7,833.5l-.5-.7.4-.3.5.7-.4.3ZM648.8,936.3l-.6-.6,33.7-36.7,8.7-4.8,7.8,7.4-39.9,43.6-7-6.4-2.7-2.5ZM519.1,813l-3.2-8.9.6-4.5-.6.2v-.6l.6.4.6-5.1h10.6l.4-1.5v1.5h4.1v-.8l.5.6.2-1v1.2h.6v-.9l.8.4v-1.8l.3.8h.9v-.6h2l-.4.2.4.4.3-.6h2.6v.6h18.8l.7,1.1-3.5,5.9-.6.5.3-.6h-.5l-17.4,25.7-18.9-11.5-.3-1.1h.1ZM496.8,891.8l-8.6,2.5-5.4-.6-7.7-2.9-6.4-.8-5.1,2.9-7.6,10.6-2.6.4-1.6-.5-7.1-6.2-7.3-2.1h-2.8l-3.5,1.6-7.6,5.1-7.6,7.8-3.4,2.7-6,2-15.4,4-14.2.5-6.8-2.4-3.9-2.4-3.5-3.7-3.9-8.3-.5-7.5.5-3,1.3-2.4,6.2-6.6,7.3-6.4,1.8-5.8v-2.1c-.1,0-1.3-2.5-1.3-2.5l-2.8-3.5-4.7-4-6.9-3.5-4.3-1.1-14.1-1.4-4.6-1.8-9.3-6.8-6.1-2.5-6-3.4-7.3-5.9-4.5-6.7-2.9-6-12.6-37.9-1.1-6.3-3.5-12.2-2.1-4.5-7-8.7-4.2-4.1-1.8-1h-4.2c0,0-9.1,1.2-9.1,1.2l-.4-1.1-6.2.2-3.1-1.4,5.1-10.6,2.7.3.3-.7-5.9-3.2-.7,1.6-1-.6.7-1.5-1.9-1-.7,1.1-1.3-.6.6-1.3-2.9-1.4.3-.3-1-.6,2.2-4.6,5.2,2.8,1-2,1.6-1.3-.8-1.2,1.7-1.3-.6-.6,1-.5.5-1.1,3.6-1.1.4-1.3,2-1,3.2.9.9,1.3,3.8,2.9,1.9-1.2,2.6-2.9,1.8,2.3,2.8-1.6,2.1-.3-.2,2h3.5l-.2,1.3,1.7,1.1,2.5-3,10.9,15.3,5,8.6,13.3-10.2v-5.1l-.9-2.9,1.3-1.6-1-.9-.7-6.5.3-1.8h1.7l-.9-1.4.3-6.4-.8-4.3,2.8-.4,1.6-4.3,1.9.8,5.2.8.7-6.5h-1.3l.5-6.6-1.9-12.2.7-.4,5,5h1.9c0,0,4.1,1.6,4.1,1.6l6.8.4,7.6,5.9,3.2,3.6,4.6,9.9,3.8,5,7.6,7.1,28,2.4,3.3.6,4.2,1.7.7,1.1-.3,1.5-1.1.3,1.3,5.1,1.2.9.5,1.1,3.9,1,1.9,1.2.9,5.4h.5l.2,1.8,2.1,3.9v2.4c.1,0,.7.8.7.8l3-1.8.6-2.9,1.4-3.3,8.7.3,6.4-.5v1.3l3.9-1.4,2,2.1-.3,3.4,4.4,1.8-3.2,6.5-1.1,4.3,2.1.9-.2,1.2,1.2,2.7,7.5-.5,7.8.5.2-2.2,3.2-.3v1h3.9c0,0,21-7.6,21-7.6l.4,1.2,1.9.9,1.2,2.7,11.2,31.7-1.1,5.8-4.2,1.5-.6,1.7,1.9,3.2,4.7-1.3,4.6,3.7,6,17.6-.9,1.8-15.3,3.7-1.2,2.5,8.4,10.6-.8.5,2,3.1,3.5,1.5.6.8h.8l1.1-3.8,7.7-5.4,6.5,4,5.5,8,1.7.8,19.2-27.8,38.3-5.1,1.4,2.4,1.5-.3-.8.5.3,2.1,2.8,5,1.6-.6-.7.7.7,2.6,3.2,5.5,1.3-.6-.4.7.7,2.3,2.7,4.5,1,.4.7-.4-.2.9,2.3,5.7,1.2,1.6.8-.4-.4.5.4,1.4,3.3,6.1,1.1-.4-.2,1.2,3.3,6.5.6.3.9-.5-.7.7.3,1.4,3.5,6.2,1.3-.3-.8.4.4,1.4,3.4,5.8,1.1-.2-.5,1.2,3.5,6.1.8.6.7-.4-.6.7.4,1.2,7.2,7.4,10.3,17.7h.8l.9,1.1,1.8,4.8-.5.9-4,2.6-3.2.6-7.1,3.8-1.2.7.3.6-6,3.4-.5-.3-15.6,9.4-19.3-7.1.2-.5-3.1-4.4-3.5,2.1-2.1-.7-6.4-11.2-8.5,5.9-6.1,8.3-22.3-15.9-16.4-8.7-13.4-8.1-18.1-.3h0ZM502.2,765.5l-6.6-18,2-.4v-1.2l15.3.3v14.1c0,0,17.4-.2,17.4-.2l-.3-15.3h1.1l-.8-16,4.2.2v-.4l3.3.6,3.7,6.2,16.8-10.4-.7.8,10.3,17.1-7.9,9-.5-.4-1,1.2-.9-.8-10.1,11.4,10.1-11.3,1,.9-.2,1.1,1,1.2,5.1,4.3,1.4-1.5-1.2,1.7,2.1-2.3,2.2,2,1.7-2-1-1.1,1.1,1,1.8-2-2.2-2,.2-.2,9.6,8.5,1,.2,6-5.1-5.9,5.3,2,2.3.9-1,1.1,1-.8.9,10.6,9.7,1,1.3-.3,3.4v-2.2c0,0-1.8,0-1.8,0l-4.4,6.6.5,1.3-2.8.3-1.1-.7-.7,1-44.3-.3v-3.3l-.7-.4.3-.9.9-.8,2.6.3,6.8-7.7-3.5,3.2-3.5-3.7v-.9l-.9.4-5.6,6.3-.6-.4.5.8-3.4,4.3h-1.4l-2.7,2.8-17.5.3-4.7-4.2-4.8-14.1-.8-2.2h0ZM614.8,736.8l26.3-17.8,19.4,29.3-15.6,10.4-29.5-21.4-.6-.5h0Z"/>
    <circle class="st3" cx="446.7" cy="792.5" r="10"/>
    <g class="st0">
      <text class="st1" transform="translate(438.3 798.5)"><tspan x="0" y="0">11</tspan></text>
    </g>
  </g>
  <g data-mapno="12">
    <path class="st2" d="M55.1,472.8l-2.3-.9.6-1.3,1.2-.6,1.7-.2,1.7.6,5.8-.4,1.8.7.3-.8-.7-1.8h-1.1v-4.4l-.7-3.3.7-2.9,2.1-1.1,2-2.5v-2.4l-.5-1.3-2.8-1.6.2-1.6-3.9-1.6-1-1.7,7.2,1,10,.2-.6-1.2-16.1-1.9,2.3-.6,15.1,2.3,3.3,1.2,2.9-1.4,9.4,1.1,5,1.2,7.1,2.6h2c0,.1,9.5,9.6,9.5,9.6l1.4,5.8.7-1.3,1.6-.3.3,1.8h1.1c0-.1,1.2,4.4,1.2,4.4v1.8c0,0-1.2.1-1.2.1l.4,11.8,1.7-.2-.5-1.3,3-.2,1.2.3v2.2c.1,0,3.3-.5,3.3-.5l3.8.4,3.3,2,1.1-.6,1.2.2v.7l1.2-1.6.9-8.9-8.6-.9v-3.8l-3.2-1.8-4.7-6.6,3.9.9v2.7c.1,0,.9.2.9.2l.9-2.2,2.4,1.7,15,6,5.3,2.6,6,5.8.6,2.8,4,.8v3.2l5,.5,15,3,11.6,4.5-.7,2.2,1.9.4,4.5.2,5.9-3.5v-.9l10.3-1.6,4.6-1.4,9-5.9,12.6-2.1,8.7-3.6,8.9-2.8v2c.1,0,.9,1.5.9,1.5l16.9-1.4,3.9.3,7.4-1.7-1,7.6,1.2,8.1,3.7,9.4,4.5,5.2.9,5,8.7,13.5,3.1,2.3.8,3.1,5.8,6.4,2.8,4.7v2.6c.1,0,1,.4,1,.4v4l-1.8,3,.3,4.9,1,1.5.8,4.5-1.1,6.9,1.6,5.1,3.1,5.4-.3.7.5,2h.5v2.4c.1,0-1.1,4.1-1.1,4.1l-4.7,9.1.2,2.2-5.8,10.2-1.8,4.2-4,11.8-.7,3.8-4.3-.9-4.1-6.2-11.7-8.1-10.2-3.9-10.6-3.2-7.1.6,2.1,5.1-.7,4.1.3,2.9-.8,1.7,2.9,1,1.5,1.3,1.2,9.2,1.5,2.9,2.2,2.5,1.2,3.8,1.1.5-1.4.9,2.2,7.1-4.6.8-.6,2.8.9,2.3-2.6,2.1v.8c-.1,0-1.8.5-1.8.5l-1.6,8.7.5,1.1,1,.2-1.3,2.1,1.4.4v2.1c-.1,0,1,.9,1,.9l-.9,1.5,1.4,2-2.5,1.6,1.3.8-.3,1.4,5,3.9,6.4,2.9,2.1.3,13.5-5.4,6.7-.6,3.5,1.3,3.6,4,1.7,3.4,1.3,8.3.3.6,1-.3v.5c.1,0,.5,5.3.5,5.3l-.5,5.1.6,5.1,1,.9-1.3,1.6.9,2.9v5.3c-.1,0-13.3,10-13.3,10l-5-8.6-10.9-15.3-2.5,3-1.7-1.1.2-1.2h-3.5l.2-2.1-2.1.3-2.8,1.6-1.8-2.3-2.6,2.9-1.9,1.2-3.8-2.9-.9-1.3-3.2-.9-2,1-.4,1.3-3.6,1.1-.5,1.1-1,.5.6.6-1.7,1.3.8,1.2-1.6,1.3-1,2-5.2-2.8-2.2,4.6,1,.6-.3.3,2.9,1.4-.6,1.3,1.3.6.7-1.1,1.9,1-.7,1.5,1,.6.7-1.6,5.9,3.2-.3.7-2.7-.3-5.1,10.6-12.5-7.9-4.4-8-4.9-3-19-13.9-7.3-9.2-4.8-1.4-8.6-7.2-.6-1.1,1.1-1.8-.7-.9-6.5-3.7-2.1-.8-.2.7-3.5-3.1-4.7-1.5-1.7-1.4-2.9-4.3-5.9-3-7.6-5.4-1.8-.4-6.3,1.8-6.5-4.5-2.4-3.8-6.7-1.8h-2.4c0,0-5.1,2.9-5.1,2.9l-4-.2-14.6-9.4-10.7.2-7.1,2.7-3.3-.4-4.3-2.4-2.4-9.1,1-2.3-.4-6.1,1-2.2.7-.2,3.1,2.6,1.7.4.3-.8.9.2-.5-1.4.7-2,2.6-5.6h1.1l.5-.9-1.5-1.8-2.3.2-.8-.6.5-2.4-.5-1.8,1.5-2-.8-.7-.9-2.7-2.8-2,.8-3.1-.5-.3v-3.1l-1,.2-.2-1.1-3.1-3.5-5.5-2.1-5.2-9.4-3.4-10.5.8-.7-.2-1.2,3.1-1.4v-1.6h2l.5-1.6h.7v-3.3l.9-1.5-.9-1.8v-.7l2.2-1-.6-1.5,5.1,3.3,6.6-2.5-.3-17.8,3-.5-.6-8.7-1.4-4.1-3.7.3-2.6-5.7-.8-5.1.3-7.4.7-.8-2.9-2.1.7-.7-.6-1.3-2.6-.7-1.7.2-2.1-4.5,1.1-.9,2-.4,1.1-2.1,3.5-2.5h1.8c0-.1-4.3-15.5-4.3-15.5l-10.5-5.4-.8-1.8-2.4-1.3h0Z"/>
    <circle class="st3" cx="194.2" cy="585.3" r="10"/>
    <g class="st0">
      <text class="st1" transform="translate(185.7 591.3)"><tspan x="0" y="0">12</tspan></text>
    </g>
  </g>
  <g data-mapno="13">
    <path class="st2" d="M262.8,474.8l1.1-3.8-1.5-3.5,1.2-2.8,6.2-2.7,2.7-1.8,2.4-4.4,3.5-4.7,3.7-2.7,6.1-2.9,5.9-6.6,1.2-.5,2.8-2.8,2.1-4.4,8.4-7.7,3.5-5.1,8.7-7.1,2.2-.2-.7,1.1,1.7.9v.6l-1.1,2.8h-.9l-1.9,3.3-.4,2.1,1.6,3.1,1,.7,4.8-1.1.4,2-.6.2-.3,3.4-2.3,1.4.6.9,1.3,5.5,5.3,7.2,19.5-16.5,13.7-6.5v-.5l5.1-1.3.6,3.9h.6c0-.1.4.7.4.7l5.5-1h2.6c0,.1,1.1,3.4,1.1,3.4l2.7,3.4.6,5,2.4.9,2.6.2,3.4,2.4h2.2l8.9,8.3-5,11.6v8.7h2.1l3.1-1.5,1.6,3.9,1.9-.5,2.2,4.8-1.2.7-4.3-2.1-1.6,2.6.7.4-2.3,5.8,2.6,2.3-.8,1.4-1.6-.6-6.1,8.3-1.7,1.9-1.8.9-4.3,6.2,4.4,3.8,5.2,7,4.3,3.2-2.4,4.3,4.2,3.6,8.9,2.6.6-1.4,10.4,4.5,2.1-1.6-3.2,7.7.6,4,1.6.6.6,7.6,1.7,7.2-.8,2.2,1.6,1.3-2.2,4,.3,1.8-1,1.7h-3.1l-4.3,7-2.4,2h-3.9l-2.1-1.1-1-1.3-.5.5-1.9-1.3-12.2,2.3-.8,1.5-4.5-1.8-23.7-19.8-7.5-7.7-2.6-.8.3-1.6-1.9-1.3-.8-1.8-5.4-5.7-8.3-14.6-1.4-1.9h-1.4l-1.6-3.7.4-.4-.8-2.1-2.6-3.2-5.3-2.8-2.7-.8h-4.1l-6.7-2.8-5.4-.6-6.5.5-1.9-.7-1.4-1.9-3.7-9.4-1.2-8.1,1-7.6-7.4,1.7-3.9-.3-16.9,1.4-.9-3.1v-.4h0Z"/>
    <circle class="st3" cx="349.8" cy="486.3" r="10"/>
    <g class="st0">
      <text class="st1" transform="translate(341.3 492.3)"><tspan x="0" y="0">13</tspan></text>
    </g>
  </g>
  <g data-mapno="14">
    <path class="st2" d="M296.8,315.7l-.6,3.5-1.8-.3-.4,2.4.6.9-.8,1,.2,1,5.1-1.9v-1.9l.7.3v.8c.1,0,1.5.4,1.5.4l.4-1,1.6.8,3.4,3.8h2.1c0-.1.4,3.4.4,3.4l1.2,2.7-.4,2.4-.7-.2-.5,1.5.5,1.8,1.6,1.7,1.1-1h1.1v1.4l2,.2v1.2c.1,0-.8.1-.8.1v1l1.8.4-.6,3.1-3.3,3.3,3.5,1.1,2.9,2.5,16.4-4.3,2.9-.2v2.2c-.1,0,2.6.9,2.6.9h.6l.7-2.6,2.9,1.6.2-1,4.3.4v.4c-.1,0-3,3.9-3,3.9l-3.1,1.3-2.3,2.1-6,3.8-1.4,1.9-2.1,7.9-.5,7.5,2.7,7.5v2.7c-.1,0-3.6,6.2-3.6,6.2l-3.8,9.7-2.1,2.7-2.9,2.5.7.9v1.1h-1c0,.1-8.7,7.2-8.7,7.2l-3.5,5.1-8.4,7.7-2.1,4.4-2.8,2.8-1.2.5-5.9,6.6-6.1,2.9-3.1,2.1-4.1,5.3-2.2,4.2-3.6,2.3-.7-3.1h-1.5v-2c-.1,0,4.1,1,4.1,1l.4-4.6h-2.2l-.3-1.4h-3.9l-2.9-3.1-4.1,1.7-.7-.2v-1.6c.1,0,2.1-1.7,2.1-1.7l-1.3-1-.4-1.9-1.4-.2.6-4.5.3-1.5h1.4l1.1-2.3-.2-1.3-.8-.7-1.4,1v-2.1h-.8l-.4-4.2,4.6-.3,3.9-2.2,3-2.3,1.5-3.4,6.1-4.1,1.2-1.4-.3-2.1,2.1-.8-.9-5,.6-1.3.9-.3-.5-.9-2.4,1-1.8-4-1.5.7-.9-2.2h-.7c0,.1-.5-.7-.5-.7l-.7.5-8.5,1-1.5-4.4.8-.2.4-2,1.7-.2,2.2-6.4-1.6-1.4v-1.5c.1,0-.7-.9-.7-.9l-.3-3.2-1.2-.2-.5-10.6-7.2-1.1v-2.1c-.1,0,.4-.8.4-.8l-.3-10.8-11.1-.4-8,1.1-1.1-1.1-20.6-7.1-.8-2-2.3-2.2.3-6.4-9.4-3.4-3.4-2.3-12.6-1.4-2.2-5.1,1.3-2.6v-1.4l-2.1-2.4-1.4-.4-1.6.6-2.5-2-1.8-3.2-2-6.2-8.4-17.6v-1.8c-.1,0,4.3-8.3,4.3-8.3l1.5-4.1,1.9-1.1-.3-3.7,3.1-.6,13.4-.2,1.6,3.4,1-.2,1.8,6.7.7.7,2.9-.6,1.5,5.9,2.3,4.4.6,3.2,3.1.9,1.6,2.1.2,3,9.7,3.3,1.3-.6h8.8v-4.1h7.1l1-.5,3.5,1.8,10-.3,2.4.2,4.2,1.6,4.2.2v-2.7h5.5c0-.1,2.4-2,2.4-2l2.4-3.1,3.2-9,.7-1,3.2-.3,2.1.7.5-1.2,2.7.4.4-2.2,2.7-.4.9-1.3,1.8.8,1.9-2,1-1.9h4.1l4.4,1.6,7.5,7.5,1.2.2-1.6,4.3-.9-.5-1.2,6.8-3.2,8.4-.5,3.8,1.4,4.4v2.8h-2.8v.5c-.1,0-.2.3-.2.3h0Z"/>
    <circle class="st3" cx="278.8" cy="355.6" r="10"/>
    <g class="st0">
      <text class="st1" transform="translate(270.3 361.5)"><tspan x="0" y="0">14</tspan></text>
    </g>
  </g>
  <g data-mapno="15">
    <path class="st2" d="M165.7,483.3v-.7l-4-.8-.6-2.8-6-5.8-5.3-2.6-15-6-2.4-1.7-.9,2.2-.8-.2v-2.7c-.1,0-4-.9-4-.9l4.7,6.6,3.2,1.8v3.8l8.6.9-.9,8.9-1.3,1.6v-.7l-1.1-.2-1.1.6-3.3-2-3.8-.4-3.2.5v-2.2c-.1,0-1.3-.3-1.3-.3l-3,.2.5,1.3-1.7.2-.4-11.8h1.1v-3l-1.1-3.4h-1.1c0,.1,0-1.4,0-1.4h-1.9l-.7,1.3-1.4-5.8-9.5-9.5h-2c0-.1-7.1-2.7-7.1-2.7l-5-1.2-10-1-2.9-2.5,1.4-4-2.9-1.8v-1.2l-2.2-1.2-3-5.2,2.9-2.5,4-.7-.6-1.9.5-1,2.5-.4-5.7-6.1-11-7.6-2.8-2.5,4.2-5.4,5.2,2.6,6.8-18.9.2-2.1,6.8-13.6-.9-2.1-5.1-3.6-7-7.5-7.5-6.3-2.8-1.7.5-2v-2.4c0,0-4.9-10-4.9-10l-.2-2.8.8-3.5,4.2-4.9,3.5-1.4,3.5-.3,4.6,1.6,5.7,5.6,1.3-.7,1.4-2.8,3.4-7.8v-2.1l2.1-.3,3.3-2.6,5.6-2.8,5.4-5,.3-1.8,6.2-3.2,9.1-3,4.9-2.6,15.5-5.2,1.5,1.5,10.1-.9,5.3-1.1,7.3,1-.5,1v1.8c.1,0,8.5,17.6,8.5,17.6l2.2,6.5,1.6,2.9,1.8,1.6,3.7.2,2.1,2.4v1.4l-1.3,2.6,2.2,5.1,12.6,1.4,3.4,2.3,9.4,3.4-.3,6.4,2.3,2.2.8,2,20.6,7.1,1.1,1.1,8-1.1,11.1.4.3,10.8-.5.8v2.1c.1,0,7.3,1.1,7.3,1.1l.5,10.6,1.2.2.3,3.2.8.9v1.5c-.1,0,1.5,1.4,1.5,1.4l-2.2,6.4-1.7.2-.4,2-.8.2,1.5,4.4,8.5-1,.7-.5.5.8h.7c0-.1.9,2.1.9,2.1l1.5-.7,1.8,4,2.4-1,.5.9-.9.3-.6,1.3.9,5-2.1.8.3,2.1-1.2,1.4-6.1,4.1-1.5,3.4-3,2.3-3.9,2.2-4.6.3.4,4.2h.8v2.1l1.4-1,.8.7.2,1.3-1.1,2.3h-1.4l-.3,1.5-.6,4.5,1.4.2.4,1.9,1.3,1-2,1.7v1.6c-.1,0,.6.2.6.2l4.1-1.7,2.9,3.1h3.9l.3,1.4h2.2l-.4,4.6-4.2-1v2h1.6l.7,3.1-5.1,2.1-1.6,3.1,1.5,3.5-1.1,3.8-8.9,2.8-8.7,3.6-12.6,2.1-9,5.9-4.6,1.4-10.4,1.6v.9l-2.9,2-3.6,1.6-5.7-.7.7-2.2-11.6-4.5-15-3-5-.5v-2.5h0Z"/>
    <circle class="st3" cx="176.9" cy="404.3" r="10"/>
    <g class="st0">
      <text class="st1" transform="translate(168.2 410.3)"><tspan x="0" y="0">15</tspan></text>
    </g>
  </g>
  <g data-mapno="16">
    <path class="st2" d="M317.3,304.8l-2.5-8-10.6-7.6,2.8-6.1-1.2-1.5,1.4-2.3.9-.6,1.1-2.5v-1.2l-1.3-2.3.9-3,.5-1.3,1.7-1.3,1.9-5.4h1.8l-1.3-1.7-.2-1.4,4.9-1.2,18.6-7.2,7.8-7.6,2.7,2.2,2.5-.3v2.7l11.5-.5,1,8.7,4.7-.6,3.5,9.1-1,.7.5,1.7.5.8,3.9.9.9-4.6,11-14.3,1.1-2,1.3-5.8,3.3-5.7,8.9,1.6,2.5-.5.2-1,12.4,2.3,1.4,10.7,5.6,2.1,2.6,1.8,1.4,2.1,1.8.6,2-1.3.7.5-2.3-2.7,4-4,2.1-4,2.1-2.5.9-2.2,8.6-1.5,3.9.3.2,1.8-2.4,4,5.7,5.6,1.7,3,2.6.4,11-4,3.6-1.9,2.2.8,2.2,1.8,2.5.7.6,1.1,1.4.7-1.5,3.9.6.6v1.5c-.1,0,.6.1.6.1l.3-1.3,4.1.5.5,1.1,1.1-3.3,4.7,3.8,3.2,7,1.4,1.3,2.3,1.3h1.6l3.2,2.2-4.6,2.1h-1c0-.1-1.2,1.1-1.2,1.1l1,.6-.7,1.1-3,2.3-1.4-2.2h-1.5c0,.1-3.5-5.9-3.5-5.9l-.4.9-4.2-2.6h-1.1c0,.1-1.7,3.9-1.7,3.9l-.4.5-1.9-.2-1.8,2.6,2.4,1.7-.3.5.8.7-5.4,5,.8,1.1-.8,1-1.7,1.2-4.7-4.9-8.2,8.2,2.4,3.1v1.6l1,1.7-1.3.4v.4h1.3c0,.1.3.8.3.8l-5,2.3,1.5,2.9-2.2-.2-2,1-.9-1.7-2.9,2.1-.5-.2.2.6-1.4.4v1.4c.1,0-1.1.5-1.1.5l-2.2-.9-1.5-3.6-1.9-2.6-1.9,1.8-7.1-4.3-.7,1.5-1-.6-2.7.4,1.4,1.7-2.8,1,.2,1-4.3,1.2,1,2.4.8,6.2,1.7,1.8-.5,1.7,2.3,4.7-4.1,1.4-1.9,2.6h-.7l-.9-.6-1.6,1.3-4.6.6-1.4,3-1.8-1-.8,1.2.4,1.8-.9,1.2-1,5.5.4,1,5.8,1.6,2.6,1.4,4.9,3.5-.3.8-1.4-.9-2.8.3-.8-.7-1.2,1.1-.7-1.5h-.8l-1.3,1-3.2-.8-2.7-.9-2.7-2.7-3.9,2.1-6.1-5.2-1.2-.2-1.5.6-1.8,3.9-3.4-.5-1.2-.7h-3.5c0-.1-2.8,1.3-2.8,1.3l-2.5-.9v-2.4c.1,0-1.3-.4-1.3-.4l-.8-4.3,2.2-2,1.5-7.7-1.5-.7-1-2.3-.4-2.2.9-.6-.4-.6.8-2.2-3.2-2.4,1.2-2.6-6.6-1.5-6.1-.3-2.2,3.7-3.5,1h-4.9c0,.1-.2,1.2-.2,1.2l-2.1-.3-2.6-1.1-12.1-1.4-7.3-.4-5.9.7-.7-4.2-3.8.5-1.1-3h0Z"/>
    <circle class="st3" cx="406.3" cy="284.8" r="10"/>
    <g class="st0">
      <text class="st1" transform="translate(397.6 290.8)"><tspan x="0" y="0">16</tspan></text>
    </g>
  </g>
  <g data-mapno="17">
    <path class="st2" d="M496.8,200.6l7.8,2.6,13.3,2.8-1,5.5-14-1.4v1h-1.2v-1.1l-2.6-.3-.3,3.4-3,4.9h1.3c0,.1-.9,3.4-.9,3.4l2.9,1.9.9-1.1,2.6,1.9,6.6.4.4.8h.9l-.4,3.6.9.8h6.4c0-.1,0,4.9,0,4.9l-1.7,2.1,8.3,6.5.6-.8,2.6,1.7.6-1.9,3,.4,1-1.5h1.6c0-.1.2,4.1.2,4.1l5.2,4,6,.5.8,4.3,1.6,1-.2,1.9,1.4.9.3-.5,1.2.6v.8l2.8,2.7-13,5.6-6.6,4,1.3,1.7-2.2,2.4-1.6-.4-1.2.6-1-1-1.7.4.8,3.2-4.5,4.1-3.7-3.7-1.8-.4-10.8-7.3h-2.7l-3.2-2.2h-1.6l-2.3-1.3-1.4-1.3-3.2-7-4.7-3.8-1.1,3.3-.5-1.1-4.1-.5-.3,1.3h-.7c0-.1.1-1.6.1-1.6l-.6-.6,1.5-3.9-1.4-.7-.6-1.1-2.5-.7-2.2-1.8-2.2-.8-3.6,1.9-11,4-2.6-.4-1.7-3-5.7-5.6,2.4-4-.2-1.8-3.9-.3-8.6,1.5-.9,2.2-2.1,2.5-2.1,4-4,4,2.3,2.7-.7-.5-1.5,1.3-2.3-.6-1.4-2.1-2.6-1.8-5.6-2.1-1.4-10.7,3-5.4,2.1,1.3.3-3.5,1.8.2v-1.4c.1,0-1.1-.1-1.1-.1l.2-1.7,1.2-1.4-1-.8.8-5.5,1-.3.2-.8-.4-1,.4-6.3-.6-1-2-1.1-3.4-3.9.2-.8-3.5-6.1-4.2-5.1-3.5-6.5-2.9-3-5.4-5.3-6-1.2-1.6-4.5-2.1.5-1.3-2.3-1.8.5-5.1-4.1-.4-5.8-1.6-7.4-8.8-35.1,2-3.8-.2-3.1-.7-1.2-1.6-.5-6.1,4.8-3.7,1.6-7.4-1.1-5.5-2.2-6.1-4.2-1.5-1.6-3.3-6.2v-2.7l2.1-5.2,1-4.4,3.4-4.2,7.3-12.5,3.9-5.1,1.9-5.4,7.5,5.4,14.8,12.5,5.4,2.9,6.5,1.9,22.7.2,6.4,1.5,4,2.3,2.4,7.6,1.5,2.6,2,1.1,5.6-.7,9.2-3.9,4.8-2.8,5.3-1.7,3.9,1.6,7.5,5.8,1,1.9-1.9,21.8,1.2,2.7v3.1l-1.1,4.3-4.5,10.7-1.2,5.1.5,5.1,1.3,2,2.8,1.6,7.9,2.5,6.8,3.7,9,3.4,10-.8,11-3,1.8-.7,7.8-5.9,3.6,2.9,1.8,3.5.5,3.2-.4,2.4-4.9,6.3-8.3,4.4-16.8,11.8-1.1,2.3.4,3.5,1.7,2.6,2.5,1.8h.1Z"/>
    <circle class="st3" cx="453.3" cy="195.1" r="10"/>
    <g class="st0">
      <text class="st1" transform="translate(444.8 201)"><tspan x="0" y="0">17</tspan></text>
    </g>
  </g>
  <g data-mapno="18">
    <path class="st2" d="M496.8,221.7l-.6-.4.9-3.3h-1.3c0-.1,3-5,3-5l.3-3.4,2.6.3v1.1h1.1v-1c.1,0,14.1,1.4,14.1,1.4l1-5.5,17.1,2.8,15.7,1.1h15.3c0-.1,16.8-1.6,16.8-1.6l4,.4,12.8,5,3.5,2.9,2,2.7,1,3.7-.9,3.8-5.9,4.8-.6,4,1.3,4.5,2.7,5.1,3,3.8,3.5,3,6.3,3.1,19.2,4.1,18.7-7.5,4-.9,2.6.2,3.9,1.1,2.7,2.5,1.1,3.8.3,5.2-1.2,3.3-7.3,10.5-1.2,2.7-2.4,7.5-.8,5.6-22-3.6-16.9.9-.3-2.9h-1.3v-1.2h-3.7l-1,.4-1.3-1.5.4-1.2-3-.9-4.6,8.1-4.5,2.5h-2.6l-2.1.9-4.1-.6-3.2,3.6-2.5,1.7-.2,2.8-2,1v1.5c0,0-12.5-1-12.5-1l-4.2-3.9-14.3-6.5-3.7,1.1-.6,1-5.6-.2-3.4-8.5-2.1-2.4-2-1-1.1,1.4-1.5-2.3-1-.2-2.4-2.3,1.8-2-.8-3.2,1.7-.4,1,1,1.2-.6,1.6.4,2.2-2.4-1.3-1.7,6.6-4,13-5.6-2.9-2.7v-.8l-1.1-.6-.3.5-1.4-.9.2-1.9-1.6-1-.8-4.3-6-.5-1.1-.6-4.1-3.4-.2-4.2h-1.6c0,.1-1,1.6-1,1.6l-3-.4-.6,1.9-2.6-1.7-.6.8-8.3-6.5,1.7-2.1v-5h-6.5c0,.1-.9-.7-.9-.7l.4-3.6h-.9l-.4-.8-6.6-.4-2.6-1.9-.9,1.1-2.3-1.5h0Z"/>
    <circle class="st3" cx="579.3" cy="258.7" r="10"/>
    <g class="st0">
      <text class="st1" transform="translate(570.8 264.5)"><tspan x="0" y="0">18</tspan></text>
    </g>
  </g>
  <g data-mapno="19">
    <path class="st2" d="M293.3,229.3l2.2-4.8,2.7-8.9-2.5-4.1-1.9-4.5-.4-2.9,1.3-9.8-.9-2.8-5.5-5.8-1.6-3.3-4.4-14.7-2.1-3.3h-1.3l-1.3.9-7.1-2.4-6.4-.9-2.7-1.2-14.1-1.2-4.6-.3-4.9.6-2.9-.8-7.1,1-1.4.8-5.3-1.8-7.9-5.7-2.3,3.7-3.3,2-15.9,1.2-.3-3.5h-3.3v-2l-8.7-6-2.2,1.9v-7.3c.1,0-1-2-1-2l.8-1.8.3-5.7-1.9-2-9.3-1.4.7-3.7-1.9-2.5-.5-3.2,3.4-4,3.6-1.8,1.5-1.8.5-2-.2-3,3.2-3.5,3.4,1.2,3.6-3.2.4-.7-.3-1.4.8-.5.2-1-1.5-2.5,2-2.4,1.1-1.1,2.6-.7,1.4-2.7,1.6-.8,3.4.4,1.9-1.2h1.9l1-1.3-.7-1.1,4.6-4.3,2.7-14.1,1.1-2.5,7.6-.9,5.3.7,5.7,1.7,14.6-9,11.7-.9,25.4.2,9.8,1.5,7.4,2.7,5.5.9,6.5.2,9.3-1.5,12.5-4.4,3.3-.7h5.2l10.7,2,8,4.4-1.9,5.4-3.9,5.1-7.3,12.5-3.4,4.2-1,4.4-2.1,5.2v2.7l3.3,6.2,1.5,1.6,6.1,4.2,5.5,2.2,7.4,1.1,3.7-1.6,6.1-4.8,1.6.5.7,1.2.2,3.1-2,3.8,8.8,35.1,1.6,7.4.4,5.8,5.1,4.1,1.8-.5,1.3,2.3,2.1-.5,1.6,4.5,6,1.2,5.4,5.3,2.9,3,3.5,6.5,4.2,5.1,3.5,6.1-.2.8,3.4,3.9,2.5,1.8v7.6c.1,0,0,.8,0,.8l-1,.3-.8,5.5,1,.8-1.2,1.4-.2,1.7h1.2c0,.1-.1,1.5-.1,1.5l-1.8-.2-.3,3.5-2.1-1.3-3,5.4-12.4-2.3-.2,1-2.5.5-8.9-1.6-3.3,5.7-1.3,5.8-1.1,2-10.2,12.9-1,1.8-.7,4.2h-.6l-3.3-.9-.5-.8-.5-1.7,1-.7-3.5-9.1-4.7.6-1-8.7-11.5.5v-2.7l-2.5.3-2.7-2.2-7.8,7.6-18.6,7.2-5.6,1.3-3.4-4.8-.3-1.5,1.7-3.2,1.8-1.7,1.3-3.9-.2-1.6-13.1-5.1-1.3,1.5-2.6-1.7-1.8,1.7-1.1-.7-3.1,2-.2-2.3,2.7-7.6.2-.4h-.1Z"/>
    <circle class="st3" cx="333.9" cy="174.4" r="10"/>
    <g class="st0">
      <text class="st1" transform="translate(325.3 180.3)"><tspan x="0" y="0">19</tspan></text>
    </g>
  </g>
  <g data-mapno="20">
    <path class="st2" d="M13.9,221.7h3.9c0,.1-.7-6.2-.7-6.2l-1.9-3.4-1.6-.9.2-6-1.8-.4-.6-2.3-1.3-.5-.2-2.1-1.2-.4.5-2.4-1.3-2.6-1.4-.7-1.5-3-.8-.6-1-5.7-2.6-.6,2.1-4.1h3.1l.7,2.9,1.6.2,3.1-.2v-2.9l2.3-.7.7.8h1.2l-.3-2.3,2.8-.4.4,1.5.7-.4v.9l3.6-1-.6-2.7-.8-.3-.9-1.4-.5-3,.8-.5,1,1.1,4.6-1.3v-2.1l3.2-.2,1.4,1.2,1.1-.3-.9-4.1.2-2.3,6.8.4,1.3-3.5,1.8-1.1.3-4.5,6.6-.8v-2.2h.6l.3,2.1,3.3-.2-1-4.1,5-1.3-.4-2.6,1-.8v-3.1l2.2-1,4.9-.5,3.4-5,2.2-5.6,12.3,4.4h.8l.3-.7.8-4.2,8.1,1.1-.7,2.9.6,1-.6,2.5,19.8,4.5.2,1.2-1.3,1.4h-2.4l-1.1-.4-4.9,2.7-6.3,4.5-2.8,3.8v.7c0,0,2.6,1.9,2.6,1.9l-1.8.8.5,1.9.9.7,1.2.2,11.1-6.1.8.3,1.8,2.4,1.2.5,5.5-3.2,2.1,5.1,1.5.2v1.1l2.7.5,1.1-2.3,2-2.6,3.6-2.4.5,2.4.8.5-1.2,1.5,1.1,1.1,2-3.4,4.3-.4,2-1.1h1.5l3.5.9,1.3.9-1.1,6.2,1.4,1,.7,1.3.3,3.6,4.6-.6h7.9l1.5-.2.6-5,2.3-9.3,2.5-4.1.6.8.9-2.4-.9-2.3-2.6-1.4-.2-.6.7-2.5.3-8-.4-2.1.8-1.8v-3.6l1.9,2.5-.7,3.7,9.3,1.4,1.9,2-.3,5.7-.8,1.8,1.1,2v7.3c-.1,0,2.1-1.9,2.1-1.9l8.7,6v2.1h3.3l.3,3.4,15.9-1.2,3.3-2,2.3-3.7,7.9,5.7,5.3,1.8,1.4-.8,7.1-1,2.9.8,4.9-.6,4.6.3,14.1,1.2,2.7,1.2,6.4.9,7.1,2.4,1.3-.9h1.3l2.1,3.3,4.4,14.7,1.6,3.3,6,6.9.4,1.7-.3,3.9-1,5.9.4,2.9,1.9,4.5,2.5,4.1-2.7,8.9-4.7,11.5-.2,3.6,3.1-2,1.1.7,1.8-1.7,2.6,1.7,1.3-1.5,13.1,5.1.2,1.6-1.3,3.9-1.8,1.7-1.7,3.2.3,1.5,2.1,3.5,1.3,1.3h.7c0-.1.2,1.3.2,1.3l1.3,1.7h-1.8l-1.9,5.4-1.7,1.3-.5,1.3-.9,3,1.3,2.3v1.2l-1.1,2.5-.9.6-1.4,2.3,1.2,1.5-1.2,1.8-1.2-.2-7.5-7.5-4.4-1.6h-4.1l-1,1.9-1.9,2-1.8-.8-.9,1.3-2.7.4-.4,2.2-2.7-.4-.5,1.2-2.1-.7-3.2.3-.7,1-3.2,9-2.4,3.1-2.4,1.9h-5.5v2.8l-4.2-.2-4.2-1.6-2.4-.2-10,.3-3.5-1.8-1,.5h-7v4.1h-8.9l-1.3.6-9.7-3.3-.2-3-1.6-2.1-3.1-.9-.6-3.2-2.3-4.4-1.5-5.9-2.9.6-.7-.7-1.8-6.7-1,.2-1.2-3.2h-13.8l-3.1.6.3,3.7-1.9,1.1-1.5,4.1-3.9,7.3-7.3-1-5.3,1.1-10.1.9-1.5-1.5-15.5,5.2-4.9,2.6-9.9,3.4-5.4,2.8-.3,1.8-5.4,5-5.6,2.8-3.3,2.6-2.1.3v2.1l-3.4,7.8-1.4,2.8-1.3.7-5.1-5.1-2.5-1.5-4.9-.5-4.8,1.6-4.2,4.9-.8,3.5.4,3.5,4.6,9.3v2.4c0,0-.4,2-.4,2l-12.3-6.6-3.9-2.8-11.2-11.2-3.2-2.5-17.8-6.9-7.3-1.8v-3.2c.1,0-1-5.3-1-5.3l1.7-5.8.4-4.2,8.9-22.3-5.6-7.2,1.7-4.9.8-.7-.2-15.3-.7-4.3-1.9-6.3-.8-.9.2-2.6-.6-1.2,5.5-.5v-1.2l-2.7-6.7h0Z"/>
    <circle class="st3" cx="151.7" cy="225.3" r="10"/>
    <g class="st0">
      <text class="st1" transform="translate(143.2 231.3)"><tspan x="0" y="0">20</tspan></text>
    </g>
  </g>
  <g data-mapno="21">
    <path class="st2" d="M461.3,155.4l-1.7-2.3-.5-5.1,1.2-5.1,5.4-13.4.3-4-.7-2.4,12.1-4.8,8.5-5.2,1.2-2,.8-3.4.5-6.3,2.3.6,3.2,2.2.5-.6,2.7.8,3.1-1.6.5,1,4.4-.8,1.1-.4.8-1.5,2.8-.2.4.4,1.1-1-.2-1.3,2.5-3.4-.7-.6-.3-2.8-.8-1.1,9-10.3,2.6-3.8,2.1-10.1-.4-1.5-2.1-3.4-4.3-3.6-5.1-5.6-3.1-5.3-11.8-10.8-.4-2.8,1.1-1.2-1.6-2.4,1.4-.9-1.1-1.3,1-1v-1.9c-.1,0,2.9-2.5,2.9-2.5l1.5,1.2,1.4-1.2,2.2,1.6,1.7-1.4.8,1,1.1-.5,1.1-6.5,5.3,2.4,5.8-1.1,3.9-1.9,12-9.3-1.7-2.2,2-2.8,2-1,3.8-.4,7.4,1.1,2.3,1.6,15.1,20.3v1.4l2.8,4.2,2,2.3,1-.3,4,3.6,5.3.2,2.2.9h8.7c0,0,13.7,5.3,13.7,5.3l4.2.3,3.6-.5,3.5-1.5,5.7-1.3,4.1-2.8,1.1-2.1,4-2.8,1.7-.3,4.7-.5,17.5,1.8,5.3-.2,2-.7,4.4-2.1,5.8-4.1.6-3.2,1.2-1.2v2.3l2.8-2.3,2.3,1.8,1.5-.7-2.6-4.5,2.5-7.4,6.2,3,4.1,7.4-.2,2.9-.6,1.2-4.5,4-5.8,12.7-1.4,9.6.3,5.1-1.9,5.5,2.3,5.9,5.3,6.2,5.2,2.3,1.7,3.3,2.6,1.9h.9l11.8-4.2,5.1-3.4,4.7-7.3,2.4-2.4,3-4.9,1.7-1.6,2.1-.6,4,.4,8.6,2.2,2.9,1.7,7.6,9.8-5.5,5.8-1.1,2.9-.2,3.6.4,5.1,2.1,9.9,3.4,9.6,4.4,10.9,2.5,4.4,14.1,18.6,9.1,13.1,2.1,5.1.7,4.4-1.4,5.6-2,2.9-3,2.9-4.1-2.3-7.1-2-1.4-4-.9-9.5-4.8.8-10.7.7-4.9,3.4-2.3,2.5-2.2,3.6-9.6.9-1.2.9-1,4.5.6,1.1-.6,3.5-4.2.5-1.1-1.1h-4.1c0-.1-4.2-1.6-4.2-1.6l-1.6.5-1.9,3.1-.3,1.6v11.2l-2.7,3.8-3.3,1.1h-2.9c0-.1-4.7-2.3-4.7-2.3l-.8-4.2,2.1-7.7,1.8-.6v-.7l-6.8.9-2.2,19.4-2.5.9-6.2-1.3-1.4-14.6-6.6.8-.2-1.7-9.6,3.5-.9,2.1v5.2l.7,2.2-.2,6.9,1.5,2.2,2.5,1.6-1,3.7,9,14.2,6.5,14.9-6,2.6-2.3,1.8-7.3,10.7-1.1-3.8-2.7-2.5-6.5-1.3-4,.9-18.7,7.5-19.2-4.1-6.3-3.1-5.1-4.9-4.1-7-1.1-3.2-.2-3,.6-2.3,1-1.2,4.9-3.6.8-4.9-1.6-3.8-4.8-4.4-11-4.5-4.7-.9-17.9,1.5-11.9.2-19.1-1.2-10-1.5-20.4-4.1-6.4-1.8-3.9-2.6-1.7-2.6-.4-2.5.2-1.7,1.4-2.2,17.8-12.1,6.8-3.5,4.5-5.6.8-3.1-.8-4-1.5-2.7-3.6-2.9-7.8,5.9-1.8.7-11,3-9,.8-2.8-.4-7.2-3-6.8-3.7-9.8-3.4-.5-.4h0Z"/>
    <circle class="st3" cx="626.8" cy="122.4" r="10"/>
    <g class="st0">
      <text class="st1" transform="translate(618.1 128.3)"><tspan x="0" y="0">21</tspan></text>
    </g>
  </g>
  <g data-mapno="22">
    <path class="st2" d="M840.8,167.4l2.8,6.2,4.4,7.1,2,13,1,2,16.9,23.6-10.8.3-.3.9h-3.3v1.5l-4.1.3-.9,1-5.1-.6-.9,4.1,2.5-.6,1.3.2v.7l1.2-.7,1.8.9.3.7-.7,2.1,3,2.2h.6l.2,1h1.6c0-.1.4,2.9.4,2.9h-1.2c0,.1.2,1.3.2,1.3l-2,.2v.9h-2.6c0,.1-2.8,1.6-2.8,1.6l.7,2.9-1.6.6v1.5l-1.2.4v2.5c0,0-.9.2-.9.2v.8l-2.5.4,1.9,4.1-1.6.5-5.2-2.8-1,.2-.9,1.9.5.7-.7,4.3-.9.8.3,3-1,2-3.4-.8-1.3.7-.3,1-2.3-.4-1.6-2.7-.7,1.1.9,1.6-.3,1,1.1-.3,1,2.1-.6.2-.5,2.6-2.4,2.3h-1.2l.9,1.2-1.5,5.4,1,2.4-.4,5.4-3.5,3-1.9.4.4.8-.7,3.8,1.2,4.4.2,5-2,1.4-.2-.5-2.6,2.1.7,1.6-1.8,1-.8,1.6-1.7,4.1-.3,3.9-.7,1.7-1.5,1.6-.4,1.7,6.1,12.9-.3,3.3-1.2,1.2-1.6,3.5-2.2-.6v-2c0,0-4.6-.9-4.6-.9v.5c0,0-3.4-.5-3.4-.5l-1.6.9-.9-.7-1,1-4.5-4.9-2.5,2.2-1.4-1.7-1.4,1.2-1.2-1.1-.4.5-4.4-1.5-1.3,2.3h-1.3c0-.1-2,3-2,3l-8.5,6.5-44.3-50.6-12.9-15.8-15.8-21.3-7.3-14.7-8.3-18.9-9-14.2,1-3.7-2.5-1.6-1.5-2.2.2-6.9-.7-2.2v-5.2l.5-1.8,10-3.8.2,1.7,6.6-.8,1.4,14.6,6.2,1.3,2.5-.9,2.2-19.4,6.9-.9v.7l-1.9.6-2.1,7.7.4,3.5.9,1.1,4.2,1.8h2.9c0,.1,3.3-1,3.3-1l2.8-3.8v-11.2l.2-1.6,1.9-3.1,1.6-.5,4.2,1.5h4.1c0,.1,1.1,1.2,1.1,1.2l4.2-.5.6-3.5-.6-1.1,1-4.5,1.2-.9,9.6-.9,2.2-3.6,2.3-2.5,5.8-3.7,3.5.2,11.1-1.4.9,9.5,1.4,4,7.1,2,4.6,2.3,3.9-4.7,1-2,1-4.7-.7-4.4-1.4-3.7-6.6-10-15.5-20.3-3.1-4.8-8.6-21.5-2.5-11.3-.3-7.9,1.2-3.7,5.5-5.8,1.2,2.2,3.5,1.8,13.4,12.2,2.7,1.6,3.5.8,1.5-.5,2.4-2.6,1.8-3,2.5-7.1,1.4-1.2,1-.4,7.8,1.7h2.6l10.3-6.1,2.7-1,7-1.2,5.3.6,2.5,1,3.6,4.4,1.6,2.4.9,3.1v2.1c0,0-1.7,3.3-1.7,3.3l-7.2,5.9-4.5,7.9-1,4.4.4,3.4,1.1,2.7.8-.9,3.5,6.9,3.1,3.7,4.7,1.8,2.5.2,15.5-4.6,11-4.7,4,.6,13.3,3.6,1.5,3.6.6,3.5-.3,2.1-1.7,4-4.8,4.1-9.3,5.4-15,7.4-2.9,2.2-2.6,3.9-2.4,6.3-1.3,5.6,1,4.4h0Z"/>
    <circle class="st3" cx="779.1" cy="218.9" r="10"/>
    <g class="st0">
      <text class="st1" transform="translate(770.5 224.8)"><tspan x="0" y="0">22</tspan></text>
    </g>
  </g>
  <g data-mapno="23">
    <path class="st2" d="M795.1,595.5l.3-.6h.7l.3.9h1.4l.4.7-1.2.8-1.3-.3-1.1-.8.5-.7h0ZM834.6,575.3l-15.8,9.9-6.5-1.8-8.1,1.8-7.8.3-7.6-.8-6.9-2-8.2-4.1-6.5-4.9-5.6-.7-1-.9,2.4-45.2-12.9-.7,3.6-55.9,3.5-17.2-7.1-7,2.8-5.9-.5-1,.2-2,2.9-13.3.8-8.1-.4-14.4-5.5-9.6-3-3.8-4.9-3.2-17-8.2-3.2-2.4-1.7-4.7,1.3-3.5,4.6-5.6,6.9-6.3,1-2.9-.8-1.7-1.3-1.1-7.6-3.2-3.3-2.7-2.9-3.3-1.3-4.7,1.7-4.2,2.7-2.6,1.9-1,3.4-.3,4.8,1.7,1.2,1,8.2-7.1,24.4,27.6,8.5-6.5,2-3.1h1.3c0,.1,1.3-2.2,1.3-2.2l4.4,1.5.4-.5,1.2,1.1,1.4-1.2,1.4,1.7,2.5-2.2,4.5,4.9,1-1,.9.7,1.6-.9,3.3.5v-.5c0,0,4.8.9,4.8.9v2c0,0,2.1.6,2.1.6l1.6-3.5,1.2-1.2.3-3.3-6.1-12.9.4-1.7,1.5-1.6.7-1.7.3-3.9,1.7-4.1.8-1.6,1.8-1-.7-1.6,2.6-2.1.2.5,2-1.4-.2-5-1.2-4.4.7-3.8-.4-.8,1.9-.4,3.5-3,.4-5.4-1-2.4,1.5-5.4-.9-1.2h1.2l2.4-2.3.5-2.6.6-.2-1-2.1-1.1.3.3-1-.9-1.6.7-1.1,1.6,2.7,2.3.4.3-1,1.3-.7,3.4.8,1-2-.3-3,.9-.8.7-4.3-.5-.7.9-1.9,1-.2,5.2,2.8,1.6-.5-1.9-4.1,2.4-.4v-.8l.9-.2v-2.5c0,0,1.4-.4,1.4-.4v-1.5l1.5-.6-.7-2.9,2.8-1.5h2.7v-1l2-.2-.2-1.2h1.2c0-.1-.4-3.1-.4-3.1h-1.6c0,.1-.2-.9-.2-.9h-.6l-3-2.2.7-2.1-.3-.7-1.8-.9-1.2.7v-.7l-1.3-.2-2.5.6.9-4.1,5.1.6.9-1,4.1-.3v-1.6h3.2l.3-.9,10.8-.3,3.8,4.9,3.9,3.9,10,4.5,5.1,4.2,2.3,3.4,3.3,9.9.7,4.2-.2,8.5-1.4,4.2-6.4,14-1.8,8.5v8.3l1.9,8,1.8,2.7,16.2,14.9,2.5,3.5,2.8,6.7,3.6,6.2,3,3.1,11.1,7.9,3.5,3.3,3.8,4.9.9,8.8,1.2,5.8,4.4,12,.7,5.1-.5,1.9-12.9,22.1-13.8,17.7-4,3.7-3.2,2.3-5.7,1.8-20.7,2.5-10.4,2.3-7.9,3.6-5.6,4.2-1.4,2.2-.6,2.8-1.5,9.3-.3,6.9.3,2.2,4.2,10.7.4,2.9-.7,11.1.7,27.2-1.2,8-9.1,28.1-2.3,2.4-13.8,8.8h-.1ZM761.6,586l-.8,8.7.5-11.6,1.5-2.4,2.8-1.3,2,.3,6.8,3.2,2.4,2.6h2.6l4.5,1.7,1.7,2,.2,2.2-4.1,5.6-.3-.5,3.5-4.3-.8-1.3-2.5-2.1-4.3-1.8-6.3-1.4-5.3-.4-4.1.6v.2h0ZM784.1,598.8l-.4-.4,5-6.5,3-1.8,3.4-.7,3.5.4,4.8,2.2,4,2.9,1.2,2.7-.4,1.9-2.5,4.2-1.6.9,1.4-1.1,2.6-5.4-2.3-.8-1-1.5-1.1-.7.6-.9-1.7.2-.6-1.1-1.3-.5-.3-1.3-2.2,2.7-1.2.6-2.1-1.3-1.7-.2v-1.6l-1.7-.9-3.1,2.2-4.3,5.8h0Z"/>
    <circle class="st3" cx="814.1" cy="376.7" r="10"/>
    <g class="st0">
      <text class="st1" transform="translate(805.5 382.5)"><tspan x="0" y="0">23</tspan></text>
    </g>
  </g>
</svg>