<?xml version="1.0" encoding="UTF-8"?>
<svg id="icon_katate" xmlns="http://www.w3.org/2000/svg" xmlns:xlink="http://www.w3.org/1999/xlink" viewBox="0 0 1024 1024">
  <defs>
    <style>
      .cls-1 {
        stroke-width: 115px;
      }

      .cls-1, .cls-2, .cls-3, .cls-4, .cls-5, .cls-6, .cls-7 {
        stroke-miterlimit: 10;
      }

      .cls-1, .cls-2, .cls-3, .cls-4, .cls-5, .cls-6, .cls-7, .cls-8 {
        fill: none;
      }

      .cls-1, .cls-2, .cls-4, .cls-8 {
        stroke: #fff;
      }

      .cls-9 {
        mask: url(#mask);
      }

      .cls-2 {
        stroke-width: 80px;
      }

      .cls-3 {
        stroke-width: 95px;
      }

      .cls-3, .cls-5, .cls-6, .cls-7 {
        stroke: #000;
      }

      .cls-4 {
        stroke-width: 145px;
      }

      .cls-5 {
        stroke-width: 125px;
      }

      .cls-6 {
        stroke-width: 60px;
      }

      .cls-7 {
        stroke-width: 10px;
      }

      .cls-8 {
        stroke-width: 20px;
      }

      .cls-10 {
        filter: url(#luminosity-noclip);
      }
    </style>
    <filter id="luminosity-noclip" x="343.55" y="373.92" width="95" height="416.04" color-interpolation-filters="sRGB" filterUnits="userSpaceOnUse">
      <feFlood flood-color="#fff" result="bg"/>
      <feBlend in="SourceGraphic" in2="bg"/>
    </filter>
    <mask id="mask" x="343.55" y="373.92" width="95" height="416.04" maskUnits="userSpaceOnUse">
      <g class="cls-10">
        <line class="cls-7" x1="391.05" y1="374.96" x2="391.05" y2="789.96"/>
      </g>
    </mask>
  </defs>
  <g id="ume-2" data-name="ume">
    <g id="blout-2" data-name="blout">
      <g id="katate">
        <g id="katate_bl">
          <line id="ude" class="cls-4" x1="52" y1="914.08" x2="962" y2="914.08"/>
          <g id="hira">
            <line class="cls-2" x1="922.03" y1="914.7" x2="922.03" y2="313.13"/>
            <line class="cls-2" x1="543.15" y1="657.02" x2="543.15" y2="95.2"/>
            <line class="cls-2" x1="669.44" y1="657.02" x2="669.44" y2="34.7"/>
            <line class="cls-2" x1="795.74" y1="657.02" x2="795.74" y2="121.13"/>
            <line class="cls-1" x1="391.05" y1="798.92" x2="391.05" y2="363.92"/>
          </g>
        </g>
        <g id="katate-2" data-name="katate">
          <line id="ude-2" data-name="ude" class="cls-5" x1="62" y1="914.08" x2="952" y2="914.08"/>
          <g id="hira-2" data-name="hira">
            <line class="cls-6" x1="922.03" y1="895.92" x2="922.03" y2="315.92"/>
            <line class="cls-6" x1="543.15" y1="647.48" x2="543.15" y2="105.81"/>
            <line class="cls-6" x1="669.44" y1="647.48" x2="669.44" y2="47.48"/>
            <line class="cls-6" x1="795.74" y1="647.48" x2="795.74" y2="130.81"/>
            <g class="cls-9">
              <line class="cls-3" x1="391.05" y1="788.92" x2="391.05" y2="373.92"/>
            </g>
          </g>
        </g>
      </g>
      <g id="_1click" data-name="1click">
        <g>
          <g>
            <polygon class="cls-8" points="78.25 801.38 78.25 750.06 298.86 750.06 298.86 767.85 99.23 767.85 99.23 801.38 78.25 801.38"/>
            <polygon class="cls-8" points="78.25 801.38 78.25 750.06 298.86 750.06 298.86 767.85 99.23 767.85 99.23 801.38 78.25 801.38"/>
          </g>
          <g>
            <polygon class="cls-8" points="106.63 714.47 101.7 708.09 101.87 708.09 78.25 677.52 78.25 623.23 101.91 592.89 101.7 592.89 106.63 586.5 147.98 586.5 147.98 604.29 124.53 604.29 105.4 628.7 105.4 672.04 124.53 696.68 252.27 696.68 271.71 672.04 271.71 628.7 252.27 604.29 225.73 604.29 225.73 586.5 270.16 586.5 275.41 592.89 275.2 592.89 298.86 623.23 298.86 677.52 275.23 708.09 275.41 708.09 270.16 714.47 106.63 714.47"/>
            <polygon class="cls-8" points="106.63 714.47 101.7 708.09 101.87 708.09 78.25 677.52 78.25 623.23 101.91 592.89 101.7 592.89 106.63 586.5 147.98 586.5 147.98 604.29 124.53 604.29 105.4 628.7 105.4 672.04 124.53 696.68 252.27 696.68 271.71 672.04 271.71 628.7 252.27 604.29 225.73 604.29 225.73 586.5 270.16 586.5 275.41 592.89 275.2 592.89 298.86 623.23 298.86 677.52 275.23 708.09 275.41 708.09 270.16 714.47 106.63 714.47"/>
          </g>
          <g>
            <rect class="cls-8" x="78.25" y="532.89" width="220.61" height="17.79"/>
            <rect class="cls-8" x="78.25" y="532.89" width="220.61" height="17.79"/>
          </g>
          <g>
            <path class="cls-8" d="M122.37,497.08v-17.79h176.49v17.79H122.37ZM78.25,497.08v-17.79h24.38v17.79h-24.38Z"/>
            <path class="cls-8" d="M122.37,497.08v-17.79h176.49v17.79H122.37ZM78.25,497.08v-17.79h24.38v17.79h-24.38Z"/>
          </g>
          <g>
            <polygon class="cls-8" points="145.2 443.47 136.38 432.07 136.25 432.07 122.37 414.5 122.37 370.02 136.25 352.23 136.38 352.23 145.2 340.82 181.92 340.82 181.92 358.61 162.48 358.61 149.52 375.27 149.52 409.03 162.48 425.68 258.75 425.68 271.71 409.03 271.71 375.27 258.75 358.61 236.84 358.61 236.84 340.82 276.02 340.82 284.84 352.23 284.97 352.23 298.86 370.02 298.86 414.5 284.97 432.07 284.84 432.07 276.02 443.47 145.2 443.47"/>
            <polygon class="cls-8" points="145.2 443.47 136.38 432.07 136.25 432.07 122.37 414.5 122.37 370.02 136.25 352.23 136.38 352.23 145.2 340.82 181.92 340.82 181.92 358.61 162.48 358.61 149.52 375.27 149.52 409.03 162.48 425.68 258.75 425.68 271.71 409.03 271.71 375.27 258.75 358.61 236.84 358.61 236.84 340.82 276.02 340.82 284.84 352.23 284.97 352.23 298.86 370.02 298.86 414.5 284.97 432.07 284.84 432.07 276.02 443.47 145.2 443.47"/>
          </g>
          <g>
            <polygon class="cls-8" points="78.25 304.32 78.25 286.53 185.31 286.53 133.17 219.92 122.37 219.92 122.37 202.13 150.75 202.13 159.57 213.53 159.7 213.53 185 245.93 298.86 197.34 298.86 220.6 198.58 263.26 216.78 286.53 298.86 286.53 298.86 304.32 78.25 304.32"/>
            <polygon class="cls-8" points="78.25 304.32 78.25 286.53 185.31 286.53 133.17 219.92 122.37 219.92 122.37 202.13 150.75 202.13 159.57 213.53 159.7 213.53 185 245.93 298.86 197.34 298.86 220.6 198.58 263.26 216.78 286.53 298.86 286.53 298.86 304.32 78.25 304.32"/>
          </g>
        </g>
        <g>
          <polygon points="78.25 801.38 78.25 750.06 298.86 750.06 298.86 767.85 99.23 767.85 99.23 801.38 78.25 801.38"/>
          <polygon points="106.63 714.47 101.7 708.09 101.87 708.09 78.25 677.52 78.25 623.23 101.91 592.89 101.7 592.89 106.63 586.5 147.98 586.5 147.98 604.29 124.53 604.29 105.4 628.7 105.4 672.04 124.53 696.68 252.27 696.68 271.71 672.04 271.71 628.7 252.27 604.29 225.73 604.29 225.73 586.5 270.16 586.5 275.41 592.89 275.2 592.89 298.86 623.23 298.86 677.52 275.23 708.09 275.41 708.09 270.16 714.47 106.63 714.47"/>
          <rect x="78.25" y="532.89" width="220.61" height="17.79"/>
          <path d="M122.37,497.08v-17.79h176.49v17.79H122.37ZM78.25,497.08v-17.79h24.38v17.79h-24.38Z"/>
          <polygon points="145.2 443.47 136.38 432.07 136.25 432.07 122.37 414.5 122.37 370.02 136.25 352.23 136.38 352.23 145.2 340.82 181.92 340.82 181.92 358.61 162.48 358.61 149.52 375.27 149.52 409.03 162.48 425.68 258.75 425.68 271.71 409.03 271.71 375.27 258.75 358.61 236.84 358.61 236.84 340.82 276.02 340.82 284.84 352.23 284.97 352.23 298.86 370.02 298.86 414.5 284.97 432.07 284.84 432.07 276.02 443.47 145.2 443.47"/>
          <polygon points="78.25 304.32 78.25 286.53 185.31 286.53 133.17 219.92 122.37 219.92 122.37 202.13 150.75 202.13 159.57 213.53 159.7 213.53 185 245.93 298.86 197.34 298.86 220.6 198.58 263.26 216.78 286.53 298.86 286.53 298.86 304.32 78.25 304.32"/>
        </g>
      </g>
    </g>
  </g>
</svg>