<svg xmlns="http://www.w3.org/2000/svg" viewBox="0 0 400 400" class="pref-shape" data-mapno="1" data-name="北海道" role="img" aria-label="北海道の形"><style>.pref-shape path{fill:#FFFFFF;stroke:#1E293B;stroke-width:1.1;stroke-linejoin:round}.pref-shape.is-active path{fill:#0D9488}.pref-shape.is-correct path{fill:#16A34A}.pref-shape .capital{fill:#DC2626;stroke:#FFFFFF;stroke-width:1.5}</style><path d="M96.3 112.4L98.8 97.7L101.1 100.6L104.5 100.1L108.3 94.3L110.5 94.2L131.2 118.5L137.1 130.3L149.7 145.4L168.5 160.2L182.7 166.3L196.8 168.8L198.7 175.5L201.5 177.1L217.4 178.3L232.4 164.4L237.8 156.5L239.0 161.1L228.8 180.2L227.7 187.6L230.7 193.1L238.0 196.2L236.2 198.1L237.7 196.1L232.6 194.3L235.3 204.9L239.7 211.5L243.8 212.8L250.1 206.3L255.8 207.5L246.7 211.9L244.8 218.0L230.7 219.2L224.5 227.5L220.6 227.3L217.7 223.6L214.7 227.6L216.7 230.1L204.3 229.4L197.7 226.4L184.4 233.0L172.4 245.0L163.8 257.9L159.3 281.5L148.5 271.7L130.1 263.8L107.3 247.6L98.3 245.7L100.7 244.1L87.7 250.0L74.6 262.4L71.9 260.6L74.8 260.1L71.4 258.9L63.6 248.0L54.4 247.9L48.7 256.3L47.7 264.9L57.4 271.8L65.4 271.8L72.9 281.9L78.7 284.1L81.5 287.7L73.3 292.3L66.0 289.1L63.2 290.8L63.9 287.6L61.1 286.8L59.5 290.7L53.6 293.6L52.2 302.1L46.6 303.8L44.4 308.0L40.2 307.1L36.2 297.6L39.5 287.5L41.5 286.7L41.8 279.0L37.8 271.9L33.9 270.9L28.4 264.5L31.3 254.2L30.1 246.4L34.0 242.6L38.5 242.3L43.8 235.5L46.1 238.5L48.4 237.9L51.5 230.6L56.5 227.1L49.1 215.1L49.9 209.3L55.3 207.2L66.6 216.6L75.2 214.2L74.9 216.7L80.5 219.2L90.5 209.7L87.0 189.0L89.1 184.7L95.6 182.0L98.9 177.5L98.9 158.1L104.2 143.8L102.7 129.2L96.4 112.8L96.3 112.4ZM351.2 106.3L363.0 92.9L369.9 92.3L372.0 94.4L369.5 97.5L371.3 100.8L370.0 103.7L362.3 103.9L349.7 110.3L334.8 123.9L324.8 122.4L323.1 129.6L313.3 137.0L308.3 144.8L303.6 145.2L298.8 152.3L295.5 151.2L298.9 145.5L298.6 141.2L300.4 144.2L300.9 139.9L304.1 141.0L307.4 138.3L307.9 134.3L305.3 134.0L304.7 131.2L309.5 132.2L310.7 128.7L320.0 121.9L319.3 115.8L325.4 117.5L328.4 111.4L333.4 109.8L332.6 102.4L335.4 98.3L339.7 107.5L350.2 106.7L351.2 106.3ZM253.4 171.3L267.7 147.9L275.5 152.7L284.6 150.7L281.3 156.1L279.2 154.9L274.2 160.1L267.3 160.7L260.8 166.6L254.6 178.1L247.5 181.4L245.5 192.4L245.7 188.6L241.2 188.6L240.5 182.9L253.4 171.6L253.4 171.3Z"/><circle class="capital" cx="87.6" cy="223.3" r="6"/></svg>