<svg xmlns="http://www.w3.org/2000/svg" viewBox="0 0 400 400" class="pref-shape" data-mapno="10" data-name="群馬県" role="img" aria-label="群馬県の形"><style>.pref-shape path{fill:#FFFFFF;stroke:#1E293B;stroke-width:1.1;stroke-linejoin:round}.pref-shape.is-active path{fill:#0D9488}.pref-shape.is-correct path{fill:#16A34A}.pref-shape .capital{fill:#DC2626;stroke:#FFFFFF;stroke-width:1.5}</style><path d="M112.8 130.8L117.6 130.8L120.8 122.7L131.2 128.4L137.6 129.2L140.0 123.5L145.6 122.7L148.0 113.0L145.6 105.8L154.4 107.4L160.8 103.3L172.8 100.9L172.0 96.1L169.6 95.2L173.6 81.5L186.4 82.3L185.6 72.6L182.4 65.3L183.2 53.9L203.2 50.7L214.4 40.2L214.4 32.9L216.8 28.0L223.2 31.2L225.6 38.5L236.0 46.7L237.6 58.0L244.0 61.2L250.4 59.6L252.8 63.7L251.2 66.9L253.6 69.3L260.0 66.1L262.4 68.5L267.2 67.7L269.6 71.0L279.2 70.1L281.6 75.0L287.2 73.4L292.8 75.8L293.6 77.4L288.0 80.7L286.4 86.3L283.2 86.3L281.6 94.4L288.0 99.3L294.4 100.1L296.0 103.3L291.2 109.8L288.8 109.8L288.0 116.3L282.4 119.5L281.6 122.7L284.0 127.6L287.2 128.4L284.8 137.3L278.4 146.2L276.0 164.7L276.8 167.1L280.8 167.1L283.2 171.2L289.6 171.2L293.6 174.4L295.2 172.8L301.6 175.2L311.2 173.6L316.0 182.5L309.6 190.5L304.0 192.1L303.2 197.0L305.6 197.8L299.2 207.4L302.4 217.1L304.0 215.5L303.2 218.7L302.4 221.1L298.4 219.5L296.8 221.1L297.6 223.5L284.8 244.5L286.4 250.1L299.2 259.7L301.6 263.8L299.2 263.0L298.4 266.2L302.4 273.4L309.6 275.0L312.0 278.2L309.6 279.0L311.2 280.6L327.2 276.6L330.4 279.0L334.4 278.2L336.8 282.2L352.0 279.8L356.8 282.2L353.6 286.2L356.8 291.9L357.6 290.3L362.4 294.3L361.6 296.7L363.2 295.9L364.0 299.9L362.4 301.5L361.6 299.1L359.2 299.9L359.2 304.7L353.6 305.5L352.8 307.9L343.2 299.9L327.2 306.3L313.6 307.1L305.6 304.7L284.0 286.2L280.8 286.2L274.4 294.3L269.6 288.7L260.8 287.0L260.0 290.3L254.4 289.5L248.8 284.6L245.6 285.4L233.6 278.2L224.8 276.6L208.0 304.7L206.4 308.7L208.0 316.7L202.4 319.9L202.4 326.4L192.8 324.8L188.0 330.4L182.4 327.2L176.8 337.6L166.4 338.4L156.8 342.4L152.0 345.6L147.2 355.2L143.2 356.8L128.0 356.0L125.6 364.0L117.6 372.0L111.2 369.6L109.6 364.0L104.8 364.0L96.8 358.4L100.0 351.2L96.0 338.4L100.0 336.0L100.0 328.8L97.6 324.8L88.8 323.9L82.4 313.5L84.0 310.3L85.6 310.3L85.6 313.5L91.2 315.9L91.2 313.5L97.6 312.7L94.4 304.7L97.6 299.9L94.4 299.1L92.0 295.1L88.8 278.2L102.4 271.0L100.8 267.0L103.2 249.3L101.6 248.5L100.8 237.2L97.6 234.0L86.4 231.6L76.8 234.0L71.2 238.8L64.0 234.8L61.6 234.8L60.0 238.8L52.8 238.0L52.0 233.2L36.8 228.4L36.0 211.5L38.4 205.8L37.6 201.0L44.0 189.7L42.4 184.1L44.0 176.8L47.2 176.0L47.2 172.0L50.4 171.2L52.0 164.7L56.0 161.5L65.6 160.7L70.4 157.5L71.2 154.2L67.2 151.0L68.0 147.0L66.4 146.2L77.6 141.3L84.0 142.9L87.2 138.9L91.2 141.3L94.4 136.5L109.6 131.6L112.8 130.8Z"/><circle class="capital" cx="207.2" cy="242.5" r="6"/></svg>