<svg xmlns="http://www.w3.org/2000/svg" viewBox="0 0 400 400" class="pref-shape" data-mapno="11" data-name="埼玉県" role="img" aria-label="埼玉県の形"><style>.pref-shape path{fill:#FFFFFF;stroke:#1E293B;stroke-width:1.1;stroke-linejoin:round}.pref-shape.is-active path{fill:#0D9488}.pref-shape.is-correct path{fill:#16A34A}.pref-shape .capital{fill:#DC2626;stroke:#FFFFFF;stroke-width:1.5}</style><path d="M303.6 132.9L309.9 133.8L312.6 138.4L311.7 146.5L321.6 167.2L322.5 175.4L334.2 178.1L336.0 174.5L340.5 186.2L348.6 195.2L346.8 197.9L346.8 207.8L357.6 229.4L361.2 231.2L368.4 243.8L372.0 254.6L368.4 268.1L370.2 285.2L363.9 284.3L365.7 280.7L363.9 279.8L359.4 281.6L354.0 278.0L351.3 280.7L349.5 279.8L349.5 273.5L337.8 276.2L334.2 272.6L328.8 275.3L331.5 278.9L327.9 284.3L325.2 285.2L324.3 282.5L321.6 283.4L311.7 278.0L301.8 278.0L297.3 278.9L293.7 283.4L291.9 290.6L290.1 288.8L284.6 289.7L286.5 287.9L281.9 286.1L270.2 295.1L270.2 287.9L261.2 290.6L268.4 285.2L266.6 281.6L269.3 278.9L268.4 276.2L254.9 286.1L250.4 285.2L239.6 290.6L227.9 289.7L224.3 291.5L220.7 288.8L221.6 286.1L218.9 286.1L218.9 281.6L205.4 280.7L202.7 269.9L200.0 270.8L196.4 265.4L177.5 265.4L172.1 261.8L168.5 264.5L164.9 263.6L155.0 256.4L126.2 251.0L118.1 243.8L114.5 243.8L111.7 248.3L101.8 249.2L95.5 253.7L94.6 259.1L84.7 260.0L80.2 264.5L72.1 257.3L70.3 258.2L69.4 255.5L56.8 256.4L55.9 253.7L51.4 251.9L50.5 245.6L46.9 242.9L32.5 239.3L35.2 229.4L28.0 217.7L28.0 212.3L37.0 203.3L39.7 194.3L47.8 193.4L50.5 196.1L61.3 193.4L66.7 182.6L72.1 179.0L82.9 174.5L91.0 175.4L94.6 173.6L99.1 168.2L98.2 165.4L100.9 161.8L107.2 165.4L112.6 159.1L123.5 160.9L123.5 153.7L129.8 150.1L128.0 147.4L129.8 136.6L148.7 104.9L150.5 106.7L158.6 106.7L172.1 114.9L175.7 114.0L182.0 119.4L185.6 118.5L188.3 120.3L189.2 116.7L199.1 118.5L200.9 123.0L204.5 124.8L211.7 115.8L215.3 115.8L224.3 124.8L232.4 128.4L239.6 136.6L248.6 139.3L254.9 137.5L263.9 138.4L281.9 131.1L292.8 140.2L293.7 137.5L300.0 136.6L300.0 131.1L302.7 130.2L302.7 132.0L303.6 132.9Z"/><circle class="capital" cx="299.3" cy="258.2" r="6"/></svg>