<svg xmlns="http://www.w3.org/2000/svg" viewBox="0 0 400 400" class="pref-shape" data-mapno="12" data-name="千葉県" role="img" aria-label="千葉県の形"><style>.pref-shape path{fill:#FFFFFF;stroke:#1E293B;stroke-width:1.1;stroke-linejoin:round}.pref-shape.is-active path{fill:#0D9488}.pref-shape.is-correct path{fill:#16A34A}.pref-shape .capital{fill:#DC2626;stroke:#FFFFFF;stroke-width:1.5}</style><path d="M75.0 31.6L77.9 28.0L83.0 38.9L97.4 53.3L100.3 61.3L111.9 67.0L111.2 72.1L113.3 75.0L125.6 83.6L131.4 83.6L145.1 93.0L148.0 90.9L155.9 93.8L163.2 103.1L175.4 97.4L184.1 99.5L192.8 93.8L201.4 96.6L212.3 86.5L231.8 82.2L233.9 78.6L244.1 85.1L240.4 78.6L242.6 77.9L246.2 69.9L267.2 85.8L274.4 98.1L291.0 103.9L296.8 116.1L301.1 120.4L317.7 132.7L327.8 131.2L330.0 138.4L328.6 145.6L324.2 144.9L320.6 139.9L299.0 146.4L291.7 143.5L279.5 147.1L242.6 178.7L228.2 200.3L219.5 224.0L218.1 234.0L219.5 249.8L223.8 256.2L220.2 265.5L220.2 270.6L222.4 272.0L215.2 292.0L208.7 292.0L202.2 304.2L200.0 304.9L200.0 301.3L197.1 300.6L192.1 306.3L190.6 304.2L184.8 304.9L181.9 310.6L174.0 312.0L171.8 307.0L169.7 309.9L163.9 308.5L155.9 310.6L151.6 315.6L150.9 321.3L145.8 324.2L146.5 325.6L136.4 328.5L122.7 339.9L118.4 352.7L119.1 359.9L114.0 366.3L101.0 372.0L96.7 369.9L89.5 370.6L86.6 368.4L86.6 362.7L83.7 359.9L70.0 353.5L70.0 349.9L85.2 349.9L86.6 345.6L90.2 345.6L91.7 347.8L94.5 342.8L92.4 336.3L83.0 332.0L86.6 332.8L88.0 330.6L85.2 324.9L90.9 318.5L89.5 314.9L86.6 314.9L90.2 306.3L84.4 299.2L85.9 296.3L84.4 292.7L88.0 285.6L96.0 281.3L96.0 271.3L91.7 266.3L93.1 262.7L90.2 259.8L76.5 254.1L85.2 253.4L84.4 251.2L90.2 248.4L85.9 245.5L89.5 241.2L91.7 244.8L93.8 243.3L90.2 239.7L91.7 236.9L102.5 241.9L101.0 238.3L105.4 238.3L103.2 236.9L108.3 234.7L103.2 226.8L104.7 220.4L115.5 217.5L118.4 212.5L119.1 215.4L116.2 214.6L116.9 216.8L121.3 216.1L119.1 210.3L123.4 208.2L124.9 214.6L127.0 213.2L124.9 209.6L127.0 211.1L128.5 206.7L132.8 210.3L129.9 205.3L132.1 201.7L135.7 202.4L132.8 200.3L135.0 197.4L137.2 198.8L135.7 196.7L138.6 192.4L141.5 192.4L140.0 190.9L141.5 188.8L144.4 186.6L150.9 190.2L147.3 187.4L148.7 185.2L154.5 186.6L148.7 182.3L156.7 180.9L147.3 180.9L146.5 175.9L151.6 176.6L153.8 180.2L154.5 173.7L151.6 174.4L151.6 171.5L150.9 174.4L148.0 173.7L150.9 170.8L146.5 168.7L145.1 169.4L146.5 173.7L130.7 155.7L124.2 156.4L127.8 155.0L127.8 153.6L124.2 154.3L123.4 152.1L125.6 151.4L123.4 150.0L124.2 146.4L123.4 149.2L117.7 150.0L116.2 147.1L117.7 150.0L116.2 152.1L114.8 149.2L111.2 151.4L111.2 152.8L114.8 152.1L108.3 156.4L113.3 160.8L106.1 165.1L103.9 163.6L105.4 165.8L103.2 167.9L102.5 165.1L101.0 166.5L97.4 165.1L101.8 149.2L105.4 148.5L108.3 144.2L103.2 136.3L103.9 131.2L99.6 125.5L102.5 121.2L101.0 106.7L103.9 95.9L101.0 87.3L95.3 77.2L92.4 75.7L88.8 66.3L86.6 65.6L83.7 58.4L85.2 48.3L78.7 41.0L75.8 33.1L75.0 31.6Z"/><circle class="capital" cx="155.9" cy="171.0" r="6"/></svg>