<svg xmlns="http://www.w3.org/2000/svg" viewBox="0 0 400 400" class="pref-shape" data-mapno="13" data-name="東京都" role="img" aria-label="東京都の形"><style>.pref-shape path{fill:#FFFFFF;stroke:#1E293B;stroke-width:1.1;stroke-linejoin:round}.pref-shape.is-active path{fill:#0D9488}.pref-shape.is-correct path{fill:#16A34A}.pref-shape .capital{fill:#DC2626;stroke:#FFFFFF;stroke-width:1.5}</style><path d="M87.7 40.1L88.4 35.9L93.4 32.3L101.3 31.6L103.4 28.0L106.3 28.0L112.7 33.7L135.6 38.0L143.5 43.7L149.2 42.3L153.5 45.1L168.5 45.1L171.4 49.4L173.5 48.7L175.7 57.3L186.4 58.0L186.4 61.6L188.6 61.6L187.8 63.7L190.7 65.8L202.9 65.1L211.4 60.9L215.0 61.6L225.7 53.7L224.3 58.0L225.7 60.9L220.0 65.1L227.2 63.0L226.5 68.7L236.5 61.6L240.1 63.0L238.6 64.4L244.3 65.1L244.3 61.6L248.6 55.9L260.1 55.1L270.1 58.7L270.8 60.9L275.1 58.7L274.4 52.3L278.7 50.9L280.8 53.7L284.4 53.7L290.1 51.6L290.1 56.6L293.7 55.1L298.0 58.0L301.6 56.6L303.0 57.3L301.6 60.1L306.6 60.9L303.7 65.8L308.0 71.6L307.3 76.5L312.3 84.4L309.4 88.7L305.9 89.4L305.1 97.2L301.6 101.5L294.4 100.1L294.4 102.9L290.1 102.9L293.0 102.2L293.0 100.1L286.5 100.8L284.4 106.5L280.1 101.5L281.5 102.2L284.4 97.9L280.1 100.8L283.7 97.2L278.7 99.4L276.5 96.5L272.2 115.0L274.4 122.9L281.5 120.7L287.3 130.0L283.0 132.8L275.1 127.8L262.2 130.0L262.9 125.7L257.2 122.9L254.4 115.7L243.6 108.6L234.3 106.5L224.3 100.8L222.2 100.1L221.5 102.9L215.0 107.2L215.7 110.8L207.2 105.1L205.0 110.8L208.6 110.0L217.9 119.3L213.6 123.6L212.9 116.4L208.6 122.1L210.7 122.9L212.9 130.0L212.9 134.9L210.7 137.1L212.2 139.2L208.6 139.9L206.4 132.8L192.8 116.4L179.3 110.8L170.0 110.8L165.7 108.6L162.1 111.5L156.4 110.8L148.5 97.9L142.1 99.4L139.2 97.9L137.8 92.9L131.3 92.2L125.6 87.2L117.0 85.1L107.0 78.7L97.0 64.4L94.1 46.6L89.8 45.1L89.1 41.6L87.7 40.1ZM202.1 372.0L192.1 370.6L183.5 365.7L181.4 351.6L181.4 342.4L183.5 338.2L195.7 341.7L200.7 345.9L204.3 355.1L202.9 365.0L204.3 367.1L202.1 370.6L202.1 372.0Z"/><circle class="capital" cx="260.2" cy="86.8" r="6"/></svg>