<svg xmlns="http://www.w3.org/2000/svg" viewBox="0 0 400 400" class="pref-shape" data-mapno="14" data-name="神奈川県" role="img" aria-label="神奈川県の形"><style>.pref-shape path{fill:#FFFFFF;stroke:#1E293B;stroke-width:1.1;stroke-linejoin:round}.pref-shape.is-active path{fill:#0D9488}.pref-shape.is-correct path{fill:#16A34A}.pref-shape .capital{fill:#DC2626;stroke:#FFFFFF;stroke-width:1.5}</style><path d="M112.8 71.9L118.8 74.3L123.7 73.1L126.1 81.6L131.0 84.0L139.4 80.3L145.5 84.0L146.7 93.6L155.2 103.3L164.9 104.5L164.9 102.1L170.9 99.6L178.2 103.3L193.9 103.3L213.3 112.9L217.0 112.9L218.2 117.7L220.6 117.7L227.9 128.6L240.0 140.6L238.8 144.2L241.2 144.2L243.6 152.7L249.7 151.5L247.2 147.9L250.9 144.2L248.5 126.2L243.6 122.6L247.2 115.3L250.9 112.9L249.7 120.1L252.1 125.0L259.4 117.7L254.5 115.3L247.2 105.7L244.8 105.7L243.6 102.1L237.5 103.3L236.3 100.9L242.4 93.6L249.7 102.1L255.7 103.3L254.5 97.2L265.4 90.0L264.2 87.6L266.6 85.2L279.9 90.0L287.2 96.0L300.5 98.4L316.3 110.5L321.1 111.7L326.0 123.8L335.7 128.6L333.2 133.4L334.5 135.8L356.3 132.2L369.6 140.6L368.4 144.2L372.0 145.4L369.6 150.3L365.9 147.9L363.5 149.1L363.5 146.7L362.3 147.9L359.9 144.2L361.1 143.0L353.8 138.2L356.3 140.6L355.0 143.0L356.3 140.6L359.9 147.9L355.0 150.3L352.6 145.4L353.8 143.0L349.0 146.7L352.6 146.7L353.8 150.3L347.8 153.9L346.6 147.9L349.0 146.7L346.6 147.9L344.1 145.4L346.6 147.9L342.9 150.3L345.4 149.1L346.6 153.9L341.7 156.3L339.3 152.7L342.9 150.3L338.1 152.7L341.7 157.5L333.2 161.1L333.2 158.7L329.6 156.3L330.8 162.3L327.2 164.7L327.2 167.1L322.3 169.5L322.3 164.7L312.6 165.9L310.2 170.7L307.8 169.5L307.8 171.9L310.2 170.7L307.8 176.8L312.6 178.0L313.9 175.5L315.1 176.8L312.6 179.2L315.1 180.4L317.5 176.8L318.7 179.2L321.1 178.0L317.5 180.4L318.7 181.6L322.3 176.8L322.3 182.8L324.8 180.4L327.2 181.6L324.8 186.4L326.0 187.6L328.4 181.6L330.8 182.8L327.2 191.2L324.8 190.0L326.0 197.2L322.3 200.8L321.1 197.2L305.4 197.2L306.6 199.6L312.6 199.6L309.0 202.0L305.4 200.8L304.2 205.6L309.0 205.6L305.4 208.0L307.8 210.4L312.6 206.8L316.3 208.0L312.6 212.8L317.5 215.2L317.5 217.6L315.1 217.6L317.5 229.7L310.2 229.7L309.0 234.5L304.2 234.5L307.8 236.9L307.8 239.3L310.2 236.9L307.8 238.1L307.8 234.5L310.2 236.9L311.4 234.5L313.9 236.9L318.7 235.7L318.7 239.3L315.1 239.3L312.6 245.3L309.0 244.1L311.4 247.7L307.8 248.9L307.8 252.5L312.6 250.1L316.3 257.3L319.9 257.3L317.5 254.9L318.7 252.5L319.9 254.9L318.7 250.1L323.5 248.9L326.0 252.5L323.5 257.3L326.0 256.1L324.8 259.7L328.4 260.9L330.8 265.7L346.6 265.7L346.6 268.1L351.4 269.3L352.6 271.7L344.1 278.9L340.5 275.3L345.4 281.3L345.4 286.1L341.7 283.7L339.3 287.3L342.9 288.5L344.1 292.1L333.2 292.1L317.5 304.1L316.3 308.9L319.9 317.3L326.0 317.3L326.0 325.7L323.5 326.9L321.1 323.3L318.7 323.3L319.9 325.7L317.5 326.9L313.9 324.5L313.9 326.9L310.2 325.7L306.6 328.1L304.2 324.5L301.7 326.9L299.3 325.7L301.7 320.9L298.1 318.5L303.0 318.5L300.5 317.3L301.7 316.1L299.3 317.3L299.3 314.9L305.4 316.1L305.4 313.7L301.7 313.7L301.7 301.7L294.5 299.3L299.3 294.5L298.1 292.1L304.2 293.3L305.4 289.7L304.2 287.3L296.9 286.1L295.7 278.9L286.0 271.7L286.0 266.9L282.4 265.7L282.4 257.3L284.8 256.1L283.6 252.5L276.3 252.5L273.9 245.3L270.3 245.3L265.4 248.9L252.1 245.3L248.5 247.7L250.9 250.1L247.2 251.3L247.2 244.1L231.5 240.5L190.3 244.1L157.6 253.7L143.1 259.7L120.1 278.9L118.8 277.7L114.0 304.1L117.6 311.3L115.2 314.9L116.4 319.7L122.5 322.1L123.7 325.7L120.1 325.7L112.8 320.9L109.2 320.9L104.3 325.7L94.6 325.7L91.0 323.3L72.8 320.9L71.6 308.9L55.9 296.9L51.0 271.7L51.0 268.1L59.5 254.9L63.1 254.9L68.0 235.7L64.3 226.1L66.8 221.3L64.3 221.3L60.7 210.4L61.9 202.0L54.6 199.6L28.0 202.0L34.1 191.2L32.8 184.0L36.5 178.0L47.4 170.7L52.2 170.7L57.1 165.9L71.6 163.5L77.7 155.1L78.9 149.1L84.9 150.3L94.6 147.9L105.5 135.8L104.3 129.8L111.6 123.8L110.4 114.1L107.9 112.9L111.6 109.3L111.6 99.6L114.0 98.4L109.2 94.8L110.4 85.2L106.7 80.3L111.6 71.9L112.8 71.9Z"/><circle class="capital" cx="311.5" cy="178.8" r="6"/></svg>