<svg xmlns="http://www.w3.org/2000/svg" viewBox="0 0 400 400" class="pref-shape" data-mapno="15" data-name="新潟県" role="img" aria-label="新潟県の形"><style>.pref-shape path{fill:#FFFFFF;stroke:#1E293B;stroke-width:1.1;stroke-linejoin:round}.pref-shape.is-active path{fill:#0D9488}.pref-shape.is-correct path{fill:#16A34A}.pref-shape .capital{fill:#DC2626;stroke:#FFFFFF;stroke-width:1.5}</style><path d="M317.1 28.0L324.5 33.8L328.2 33.3L332.9 37.1L343.1 39.1L340.8 59.3L343.1 58.8L344.5 63.1L350.6 66.5L357.1 66.0L362.2 68.4L369.6 78.0L369.6 81.4L363.6 89.5L352.9 97.2L341.7 94.3L339.4 95.3L337.1 101.5L338.9 112.0L335.7 119.2L338.5 119.7L338.5 123.1L332.9 127.4L328.7 151.2L333.3 159.8L337.1 162.7L342.2 161.7L345.9 168.4L333.3 180.3L332.4 185.1L328.2 188.9L328.7 192.7L317.1 200.3L317.1 207.5L320.3 214.1L320.3 221.3L323.6 223.6L322.6 226.0L319.8 227.9L316.1 226.0L306.8 227.9L303.1 225.1L298.9 226.0L294.2 236.0L289.1 234.1L284.9 236.5L268.2 238.3L264.5 245.0L270.5 251.6L270.0 257.8L267.3 259.7L268.6 262.5L266.8 268.7L259.3 278.2L264.5 286.2L268.2 283.4L272.8 291.9L270.0 300.8L273.8 313.6L271.4 319.7L272.8 327.3L271.0 333.9L269.1 330.1L265.4 331.0L261.7 329.2L260.7 322.6L249.6 311.7L248.2 318.8L241.7 324.9L230.0 326.8L231.9 343.3L224.4 342.8L222.1 350.8L224.0 354.1L213.3 357.9L208.1 357.0L208.1 366.8L204.9 367.3L203.5 370.6L193.7 366.8L190.5 372.0L185.3 364.5L189.1 358.8L186.7 356.0L188.1 348.5L178.8 344.7L177.9 340.9L173.2 338.6L172.8 324.9L170.0 318.8L162.1 316.9L143.9 323.0L136.5 337.6L132.7 336.7L129.5 339.1L128.1 351.3L125.8 352.2L123.0 347.1L116.9 347.1L109.9 351.8L102.0 350.8L92.7 360.2L85.3 355.1L89.9 343.3L87.1 342.8L87.1 340.9L83.9 339.5L79.2 340.9L73.2 337.6L69.5 339.5L64.8 338.6L66.7 347.5L59.7 358.4L49.4 366.4L47.6 358.8L44.3 355.1L45.3 349.4L42.0 342.8L41.5 332.9L35.0 332.0L30.4 326.3L74.1 309.8L84.3 301.3L92.7 298.0L98.8 290.4L107.2 292.3L117.4 290.9L122.0 288.6L123.0 283.8L122.5 288.6L150.4 261.6L168.1 251.6L177.4 231.7L191.9 217.5L197.0 208.9L207.2 174.1L214.7 164.6L245.4 142.7L269.6 135.0L290.5 113.5L298.9 100.1L302.2 88.1L300.8 87.1L303.1 58.3L317.1 29.0L317.1 28.0ZM121.6 171.3L115.5 167.5L117.4 164.6L122.0 164.6L125.8 161.7L128.6 153.2L126.7 151.7L127.6 148.9L136.5 140.7L136.0 137.9L130.0 132.6L126.2 133.1L123.0 140.3L119.3 137.9L120.2 132.1L117.9 131.2L120.6 127.8L121.1 117.3L128.6 108.2L133.7 95.8L140.7 91.9L145.3 85.2L147.2 86.2L150.9 83.3L153.7 72.7L162.1 70.3L158.8 94.8L152.3 105.8L150.0 117.3L157.4 122.1L169.1 116.8L170.9 121.6L159.7 148.9L154.6 154.1L139.3 165.6L130.9 166.5L122.0 171.3L121.6 171.3Z"/><circle class="capital" cx="238.4" cy="152.4" r="6"/></svg>