<svg xmlns="http://www.w3.org/2000/svg" viewBox="0 0 400 400" class="pref-shape" data-mapno="16" data-name="富山県" role="img" aria-label="富山県の形"><style>.pref-shape path{fill:#FFFFFF;stroke:#1E293B;stroke-width:1.1;stroke-linejoin:round}.pref-shape.is-active path{fill:#0D9488}.pref-shape.is-correct path{fill:#16A34A}.pref-shape .capital{fill:#DC2626;stroke:#FFFFFF;stroke-width:1.5}</style><path d="M327.9 47.7L334.4 53.1L338.7 60.7L350.5 64.0L353.7 62.9L356.9 71.6L354.8 85.8L361.2 93.4L362.3 113.0L360.2 114.0L367.7 122.7L367.7 134.7L372.0 139.0L367.7 146.6L369.8 149.9L367.7 167.3L372.0 183.5L368.8 186.8L369.8 189.0L365.5 204.1L368.8 213.9L367.7 217.1L359.1 218.2L346.2 228.0L345.1 238.8L353.7 239.9L351.6 247.5L348.3 250.7L341.9 248.6L339.8 250.7L338.7 257.2L334.4 259.4L334.4 272.4L329.0 277.8L329.0 284.3L326.9 287.5L318.2 289.7L317.2 296.2L312.9 302.6L306.4 301.6L302.1 303.7L294.6 301.6L288.1 296.2L282.8 287.5L272.0 287.5L267.7 292.9L263.4 290.8L262.3 292.9L245.1 283.2L243.0 272.4L233.3 276.7L232.2 282.1L229.0 284.3L218.3 287.5L214.0 284.3L217.2 276.7L217.2 272.4L215.0 271.3L211.8 273.5L204.3 270.2L196.8 275.6L193.5 271.3L188.2 278.9L181.7 281.0L181.7 285.4L180.6 284.3L179.6 286.4L174.2 274.5L168.8 276.7L163.4 273.5L157.0 278.9L150.5 290.8L146.2 291.8L145.2 296.2L139.8 299.4L140.9 304.8L135.5 304.8L128.0 310.2L128.0 316.7L124.7 322.1L128.0 323.2L125.8 328.6L120.4 334.0L115.1 332.9L111.8 343.7L103.2 346.9L98.9 352.3L93.6 350.2L97.9 335.1L89.3 321.0L75.3 314.5L67.8 323.2L64.5 323.2L63.5 312.4L61.3 319.9L57.0 321.0L53.8 318.9L51.6 321.0L52.7 326.4L49.5 338.3L40.9 338.3L35.5 341.5L33.4 323.2L40.9 314.5L36.6 298.3L31.2 291.8L28.0 291.8L28.0 285.4L37.7 278.9L34.4 275.6L37.7 272.4L36.6 267.0L39.8 259.4L36.6 256.1L36.6 251.8L44.1 232.3L38.7 224.7L35.5 225.8L36.6 217.1L34.4 215.0L33.4 199.8L38.7 196.6L40.9 189.0L45.2 182.5L47.3 182.5L46.3 175.9L42.0 174.9L43.0 167.3L34.4 160.8L37.7 156.4L45.2 155.3L47.3 151.0L51.6 149.9L57.0 139.0L53.8 133.6L57.0 128.2L55.9 120.6L59.2 114.0L58.1 108.6L61.3 104.3L60.2 99.9L66.7 93.4L67.8 89.0L65.6 79.2L67.8 76.0L72.1 71.6L78.5 69.4L83.9 60.7L91.4 58.6L97.9 62.9L101.1 60.7L103.2 53.1L109.7 56.4L120.4 53.1L125.8 56.4L117.2 66.2L119.4 71.6L109.7 86.9L107.5 86.9L102.2 94.5L106.5 105.3L125.8 121.7L126.9 124.9L138.7 133.6L147.3 133.6L147.3 136.9L144.1 135.8L139.8 139.0L144.1 139.0L146.2 142.3L153.8 144.5L154.9 143.4L148.4 139.0L150.5 134.7L154.9 136.9L153.8 135.8L152.7 137.9L169.9 144.5L173.1 144.5L174.2 142.3L187.1 142.3L189.2 141.2L188.2 140.1L212.9 144.5L211.8 143.4L222.6 142.3L231.2 131.4L244.1 122.7L244.1 116.2L246.2 109.7L250.5 105.3L249.4 98.8L252.7 92.3L249.4 83.6L253.7 73.8L258.0 69.4L282.8 57.5L306.4 55.3L310.7 50.9L323.6 48.8L327.9 47.7Z"/><circle class="capital" cx="180.9" cy="170.7" r="6"/></svg>