<svg xmlns="http://www.w3.org/2000/svg" viewBox="0 0 400 400" class="pref-shape" data-mapno="17" data-name="石川県" role="img" aria-label="石川県の形"><style>.pref-shape path{fill:#FFFFFF;stroke:#1E293B;stroke-width:1.1;stroke-linejoin:round}.pref-shape.is-active path{fill:#0D9488}.pref-shape.is-correct path{fill:#16A34A}.pref-shape .capital{fill:#DC2626;stroke:#FFFFFF;stroke-width:1.5}</style><path d="M247.0 163.3L234.7 161.5L231.8 166.9L228.3 164.5L224.2 165.7L221.3 170.4L215.5 174.0L214.9 183.4L211.4 187.0L209.0 198.2L207.9 205.2L209.6 208.2L206.7 214.1L197.4 220.0L202.0 223.5L201.5 227.6L203.8 228.2L204.4 231.8L196.8 241.2L198.0 255.3L199.7 254.7L202.6 258.8L198.5 269.4L200.3 273.5L197.4 282.4L199.1 284.1L193.9 287.6L193.9 291.2L198.5 294.7L200.9 303.5L196.8 308.2L198.0 318.1L202.6 325.8L205.5 325.8L209.6 329.9L199.1 347.4L193.3 350.4L195.6 357.4L191.0 367.9L174.0 372.0L170.5 365.6L164.1 362.1L162.9 358.0L153.0 351.5L144.8 353.9L140.2 350.9L134.9 356.2L130.2 354.5L126.2 348.0L115.1 348.6L111.0 341.0L111.6 334.6L105.7 327.5L99.9 326.4L95.2 318.7L100.5 314.6L105.7 305.8L114.5 302.3L129.7 287.6L162.9 243.5L181.6 211.7L191.0 189.3L193.3 172.8L189.8 170.4L193.9 162.7L193.9 155.6L188.6 150.3L189.8 146.8L185.1 140.8L185.7 122.5L182.8 118.9L178.7 121.9L175.2 118.9L176.9 105.3L180.4 102.3L181.0 97.0L185.1 93.4L187.5 86.3L185.1 78.0L188.0 72.0L189.8 73.2L191.5 67.9L199.7 65.5L208.5 59.0L217.8 57.8L219.0 60.1L223.1 60.7L242.9 51.8L245.8 47.6L250.5 46.5L254.6 41.1L262.2 36.9L276.2 34.6L286.1 28.6L298.9 29.2L303.0 35.1L301.3 39.3L304.8 47.6L301.3 50.0L295.4 51.2L291.9 49.4L285.5 51.8L282.0 66.1L284.3 70.8L287.3 69.7L284.9 73.8L287.3 74.4L287.3 76.8L282.6 82.7L280.8 80.9L281.4 83.9L266.8 83.3L265.7 81.5L266.2 84.5L264.5 83.3L259.2 85.7L255.7 88.1L255.2 93.4L251.7 96.4L249.9 102.9L242.3 105.9L243.5 107.7L241.7 110.0L238.8 110.6L233.6 105.9L230.6 105.9L228.9 102.3L227.1 102.9L229.5 98.2L226.6 101.1L223.1 98.8L224.8 101.1L223.1 102.3L221.3 100.5L219.6 102.9L224.2 105.3L223.6 107.1L219.6 105.9L220.7 108.2L213.1 120.1L218.4 121.9L217.2 127.8L215.5 126.6L210.8 129.0L213.1 133.1L210.8 136.7L218.4 137.3L219.6 133.1L224.2 133.1L226.6 134.3L226.0 137.9L230.1 137.9L230.1 142.0L234.1 142.6L238.8 139.7L241.7 129.6L248.2 128.4L246.4 130.8L245.8 145.0L247.0 162.7L247.0 163.3ZM227.1 132.5L226.6 127.8L219.6 122.5L219.6 117.7L223.6 120.1L223.1 123.1L226.0 119.5L227.7 121.3L230.1 119.5L233.0 120.7L231.2 117.7L238.8 121.9L241.7 120.1L244.1 114.2L245.8 115.4L247.6 118.9L244.7 121.3L246.4 123.1L244.7 126.6L241.7 127.8L238.8 125.4L238.2 127.8L236.5 126.0L233.0 130.8L230.6 129.6L227.7 131.4L227.1 132.5Z"/><circle class="capital" cx="167.0" cy="249.1" r="6"/></svg>