<svg xmlns="http://www.w3.org/2000/svg" viewBox="0 0 400 400" class="pref-shape" data-mapno="18" data-name="福井県" role="img" aria-label="福井県の形"><style>.pref-shape path{fill:#FFFFFF;stroke:#1E293B;stroke-width:1.1;stroke-linejoin:round}.pref-shape.is-active path{fill:#0D9488}.pref-shape.is-correct path{fill:#16A34A}.pref-shape .capital{fill:#DC2626;stroke:#FFFFFF;stroke-width:1.5}</style><path d="M225.9 53.8L229.0 56.1L232.1 63.9L239.8 65.4L243.7 69.3L243.7 72.4L247.5 74.7L246.8 83.3L252.2 93.3L266.9 92.6L272.3 101.1L278.5 103.4L285.4 96.4L291.6 100.3L302.4 97.2L305.5 101.1L315.6 105.7L317.1 111.1L325.6 115.8L330.3 124.3L352.7 118.9L355.0 124.3L347.3 129.7L348.0 138.2L345.7 146.8L351.9 148.3L352.7 158.3L362.0 161.4L360.4 168.4L367.4 172.3L369.7 176.9L371.2 191.6L368.1 193.9L365.0 193.1L361.2 207.0L358.1 207.0L355.8 203.9L349.6 206.2L344.9 203.9L341.1 209.3L333.3 208.5L329.5 211.6L325.6 204.7L321.0 207.8L320.2 210.9L314.0 207.0L311.7 207.8L310.9 211.6L307.1 213.9L295.5 210.1L290.8 221.6L286.2 213.9L273.1 214.7L262.2 209.3L256.8 209.3L245.2 217.0L246.0 232.4L237.5 240.1L239.0 244.0L235.2 250.2L222.8 242.5L218.2 243.2L211.2 236.3L202.7 237.8L198.8 247.8L201.9 248.6L208.9 269.4L206.6 273.3L207.3 278.6L193.4 273.3L191.1 290.2L185.7 286.3L182.6 290.2L177.2 287.9L171.8 289.4L167.9 299.4L160.2 302.5L150.1 292.5L144.0 307.8L143.2 319.4L140.1 320.9L137.0 328.6L130.8 330.9L128.5 329.3L128.5 325.5L118.4 325.5L116.9 334.0L113.0 333.2L107.6 342.4L93.7 343.2L90.6 346.2L75.9 339.3L48.9 336.3L47.3 323.2L43.5 321.7L41.1 323.2L37.3 314.0L30.3 308.6L34.2 302.5L34.2 296.3L28.0 291.7L30.3 284.0L37.3 280.9L32.6 289.4L35.7 287.9L35.7 291.7L38.0 289.4L41.1 291.7L42.7 287.1L39.6 286.3L40.4 282.5L45.0 283.3L42.7 298.6L48.9 301.7L53.5 299.4L55.1 301.7L59.7 300.9L59.7 298.6L70.5 292.5L73.6 287.1L80.6 284.0L80.6 288.6L82.9 290.9L78.2 289.4L72.8 291.7L75.9 292.5L74.4 294.0L75.9 296.3L72.1 301.7L64.3 300.2L60.5 301.7L68.2 304.8L71.3 303.2L73.6 305.5L79.0 305.5L81.3 300.2L84.4 302.5L90.6 300.9L92.9 304.0L101.4 298.6L103.0 289.4L106.1 289.4L105.3 287.1L102.2 288.6L101.4 287.1L95.3 292.5L94.5 286.3L87.5 284.8L94.5 277.1L100.7 277.1L104.5 285.6L108.4 284.0L106.1 283.3L106.8 280.9L113.8 285.6L111.5 287.1L114.6 290.9L116.1 288.6L118.4 290.2L118.4 287.1L123.9 287.9L121.5 282.5L115.4 277.1L117.7 277.1L117.7 274.8L125.4 279.4L129.3 269.4L125.4 265.6L123.1 267.1L124.6 261.7L121.5 260.9L120.8 258.6L123.1 257.9L120.8 256.3L118.4 257.9L119.2 254.8L126.2 257.1L126.9 260.9L130.0 260.9L129.3 263.2L131.6 265.6L136.2 262.5L138.5 264.8L138.5 261.7L141.6 260.2L142.4 264.0L145.5 264.8L150.1 262.5L152.5 257.9L155.6 260.9L160.2 258.6L161.7 255.5L158.6 250.9L156.3 250.9L159.4 238.6L157.9 234.0L155.6 237.1L154.0 236.3L153.2 230.9L169.5 217.8L172.6 220.9L174.1 225.5L170.2 222.4L175.6 235.5L175.6 240.1L174.1 239.4L171.0 243.2L175.6 246.3L175.6 250.2L181.1 250.2L179.5 249.4L184.2 247.8L184.2 244.0L182.6 244.0L186.5 241.7L184.9 236.3L189.6 230.1L186.5 224.7L189.6 224.0L190.3 213.9L182.6 199.3L164.8 181.5L164.1 165.3L154.8 150.6L156.3 146.0L167.9 135.1L171.8 115.8L176.4 111.9L178.7 105.7L188.8 97.2L193.4 81.7L193.4 85.6L197.3 86.4L197.3 81.7L196.5 84.0L195.0 83.3L198.8 76.3L195.7 72.4L198.1 70.8L195.7 67.7L203.5 67.0L205.0 68.5L223.6 56.9L225.9 53.8Z"/><circle class="capital" cx="220.3" cy="125.3" r="6"/></svg>