<svg xmlns="http://www.w3.org/2000/svg" viewBox="0 0 400 400" class="pref-shape" data-mapno="19" data-name="山梨県" role="img" aria-label="山梨県の形"><style>.pref-shape path{fill:#FFFFFF;stroke:#1E293B;stroke-width:1.1;stroke-linejoin:round}.pref-shape.is-active path{fill:#0D9488}.pref-shape.is-correct path{fill:#16A34A}.pref-shape .capital{fill:#DC2626;stroke:#FFFFFF;stroke-width:1.5}</style><path d="M224.8 55.0L227.0 57.2L242.1 59.3L246.5 62.6L247.5 70.1L252.9 72.3L254.0 75.5L269.1 74.4L270.2 77.7L272.4 76.6L282.1 85.2L287.5 79.8L294.0 80.9L299.4 78.7L302.6 86.3L306.9 89.5L309.1 88.5L309.1 100.3L314.5 111.1L313.4 115.4L328.6 136.9L343.7 146.6L356.6 149.9L365.3 157.4L359.9 164.9L363.1 169.2L362.0 177.8L366.4 181.1L364.2 182.2L364.2 190.8L361.0 194.0L363.1 195.1L364.2 203.7L357.7 209.0L358.8 214.4L349.1 225.1L340.4 227.3L335.0 226.2L334.0 231.6L328.6 239.1L315.6 241.3L311.3 245.6L306.9 245.6L297.2 252.0L294.0 257.4L295.1 263.8L289.7 273.5L274.5 281.0L271.3 277.7L265.9 277.7L257.3 284.2L250.8 283.1L207.6 291.7L202.2 273.5L183.8 275.6L179.5 260.6L174.1 254.1L165.4 258.4L165.4 261.7L156.8 269.2L157.9 277.7L154.6 282.0L157.9 302.4L149.2 309.9L152.5 321.7L150.3 331.3L156.8 348.5L154.6 351.7L156.8 358.1L151.4 359.2L142.7 372.0L137.3 367.7L124.4 367.7L121.1 366.7L116.8 359.2L113.6 357.0L110.3 358.1L109.3 356.0L106.0 338.8L99.5 329.2L98.5 320.6L100.6 315.3L96.3 308.8L92.0 308.8L85.5 304.5L74.7 308.8L70.4 314.2L66.0 309.9L61.7 309.9L57.4 302.4L60.6 299.2L58.5 289.5L52.0 285.3L52.0 283.1L60.6 270.2L60.6 254.1L56.3 249.8L59.6 245.6L61.7 228.4L65.0 224.1L61.7 217.6L61.7 208.0L56.3 203.7L54.2 195.1L56.3 191.8L55.2 185.4L53.1 185.4L54.2 178.9L50.9 176.8L50.9 168.2L47.7 169.2L39.0 157.4L39.0 146.6L33.6 139.1L49.8 121.9L53.1 120.8L53.1 118.6L43.4 110.0L35.8 106.8L35.8 104.6L38.0 99.2L42.3 96.0L42.3 90.6L54.2 66.9L57.4 64.7L70.4 76.6L84.4 58.2L90.9 46.4L90.9 42.0L96.3 37.7L100.6 28.0L124.4 36.6L129.8 42.0L126.5 49.6L129.8 59.3L130.9 57.2L135.2 60.4L141.7 60.4L143.8 53.9L146.0 53.9L148.1 49.6L155.7 52.8L164.4 50.7L171.9 53.9L177.3 50.7L183.8 55.0L181.6 61.5L183.8 70.1L187.0 72.3L190.3 70.1L192.4 72.3L200.0 69.0L206.5 72.3L209.7 62.6L217.3 55.0L221.6 56.1L224.8 55.0Z"/><circle class="capital" cx="168.9" cy="160.4" r="6"/></svg>