<svg xmlns="http://www.w3.org/2000/svg" viewBox="0 0 400 400" class="pref-shape" data-mapno="2" data-name="青森県" role="img" aria-label="青森県の形"><style>.pref-shape path{fill:#FFFFFF;stroke:#1E293B;stroke-width:1.1;stroke-linejoin:round}.pref-shape.is-active path{fill:#0D9488}.pref-shape.is-correct path{fill:#16A34A}.pref-shape .capital{fill:#DC2626;stroke:#FFFFFF;stroke-width:1.5}</style><path d="M372.0 308.1L366.7 313.7L353.8 319.3L353.2 327.4L346.2 333.0L340.9 333.0L334.5 326.8L326.9 326.8L323.4 330.5L318.1 329.3L314.6 336.1L309.3 338.0L306.4 334.2L307.0 330.5L303.4 327.4L298.7 329.9L298.7 333.0L295.8 334.9L292.3 333.6L284.7 341.7L269.4 345.4L262.4 350.4L263.0 356.6L257.7 357.3L244.2 366.0L237.8 364.1L233.1 356.0L234.9 349.2L232.5 346.7L237.2 336.7L236.0 333.6L240.1 334.9L242.5 332.4L239.6 316.8L240.7 314.3L223.1 314.9L217.3 311.2L220.8 293.1L209.7 296.9L206.2 308.7L199.7 307.5L196.8 311.2L192.7 311.2L193.3 316.8L186.8 313.7L178.0 319.9L173.9 319.9L172.7 314.9L165.7 311.8L165.7 313.7L159.9 314.3L162.2 320.5L160.4 321.8L153.4 318.1L154.0 313.1L145.2 310.6L145.2 308.1L142.3 306.8L137.6 308.7L137.0 301.2L130.6 302.5L127.6 299.4L120.0 304.3L117.7 311.2L113.0 311.8L111.2 309.3L101.8 310.0L96.6 313.1L94.2 311.2L91.3 312.4L89.5 310.0L83.1 312.4L74.9 311.8L69.6 304.3L64.3 304.3L58.5 308.7L58.5 316.2L53.8 312.4L50.9 314.3L46.8 312.4L42.7 313.7L45.0 298.1L43.8 283.8L39.1 274.4L30.3 275.6L28.0 268.1L36.2 260.0L41.5 260.0L42.7 253.1L43.8 254.4L47.9 250.6L54.4 235.0L66.7 229.4L72.0 234.4L77.8 235.6L91.3 225.6L96.0 226.8L101.3 222.5L111.8 192.4L115.3 160.3L115.3 150.3L112.4 144.6L107.7 140.8L101.8 140.8L101.3 138.3L103.0 136.4L110.6 138.9L113.6 137.7L117.7 125.7L116.5 116.2L118.8 106.1L129.4 112.4L135.8 121.9L142.3 125.7L148.1 124.4L154.0 116.2L156.3 116.9L158.1 114.3L168.1 117.5L175.7 126.3L173.9 145.8L179.2 184.2L183.9 204.3L192.7 213.7L200.9 213.7L206.7 211.2L216.7 199.9L219.0 185.5L212.6 182.9L217.3 182.3L216.7 178.5L219.0 177.3L217.9 175.4L220.8 169.1L225.5 169.7L229.0 173.5L233.7 173.5L240.1 181.7L238.4 188.0L243.1 187.3L251.3 193.0L255.4 193.0L263.0 203.7L267.7 203.7L274.1 199.3L285.3 178.5L290.0 144.0L295.8 132.6L290.0 115.0L278.8 101.7L273.0 102.4L268.3 110.6L273.0 108.0L273.0 105.5L270.6 112.4L253.6 125.7L239.6 121.9L233.1 128.2L226.7 127.6L223.1 130.7L215.5 131.4L207.9 139.5L202.6 138.9L199.1 135.1L199.1 123.2L202.1 116.9L202.1 108.0L206.7 92.9L205.6 90.4L209.7 83.4L212.6 66.3L217.3 63.2L226.1 47.4L224.3 39.8L226.7 34.0L243.7 49.9L256.0 50.5L263.0 54.3L279.4 74.6L293.5 82.1L305.2 82.8L313.4 79.0L331.0 63.8L331.0 70.8L328.6 72.0L330.4 74.6L320.4 108.0L316.9 128.8L318.7 146.5L316.3 190.5L321.6 233.1L328.0 260.6L336.3 280.0L335.1 281.9L339.8 284.4L338.0 286.3L344.5 289.4L352.1 285.6L355.0 291.2L360.9 294.4L365.6 303.1L370.8 307.5L372.0 308.1Z"/><circle class="capital" cx="194.2" cy="215.3" r="6"/></svg>