<svg xmlns="http://www.w3.org/2000/svg" viewBox="0 0 400 400" class="pref-shape" data-mapno="20" data-name="長野県" role="img" aria-label="長野県の形"><style>.pref-shape path{fill:#FFFFFF;stroke:#1E293B;stroke-width:1.1;stroke-linejoin:round}.pref-shape.is-active path{fill:#0D9488}.pref-shape.is-correct path{fill:#16A34A}.pref-shape .capital{fill:#DC2626;stroke:#FFFFFF;stroke-width:1.5}</style><path d="M300.5 83.3L289.7 86.6L287.8 89.5L285.5 88.0L283.6 90.4L279.8 89.5L273.2 92.3L275.6 99.0L267.1 101.3L260.0 110.4L260.0 118.0L255.3 130.8L255.8 140.7L264.8 143.6L265.2 146.4L269.5 146.9L271.8 144.5L276.1 146.9L285.0 142.6L293.5 145.9L294.4 165.8L286.4 170.1L288.3 180.0L291.6 182.8L289.7 185.7L291.6 190.4L287.8 192.3L283.6 189.0L282.6 190.9L286.4 197.0L291.6 197.5L293.0 199.8L293.0 204.1L290.7 205.5L293.0 213.0L291.1 217.3L303.4 225.3L307.1 234.2L305.7 239.4L302.4 239.4L297.7 246.9L294.9 245.5L289.2 246.9L287.4 245.1L287.8 239.4L285.0 237.5L282.6 238.9L272.3 237.1L269.5 241.8L264.3 241.3L262.9 238.5L264.3 233.8L251.6 227.6L238.4 248.8L232.7 243.6L231.3 244.6L223.3 261.0L230.8 268.1L222.4 276.1L228.5 289.2L226.1 291.1L226.6 295.8L223.3 302.3L221.0 300.5L216.7 305.6L219.5 307.5L216.2 311.7L216.2 315.9L220.0 316.9L218.6 323.4L213.4 324.3L213.4 329.0L218.1 335.1L216.7 339.8L211.5 341.6L209.7 345.4L204.9 344.5L201.2 346.8L197.9 352.9L184.7 357.5L181.9 361.7L179.5 360.8L175.7 368.3L161.1 371.1L160.2 368.3L147.0 365.5L143.3 366.4L141.4 370.1L131.0 372.0L131.0 367.8L126.3 361.7L130.1 356.6L128.2 351.5L135.2 346.8L134.3 338.4L130.5 334.6L137.1 336.0L140.0 334.2L133.4 325.7L139.5 321.5L138.1 315.9L139.5 314.0L130.5 307.5L129.6 300.0L124.9 300.0L122.5 297.6L122.1 293.4L126.3 287.8L119.2 280.8L114.1 268.1L102.8 263.9L103.2 260.6L101.3 259.6L94.7 260.1L92.9 256.8L94.3 251.6L98.5 250.7L101.3 242.7L107.0 240.3L113.1 243.2L115.9 242.2L120.2 233.8L123.0 233.3L125.8 225.8L133.8 220.1L136.7 208.3L131.0 206.4L127.7 202.7L127.7 196.0L133.8 190.4L130.5 181.4L142.8 165.3L141.4 158.2L132.9 152.6L132.4 149.2L135.7 143.6L140.4 141.2L145.1 126.5L150.3 125.1L151.3 121.8L147.5 121.3L148.0 116.5L157.4 111.8L156.4 106.1L159.3 97.1L157.4 80.9L169.6 70.0L176.7 59.0L174.8 49.9L179.5 50.9L183.3 49.0L189.4 52.3L190.3 50.9L197.4 52.3L197.4 54.2L200.2 54.7L195.5 66.6L203.1 71.9L212.5 62.3L220.5 63.3L227.5 58.5L233.7 58.5L236.5 63.8L238.9 62.8L240.3 50.4L243.6 48.0L247.3 49.0L254.9 34.2L273.2 28.0L280.3 29.4L284.1 36.1L284.5 49.9L289.2 52.3L290.2 56.1L300.5 61.9L298.2 67.6L300.5 70.4L296.8 75.2L300.5 82.3L300.5 83.3Z"/><circle class="capital" cx="222.7" cy="100.0" r="6"/></svg>