<svg xmlns="http://www.w3.org/2000/svg" viewBox="0 0 400 400" class="pref-shape" data-mapno="21" data-name="岐阜県" role="img" aria-label="岐阜県の形"><style>.pref-shape path{fill:#FFFFFF;stroke:#1E293B;stroke-width:1.1;stroke-linejoin:round}.pref-shape.is-active path{fill:#0D9488}.pref-shape.is-correct path{fill:#16A34A}.pref-shape .capital{fill:#DC2626;stroke:#FFFFFF;stroke-width:1.5}</style><path d="M330.1 47.6L330.7 52.2L336.6 54.2L342.4 60.0L344.4 69.8L327.5 92.0L328.8 97.9L332.0 99.2L332.0 104.4L323.6 112.3L323.6 121.4L328.1 126.6L335.9 129.2L332.0 145.5L321.0 153.3L317.1 163.7L313.2 164.3L307.3 176.0L303.4 177.3L298.9 173.4L295.0 173.4L287.1 176.7L283.9 180.6L283.2 187.7L281.9 189.7L277.4 189.0L275.4 196.2L278.0 200.7L287.1 200.1L289.8 201.4L289.1 205.9L304.7 211.8L311.9 229.3L321.6 239.0L315.8 246.8L316.4 252.6L319.7 255.8L326.2 255.8L327.5 266.2L334.6 269.4L339.8 275.2L337.9 277.8L339.8 285.6L331.4 291.4L340.5 303.0L336.6 305.6L327.5 303.7L332.7 308.8L334.0 320.4L324.2 326.9L324.9 333.3L316.4 333.3L316.4 335.9L297.6 348.8L295.0 344.3L293.0 345.6L287.8 343.7L287.8 339.1L279.3 339.8L279.3 335.9L271.5 331.4L262.4 332.7L261.8 335.9L254.0 340.4L245.5 341.1L242.3 333.3L237.7 334.6L235.1 330.8L228.6 328.8L227.3 331.4L224.7 331.4L220.8 324.3L222.8 322.4L220.2 319.2L216.9 319.2L217.6 312.7L207.8 308.2L205.2 303.0L202.6 302.4L205.2 297.2L199.3 298.5L199.3 303.7L190.9 308.8L184.4 308.8L172.7 314.6L159.0 311.4L149.9 330.1L140.8 342.4L138.2 372.0L135.6 364.9L133.0 363.6L133.0 368.8L127.2 367.5L123.9 360.4L115.5 353.3L108.3 339.8L105.7 341.1L104.4 345.6L95.3 344.9L90.7 350.7L88.1 347.5L84.2 350.1L79.0 346.2L77.1 343.0L81.0 339.8L79.7 332.1L84.2 325.6L86.2 317.2L86.2 315.3L83.6 315.3L84.2 310.8L90.7 306.2L84.2 298.5L86.8 291.4L85.5 286.2L82.3 285.6L79.0 281.0L80.3 275.9L82.9 274.6L81.6 270.0L78.4 269.4L75.8 262.3L70.6 268.8L68.6 264.9L64.7 265.5L65.4 248.0L64.1 246.1L58.2 246.8L55.6 238.3L60.2 231.9L58.9 228.6L66.0 222.1L65.4 209.2L75.1 202.7L79.7 202.7L88.8 207.2L99.8 206.6L103.7 213.0L107.6 203.3L117.4 206.6L120.7 204.6L121.3 201.4L128.5 204.0L133.0 198.8L136.3 204.6L139.5 202.0L146.0 202.7L149.3 198.1L153.2 200.1L158.4 198.1L162.9 200.7L166.2 189.0L168.8 189.7L172.0 185.8L170.1 175.4L168.1 171.5L162.3 168.2L163.6 162.4L155.8 159.8L155.1 151.3L149.9 150.0L151.2 135.7L157.7 131.2L156.4 122.7L161.0 114.9L158.4 107.0L164.9 103.8L176.6 84.2L172.0 79.6L168.8 79.6L163.6 71.2L172.0 69.2L173.3 58.7L179.2 58.1L180.5 53.5L181.1 60.0L187.6 54.8L196.1 58.7L201.3 67.2L198.7 76.4L202.0 77.7L209.8 72.5L211.7 65.9L215.0 66.6L218.2 63.3L219.5 52.2L227.3 48.9L226.7 45.7L241.0 30.0L244.2 31.9L247.5 30.6L250.7 37.8L259.2 28.7L261.1 31.3L265.7 28.0L273.5 29.3L271.5 35.2L272.8 38.5L280.6 36.5L283.2 31.9L289.1 29.3L290.4 35.9L300.8 41.7L304.1 41.7L306.7 38.5L313.2 38.5L320.3 47.0L328.8 47.0L330.1 47.6Z"/><circle class="capital" cx="149.2" cy="305.8" r="6"/></svg>