<svg xmlns="http://www.w3.org/2000/svg" viewBox="0 0 400 400" class="pref-shape" data-mapno="22" data-name="静岡県" role="img" aria-label="静岡県の形"><style>.pref-shape path{fill:#FFFFFF;stroke:#1E293B;stroke-width:1.1;stroke-linejoin:round}.pref-shape.is-active path{fill:#0D9488}.pref-shape.is-correct path{fill:#16A34A}.pref-shape .capital{fill:#DC2626;stroke:#FFFFFF;stroke-width:1.5}</style><path d="M181.2 68.6L183.1 68.0L183.7 69.9L186.3 82.0L185.0 83.9L186.3 89.0L189.5 91.5L191.4 101.0L186.3 116.3L188.8 118.8L188.8 128.3L183.7 135.9L187.6 139.7L188.8 145.4L186.9 147.3L189.5 151.7L194.6 154.3L203.5 148.6L211.2 152.4L211.8 163.1L215.6 168.8L217.6 178.9L222.0 180.8L224.6 185.3L234.1 185.9L237.3 188.4L242.4 180.8L245.6 180.2L241.2 151.7L246.3 147.3L244.4 135.3L246.3 132.7L245.6 127.7L250.7 121.3L255.8 118.8L261.6 131.5L272.4 130.2L275.6 141.0L305.0 136.5L310.1 132.7L315.2 134.6L327.3 129.6L342.0 130.2L341.4 134.6L344.6 140.3L343.3 142.9L345.2 147.9L342.6 158.1L340.7 158.1L336.3 165.0L338.8 180.2L347.1 186.5L347.7 192.8L364.3 195.4L356.7 207.4L358.6 208.6L356.7 210.5L358.0 213.7L355.4 216.2L356.7 218.7L361.8 219.4L361.8 228.8L358.6 230.1L361.2 237.0L366.9 237.7L369.4 242.7L371.4 241.4L372.0 248.4L368.8 261.0L362.4 263.5L357.3 269.8L358.0 274.2L353.5 284.9L350.3 287.4L351.6 288.7L347.7 288.7L344.6 293.1L342.6 292.4L340.1 301.2L336.9 303.7L336.3 312.5L338.8 313.8L336.9 317.6L333.1 317.6L334.3 312.5L331.8 311.9L330.5 315.0L329.2 313.8L329.2 315.7L324.8 317.6L322.2 323.8L319.7 322.0L318.4 325.1L310.7 327.6L309.5 330.7L305.6 329.5L302.4 323.8L299.2 325.1L298.0 320.7L294.8 318.8L294.8 316.9L298.6 315.7L298.0 313.2L296.7 314.4L291.6 308.1L287.8 308.1L287.8 299.3L291.6 297.5L292.9 293.1L295.4 293.1L290.9 281.1L293.5 278.6L290.3 276.1L292.2 273.6L294.1 274.8L292.2 269.8L295.4 268.5L290.9 263.5L291.6 259.7L298.6 253.4L292.9 240.2L293.5 236.4L295.4 238.3L294.1 234.5L296.1 226.3L298.0 223.1L300.5 225.7L305.0 224.4L310.7 226.9L317.8 224.4L319.0 226.3L322.2 218.7L318.4 218.7L306.3 203.6L289.7 197.3L279.5 196.6L278.8 194.1L276.9 194.1L279.5 196.6L267.3 201.7L250.7 204.8L245.6 216.8L241.2 221.9L239.9 220.0L239.9 223.1L239.3 221.3L239.3 223.1L237.3 222.5L239.3 233.9L241.2 232.0L239.9 226.9L243.1 228.8L241.8 225.7L243.7 225.7L245.6 227.6L241.8 234.5L209.3 252.1L204.8 263.5L202.9 262.9L202.9 269.8L204.1 268.5L205.4 272.3L197.8 286.1L195.2 285.5L197.8 288.0L182.4 298.7L176.7 313.2L176.1 321.3L179.3 327.0L183.7 329.5L182.4 332.0L148.6 318.8L149.3 316.3L148.0 318.8L130.1 314.4L116.1 313.8L94.4 319.4L84.2 316.9L83.5 313.8L84.2 316.3L53.5 311.3L29.9 312.5L31.2 301.9L28.0 292.4L29.3 285.5L31.8 284.3L30.6 278.0L33.7 275.4L33.7 272.3L44.0 267.9L51.0 268.5L53.5 262.9L61.8 257.8L66.3 244.6L69.5 244.6L73.3 237.7L75.9 237.7L74.6 230.1L77.8 221.9L89.9 211.2L90.5 205.5L93.1 206.7L95.0 204.2L93.7 196.6L95.7 197.9L98.2 192.2L100.8 192.2L96.3 183.4L98.2 184.0L103.9 175.1L109.7 175.8L111.6 168.2L114.8 165.7L118.0 166.9L121.8 161.2L129.5 159.3L135.2 154.9L139.7 154.9L144.2 146.7L149.3 143.5L155.6 144.8L158.2 139.7L165.2 137.2L167.1 130.8L163.9 127.7L164.6 124.5L160.7 122.6L160.7 116.3L167.8 115.0L169.7 106.1L164.6 104.8L164.6 99.1L169.0 93.4L165.2 90.9L171.0 83.9L174.2 86.4L178.6 77.5L178.0 71.2L179.9 70.5L181.2 68.6Z"/><circle class="capital" cx="214.8" cy="236.4" r="6"/></svg>