<svg xmlns="http://www.w3.org/2000/svg" viewBox="0 0 400 400" class="pref-shape" data-mapno="23" data-name="愛知県" role="img" aria-label="愛知県の形"><style>.pref-shape path{fill:#FFFFFF;stroke:#1E293B;stroke-width:1.1;stroke-linejoin:round}.pref-shape.is-active path{fill:#0D9488}.pref-shape.is-correct path{fill:#16A34A}.pref-shape .capital{fill:#DC2626;stroke:#FFFFFF;stroke-width:1.5}</style><path d="M290.6 96.7L293.3 99.4L288.7 102.1L289.7 105.8L286.0 109.4L295.1 121.2L295.1 129.3L307.0 124.8L315.3 125.7L318.9 118.5L326.3 116.7L338.1 117.6L340.0 121.2L351.9 122.1L351.0 125.7L353.7 127.5L367.4 123.0L372.0 123.9L367.4 127.5L365.6 133.9L362.9 133.0L361.9 134.8L364.7 138.4L366.5 137.5L369.3 145.7L367.4 147.5L365.6 145.7L365.6 150.2L361.9 153.8L359.2 152.0L361.0 162.9L358.3 166.5L354.6 164.7L352.8 168.3L353.7 172.8L336.3 188.2L331.7 199.9L333.6 210.8L329.9 210.8L324.4 220.7L319.9 220.7L313.4 239.7L306.1 246.0L301.6 246.9L297.9 255.0L287.8 254.1L284.2 257.7L273.2 260.4L273.2 265.0L268.6 268.6L270.4 277.6L266.8 279.4L265.0 289.3L265.9 296.5L269.5 302.8L267.7 318.1L219.2 328.9L168.0 347.8L153.3 347.8L130.5 352.3L144.2 323.5L146.9 321.7L151.5 323.5L149.7 327.1L157.0 328.9L155.2 332.5L161.6 331.6L166.1 328.0L163.4 324.4L176.2 323.5L185.4 316.3L190.9 317.2L194.5 312.7L197.3 312.7L195.4 310.9L198.2 310.0L196.3 306.4L200.0 306.4L202.7 310.0L202.7 302.8L209.1 297.4L213.7 298.3L213.7 310.9L211.0 310.9L209.1 316.3L211.9 314.5L215.6 316.3L218.3 312.7L216.5 310.9L220.1 310.9L221.0 307.3L216.5 308.2L216.5 299.2L222.9 299.2L222.9 301.9L229.3 298.3L219.2 296.5L220.1 283.0L222.9 279.4L217.4 271.3L212.8 268.6L211.9 271.3L208.2 271.3L208.2 268.6L205.5 271.3L200.9 271.3L198.2 267.7L189.0 264.1L190.9 266.8L188.1 266.8L189.9 267.7L187.2 271.3L182.6 269.5L179.9 275.8L181.7 275.8L180.8 281.2L178.0 284.8L175.3 284.8L177.1 278.5L174.4 276.7L169.8 279.4L168.0 276.7L162.5 278.5L159.7 275.8L156.1 275.8L151.5 281.2L147.9 277.6L137.8 281.2L133.2 280.3L124.1 266.8L115.8 265.0L113.1 262.3L110.3 264.1L111.3 262.3L113.1 263.2L111.3 255.0L112.2 256.8L111.3 255.0L115.8 246.0L118.6 246.0L116.7 245.1L118.6 238.8L120.4 238.8L118.6 238.8L120.4 215.3L117.7 220.7L117.7 230.7L115.8 231.6L117.7 232.5L112.2 243.3L114.9 245.1L112.2 246.9L113.1 245.1L108.5 243.3L105.8 246.0L109.4 246.0L107.6 250.5L103.9 248.7L103.9 251.4L106.7 253.2L105.8 255.0L103.9 254.1L104.9 262.3L102.1 262.3L103.9 263.2L100.3 283.0L114.0 295.6L115.8 299.2L114.0 301.0L116.7 301.9L115.8 304.6L118.6 308.2L116.7 310.0L106.7 305.5L105.8 307.3L102.1 306.4L81.1 291.1L78.3 285.7L85.6 259.5L82.9 250.5L77.4 245.1L77.4 242.4L75.6 246.0L72.8 244.2L74.7 214.4L71.9 212.6L82.0 200.8L79.2 199.0L81.1 197.2L85.6 197.2L85.6 199.0L87.5 196.3L82.0 194.5L87.5 183.7L85.6 182.8L87.5 175.5L94.8 173.7L93.0 172.8L93.9 167.4L92.0 166.5L91.1 169.2L86.6 167.4L84.7 175.5L82.9 173.7L82.0 175.5L83.8 179.1L82.0 184.6L80.1 183.7L81.1 186.4L79.2 185.5L80.1 188.2L77.4 181.9L80.1 181.0L81.1 172.8L80.1 171.0L74.7 171.0L71.9 178.2L72.8 176.4L76.5 178.2L77.4 190.0L70.1 191.8L69.2 182.8L71.0 181.9L65.5 181.9L66.4 190.0L60.9 189.1L65.5 192.7L64.6 195.4L60.9 194.5L57.3 192.7L51.8 179.1L50.9 171.0L35.3 156.5L29.8 154.7L28.0 149.3L28.9 133.0L31.7 128.4L31.7 111.2L44.5 94.0L54.5 71.3L59.1 67.7L76.5 72.2L93.0 64.0L102.1 64.0L114.0 56.8L114.0 49.5L123.1 47.7L118.6 54.9L122.2 55.8L125.9 63.1L129.6 63.1L139.6 69.5L138.7 78.6L139.6 80.4L143.3 78.6L146.9 83.1L144.2 85.8L145.1 89.4L148.8 90.4L149.7 95.8L153.3 95.8L155.2 92.2L164.3 94.9L168.0 100.3L174.4 98.5L179.0 109.4L190.9 108.5L201.8 102.1L202.7 97.6L215.6 95.8L226.5 102.1L226.5 107.6L238.4 106.7L238.4 113.0L245.7 115.7L248.5 113.9L252.1 120.3L278.7 102.1L278.7 98.5L290.6 98.5L290.6 96.7Z"/><circle class="capital" cx="97.9" cy="135.2" r="6"/></svg>