<svg xmlns="http://www.w3.org/2000/svg" viewBox="0 0 400 400" class="pref-shape" data-mapno="24" data-name="三重県" role="img" aria-label="三重県の形"><style>.pref-shape path{fill:#FFFFFF;stroke:#1E293B;stroke-width:1.1;stroke-linejoin:round}.pref-shape.is-active path{fill:#0D9488}.pref-shape.is-correct path{fill:#16A34A}.pref-shape .capital{fill:#DC2626;stroke:#FFFFFF;stroke-width:1.5}</style><path d="M252.2 55.8L265.9 67.7L270.5 80.8L269.4 81.9L266.5 77.9L256.8 81.9L257.3 84.7L252.7 84.2L248.2 88.1L247.0 96.6L244.7 97.8L251.0 100.6L247.6 101.2L243.6 115.9L228.1 137.3L225.2 145.8L224.7 158.8L228.1 157.7L231.0 160.5L228.1 171.2L225.2 174.0L231.5 172.9L232.1 174.6L243.6 176.9L247.6 179.1L250.4 185.3L263.1 190.4L271.1 196.6L277.4 197.1L278.5 202.2L280.8 201.6L279.7 197.7L281.4 197.1L284.8 205.0L284.8 203.3L290.0 204.5L287.7 207.3L291.2 210.1L289.4 214.6L292.3 213.5L293.4 209.0L298.6 211.2L297.5 215.7L299.2 218.0L295.7 221.3L296.3 226.4L291.7 223.0L290.6 225.3L288.3 223.6L289.4 227.5L286.0 229.2L284.8 227.5L282.0 229.8L278.0 228.1L280.3 231.4L283.1 230.9L284.3 228.1L284.8 230.9L287.7 229.2L287.7 233.7L292.3 228.6L295.7 228.6L290.0 235.4L294.0 248.9L288.3 249.4L288.9 251.7L285.4 252.2L284.3 255.6L269.9 252.8L266.5 249.4L274.0 248.3L274.5 250.0L274.5 248.3L278.0 249.4L278.0 251.7L278.5 249.4L280.8 249.4L282.0 252.8L287.1 249.4L284.3 247.7L282.0 250.0L280.8 246.6L287.7 245.5L284.3 245.5L284.8 243.2L281.4 244.4L281.4 242.1L285.4 242.1L283.1 241.6L284.3 240.4L276.2 241.6L276.8 237.1L274.0 241.6L277.4 243.8L274.0 246.1L272.2 243.2L270.5 243.8L271.7 239.9L269.9 241.6L268.2 239.9L269.4 242.7L267.1 243.8L269.4 244.9L261.3 242.7L255.6 247.2L256.2 238.8L259.0 239.3L257.9 237.1L260.2 238.2L261.9 234.3L259.6 233.1L258.5 235.4L258.5 232.6L255.6 232.6L256.8 233.7L253.9 238.2L255.0 235.4L253.3 234.8L255.6 233.1L252.7 234.8L249.9 233.1L252.2 238.2L249.9 237.1L245.9 240.4L252.7 239.9L248.2 244.9L249.9 246.1L245.3 246.6L245.3 248.9L239.6 252.8L236.1 252.8L235.0 249.4L236.7 250.0L233.3 248.9L235.0 246.6L237.3 248.3L237.8 244.9L231.5 246.6L231.5 248.9L229.2 247.2L231.0 250.5L229.2 254.5L226.9 253.4L227.5 248.3L225.2 252.8L225.8 249.4L224.7 251.1L221.2 248.3L223.5 257.3L220.6 252.8L218.3 253.9L221.2 256.2L217.2 256.7L221.8 259.0L216.6 261.2L213.2 257.8L212.6 256.2L215.5 255.0L213.8 253.4L212.0 255.6L209.2 255.0L212.0 256.2L211.5 261.2L207.5 261.2L201.7 265.1L201.7 261.8L199.4 261.8L194.8 268.5L192.5 266.8L193.1 263.5L188.5 265.7L187.4 266.8L190.3 266.3L189.1 270.2L183.9 270.2L181.1 275.2L179.4 274.1L180.5 284.2L186.2 284.8L182.8 291.5L181.7 288.7L177.1 292.1L178.2 287.6L174.8 290.9L173.6 287.6L178.8 283.1L177.6 281.4L170.2 288.1L171.3 290.9L165.0 293.2L166.2 296.5L173.6 296.0L173.1 301.6L179.4 304.9L176.5 307.7L173.1 307.2L178.2 309.4L175.3 311.1L178.2 312.8L177.6 317.2L171.9 317.2L171.3 315.0L174.8 313.9L166.7 310.5L167.9 313.9L163.3 316.7L165.0 318.4L169.0 316.1L167.9 317.8L170.8 322.3L167.9 322.3L167.3 325.6L165.0 322.8L161.0 324.0L164.5 325.1L164.5 328.4L159.3 330.1L159.3 326.8L155.3 326.2L156.4 328.4L153.6 330.7L155.3 333.5L153.0 332.9L151.8 336.3L149.6 332.9L139.8 345.8L130.1 372.0L124.9 369.2L122.6 369.8L123.8 372.0L121.5 372.0L116.9 369.2L116.3 364.2L110.6 362.5L107.7 354.7L101.4 350.8L101.4 338.5L104.3 341.8L105.4 339.1L108.8 339.6L110.0 336.3L108.3 334.0L107.1 336.8L105.4 330.7L108.3 331.2L108.8 327.9L115.7 329.0L112.9 327.9L114.6 323.4L122.0 326.2L123.8 317.8L125.5 317.2L127.2 320.0L130.1 317.8L127.2 310.0L131.2 302.1L147.3 304.9L145.0 292.1L149.6 292.1L146.1 283.6L149.0 274.7L147.8 269.1L145.0 266.8L149.6 262.9L148.4 259.5L152.4 254.5L145.5 243.2L151.8 239.9L146.7 235.4L145.0 228.1L140.4 222.5L146.1 212.9L166.2 210.1L170.2 201.1L167.3 198.3L167.9 192.6L158.7 194.3L159.9 190.9L156.4 185.3L149.0 188.7L147.8 185.9L143.2 185.3L136.9 180.8L136.4 176.3L141.5 167.8L135.2 162.2L139.8 164.4L143.8 159.4L141.5 154.3L138.1 153.2L141.0 150.9L140.4 148.6L133.5 141.3L134.1 136.2L131.8 133.4L139.2 131.7L145.5 127.2L143.8 123.2L151.3 117.6L150.7 114.7L143.8 114.2L143.8 110.8L148.4 108.5L151.8 112.5L161.0 111.9L163.3 115.3L174.2 118.1L195.4 108.0L196.6 99.5L201.1 97.2L204.6 91.0L205.2 75.7L209.2 71.7L209.2 59.8L210.9 58.7L208.6 55.8L212.0 50.1L203.4 43.9L204.6 37.1L207.5 34.8L209.7 37.7L213.8 32.5L220.6 33.7L225.2 28.0L231.5 39.9L239.0 46.2L241.8 52.4L247.0 53.6L247.0 49.0L251.6 56.4L252.2 55.8Z"/><circle class="capital" cx="221.9" cy="147.1" r="6"/></svg>