<svg xmlns="http://www.w3.org/2000/svg" viewBox="0 0 400 400" class="pref-shape" data-mapno="25" data-name="滋賀県" role="img" aria-label="滋賀県の形"><style>.pref-shape path{fill:#FFFFFF;stroke:#1E293B;stroke-width:1.1;stroke-linejoin:round}.pref-shape.is-active path{fill:#0D9488}.pref-shape.is-correct path{fill:#16A34A}.pref-shape .capital{fill:#DC2626;stroke:#FFFFFF;stroke-width:1.5}</style><path d="M253.1 45.1L251.2 47.1L255.0 59.4L263.6 58.5L265.5 61.3L263.6 64.2L265.5 72.8L264.5 87.0L270.3 86.1L273.1 91.8L276.0 89.9L277.9 83.2L280.8 82.3L284.6 92.7L289.4 93.7L291.3 100.3L287.5 102.2L285.6 109.8L290.4 116.5L295.1 117.5L297.0 125.1L293.2 135.5L302.8 146.9L300.9 150.7L293.2 153.5L292.3 160.2L296.1 160.2L296.1 163.0L293.2 168.7L293.2 175.4L286.5 184.8L288.4 196.2L282.7 201.0L285.6 205.7L294.2 211.4L295.1 217.1L292.3 222.7L306.6 233.2L300.9 242.6L304.7 247.4L301.8 249.2L301.8 269.1L295.1 275.7L295.1 282.3L297.0 282.3L295.1 286.1L296.1 293.7L293.2 295.6L294.2 301.2L289.4 306.9L288.4 311.6L280.8 315.4L281.8 322.0L278.9 323.9L278.9 329.6L273.1 333.3L262.6 336.2L262.6 339.0L259.8 340.9L254.0 342.8L252.1 340.9L248.3 344.7L239.7 346.5L225.3 341.8L221.5 336.2L212.0 338.1L208.1 335.2L206.2 337.1L200.5 330.5L197.6 334.3L192.8 334.3L192.8 339.9L199.5 342.8L204.3 340.9L205.3 345.6L199.5 349.4L198.6 353.1L192.8 355.0L195.7 361.6L185.2 369.2L184.2 367.3L172.7 372.0L169.9 368.2L171.8 363.5L174.7 363.5L174.7 360.7L171.8 357.9L168.0 357.9L168.0 352.2L157.5 354.1L154.6 348.4L149.8 349.4L147.9 333.3L143.1 337.1L139.3 337.1L134.5 341.8L130.7 339.9L131.6 337.1L124.9 334.3L124.0 330.5L126.9 326.7L128.8 313.5L121.1 305.0L122.1 299.4L120.2 299.4L120.2 296.5L113.5 296.5L115.4 293.7L114.4 289.9L110.6 289.0L115.4 289.0L115.4 285.2L113.5 285.2L109.6 278.6L115.4 271.0L114.4 267.2L117.3 260.6L115.4 259.7L122.1 236.0L122.1 233.2L119.2 233.2L113.5 210.4L116.3 208.5L115.4 202.9L123.0 184.8L115.4 190.5L107.7 174.4L102.0 171.6L98.2 164.9L93.4 164.0L102.0 147.8L106.8 148.8L108.7 138.4L121.1 138.4L121.1 143.1L124.0 145.0L132.6 141.2L133.5 135.5L139.3 130.8L140.2 116.5L147.9 97.5L160.3 109.8L169.9 106.0L174.7 93.7L180.4 93.7L181.4 91.8L188.0 94.6L191.9 89.9L198.6 94.6L201.4 73.7L204.3 76.6L214.8 77.5L218.6 80.4L217.7 73.7L220.6 69.0L212.0 43.2L208.1 42.3L212.9 29.9L216.7 30.9L217.7 28.0L223.4 28.0L232.0 36.6L237.8 35.6L241.6 39.4L248.3 40.4L253.1 44.2L253.1 45.1Z"/><circle class="capital" cx="126.0" cy="292.1" r="6"/></svg>