<svg xmlns="http://www.w3.org/2000/svg" viewBox="0 0 400 400" class="pref-shape" data-mapno="26" data-name="京都府" role="img" aria-label="京都府の形"><style>.pref-shape path{fill:#FFFFFF;stroke:#1E293B;stroke-width:1.1;stroke-linejoin:round}.pref-shape.is-active path{fill:#0D9488}.pref-shape.is-correct path{fill:#16A34A}.pref-shape .capital{fill:#DC2626;stroke:#FFFFFF;stroke-width:1.5}</style><path d="M46.8 66.9L50.8 66.9L50.8 70.9L61.4 70.9L72.0 64.5L72.0 61.2L76.0 58.8L76.8 55.6L86.6 57.2L97.2 50.7L102.9 45.8L102.9 41.8L106.1 39.4L113.4 38.5L117.5 34.5L120.7 36.9L129.7 32.1L134.6 32.9L139.4 30.4L139.4 28.0L145.9 35.3L147.6 34.5L148.4 39.4L152.4 40.2L152.4 42.6L156.5 45.0L155.7 51.5L162.2 55.6L159.8 59.6L160.6 65.3L156.5 64.5L158.1 62.8L156.5 61.2L150.0 65.3L145.1 79.0L137.0 86.3L131.3 95.2L130.5 103.3L132.1 105.7L135.4 104.1L135.4 97.7L139.4 96.0L141.1 90.4L142.7 92.0L146.8 85.5L148.4 89.6L145.9 90.4L146.8 95.2L153.3 98.5L147.6 99.3L147.6 100.9L145.9 97.7L143.5 100.1L145.1 106.5L151.6 107.4L156.5 113.0L162.2 113.8L164.6 109.8L167.9 112.2L167.9 120.3L163.8 125.1L165.5 125.1L163.0 130.8L163.0 133.2L165.5 133.2L166.3 129.2L172.0 125.9L172.0 123.5L170.3 124.3L172.8 121.9L172.0 119.5L175.2 121.9L180.1 121.1L180.9 123.5L178.5 125.1L180.9 125.9L185.0 124.3L185.8 120.3L183.3 112.2L180.9 117.1L178.5 115.4L171.1 116.2L172.8 111.4L171.1 109.0L171.1 110.6L169.5 109.8L171.1 100.9L172.8 104.1L180.1 98.5L184.1 99.3L185.0 96.0L186.6 98.5L189.0 95.2L193.1 96.8L192.3 92.0L194.7 92.0L194.7 88.8L202.0 84.7L202.0 87.9L199.6 88.8L199.6 96.0L202.8 95.2L202.8 97.7L208.5 99.3L201.2 102.5L198.8 110.6L205.3 115.4L205.3 121.9L201.2 128.4L208.5 134.0L212.6 143.7L215.0 142.1L219.1 143.7L218.3 149.4L220.7 157.4L249.2 160.7L264.6 167.9L267.9 164.7L282.5 163.9L280.9 167.9L284.9 168.7L288.2 174.4L293.1 176.8L299.6 190.5L306.1 185.7L299.6 201.0L300.4 205.8L298.0 207.4L302.8 226.7L305.3 226.7L305.3 229.2L299.6 249.3L301.2 250.1L299.6 258.9L294.7 263.7L299.6 274.2L295.5 274.2L298.8 275.0L298.0 280.6L303.6 280.6L304.5 287.8L311.0 295.1L307.7 312.7L313.4 315.1L312.6 317.5L315.8 319.1L327.2 311.9L328.8 325.5L332.9 324.7L335.3 329.5L344.3 327.9L344.3 332.8L350.0 335.2L345.9 343.2L351.6 348.8L350.8 356.0L353.2 356.0L353.2 358.4L357.3 361.6L354.0 362.4L350.8 372.0L346.7 371.2L345.9 368.8L339.4 368.8L338.6 363.2L336.2 360.8L332.1 360.8L331.3 358.4L328.0 361.6L323.2 360.8L323.2 355.2L314.2 371.2L311.0 369.6L303.6 372.0L296.3 370.4L290.6 366.4L278.4 364.8L279.3 362.4L272.8 356.0L271.9 348.8L276.0 340.8L267.1 327.1L263.0 326.3L258.1 310.3L250.8 307.1L251.6 303.1L249.2 299.9L244.3 299.1L238.6 301.5L242.7 291.8L241.9 287.0L235.4 288.6L233.7 285.4L231.3 287.0L232.9 292.6L228.9 292.6L227.2 299.9L228.9 296.7L228.0 299.1L232.9 298.3L232.9 302.3L231.3 304.7L223.2 305.5L215.9 295.9L209.3 296.7L206.9 294.3L208.5 291.8L206.9 290.2L209.3 288.6L207.7 283.0L210.2 281.4L197.2 275.8L190.7 277.4L188.2 275.0L180.9 275.0L180.9 266.1L177.6 261.3L179.3 257.3L185.8 254.1L186.6 249.3L182.5 246.8L183.3 237.2L171.1 234.8L170.3 230.0L155.7 232.4L154.1 230.0L157.3 226.7L157.3 223.5L153.3 221.1L141.9 221.1L140.3 225.9L135.4 226.7L130.5 223.5L129.7 217.1L132.9 216.3L132.9 213.1L121.6 205.8L124.8 201.0L122.4 194.5L109.4 192.9L98.8 202.6L96.4 193.7L90.7 194.5L84.2 192.1L80.9 184.9L61.4 178.4L59.8 161.5L63.8 147.7L70.3 146.9L78.5 154.2L86.6 151.8L89.0 146.9L93.9 147.7L94.7 136.4L90.7 125.9L92.3 120.3L89.9 118.7L93.1 115.4L90.7 104.9L80.1 106.5L70.3 113.8L62.2 113.8L59.0 109.0L59.0 103.3L50.0 97.7L42.7 89.6L47.6 79.9L46.0 69.3L46.8 66.9Z"/><circle class="capital" cx="279.1" cy="271.4" r="6"/></svg>