<svg xmlns="http://www.w3.org/2000/svg" viewBox="0 0 400 400" class="pref-shape" data-mapno="27" data-name="大阪府" role="img" aria-label="大阪府の形"><style>.pref-shape path{fill:#FFFFFF;stroke:#1E293B;stroke-width:1.1;stroke-linejoin:round}.pref-shape.is-active path{fill:#0D9488}.pref-shape.is-correct path{fill:#16A34A}.pref-shape .capital{fill:#DC2626;stroke:#FFFFFF;stroke-width:1.5}</style><path d="M183.1 30.2L186.5 33.6L186.5 45.8L196.6 45.8L200.0 49.2L209.0 46.9L227.1 54.7L223.7 57.0L225.9 64.8L222.6 67.0L224.8 69.2L222.6 72.6L225.9 73.7L225.9 75.9L231.6 73.7L235.0 74.8L236.1 79.3L242.9 83.7L245.1 88.2L256.4 87.0L258.6 83.7L258.6 78.1L255.3 77.0L251.9 79.3L253.0 75.9L250.7 80.4L253.0 70.3L258.6 70.3L255.3 64.8L256.4 62.5L259.8 60.3L262.0 64.8L271.0 62.5L272.2 69.2L269.9 77.0L267.7 79.3L266.5 78.1L266.5 82.6L274.4 79.3L281.2 80.4L284.6 84.8L283.4 90.4L293.6 94.8L295.9 107.1L299.2 108.2L300.4 111.5L300.4 117.1L303.7 116.0L306.0 118.2L318.4 137.1L316.2 143.8L310.5 150.4L306.0 147.1L306.0 159.3L304.9 161.5L301.5 161.5L303.7 172.7L292.5 182.6L294.7 191.5L284.6 223.7L293.6 227.0L293.6 231.5L295.9 233.7L291.3 237.0L292.5 240.3L286.8 243.7L284.6 251.4L288.0 252.5L288.0 258.1L293.6 260.3L292.5 270.2L297.0 278.0L297.0 292.4L292.5 303.5L289.1 304.6L294.7 311.2L293.6 315.6L289.1 316.7L285.7 322.3L273.3 322.3L271.0 325.6L265.4 323.4L264.3 325.6L258.6 325.6L248.5 333.3L244.0 333.3L232.7 343.3L230.4 343.3L230.4 338.9L225.9 335.5L224.8 331.1L221.4 335.5L214.7 338.9L205.6 337.7L203.4 341.1L196.6 341.1L188.7 346.6L179.7 346.6L178.6 344.4L174.1 345.5L170.7 343.3L167.3 348.8L168.4 352.1L158.3 353.2L154.9 359.8L150.4 351.0L147.0 354.3L141.4 352.1L130.1 358.7L123.3 355.4L122.2 364.3L115.4 368.7L110.9 367.6L104.1 370.9L104.1 367.6L101.9 366.5L96.3 370.9L92.9 369.8L88.4 372.0L87.2 366.5L82.7 361.0L86.1 354.3L83.8 355.4L81.6 353.2L92.9 349.9L92.9 347.7L99.6 351.0L104.1 345.5L112.0 342.2L118.8 343.3L122.2 340.0L127.8 338.9L138.0 325.6L143.6 323.4L154.9 312.3L154.9 309.0L165.0 305.7L161.7 303.5L163.9 301.2L165.0 304.6L167.3 302.4L165.0 301.2L166.2 299.0L168.4 301.2L170.7 295.7L179.7 288.0L176.3 288.0L179.7 283.5L179.7 285.7L183.1 285.7L179.7 281.3L180.8 279.1L185.3 282.4L183.1 279.1L185.3 276.9L183.1 275.8L183.1 269.1L185.3 265.8L182.0 263.6L185.3 257.0L183.1 261.4L186.5 264.7L186.5 260.3L188.7 263.6L186.5 265.8L187.6 266.9L188.7 264.7L189.9 269.1L191.0 265.8L193.2 266.9L192.1 264.7L194.4 262.5L195.5 266.9L196.6 261.4L200.0 262.5L204.5 257.0L210.1 245.9L196.6 243.7L194.4 227.0L198.9 230.4L201.1 240.3L204.5 240.3L203.4 231.5L205.6 234.8L209.0 234.8L209.0 241.4L211.3 242.5L212.4 238.1L214.7 239.2L211.3 233.7L218.0 233.7L211.3 232.6L215.8 232.6L215.8 229.2L214.7 231.5L212.4 230.4L206.8 232.6L202.3 230.4L202.3 224.8L210.1 228.1L206.8 222.6L202.3 222.6L202.3 218.2L203.4 221.5L205.6 221.5L204.5 217.0L209.0 215.9L210.1 220.4L212.4 213.7L210.1 209.3L211.3 208.2L211.3 211.5L212.4 208.2L211.3 206.0L207.9 207.1L207.9 204.8L202.3 204.8L202.3 201.5L200.0 203.7L201.1 200.4L198.9 204.8L198.9 200.4L203.4 197.1L200.0 199.3L200.0 194.9L196.6 196.0L196.6 193.7L200.0 192.6L198.9 190.4L202.3 186.0L198.9 189.3L194.4 186.0L210.1 173.8L210.1 168.2L214.7 168.2L213.5 156.0L212.4 157.1L211.3 152.7L209.0 152.7L210.1 149.3L207.9 142.7L204.5 137.1L202.3 138.2L198.9 130.4L202.3 122.6L200.0 116.0L204.5 113.7L210.1 94.8L204.5 98.2L203.4 91.5L200.0 90.4L206.8 85.9L216.9 85.9L218.0 81.5L215.8 82.6L209.0 77.0L200.0 79.3L200.0 75.9L196.6 75.9L197.7 74.8L189.9 75.9L187.6 70.3L178.6 70.3L177.4 67.0L174.1 65.9L175.2 59.2L178.6 58.1L176.3 55.9L176.3 39.1L171.8 39.1L168.4 34.7L175.2 28.0L180.8 30.2L183.1 30.2ZM131.2 294.6L135.7 291.3L140.2 294.6L132.3 301.2L139.1 295.7L142.5 295.7L144.7 299.0L130.1 309.0L127.8 305.7L131.2 301.2L130.1 302.4L129.0 300.1L123.3 304.6L121.1 302.4L127.8 297.9L131.2 294.6Z"/><circle class="capital" cx="237.0" cy="189.1" r="6"/></svg>