<svg xmlns="http://www.w3.org/2000/svg" viewBox="0 0 400 400" class="pref-shape" data-mapno="28" data-name="兵庫県" role="img" aria-label="兵庫県の形"><style>.pref-shape path{fill:#FFFFFF;stroke:#1E293B;stroke-width:1.1;stroke-linejoin:round}.pref-shape.is-active path{fill:#0D9488}.pref-shape.is-correct path{fill:#16A34A}.pref-shape .capital{fill:#DC2626;stroke:#FFFFFF;stroke-width:1.5}</style><path d="M201.5 32.1L202.1 41.5L198.5 48.5L210.3 58.5L212.1 65.5L218.5 66.1L225.6 60.8L233.3 59.6L235.0 67.2L232.7 69.6L236.2 82.5L235.6 90.6L232.1 90.1L230.3 93.6L226.2 95.3L218.5 90.1L213.8 90.6L210.9 100.6L212.1 112.8L226.2 117.5L228.5 122.8L237.4 123.9L239.1 130.3L246.8 123.3L256.2 124.5L258.0 129.2L255.6 132.7L263.9 137.9L263.9 140.3L261.5 140.8L262.1 145.5L265.6 147.8L269.2 147.2L270.3 143.8L278.6 143.8L281.5 145.5L279.2 150.2L280.3 151.9L290.9 150.2L291.5 153.7L300.3 155.4L299.8 162.4L302.7 164.1L302.1 167.6L297.4 170.0L296.8 174.6L292.7 173.5L289.2 176.9L293.3 179.3L294.5 189.2L292.1 193.2L294.5 195.5L299.2 195.5L300.3 198.5L315.1 201.4L314.5 203.7L305.6 206.0L308.0 210.1L310.9 208.3L308.0 218.2L305.6 219.4L306.8 222.8L305.1 226.9L312.7 240.3L313.3 246.6L310.9 246.6L310.9 249.5L300.9 258.8L297.4 260.0L300.9 258.8L302.1 254.2L300.3 256.5L298.0 255.9L296.8 258.8L297.4 255.9L295.0 257.1L293.3 255.3L295.0 253.0L290.3 248.4L287.4 248.4L288.0 250.1L279.7 251.3L280.9 253.6L269.7 254.2L271.5 255.9L266.8 255.9L265.0 259.4L261.5 258.2L260.9 265.7L233.8 271.0L229.7 267.5L219.7 266.9L197.4 249.5L193.2 253.0L190.3 250.1L190.3 244.3L187.9 246.6L186.2 243.7L180.3 242.6L182.0 240.3L178.5 238.5L169.7 236.2L163.2 238.5L162.6 235.0L160.3 237.9L160.9 233.9L159.1 238.5L156.7 238.5L159.1 235.0L155.0 235.0L155.0 238.5L151.4 236.2L149.1 237.9L150.9 239.1L147.3 237.9L147.9 240.3L145.0 240.8L145.0 237.4L143.8 240.3L136.7 235.0L133.2 239.7L132.0 237.4L126.7 241.4L125.5 235.0L127.3 234.5L125.0 229.2L123.2 235.6L125.0 239.1L122.0 242.0L123.2 238.5L119.1 239.1L117.3 242.0L119.1 243.1L115.0 247.8L110.2 246.6L109.7 248.4L105.0 242.6L105.5 244.9L101.4 245.5L97.9 249.5L96.1 244.9L100.2 238.5L97.3 236.8L96.7 231.0L91.4 224.6L86.1 224.0L87.3 222.3L84.9 217.6L86.7 211.8L92.6 207.8L89.1 201.4L84.9 199.6L89.1 193.8L87.9 189.2L90.8 186.2L87.3 183.9L87.3 179.9L90.2 176.4L96.7 175.2L97.3 165.9L103.2 164.1L106.1 151.3L114.4 150.7L115.0 142.0L109.1 140.3L109.7 133.3L113.2 129.2L119.1 132.1L124.4 130.3L134.4 121.0L132.0 109.3L134.4 102.9L126.1 97.7L127.9 86.5L120.3 82.5L118.5 68.4L115.0 65.5L116.7 54.4L113.8 53.2L114.4 48.5L106.7 42.1L118.5 40.9L119.1 38.0L122.6 39.1L124.4 36.2L138.5 29.2L142.6 33.9L147.9 31.5L155.0 36.8L161.5 30.3L163.2 30.9L161.5 32.1L162.6 34.4L167.3 30.3L170.3 33.3L171.5 30.3L174.4 29.8L175.6 32.1L177.9 30.3L180.3 31.5L181.5 28.0L182.6 32.1L188.5 29.2L195.6 32.7L196.2 35.6L197.4 32.7L200.9 32.1L201.5 32.1ZM186.2 317.2L192.1 307.4L196.8 306.2L201.5 297.0L213.8 288.9L219.7 280.2L226.8 275.0L231.5 282.5L226.2 288.3L222.7 299.9L206.2 318.9L206.8 336.3L210.3 338.0L217.4 353.6L196.2 362.8L187.9 369.1L175.0 372.0L175.6 368.0L169.7 365.1L171.5 360.5L173.8 359.9L173.8 356.4L169.7 359.9L168.5 358.2L161.5 359.9L165.0 355.9L160.9 347.8L166.7 339.1L170.9 341.5L175.0 339.7L179.1 328.2L185.6 318.9L186.2 317.2Z"/><circle class="capital" cx="261.1" cy="256.4" r="6"/></svg>