<svg xmlns="http://www.w3.org/2000/svg" viewBox="0 0 400 400" class="pref-shape" data-mapno="29" data-name="奈良県" role="img" aria-label="奈良県の形"><style>.pref-shape path{fill:#FFFFFF;stroke:#1E293B;stroke-width:1.1;stroke-linejoin:round}.pref-shape.is-active path{fill:#0D9488}.pref-shape.is-correct path{fill:#16A34A}.pref-shape .capital{fill:#DC2626;stroke:#FFFFFF;stroke-width:1.5}</style><path d="M152.2 28.9L153.1 37.4L160.8 45.0L159.8 47.8L174.2 49.7L180.9 54.4L183.7 53.4L189.5 56.3L194.3 56.3L198.1 53.4L201.9 55.3L204.8 46.8L212.4 36.5L212.4 43.1L218.2 44.0L222.0 40.3L223.0 43.1L227.7 43.1L230.6 45.9L231.6 52.5L239.2 52.5L240.2 55.3L245.0 56.3L248.8 45.0L252.6 44.0L257.4 53.4L252.6 57.2L258.3 59.1L262.2 67.6L259.3 74.1L255.5 76.0L247.8 72.3L255.5 77.0L258.3 81.7L257.4 86.4L249.7 95.8L251.6 98.6L249.7 100.5L250.7 103.3L261.2 110.8L268.9 111.8L270.8 116.5L278.4 110.8L281.3 112.7L283.2 110.8L288.9 120.2L287.0 125.9L291.8 126.8L293.7 124.0L300.4 122.1L303.3 128.7L301.4 132.4L306.2 135.3L300.4 145.6L299.5 152.2L290.9 154.0L284.2 152.2L281.3 155.0L273.6 154.0L266.0 156.9L263.1 159.7L263.1 165.3L256.4 172.8L264.1 182.2L263.1 185.0L265.0 185.9L266.9 194.4L273.6 198.1L275.6 201.9L265.0 207.5L266.0 212.2L272.7 218.7L271.7 222.5L276.5 226.2L269.8 234.7L271.7 240.3L264.1 246.8L264.1 248.7L268.9 250.6L267.9 255.3L270.8 259.9L266.9 267.4L268.9 272.1L266.0 274.9L267.9 276.8L267.9 284.2L271.7 288.9L266.0 287.1L264.1 288.9L264.1 302.0L267.9 310.4L263.1 310.4L258.3 306.7L251.6 307.6L248.8 304.8L245.9 307.6L241.1 305.7L236.3 317.0L232.5 317.9L230.6 322.6L219.1 326.3L217.2 329.1L217.2 327.2L213.4 326.3L202.9 338.4L203.8 346.8L207.7 347.8L207.7 349.6L203.8 348.7L202.9 354.3L194.3 348.7L192.3 361.7L196.2 360.8L199.0 364.5L196.2 372.0L192.3 369.2L193.3 365.5L190.4 365.5L188.5 358.0L177.0 354.3L174.2 358.0L167.5 360.8L163.7 359.9L162.7 361.7L154.1 358.9L150.3 355.2L138.8 355.2L131.1 357.1L127.3 365.5L117.7 367.3L120.6 362.7L119.7 357.1L114.9 357.1L112.0 353.4L115.8 352.4L117.7 336.6L123.5 337.5L123.5 322.6L119.7 319.8L119.7 316.0L111.1 315.1L112.0 307.6L106.3 298.3L102.4 298.3L93.8 291.7L96.7 288.9L95.7 282.4L105.3 276.8L109.1 263.7L119.7 259.9L118.7 257.1L126.4 249.6L123.5 244.0L127.3 238.4L135.9 236.5L146.4 242.2L152.2 234.7L148.4 220.6L140.7 215.9L139.7 218.7L136.9 218.7L135.0 215.0L133.1 198.1L131.1 198.1L132.1 186.9L128.3 176.6L132.1 171.9L135.9 170.9L136.9 167.2L132.1 161.6L135.0 160.6L138.8 151.2L138.8 139.0L135.0 132.4L135.9 124.0L131.1 122.1L131.1 117.4L128.3 116.5L130.2 109.9L135.0 107.1L134.0 104.3L137.8 101.4L135.9 95.8L128.3 93.0L136.9 65.7L135.0 58.1L144.5 49.7L142.6 40.3L146.4 38.4L146.4 28.0L150.3 30.8L152.2 28.9Z"/><circle class="capital" cx="184.3" cy="64.0" r="6"/></svg>