<svg xmlns="http://www.w3.org/2000/svg" viewBox="0 0 400 400" class="pref-shape" data-mapno="3" data-name="岩手県" role="img" aria-label="岩手県の形"><style>.pref-shape path{fill:#FFFFFF;stroke:#1E293B;stroke-width:1.1;stroke-linejoin:round}.pref-shape.is-active path{fill:#0D9488}.pref-shape.is-correct path{fill:#16A34A}.pref-shape .capital{fill:#DC2626;stroke:#FFFFFF;stroke-width:1.5}</style><path d="M249.5 28.0L263.5 49.6L271.7 68.5L273.2 75.2L268.8 76.2L267.9 79.8L269.8 81.3L268.8 79.8L266.9 81.3L272.7 83.4L279.9 90.5L273.2 95.1L273.2 104.8L280.9 111.5L284.8 118.1L289.1 118.1L293.5 129.3L289.6 132.4L289.6 136.5L295.4 146.2L296.4 162.4L299.7 165.5L297.3 168.6L299.7 170.1L294.4 174.7L296.8 176.2L293.9 182.3L296.8 184.3L294.4 188.4L296.4 191.4L293.5 192.9L294.4 196.5L290.6 202.6L292.5 203.6L302.6 189.4L303.1 205.1L307.9 206.1L310.4 211.2L309.4 214.2L307.0 214.2L307.9 216.8L304.1 215.3L300.2 225.9L297.8 224.4L292.0 225.9L292.5 229.4L295.9 233.5L297.3 231.0L299.7 232.0L300.2 228.4L304.6 224.4L307.0 224.4L308.4 227.4L305.0 232.0L305.0 237.0L300.2 236.0L300.7 238.6L295.9 239.6L295.4 236.0L289.6 244.1L290.6 247.1L293.9 246.1L292.5 249.7L289.6 251.7L285.7 250.2L283.3 254.2L285.7 256.8L298.8 251.2L294.4 258.8L281.4 260.8L287.7 264.8L288.1 267.9L281.4 266.9L283.8 269.9L282.3 272.4L284.3 271.4L287.2 273.9L287.7 271.9L294.4 271.9L290.6 272.9L291.0 278.0L287.2 277.0L284.3 280.5L281.4 279.5L281.9 282.0L278.5 280.0L278.0 283.0L281.9 285.0L285.7 284.0L286.7 286.0L280.9 290.6L276.1 290.1L273.7 292.1L279.4 295.6L279.4 298.1L283.8 297.6L286.7 300.6L280.4 304.7L277.0 300.6L269.8 299.1L269.3 303.7L271.7 304.2L271.7 306.7L279.0 307.2L278.0 309.7L270.3 309.7L276.1 315.8L268.3 316.8L267.4 312.7L265.4 315.8L263.0 314.7L262.1 317.8L257.2 317.8L258.7 310.2L256.7 307.2L253.8 316.8L257.2 317.8L259.2 323.3L253.8 322.3L254.8 325.3L251.9 327.8L256.7 330.8L253.4 333.9L247.1 325.3L248.5 320.8L241.3 320.8L241.8 327.3L231.6 322.3L219.6 321.8L220.0 338.4L213.8 346.4L215.7 349.9L213.3 354.4L214.7 358.5L210.4 359.5L211.3 365.0L207.5 368.0L208.0 364.5L204.6 361.5L202.7 362.5L198.3 359.0L195.4 360.0L191.5 357.0L190.6 363.0L185.8 362.0L183.3 369.0L180.0 372.0L177.1 371.5L171.7 364.5L169.8 366.0L165.0 363.5L165.5 359.0L162.6 358.5L162.6 356.5L159.7 357.0L159.7 353.9L162.6 354.4L166.4 349.9L165.0 345.9L158.2 343.9L141.3 346.4L137.0 339.9L124.9 335.9L116.2 328.8L108.5 329.8L106.5 321.8L113.8 310.2L112.8 306.2L105.1 304.2L105.6 297.6L107.5 296.6L104.6 293.6L109.0 287.5L113.8 285.5L107.0 282.0L106.5 279.0L110.4 273.9L100.3 267.4L99.3 262.3L95.9 261.3L96.4 255.7L98.3 255.2L93.0 247.7L93.0 244.1L89.6 243.1L90.1 238.0L94.0 237.5L94.0 229.9L100.8 224.9L98.8 221.3L102.7 216.8L101.7 207.7L105.1 207.1L109.4 200.0L111.9 200.6L115.7 190.9L115.7 183.3L108.5 173.6L112.8 171.6L119.6 161.4L115.7 157.4L110.4 155.8L109.4 147.2L116.2 143.1L120.6 147.2L124.4 145.6L119.6 128.3L121.0 111.0L119.1 104.8L124.9 98.2L123.0 93.6L125.4 88.0L121.5 84.9L126.8 80.8L128.8 74.7L134.6 73.6L134.6 70.1L136.5 69.5L140.4 75.2L145.7 75.7L155.3 68.5L159.7 68.0L159.2 62.9L165.0 58.8L177.5 55.7L183.8 49.0L186.7 50.1L193.0 43.9L197.8 52.6L202.2 51.1L205.1 45.5L209.4 46.5L212.3 43.4L218.6 43.4L223.9 48.5L228.3 48.5L234.0 43.9L234.5 37.2L245.2 32.6L249.0 28.5L249.5 28.0Z"/><circle class="capital" cx="167.2" cy="180.0" r="6"/></svg>