<svg xmlns="http://www.w3.org/2000/svg" viewBox="0 0 400 400" class="pref-shape" data-mapno="30" data-name="和歌山県" role="img" aria-label="和歌山県の形"><style>.pref-shape path{fill:#FFFFFF;stroke:#1E293B;stroke-width:1.1;stroke-linejoin:round}.pref-shape.is-active path{fill:#0D9488}.pref-shape.is-correct path{fill:#16A34A}.pref-shape .capital{fill:#DC2626;stroke:#FFFFFF;stroke-width:1.5}</style><path d="M235.0 28.0L238.7 38.1L237.8 49.0L239.7 49.0L241.5 65.5L243.4 69.2L246.2 69.2L247.1 66.4L254.6 71.0L258.3 84.7L252.7 92.0L242.5 86.5L234.1 88.3L230.3 93.8L233.1 99.3L225.7 106.6L226.6 109.3L216.3 113.0L212.6 125.8L203.3 131.2L204.2 137.6L201.4 140.4L209.8 146.7L213.5 146.7L219.1 155.9L218.2 163.1L226.6 164.1L226.6 167.7L230.3 170.4L230.3 185.0L224.7 184.1L222.9 199.6L219.1 200.5L221.9 204.1L226.6 204.1L227.5 209.6L224.7 214.1L234.1 212.3L237.8 204.1L245.3 202.3L256.5 202.3L266.7 208.7L279.8 205.0L282.6 201.4L293.8 205.0L295.6 206.8L297.5 222.3L296.6 233.2L306.8 239.6L311.5 252.3L315.2 252.3L319.0 256.8L320.8 255.0L321.8 263.2L325.5 265.9L333.0 267.7L331.1 264.1L334.8 263.2L343.2 267.7L337.6 274.1L336.7 281.4L331.1 286.8L333.0 291.3L335.8 288.6L336.7 290.4L333.9 294.1L332.0 291.3L321.8 295.9L321.8 299.5L325.5 300.4L325.5 305.0L324.6 301.3L321.8 305.0L323.6 305.9L317.1 308.6L319.9 314.9L322.7 310.4L324.6 311.3L323.6 315.8L328.3 314.0L327.4 319.5L322.7 319.5L319.9 322.2L316.2 320.4L316.2 323.1L314.3 322.2L306.8 327.6L317.1 326.7L305.9 334.0L304.0 337.6L301.2 335.8L292.8 343.0L286.3 343.0L285.4 345.7L278.8 348.5L274.2 359.3L278.8 367.5L277.0 366.6L276.0 370.2L270.4 367.5L268.6 372.0L265.8 371.1L264.9 365.7L272.3 362.0L272.3 356.6L269.5 357.5L267.7 353.9L261.1 356.6L261.1 353.0L258.3 355.7L253.7 353.9L251.8 355.7L252.7 353.9L249.9 350.3L249.0 352.1L241.5 352.1L228.5 344.8L227.5 347.6L221.0 344.8L220.1 346.6L217.3 345.7L217.3 348.5L210.7 342.1L193.0 339.4L193.9 337.6L186.5 333.1L187.4 330.3L183.7 332.2L182.7 329.4L179.9 331.2L177.1 331.2L177.1 329.4L173.4 330.3L173.4 324.9L165.9 323.1L165.0 319.5L162.2 321.3L160.3 316.7L156.6 314.9L155.7 308.6L157.5 309.5L158.5 305.9L156.6 305.0L159.4 300.4L158.5 302.2L156.6 300.4L157.5 297.7L153.8 293.2L142.6 291.3L138.9 287.7L142.6 284.1L142.6 280.5L139.8 277.7L146.3 277.7L147.3 280.5L145.4 282.3L147.3 281.4L147.3 284.1L149.1 281.4L152.9 282.3L151.0 279.6L154.7 279.6L152.9 278.6L154.7 275.0L154.7 278.6L158.5 275.0L159.4 268.7L157.5 270.5L153.8 269.6L149.1 264.1L145.4 266.8L146.3 261.4L143.5 258.7L137.9 261.4L136.1 252.3L128.6 252.3L119.3 245.9L110.0 246.9L110.0 240.5L104.4 235.0L101.6 236.9L95.0 233.2L82.9 209.6L73.6 205.9L64.2 208.7L63.3 206.8L56.8 211.4L58.6 205.9L56.8 202.3L62.4 202.3L64.2 199.6L61.4 193.2L60.5 195.0L58.6 194.1L59.6 192.3L64.2 191.4L65.2 189.6L63.3 188.6L66.1 185.9L73.6 183.2L69.8 179.5L67.0 183.2L61.4 182.3L65.2 178.6L59.6 175.9L65.2 175.0L67.0 170.4L72.6 171.3L75.4 167.7L84.8 165.0L81.0 160.4L84.8 160.4L84.8 157.7L90.4 157.7L91.3 155.9L87.6 154.0L87.6 150.4L82.9 151.3L82.9 146.7L80.1 144.0L70.8 141.3L66.1 143.1L63.3 140.4L67.0 140.4L68.0 134.0L69.8 134.9L72.6 132.2L73.6 123.9L80.1 127.6L82.9 126.7L78.2 123.0L79.2 118.5L77.3 121.2L76.4 118.5L85.7 116.6L90.4 119.4L94.1 115.7L98.8 115.7L99.7 113.0L102.5 113.0L95.0 113.9L96.9 110.3L94.1 110.3L93.2 100.2L91.3 99.3L92.2 103.9L89.4 99.3L83.8 101.1L81.0 98.4L80.1 94.7L82.0 93.8L83.8 96.6L84.8 94.7L82.0 93.8L82.9 90.2L81.0 90.2L82.9 89.3L80.1 88.3L81.0 85.6L71.7 84.7L69.8 81.9L79.2 83.8L74.5 78.3L74.5 80.1L66.1 72.8L57.7 71.9L59.6 67.3L61.4 67.3L59.6 61.8L62.4 55.4L70.8 54.5L68.0 60.0L72.6 69.2L79.2 68.2L83.8 64.6L85.7 68.2L91.3 65.5L95.0 66.4L100.6 62.8L101.6 55.4L107.2 58.2L113.7 53.6L121.2 54.5L124.0 51.8L127.7 59.1L130.5 53.6L138.9 52.7L137.9 50.0L140.7 45.4L155.7 48.1L162.2 43.6L167.8 43.6L169.7 40.8L177.1 41.7L185.5 35.3L186.5 39.0L190.2 41.7L190.2 45.4L192.1 45.4L201.4 37.2L205.1 37.2L213.5 30.7L218.2 30.7L219.1 28.9L223.8 30.7L225.7 28.0L231.3 28.0L235.0 28.0ZM340.4 164.1L341.4 165.9L338.6 168.6L341.4 171.3L343.2 179.5L339.5 183.2L335.8 178.6L333.0 179.5L330.2 193.2L318.0 188.6L319.0 191.4L315.2 192.3L315.2 195.9L319.0 195.0L319.9 197.7L316.2 198.7L308.7 194.1L307.8 185.9L318.0 174.1L321.8 175.0L321.8 176.8L323.6 174.1L332.0 172.3L336.7 165.9L340.4 165.0L340.4 164.1Z"/><circle class="capital" cx="89.8" cy="85.4" r="6"/></svg>