<svg xmlns="http://www.w3.org/2000/svg" viewBox="0 0 400 400" class="pref-shape" data-mapno="31" data-name="鳥取県" role="img" aria-label="鳥取県の形"><style>.pref-shape path{fill:#FFFFFF;stroke:#1E293B;stroke-width:1.1;stroke-linejoin:round}.pref-shape.is-active path{fill:#0D9488}.pref-shape.is-correct path{fill:#16A34A}.pref-shape .capital{fill:#DC2626;stroke:#FFFFFF;stroke-width:1.5}</style><path d="M335.6 114.7L345.7 123.2L344.9 129.3L348.8 130.9L349.5 137.0L346.4 145.5L351.1 149.4L353.4 167.8L363.5 173.2L361.9 174.0L363.5 177.8L361.2 187.8L368.9 190.9L372.0 194.8L368.9 203.2L372.0 209.4L370.5 212.4L372.0 218.6L358.8 228.6L358.8 230.9L355.7 230.1L351.9 233.2L344.1 229.3L341.8 225.5L327.8 235.5L324.0 241.6L319.3 240.9L313.9 243.2L308.5 238.6L304.6 242.4L292.2 245.5L290.6 249.3L286.8 250.8L282.1 243.2L284.5 233.2L277.5 230.1L281.4 224.0L277.5 220.1L277.5 216.3L272.1 216.3L268.2 209.4L262.8 210.1L261.2 212.4L258.9 210.1L255.8 211.7L250.4 208.6L246.5 209.4L243.4 207.1L247.3 200.9L247.3 195.5L234.9 197.1L230.2 201.7L227.9 200.1L224.8 209.4L220.1 209.4L215.5 213.2L209.3 213.2L210.1 219.4L204.6 227.0L198.5 225.5L193.8 214.0L181.4 207.8L180.6 205.5L176.0 206.3L168.2 203.2L163.6 205.5L156.6 200.1L142.7 197.8L138.0 206.3L135.7 224.7L132.6 228.6L126.4 230.9L123.3 229.3L120.2 233.2L125.6 247.0L119.4 243.9L107.8 250.1L99.3 249.3L97.0 246.2L93.1 247.8L92.3 251.6L97.0 265.4L94.6 267.7L86.9 268.5L83.0 272.3L78.4 270.0L74.5 274.6L66.7 272.3L66.7 280.7L61.3 285.3L54.3 278.4L51.2 282.3L47.4 280.0L38.8 282.3L32.6 280.7L29.5 283.0L28.0 281.5L31.1 260.0L40.4 254.7L42.7 250.8L37.3 239.3L31.9 240.1L32.6 235.5L49.7 227.0L52.0 227.8L58.2 223.2L62.9 224.0L71.4 220.9L69.1 214.0L70.6 210.1L66.7 205.5L68.3 204.0L67.5 197.1L70.6 190.9L75.3 188.6L72.2 184.8L74.5 178.6L69.8 170.1L50.5 157.1L43.5 142.4L48.1 136.3L52.0 134.7L55.9 136.3L60.5 133.9L55.1 139.3L59.0 144.0L56.7 145.5L59.8 150.9L72.2 159.4L96.2 164.0L100.1 162.5L105.5 151.7L114.0 149.4L117.9 145.5L127.9 142.4L132.6 143.2L135.7 140.9L141.1 140.1L160.5 147.8L186.8 150.1L220.9 147.8L233.3 144.0L233.3 142.4L243.4 142.4L245.7 138.6L248.0 144.0L255.0 144.7L300.7 135.5L312.3 130.9L312.3 127.8L316.2 127.0L317.0 122.4L327.1 121.6L328.6 117.0L330.9 119.3L335.6 118.5L335.6 114.7Z"/><circle class="capital" cx="303.0" cy="149.2" r="6"/></svg>