<svg xmlns="http://www.w3.org/2000/svg" viewBox="0 0 400 400" class="pref-shape" data-mapno="32" data-name="島根県" role="img" aria-label="島根県の形"><style>.pref-shape path{fill:#FFFFFF;stroke:#1E293B;stroke-width:1.1;stroke-linejoin:round}.pref-shape.is-active path{fill:#0D9488}.pref-shape.is-correct path{fill:#16A34A}.pref-shape .capital{fill:#DC2626;stroke:#FFFFFF;stroke-width:1.5}</style><path d="M298.6 163.4L294.8 164.3L292.2 167.7L296.0 175.7L306.7 182.9L309.3 187.6L308.0 190.9L309.7 193.1L307.1 194.3L305.0 202.4L307.5 210.8L286.3 218.8L285.8 221.4L288.8 220.9L291.8 227.3L285.4 232.3L284.1 243.3L278.2 241.6L269.6 244.5L263.7 239.1L258.1 243.3L250.5 238.2L247.5 238.6L241.5 245.8L242.8 247.9L239.4 249.2L233.0 258.9L230.0 259.7L230.9 262.2L226.6 264.7L222.4 263.9L214.7 271.9L224.1 275.7L225.3 281.1L221.1 280.7L219.8 283.7L212.1 282.0L201.5 290.0L190.4 289.1L187.4 285.8L182.3 292.9L178.9 289.1L173.8 290.8L171.2 289.1L168.7 293.3L165.7 289.1L161.0 288.3L158.5 297.5L145.7 304.6L150.0 308.8L145.3 316.0L145.3 325.6L139.3 333.1L135.0 334.4L132.9 339.0L135.9 340.7L137.2 344.8L131.2 345.7L127.4 351.1L129.5 361.1L124.4 365.7L122.3 371.6L116.7 366.2L110.3 371.6L103.1 372.0L100.1 369.9L97.1 367.0L95.4 359.9L99.7 349.9L86.5 350.3L86.9 343.6L82.2 339.0L87.3 334.0L86.9 328.5L90.3 326.9L89.5 320.6L86.1 319.3L85.6 309.3L93.3 310.1L106.5 304.6L110.3 300.5L109.5 296.7L112.9 296.3L116.7 291.6L118.4 292.5L121.0 287.4L128.7 281.6L129.1 277.8L132.9 275.7L135.5 277.4L139.3 267.3L141.9 267.3L143.1 263.9L148.2 261.8L160.2 250.0L170.4 246.2L173.4 239.5L175.1 240.3L177.6 235.7L181.0 234.4L180.2 231.1L183.2 229.4L185.3 223.9L203.2 212.1L213.4 208.3L219.0 199.4L220.2 193.1L220.2 188.4L213.4 185.9L216.0 181.6L230.9 180.8L231.7 179.1L227.5 177.0L237.7 174.9L242.0 171.1L261.5 168.9L261.1 164.3L268.8 165.5L269.2 162.2L273.0 161.3L271.8 158.8L278.2 158.8L277.3 154.5L280.3 155.4L282.0 159.2L284.1 157.9L282.8 158.8L285.0 161.7L287.1 160.0L291.4 161.3L291.4 158.3L291.8 160.5L294.8 158.3L297.3 158.8L295.6 160.0L305.0 158.8L309.7 160.5L299.0 163.4L298.6 163.4ZM299.0 60.1L299.0 57.5L296.5 58.8L298.6 55.4L290.1 51.5L291.4 46.0L289.2 44.3L289.7 38.3L293.1 40.0L291.8 36.1L296.9 33.1L296.0 31.4L302.0 31.0L303.7 28.0L307.1 33.1L309.3 31.9L309.7 34.8L314.8 37.0L314.8 40.0L317.8 42.1L315.6 52.4L311.4 54.1L312.2 49.4L311.0 52.8L307.1 53.7L311.0 54.1L311.8 58.8L305.0 56.6L304.6 58.4L303.3 55.4L303.3 58.8L300.7 59.6L300.7 57.9L299.5 60.1L299.0 60.1ZM265.0 81.0L257.7 76.3L258.1 72.9L262.4 67.7L265.8 69.0L267.1 63.9L272.6 66.0L274.3 63.1L277.7 63.9L274.8 68.2L270.5 69.0L272.6 72.9L270.9 77.1L266.2 75.0L265.8 69.5L264.1 73.3L262.4 72.0L265.0 80.1L265.0 81.0Z"/><circle class="capital" cx="272.0" cy="176.6" r="6"/></svg>