<svg xmlns="http://www.w3.org/2000/svg" viewBox="0 0 400 400" class="pref-shape" data-mapno="33" data-name="岡山県" role="img" aria-label="岡山県の形"><style>.pref-shape path{fill:#FFFFFF;stroke:#1E293B;stroke-width:1.1;stroke-linejoin:round}.pref-shape.is-active path{fill:#0D9488}.pref-shape.is-correct path{fill:#16A34A}.pref-shape .capital{fill:#DC2626;stroke:#FFFFFF;stroke-width:1.5}</style><path d="M369.2 71.9L362.7 80.2L362.7 89.4L372.0 92.2L370.1 97.7L372.0 101.4L371.1 106.0L366.4 104.2L358.0 107.0L353.4 127.3L344.0 130.0L343.1 144.8L340.3 143.8L339.4 145.7L332.8 146.6L331.0 152.1L328.2 152.1L329.1 154.0L327.3 154.9L328.2 158.6L333.8 162.3L329.1 166.9L331.0 174.2L324.5 179.8L324.5 183.5L328.2 183.5L331.0 186.2L336.6 196.3L327.3 202.8L328.2 206.5L324.5 214.7L328.2 219.3L327.3 223.9L334.7 223.0L334.7 225.8L343.1 233.1L344.0 242.3L348.7 245.1L344.0 248.7L342.2 255.2L345.0 262.5L341.2 257.9L334.7 257.0L332.8 258.8L330.0 257.9L329.1 262.5L320.7 264.3L316.1 262.5L317.9 261.6L317.0 258.8L309.5 258.8L303.9 256.1L303.9 254.2L302.1 257.9L309.5 259.8L309.5 261.6L305.8 262.5L306.7 264.3L312.3 264.3L307.7 267.1L314.2 267.1L318.9 264.3L321.7 270.8L319.8 269.8L318.9 273.5L312.3 276.3L315.1 277.2L312.3 279.9L309.5 279.0L311.4 281.8L305.8 282.7L307.7 284.5L305.8 287.3L299.3 287.3L300.2 295.5L303.0 292.8L304.9 294.6L302.1 295.5L299.3 302.0L292.8 300.1L290.9 303.8L288.1 303.8L290.0 306.5L274.1 313.9L272.2 311.1L264.8 311.1L263.9 308.4L267.6 303.8L262.0 307.5L261.1 303.8L247.1 302.0L242.4 306.5L232.2 306.5L235.9 312.0L239.6 308.4L248.9 309.3L255.5 306.5L258.3 307.5L262.0 314.8L258.3 315.7L257.3 324.9L254.5 324.9L254.5 326.7L251.7 324.9L247.1 329.4L248.9 338.6L241.5 330.4L235.9 334.0L235.0 341.4L237.8 345.0L233.1 345.9L229.4 349.6L230.3 352.3L228.4 353.3L231.2 356.0L229.4 360.6L226.6 358.7L223.8 361.5L212.6 358.7L208.9 355.1L198.6 352.3L197.7 354.2L193.0 354.2L193.0 356.9L190.2 357.8L191.1 364.2L194.9 368.8L184.6 366.1L179.0 358.7L180.9 357.8L178.1 356.9L178.1 353.3L176.2 354.2L176.2 347.8L172.5 346.8L169.7 334.0L168.8 343.2L164.1 342.3L164.1 344.1L169.7 346.8L171.6 354.2L166.0 351.4L166.0 353.3L159.4 351.4L159.4 328.5L155.7 328.5L155.7 334.9L152.0 334.0L155.7 335.9L155.7 338.6L152.9 340.4L149.2 340.4L151.1 336.8L146.4 335.9L142.7 338.6L142.7 341.4L136.1 342.3L133.3 345.9L126.8 345.9L125.0 348.7L128.7 352.3L126.8 354.2L116.6 354.2L110.0 356.9L107.2 351.4L103.5 350.5L100.7 343.2L97.0 342.3L94.2 337.7L106.3 354.2L106.3 359.7L90.5 364.2L90.5 361.5L95.1 357.8L93.3 355.1L88.6 358.7L84.9 357.8L84.9 351.4L82.1 350.5L84.9 345.0L83.9 340.4L82.1 341.4L83.9 332.2L82.1 323.0L76.5 317.5L74.6 311.1L67.2 308.4L63.4 298.3L69.0 279.9L64.4 279.0L56.0 257.9L58.8 254.2L56.9 249.6L61.6 231.3L58.8 226.7L56.0 226.7L54.1 223.0L47.6 219.3L47.6 212.9L44.8 212.0L37.3 200.9L38.3 187.1L41.1 183.5L37.3 177.0L39.2 170.6L43.8 166.9L44.8 157.7L39.2 154.9L33.6 145.7L28.0 141.1L35.5 133.7L35.5 123.6L38.3 122.6L44.8 126.3L49.4 120.8L55.0 123.6L59.7 119.0L69.0 118.0L71.8 115.3L71.8 110.6L66.2 95.0L70.9 92.2L74.6 95.9L80.2 96.8L88.6 95.9L98.9 89.4L106.3 93.1L104.4 83.9L99.8 76.5L103.5 71.9L107.2 73.7L114.7 70.9L118.4 66.3L121.2 44.1L125.9 38.6L126.8 34.0L143.6 36.7L152.0 43.2L157.6 40.4L166.9 44.1L172.5 43.2L173.4 46.0L177.2 46.0L180.9 50.6L188.3 53.4L193.9 67.2L201.4 69.1L207.9 59.9L207.0 52.5L214.4 52.5L220.0 47.8L225.6 47.8L227.5 37.7L229.4 36.7L232.2 38.6L237.8 33.0L242.4 34.0L247.1 31.2L252.7 31.2L252.7 37.7L248.0 45.1L251.7 47.8L256.4 46.9L262.9 50.6L266.7 48.8L269.5 51.5L271.3 48.8L277.8 47.8L282.5 56.2L289.0 56.2L289.0 60.8L293.7 65.4L289.0 72.8L291.8 75.6L295.6 74.6L297.4 76.5L294.6 88.5L300.2 97.7L304.9 95.9L306.7 91.3L321.7 87.6L326.3 83.0L332.8 88.5L339.4 85.7L345.0 86.6L349.6 79.3L360.8 72.8L360.8 70.0L366.4 67.2L368.3 69.1L369.2 71.9Z"/><circle class="capital" cx="228.8" cy="283.9" r="6"/></svg>