<svg xmlns="http://www.w3.org/2000/svg" viewBox="0 0 400 400" class="pref-shape" data-mapno="34" data-name="広島県" role="img" aria-label="広島県の形"><style>.pref-shape path{fill:#FFFFFF;stroke:#1E293B;stroke-width:1.1;stroke-linejoin:round}.pref-shape.is-active path{fill:#0D9488}.pref-shape.is-correct path{fill:#16A34A}.pref-shape .capital{fill:#DC2626;stroke:#FFFFFF;stroke-width:1.5}</style><path d="M294.5 57.9L296.0 60.9L299.0 58.7L305.0 60.2L313.3 57.9L317.1 60.2L317.8 57.2L322.3 57.2L335.1 75.8L339.6 78.0L338.9 85.5L335.1 88.5L333.6 93.7L336.6 98.9L334.4 101.8L333.6 113.0L341.9 122.6L341.9 127.8L352.4 135.2L350.9 142.7L352.4 144.9L349.4 152.3L350.9 156.0L348.7 159.0L355.4 176.0L359.2 176.8L354.7 191.6L357.7 199.7L363.7 201.9L365.2 207.1L369.0 210.1L371.2 217.5L369.7 226.4L371.2 225.6L372.0 229.3L369.7 233.7L369.0 231.5L369.0 244.1L362.2 239.7L362.2 233.7L360.0 238.9L368.2 246.3L366.0 250.0L360.0 246.3L360.0 248.5L354.7 251.5L354.7 262.6L345.7 267.0L345.7 264.0L342.6 262.6L339.6 264.0L335.9 261.1L330.6 261.1L329.8 256.6L327.6 259.6L321.6 260.3L320.8 257.4L324.6 258.1L327.6 253.0L326.8 247.8L322.3 244.8L323.1 250.0L320.1 246.3L320.8 250.0L317.8 252.2L318.6 253.7L312.5 253.7L290.7 262.6L282.4 258.1L283.9 260.3L280.9 272.9L276.4 272.9L271.1 277.3L270.4 275.8L262.9 278.1L260.6 275.8L257.6 277.3L249.3 275.1L242.5 278.8L240.3 275.8L239.5 278.8L235.0 278.8L229.7 283.2L231.2 285.4L226.7 286.2L226.0 288.4L221.5 285.4L221.5 281.7L216.2 281.7L212.4 283.2L209.4 293.5L201.9 291.3L203.4 295.8L201.9 298.0L206.4 298.7L203.4 303.9L189.1 304.6L185.3 312.7L179.3 310.5L179.3 312.7L174.8 314.9L168.8 312.7L168.8 309.0L163.5 306.8L156.7 316.4L149.9 317.9L150.7 313.4L147.7 309.8L149.2 307.5L153.0 307.5L154.5 303.1L151.4 303.9L149.9 301.7L147.7 303.9L146.2 302.4L147.7 300.2L143.9 299.4L144.7 292.1L139.4 283.2L141.7 275.8L137.9 275.8L139.4 272.2L141.7 272.2L142.4 275.1L144.7 273.6L142.4 270.7L147.7 269.9L144.7 267.0L142.4 269.9L134.9 269.2L133.4 271.4L129.6 271.4L130.4 267.7L127.4 272.2L116.1 267.0L110.0 267.7L110.8 271.4L110.0 268.5L107.0 272.2L106.3 268.5L100.3 272.9L103.3 274.4L98.0 273.6L96.5 279.5L87.5 290.6L75.4 298.7L72.4 306.1L78.4 312.7L66.4 314.2L68.6 307.5L60.4 308.3L60.4 306.1L57.4 307.5L54.3 305.3L55.1 300.2L51.3 295.0L52.8 290.6L49.1 287.6L49.8 276.6L45.3 278.1L40.0 269.2L36.3 269.9L37.8 260.3L35.5 253.0L38.5 244.8L33.3 230.1L28.0 227.1L31.8 219.0L39.3 216.7L49.8 203.4L50.6 199.0L47.6 197.5L49.8 186.4L58.1 173.8L57.4 170.8L50.6 169.4L50.6 166.4L62.6 158.2L64.9 159.0L67.1 155.3L73.2 153.8L73.9 147.9L77.7 144.2L77.7 137.5L86.0 139.0L86.7 144.2L91.2 146.4L95.7 139.0L100.3 141.9L109.3 139.0L115.3 145.6L119.8 139.7L122.1 139.7L121.3 135.2L124.4 133.0L129.6 139.0L141.7 140.4L145.4 138.2L149.2 140.4L153.7 136.7L156.7 137.5L164.2 129.3L166.5 130.1L168.0 126.3L181.6 129.3L183.8 124.1L186.8 126.3L191.3 124.9L189.1 115.2L172.5 108.5L174.8 108.5L186.1 94.4L192.1 93.7L193.6 95.9L195.1 92.9L201.1 91.4L199.6 87.0L204.9 85.5L204.9 81.0L210.2 78.8L210.2 75.8L214.7 72.8L216.2 68.4L222.2 66.1L219.9 62.4L230.5 49.8L235.8 49.0L239.5 54.2L249.3 57.9L255.3 55.7L258.3 50.5L265.1 54.2L265.1 57.2L268.1 57.2L269.6 60.2L284.7 55.0L290.7 55.0L292.2 57.2L294.5 57.9ZM122.8 337.0L128.1 325.2L127.4 322.3L129.6 323.0L128.9 320.8L125.1 317.1L122.8 323.8L121.3 317.1L112.3 308.3L113.1 303.9L109.3 298.7L110.8 297.2L121.3 299.4L125.1 308.3L128.1 309.0L129.6 306.8L134.1 313.4L135.6 306.8L132.6 302.4L129.6 299.4L126.6 302.4L123.6 300.2L127.4 296.5L124.4 290.6L134.1 291.3L134.9 287.6L139.4 295.8L137.9 314.9L134.1 317.1L133.4 321.5L137.9 332.6L125.1 335.5L122.8 337.0ZM153.0 351.0L151.4 345.8L149.2 346.6L148.4 344.4L143.2 348.0L143.2 344.4L140.9 344.4L139.4 348.0L136.4 347.3L135.6 349.5L135.6 348.0L130.4 350.3L127.4 343.6L132.6 338.5L140.9 335.5L142.4 333.3L138.7 329.6L139.4 323.8L146.9 315.7L149.2 315.7L149.2 319.3L153.0 319.3L154.5 323.8L152.2 322.3L145.4 328.9L147.7 331.1L152.2 330.4L152.2 332.6L154.5 330.4L149.2 339.2L149.9 342.9L159.0 337.0L160.5 341.4L162.7 340.7L161.2 342.9L157.5 340.7L153.7 351.0L153.0 351.0ZM232.0 314.2L225.2 312.0L222.2 303.9L232.7 301.7L234.2 298.0L238.0 301.7L243.3 291.3L247.8 292.8L241.0 305.3L242.5 311.2L232.7 313.4L232.0 314.2ZM86.0 306.8L82.9 299.4L87.5 295.8L89.0 290.6L96.5 287.6L99.5 283.2L103.3 288.4L103.3 292.1L86.0 306.1L86.0 306.8Z"/><circle class="capital" cx="130.7" cy="258.3" r="6"/></svg>