<svg xmlns="http://www.w3.org/2000/svg" viewBox="0 0 400 400" class="pref-shape" data-mapno="35" data-name="山口県" role="img" aria-label="山口県の形"><style>.pref-shape path{fill:#FFFFFF;stroke:#1E293B;stroke-width:1.1;stroke-linejoin:round}.pref-shape.is-active path{fill:#0D9488}.pref-shape.is-correct path{fill:#16A34A}.pref-shape .capital{fill:#DC2626;stroke:#FFFFFF;stroke-width:1.5}</style><path d="M205.6 84.5L204.3 87.8L207.6 93.0L206.3 100.1L211.6 102.1L212.9 111.9L209.6 115.1L207.6 114.5L208.3 123.0L200.3 130.8L202.3 130.8L203.6 136.6L206.3 136.0L207.6 137.9L207.0 148.3L216.2 149.6L219.6 147.0L227.5 147.7L225.5 157.4L220.9 162.0L222.2 168.5L224.2 169.1L223.5 174.3L232.8 182.1L235.5 182.1L236.1 180.2L246.1 180.8L247.4 176.3L250.0 178.2L254.0 173.0L262.6 181.5L265.9 172.4L273.9 165.2L273.9 161.3L269.3 153.5L270.6 149.6L274.6 147.7L276.6 141.2L285.8 139.2L288.5 146.4L285.8 153.5L287.8 160.0L286.5 168.5L289.8 167.8L294.5 175.6L298.4 174.3L297.8 184.1L301.1 186.7L299.8 190.6L303.1 195.1L302.4 199.7L305.1 201.6L307.7 200.3L307.7 202.3L315.0 201.6L313.0 207.4L324.3 207.4L320.3 212.6L324.3 215.9L324.3 222.4L321.0 227.5L314.3 228.2L315.7 244.4L318.3 247.6L317.0 259.3L311.0 270.3L298.4 271.6L297.8 274.2L296.4 272.9L299.8 284.5L299.1 290.3L305.1 296.1L302.4 303.2L296.4 303.9L297.1 292.3L288.5 288.4L287.8 285.1L281.2 283.9L283.8 280.0L276.6 285.8L267.3 278.7L264.6 280.0L266.6 281.3L264.0 281.3L263.3 274.8L258.0 274.2L256.7 270.3L255.3 272.2L248.7 265.1L242.1 263.2L242.1 258.6L235.5 257.3L232.8 261.9L227.5 263.8L233.5 266.4L230.8 269.0L222.2 265.1L220.2 267.0L234.8 252.8L229.5 249.6L225.5 253.5L228.8 247.6L226.8 247.6L228.2 245.0L220.9 245.0L217.6 248.3L215.6 246.3L219.6 243.1L216.9 243.7L216.2 241.8L215.6 244.4L209.6 245.0L207.0 248.3L203.0 246.3L202.3 249.6L195.7 250.9L195.7 248.3L193.7 248.3L188.4 254.7L185.1 249.6L184.4 251.5L182.4 250.9L183.8 252.2L181.8 255.4L175.1 259.9L173.2 258.6L173.2 261.2L166.5 259.3L167.2 255.4L159.2 250.9L157.2 254.1L160.6 257.3L156.6 259.3L153.9 258.0L156.6 263.8L153.9 261.9L151.3 265.1L148.6 263.2L149.3 256.7L146.0 258.0L142.7 264.5L142.0 261.2L146.6 254.7L142.7 254.1L143.3 247.6L140.0 247.6L140.7 252.2L136.7 252.8L139.4 254.7L138.7 258.6L132.1 265.1L134.1 268.3L114.8 280.0L110.9 279.3L112.8 278.0L111.5 276.7L106.9 278.7L110.9 275.4L108.9 272.9L105.5 277.4L102.9 274.8L96.3 278.0L91.6 272.2L94.3 269.6L92.3 269.6L93.0 267.7L94.9 268.3L94.3 266.4L92.3 267.0L94.3 261.2L91.6 263.2L89.6 261.9L90.3 259.3L86.3 259.3L87.0 262.5L80.4 252.8L67.8 249.6L65.8 245.7L64.5 250.2L60.5 253.5L62.5 255.4L60.5 257.3L59.2 254.7L58.5 256.0L59.2 259.3L56.5 263.8L41.9 274.2L41.3 282.6L37.3 282.6L38.6 279.3L36.6 280.6L35.3 276.1L30.7 273.5L32.0 272.2L36.6 274.8L39.3 272.2L39.3 275.4L40.6 274.2L37.9 272.2L39.9 265.7L39.9 254.7L37.3 254.1L39.3 245.0L36.6 242.4L34.0 243.1L28.0 232.1L29.3 225.6L37.3 224.3L36.0 220.4L41.9 216.5L43.2 206.1L39.9 204.8L40.6 197.7L29.3 186.0L35.3 180.2L34.6 171.1L36.6 167.2L43.2 172.4L43.9 169.8L57.8 163.9L65.8 164.6L61.8 156.1L53.8 157.4L49.2 155.5L47.2 156.1L48.5 160.0L43.2 158.7L49.2 154.2L51.9 146.4L58.5 149.6L61.1 154.2L67.8 154.2L73.1 150.9L81.7 154.8L85.7 152.9L87.0 159.4L91.0 164.6L98.3 162.0L100.2 158.1L101.6 163.3L104.2 164.6L106.2 158.7L110.9 162.0L112.8 160.0L123.4 161.3L126.8 159.4L130.1 152.2L134.7 154.2L139.4 150.9L140.7 152.9L144.0 149.6L146.6 150.3L146.0 147.0L148.0 146.4L142.7 145.1L142.0 142.5L146.6 144.4L150.0 138.6L153.3 137.3L152.6 135.3L154.6 136.6L156.6 134.7L157.9 131.4L153.9 129.5L155.3 124.3L157.2 121.0L165.2 122.3L174.5 113.2L176.5 110.6L176.5 101.4L181.8 100.1L181.1 98.8L186.4 99.5L186.4 96.9L183.8 96.9L187.1 89.1L194.4 89.1L194.4 93.6L196.4 94.9L195.7 91.7L201.7 88.4L200.3 85.8L204.3 85.1L205.6 84.5ZM315.7 297.4L314.3 291.0L309.0 287.7L308.4 280.6L311.7 277.4L311.0 272.2L315.0 273.5L317.0 269.6L320.3 270.9L321.0 269.0L327.6 273.5L332.2 271.6L335.5 281.3L338.2 282.6L339.5 280.6L338.9 284.5L341.5 285.8L347.5 283.9L346.8 281.9L350.8 278.7L357.4 278.7L357.4 275.4L361.4 272.2L366.0 275.4L372.0 272.9L365.4 279.3L361.4 279.3L358.1 283.9L356.1 281.3L350.8 283.2L348.8 287.1L350.8 295.5L345.5 294.2L341.5 296.8L340.8 293.5L343.5 290.3L341.5 291.0L338.9 287.7L333.6 288.4L333.6 285.8L328.9 288.4L328.3 292.3L330.9 293.5L328.3 294.2L325.6 291.6L317.0 294.8L315.7 297.4ZM281.9 315.5L277.2 313.6L282.5 312.3L283.8 307.8L287.8 304.5L285.8 298.7L287.2 296.8L289.1 300.7L290.5 299.4L296.4 303.9L289.8 305.8L287.2 311.0L283.8 311.6L283.8 314.2L281.9 315.5Z"/><circle class="capital" cx="158.6" cy="212.5" r="6"/></svg>