<svg xmlns="http://www.w3.org/2000/svg" viewBox="0 0 400 400" class="pref-shape" data-mapno="36" data-name="徳島県" role="img" aria-label="徳島県の形"><style>.pref-shape path{fill:#FFFFFF;stroke:#1E293B;stroke-width:1.1;stroke-linejoin:round}.pref-shape.is-active path{fill:#0D9488}.pref-shape.is-correct path{fill:#16A34A}.pref-shape .capital{fill:#DC2626;stroke:#FFFFFF;stroke-width:1.5}</style><path d="M274.0 80.1L284.8 79.2L291.6 73.4L315.2 74.4L314.2 69.6L321.0 68.6L319.1 82.0L331.8 90.7L337.7 90.7L325.9 113.7L325.9 127.1L322.0 134.7L326.9 135.7L325.9 139.5L324.0 137.6L320.1 138.6L323.0 140.5L320.1 146.2L323.0 146.2L321.0 148.1L325.0 152.0L321.0 154.8L323.0 158.7L328.9 160.6L325.9 161.5L325.9 166.3L327.9 162.5L330.8 164.4L332.8 163.5L331.8 161.5L332.8 163.5L334.8 161.5L333.8 155.8L337.7 157.7L345.5 174.0L355.3 178.8L358.3 187.4L348.5 205.5L348.5 202.7L346.5 202.7L345.5 205.5L341.6 204.6L343.6 206.5L342.6 208.4L338.7 207.4L336.7 209.3L335.7 207.4L336.7 209.3L333.8 214.1L338.7 210.3L337.7 215.1L339.7 215.1L337.7 218.9L342.6 217.0L343.6 218.9L345.5 217.0L345.5 218.9L351.4 215.1L362.2 217.9L355.3 218.9L349.5 223.7L356.3 221.8L361.2 221.8L362.2 223.7L367.1 219.9L370.0 219.9L372.0 222.7L338.7 238.9L337.7 242.8L335.7 240.9L326.9 242.8L325.0 248.5L323.0 248.5L323.0 245.6L318.1 246.6L318.1 249.4L315.2 249.4L314.2 260.9L310.3 259.0L311.2 256.1L309.3 259.9L306.3 259.0L306.3 265.7L298.5 272.3L273.0 287.6L271.1 286.6L270.1 288.5L267.1 286.6L265.2 290.4L262.2 288.5L253.4 299.0L249.5 300.0L250.5 301.9L258.3 302.8L251.5 308.6L248.5 313.3L249.5 315.2L239.7 317.1L249.5 319.0L234.8 318.1L235.8 320.0L232.8 320.0L231.9 325.7L235.8 327.6L233.8 331.4L224.0 326.6L215.2 329.5L211.3 327.6L210.3 329.5L204.4 323.8L195.6 325.7L193.6 316.2L188.7 312.4L190.7 308.6L183.8 306.6L181.9 300.0L192.6 293.3L188.7 289.5L189.7 280.0L174.0 275.2L156.4 278.1L152.5 276.2L157.4 269.5L155.4 265.7L156.4 260.9L152.5 254.2L153.4 242.8L149.5 239.9L149.5 235.1L145.6 232.3L145.6 224.6L133.8 227.5L129.9 219.9L123.1 221.8L120.1 224.6L119.1 233.2L116.2 236.1L111.3 235.1L107.4 238.9L101.5 234.2L94.6 233.2L88.8 222.7L83.9 218.9L74.1 221.8L68.2 221.8L68.2 219.9L64.3 218.9L55.4 221.8L50.5 216.0L40.7 216.0L29.0 209.3L28.0 203.6L29.0 201.7L30.9 202.7L36.8 191.2L35.8 187.4L32.9 187.4L37.8 179.7L37.8 174.0L33.9 171.1L34.9 165.4L32.9 165.4L35.8 157.7L33.9 154.8L42.7 153.9L46.6 151.0L49.6 142.4L55.4 139.5L66.2 129.0L71.1 132.8L77.0 131.9L79.0 124.2L86.8 122.3L88.8 119.4L94.6 121.3L101.5 118.5L104.4 121.3L110.3 115.6L116.2 115.6L115.2 118.5L118.2 124.2L125.0 128.0L126.0 131.9L129.9 130.0L131.9 131.9L135.8 130.9L137.8 126.1L142.7 127.1L150.5 114.6L154.4 116.5L160.3 113.7L164.2 115.6L174.0 114.6L178.9 108.9L177.9 100.2L189.7 91.6L199.5 93.5L204.4 90.7L213.2 91.6L217.2 89.7L222.1 91.6L227.0 90.7L228.9 95.5L233.8 91.6L243.6 93.5L245.6 88.7L255.4 93.5L256.4 96.4L259.3 97.4L262.2 95.5L267.1 99.3L272.0 94.5L270.1 89.7L274.0 86.8L274.0 83.9L274.0 80.1Z"/><circle class="capital" cx="311.6" cy="134.2" r="6"/></svg>