<svg xmlns="http://www.w3.org/2000/svg" viewBox="0 0 400 400" class="pref-shape" data-mapno="37" data-name="香川県" role="img" aria-label="香川県の形"><style>.pref-shape path{fill:#FFFFFF;stroke:#1E293B;stroke-width:1.1;stroke-linejoin:round}.pref-shape.is-active path{fill:#0D9488}.pref-shape.is-correct path{fill:#16A34A}.pref-shape .capital{fill:#DC2626;stroke:#FFFFFF;stroke-width:1.5}</style><path d="M75.2 330.5L70.4 323.4L59.5 323.4L54.6 318.7L48.6 321.1L43.7 315.2L46.2 316.3L54.6 311.6L57.1 298.6L58.3 299.8L57.1 296.2L59.5 292.7L57.1 278.5L59.5 276.1L57.1 277.3L59.5 276.1L63.1 245.3L60.7 246.5L57.1 240.5L58.3 238.2L52.2 235.8L52.2 232.2L48.6 231.1L46.2 226.3L32.8 221.6L36.5 219.2L35.3 216.8L34.1 218.0L35.3 215.6L28.0 212.1L32.8 210.9L40.1 213.3L40.1 215.6L47.4 216.8L53.4 225.1L57.1 223.9L65.5 226.3L72.8 220.4L70.4 226.3L71.6 228.7L74.0 223.9L75.2 225.1L71.6 231.1L74.0 231.1L78.9 223.9L82.5 226.3L98.3 212.1L94.6 208.5L97.0 203.8L99.5 208.5L99.5 206.1L101.9 206.1L99.5 203.8L101.9 201.4L103.1 205.0L105.5 201.4L107.9 202.6L111.6 200.2L107.9 194.3L109.2 193.1L114.0 200.2L112.8 196.7L115.2 194.3L111.6 191.9L115.2 189.5L118.8 197.8L121.3 194.3L117.6 190.7L118.8 189.5L121.3 191.9L133.4 183.6L131.0 182.4L129.7 177.7L129.7 169.4L132.2 171.7L132.2 169.4L138.2 165.8L138.2 168.2L133.4 171.7L134.6 174.1L140.6 170.5L143.1 165.8L144.3 172.9L137.0 176.5L138.2 178.8L134.6 180.0L135.8 183.6L141.9 180.0L140.6 183.6L143.1 181.2L144.3 182.4L144.3 180.0L147.9 182.4L147.9 177.7L149.1 178.8L152.8 174.1L155.2 175.3L154.0 174.1L158.8 169.4L156.4 159.8L160.0 155.1L161.2 157.5L164.9 156.3L167.3 158.7L172.1 152.7L177.0 159.8L179.4 156.3L184.3 158.7L186.7 165.8L191.5 159.8L201.2 170.5L203.6 168.2L209.7 168.2L213.3 169.4L212.1 171.7L214.5 171.7L213.3 169.4L215.7 170.5L218.2 168.2L218.2 170.5L221.8 169.4L221.8 171.7L224.2 171.7L225.4 169.4L221.8 168.2L227.9 165.8L226.6 172.9L229.1 170.5L229.1 165.8L231.5 167.0L232.7 171.7L236.3 164.6L236.3 155.1L244.8 167.0L247.2 167.0L246.0 158.7L249.7 153.9L247.2 148.0L254.5 148.0L261.8 151.5L264.2 155.1L261.8 163.4L263.0 170.5L260.6 172.9L264.2 182.4L270.3 182.4L270.3 178.8L275.1 180.0L272.7 178.8L273.9 174.1L271.5 169.4L275.1 174.1L279.9 174.1L283.6 170.5L279.9 163.4L282.4 162.2L290.8 177.7L298.1 170.5L300.5 172.9L300.5 177.7L304.2 177.7L304.2 186.0L296.9 190.7L296.9 196.7L303.0 202.6L305.4 199.0L315.1 207.3L319.9 205.0L333.2 216.8L345.4 218.0L347.8 213.3L353.8 218.0L355.0 223.9L361.1 226.3L357.5 227.5L362.3 233.4L372.0 238.2L372.0 246.5L367.2 250.0L369.6 255.9L363.5 261.9L361.1 261.9L357.5 257.1L353.8 259.5L350.2 258.3L349.0 254.8L336.9 248.8L334.5 254.8L322.3 252.4L316.3 257.1L313.9 251.2L307.8 252.4L301.7 250.0L296.9 252.4L286.0 251.2L279.9 254.8L271.5 254.8L267.8 252.4L256.9 258.3L253.3 263.1L254.5 273.7L248.5 280.8L236.3 282.0L231.5 279.6L227.9 283.2L219.4 280.8L209.7 296.2L203.6 295.0L201.2 300.9L196.4 302.1L193.9 299.8L189.1 302.1L187.9 297.4L179.4 292.7L175.8 285.6L177.0 282.0L169.7 282.0L162.5 289.1L158.8 285.6L150.3 289.1L143.1 286.7L140.6 290.3L131.0 292.7L128.5 302.1L121.3 303.3L115.2 298.6L107.9 303.3L101.9 311.6L94.6 315.2L91.0 325.8L86.1 329.3L83.7 328.2L76.5 330.5L75.2 330.5ZM329.6 70.7L336.9 69.5L334.5 73.0L342.9 71.9L335.7 75.4L334.5 79.0L339.3 81.4L340.5 86.1L338.1 96.8L335.7 99.2L336.9 104.0L334.5 104.0L338.1 113.5L336.9 118.3L330.8 124.2L332.0 131.3L324.8 120.6L317.5 120.6L317.5 123.0L311.4 127.8L309.0 125.4L311.4 125.4L310.2 119.4L315.1 117.1L317.5 119.4L323.5 119.4L322.3 111.1L316.3 109.9L304.2 115.9L303.0 123.0L296.9 132.5L296.9 138.5L290.8 140.8L288.4 134.9L290.8 134.9L290.8 132.5L293.3 133.7L292.1 130.1L287.2 130.1L293.3 124.2L294.5 118.3L292.1 114.7L289.6 114.7L289.6 109.9L284.8 112.3L276.3 107.6L271.5 112.3L269.0 111.1L264.2 118.3L263.0 117.1L259.4 119.4L258.1 114.7L255.7 114.7L261.8 104.0L265.4 102.8L270.3 106.4L264.2 96.8L261.8 98.0L267.8 86.1L266.6 87.3L271.5 93.3L273.9 90.9L283.6 89.7L287.2 86.1L293.3 86.1L303.0 75.4L305.4 75.4L305.4 77.8L313.9 77.8L328.4 69.5L329.6 70.7ZM231.5 119.4L225.4 113.5L217.0 111.1L214.5 108.7L217.0 105.2L221.8 106.4L226.6 101.6L232.7 100.4L233.9 102.8L238.8 105.2L240.0 104.0L240.0 109.9L232.7 119.4L231.5 119.4ZM83.7 170.5L77.7 164.6L82.5 153.9L86.1 153.9L87.4 146.8L94.6 161.0L91.0 165.8L87.4 165.8L87.4 169.4L84.9 169.4L83.7 170.5Z"/><circle class="capital" cx="217.2" cy="175.8" r="6"/></svg>