<svg xmlns="http://www.w3.org/2000/svg" viewBox="0 0 400 400" class="pref-shape" data-mapno="38" data-name="愛媛県" role="img" aria-label="愛媛県の形"><style>.pref-shape path{fill:#FFFFFF;stroke:#1E293B;stroke-width:1.1;stroke-linejoin:round}.pref-shape.is-active path{fill:#0D9488}.pref-shape.is-correct path{fill:#16A34A}.pref-shape .capital{fill:#DC2626;stroke:#FFFFFF;stroke-width:1.5}</style><path d="M352.8 90.8L355.4 93.9L358.6 92.7L361.1 95.1L366.8 95.1L370.6 100.1L368.7 105.7L371.9 115.0L368.7 120.0L371.3 122.4L367.5 129.9L360.5 131.1L358.6 133.6L354.8 131.1L349.7 134.2L344.6 131.1L340.8 131.7L331.9 144.1L315.3 141.0L310.3 144.7L303.3 142.9L293.7 147.2L286.7 143.5L281.7 154.0L275.3 155.9L270.2 152.8L267.7 159.6L262.6 163.3L263.2 168.3L258.8 172.0L260.1 174.4L255.0 178.1L254.3 185.6L246.1 187.4L244.2 195.4L246.7 197.9L241.6 201.6L239.7 206.6L242.9 209.7L243.5 214.0L238.4 218.3L233.4 229.4L221.3 233.1L199.0 230.0L190.8 234.3L194.6 238.0L196.5 249.7L200.3 249.7L201.6 257.1L209.2 262.1L209.9 268.8L201.0 275.6L188.2 279.9L183.8 287.9L184.4 297.1L177.4 298.4L174.9 305.7L166.6 314.3L155.2 303.9L155.8 301.4L152.7 303.3L151.4 305.7L153.9 308.8L154.6 314.9L161.6 320.5L162.8 329.7L160.3 333.4L164.7 338.9L164.1 345.0L167.3 353.6L166.0 359.7L159.6 361.6L159.6 365.3L148.2 368.3L145.7 362.2L148.8 360.4L143.8 362.2L143.1 360.4L138.0 360.4L141.8 364.6L131.0 359.1L129.1 361.6L133.6 363.4L127.2 367.1L133.6 367.7L131.7 370.8L127.2 370.2L126.0 372.0L122.1 370.2L123.4 366.5L119.6 362.2L127.2 361.6L128.5 357.9L122.1 354.8L124.7 354.2L124.7 351.8L127.9 350.5L126.6 351.2L129.1 352.4L127.2 353.0L127.2 356.1L139.3 356.7L130.4 353.0L127.2 342.6L124.7 344.4L124.1 335.2L122.1 337.7L122.1 335.2L117.7 335.2L118.3 338.9L115.8 334.6L113.9 335.8L109.4 333.4L110.1 337.7L108.2 338.9L110.1 340.7L108.2 340.1L106.9 343.8L103.1 342.0L106.3 340.7L108.2 336.4L108.2 330.3L110.7 329.7L110.1 331.5L112.6 330.9L113.9 334.0L117.1 330.9L117.7 333.4L123.4 331.5L124.7 333.4L126.0 331.5L123.4 326.6L122.1 330.3L120.2 328.5L122.1 327.2L120.2 324.8L124.1 322.9L122.1 322.9L121.5 318.6L117.1 316.8L121.5 316.2L122.1 319.2L124.7 316.8L127.9 318.0L128.5 315.6L123.4 312.5L122.8 314.3L118.3 312.5L118.3 314.9L115.8 313.7L116.4 311.3L112.6 309.4L113.9 310.0L113.9 305.7L120.9 305.1L117.1 300.2L115.2 301.4L113.3 297.1L108.8 297.1L112.0 294.7L117.1 298.4L119.6 295.9L119.6 302.7L122.1 303.9L124.1 302.0L123.4 305.7L126.0 307.0L126.6 302.0L128.5 305.7L131.0 305.7L129.8 299.6L126.0 299.6L129.1 299.6L128.5 296.5L134.9 294.1L136.8 295.3L136.1 291.6L140.6 292.8L138.7 292.2L138.7 289.1L137.4 290.4L132.3 286.7L136.8 283.0L135.5 280.5L129.1 283.6L124.1 279.9L124.7 282.4L121.5 284.8L124.7 276.2L129.1 272.5L133.6 272.5L133.0 270.1L129.1 269.4L127.9 271.3L126.6 267.6L126.0 270.1L121.5 269.4L118.3 271.9L113.9 268.8L111.3 273.1L106.3 268.8L101.8 269.4L102.4 265.1L104.4 263.3L105.6 264.5L105.6 262.1L110.1 263.3L109.4 260.8L111.3 260.8L108.8 259.0L111.3 253.4L104.4 259.0L103.1 253.4L106.9 249.7L104.4 244.2L106.9 242.3L108.8 243.6L110.7 238.6L103.7 239.3L111.3 235.6L105.0 234.9L105.6 232.5L107.5 233.1L106.9 230.6L103.1 232.5L103.1 234.9L98.0 227.5L95.5 228.8L98.0 231.2L91.6 231.9L90.4 236.8L87.2 231.2L82.7 238.0L74.5 243.0L63.0 246.0L57.3 251.6L56.7 255.9L52.2 258.4L46.5 259.0L50.3 252.8L45.2 252.2L35.1 257.7L36.4 259.6L33.8 261.4L28.1 263.3L49.1 244.8L51.0 244.2L52.9 248.5L53.5 244.2L57.3 247.9L59.2 246.7L59.9 244.2L56.1 241.1L58.0 239.9L61.8 243.0L61.1 238.0L66.2 238.6L66.2 235.6L71.3 238.6L71.9 234.9L75.1 233.1L78.9 237.4L80.2 233.1L78.3 231.2L88.5 228.2L111.3 214.0L123.4 196.1L144.4 187.4L159.0 176.3L164.1 165.2L169.2 160.8L167.3 154.6L169.2 154.0L166.6 154.0L165.4 149.1L167.9 148.4L166.6 142.3L171.1 137.9L170.4 134.8L173.0 134.8L168.5 131.7L171.1 124.9L174.9 126.8L180.0 124.3L183.8 107.5L182.5 102.0L189.5 99.5L202.9 87.1L214.3 85.2L215.6 75.3L207.9 72.8L214.9 72.8L218.1 66.6L223.8 75.3L225.7 72.8L231.5 85.8L234.6 85.8L235.3 89.6L237.2 89.6L243.5 108.2L249.3 116.2L252.4 114.4L255.0 116.2L253.1 118.7L254.3 120.6L256.2 116.2L257.5 120.0L264.5 116.9L265.1 120.0L265.8 116.9L270.2 115.6L271.5 117.5L270.9 115.0L278.5 112.5L281.0 113.8L282.3 106.3L284.2 110.7L287.4 108.2L285.5 105.7L293.1 106.3L295.6 103.2L299.5 106.9L299.5 103.8L303.3 106.9L314.1 103.8L321.1 106.9L323.0 105.7L324.9 108.2L335.0 109.4L343.3 103.2L340.8 100.7L343.9 101.3L343.3 99.5L345.2 100.1L345.9 97.0L350.9 93.3L352.8 90.8ZM221.9 54.8L218.7 50.4L223.2 45.4L227.6 46.7L227.6 40.4L229.6 39.2L227.6 36.7L223.8 38.0L223.8 35.5L228.3 34.2L227.0 29.9L235.3 28.6L241.6 38.0L242.3 47.3L237.2 50.4L230.8 49.8L222.6 54.1L221.9 54.8Z"/><circle class="capital" cx="182.5" cy="140.8" r="6"/></svg>