<svg xmlns="http://www.w3.org/2000/svg" viewBox="0 0 400 400" class="pref-shape" data-mapno="39" data-name="高知県" role="img" aria-label="高知県の形"><style>.pref-shape path{fill:#FFFFFF;stroke:#1E293B;stroke-width:1.1;stroke-linejoin:round}.pref-shape.is-active path{fill:#0D9488}.pref-shape.is-correct path{fill:#16A34A}.pref-shape .capital{fill:#DC2626;stroke:#FFFFFF;stroke-width:1.5}</style><path d="M240.7 59.4L243.9 64.9L255.2 66.8L258.4 70.5L276.7 68.6L283.6 77.9L291.8 81.5L299.4 77.9L301.9 70.5L306.4 69.3L308.9 74.2L316.5 72.3L316.5 77.2L321.5 84.0L320.9 91.4L323.4 95.7L324.0 101.2L320.9 105.5L334.8 104.9L344.9 108.0L344.2 114.1L346.8 116.6L339.8 120.9L341.1 125.1L345.5 126.4L344.2 128.8L347.4 131.3L348.6 137.4L354.3 136.2L358.1 139.9L365.1 138.0L372.0 139.9L358.7 161.3L351.8 177.8L353.1 180.9L345.5 215.1L339.2 204.7L341.1 205.4L337.9 202.3L332.2 202.9L330.3 194.4L325.3 191.3L320.9 184.6L317.7 184.0L317.1 176.6L313.9 171.7L301.3 166.8L296.3 155.8L276.7 149.7L259.6 147.8L260.3 144.8L254.6 142.9L233.1 146.6L221.1 152.1L223.0 149.1L221.1 149.1L222.4 142.3L220.5 139.9L220.5 142.9L218.6 142.9L220.5 145.4L217.4 148.4L220.5 153.3L223.0 153.3L199.7 165.6L196.5 164.4L194.0 168.0L192.7 165.0L188.3 165.6L187.1 166.8L189.0 169.3L181.4 169.3L177.6 172.3L180.7 175.4L182.0 170.5L183.3 173.6L184.5 171.7L186.4 172.9L186.4 171.1L188.3 173.6L190.8 167.4L194.0 170.5L196.5 167.4L200.3 169.3L195.9 174.2L190.2 174.2L189.6 177.2L183.9 176.0L183.3 178.5L182.0 176.6L177.0 176.6L173.2 179.7L173.8 185.8L171.3 187.6L170.0 185.2L171.9 185.8L172.5 182.1L170.6 180.9L167.5 183.3L165.0 181.5L168.1 179.1L165.0 175.4L166.2 179.7L159.3 184.6L159.9 191.3L156.8 194.4L153.6 193.7L159.3 198.6L154.9 202.3L155.5 207.2L159.3 206.0L158.0 208.4L159.9 211.5L156.8 213.9L158.7 219.4L154.9 221.2L155.5 226.1L150.5 227.3L149.2 229.8L151.7 232.2L149.8 234.1L151.7 237.1L148.6 237.7L147.9 234.1L143.5 234.7L135.3 250.5L128.4 255.4L125.8 268.2L121.4 265.2L114.5 264.6L108.8 270.7L105.0 285.9L108.2 302.9L105.0 307.2L98.7 306.6L98.1 308.4L97.4 306.6L96.2 309.0L98.1 315.7L96.2 316.3L99.3 322.4L106.9 325.4L110.1 331.5L110.7 340.6L99.3 339.4L100.6 335.1L96.8 330.9L100.0 327.8L97.4 327.8L95.5 330.9L93.6 325.4L89.9 327.8L90.5 326.0L82.3 324.8L79.8 330.9L80.4 326.0L78.5 324.8L75.3 327.8L74.1 326.6L72.8 330.3L66.5 335.1L59.6 331.5L57.0 333.9L48.8 323.0L41.9 323.6L45.0 326.0L36.2 327.2L35.6 330.9L31.2 331.5L33.0 330.3L31.8 326.6L34.3 325.4L30.5 323.6L34.9 321.2L36.2 322.4L33.0 320.6L38.1 314.5L36.8 313.3L40.0 312.6L36.8 309.6L44.4 301.7L46.9 301.1L46.9 304.1L48.2 302.3L49.5 304.1L46.3 299.3L49.5 299.9L49.5 297.4L47.6 298.0L48.8 295.0L46.9 292.0L45.7 293.8L44.4 291.4L39.4 293.8L36.2 292.0L36.2 288.3L42.5 286.5L43.8 280.4L40.6 271.9L41.3 265.8L36.8 260.3L39.4 256.6L38.1 247.5L31.2 242.0L28.0 232.8L32.4 228.6L31.8 231.0L43.1 241.4L51.4 232.8L53.9 225.5L60.8 224.3L60.2 215.1L64.6 207.2L77.2 202.9L86.1 196.2L85.4 189.5L77.9 184.6L76.6 177.2L72.8 177.2L70.9 165.6L67.1 161.9L75.3 157.6L97.4 160.7L109.4 157.0L114.5 146.0L119.5 141.7L118.9 137.4L115.7 134.3L117.6 129.4L122.7 125.8L120.2 123.3L122.0 115.3L130.3 113.5L130.9 106.1L135.9 102.4L134.7 100.0L139.1 96.3L138.5 91.4L143.5 87.7L146.0 80.9L151.1 84.0L157.4 82.2L162.4 71.7L169.4 75.4L178.9 71.1L185.8 72.9L190.8 69.3L207.3 72.3L216.1 60.0L219.9 59.4L224.9 62.5L228.1 59.4L233.8 61.9L237.6 58.8L240.7 59.4Z"/><circle class="capital" cx="214.4" cy="137.9" r="6"/></svg>