<svg xmlns="http://www.w3.org/2000/svg" viewBox="0 0 400 400" class="pref-shape" data-mapno="4" data-name="宮城県" role="img" aria-label="宮城県の形"><style>.pref-shape path{fill:#FFFFFF;stroke:#1E293B;stroke-width:1.1;stroke-linejoin:round}.pref-shape.is-active path{fill:#0D9488}.pref-shape.is-correct path{fill:#16A34A}.pref-shape .capital{fill:#DC2626;stroke:#FFFFFF;stroke-width:1.5}</style><path d="M343.8 37.2L345.8 41.4L343.8 40.7L343.8 42.9L347.2 45.0L344.5 49.2L348.5 52.1L347.9 56.3L351.9 60.5L350.6 59.8L350.6 62.7L353.3 68.3L347.9 66.2L344.5 60.5L345.1 57.0L343.1 58.4L341.7 57.0L343.8 59.8L341.7 59.1L337.7 62.7L332.9 54.2L332.2 57.0L335.6 59.8L332.9 70.4L334.3 75.4L337.7 77.5L332.9 78.2L330.2 83.2L328.1 81.7L326.1 86.0L322.0 86.7L318.6 90.9L319.3 96.6L324.1 100.8L322.7 102.2L324.7 102.2L324.7 104.3L328.8 102.2L328.1 116.3L326.8 111.4L324.7 110.0L322.7 111.4L320.7 108.6L317.3 117.7L314.6 114.9L312.5 116.3L313.2 120.5L309.1 119.1L307.8 121.2L303.0 120.5L303.0 129.7L305.7 130.4L307.1 128.3L321.3 131.1L320.0 138.9L316.6 141.7L315.2 140.3L315.9 142.4L311.8 145.9L305.7 148.0L307.8 152.2L309.8 151.5L311.8 154.3L313.9 160.7L322.0 155.8L321.3 160.7L324.7 162.1L322.7 172.6L317.9 171.2L317.9 165.6L313.9 167.0L308.4 163.5L307.1 166.3L308.4 164.2L311.8 166.3L314.6 174.7L309.8 179.7L315.2 180.4L313.9 183.9L316.6 182.5L317.3 183.9L311.2 187.4L307.1 186.7L306.4 184.6L303.0 186.0L309.1 191.6L308.4 199.3L314.6 193.0L317.9 199.3L323.4 197.2L321.3 202.1L316.6 200.0L316.6 202.1L312.5 202.1L311.2 204.2L312.5 206.3L317.9 205.6L322.0 214.1L320.7 219.0L324.1 223.2L320.7 226.7L320.0 233.0L317.3 231.6L316.6 226.0L313.2 227.4L313.9 223.9L310.5 223.9L308.4 219.7L307.8 223.9L303.7 221.1L309.1 216.9L305.7 210.6L303.7 214.1L303.0 209.9L301.0 213.4L296.9 212.0L296.2 209.9L299.6 207.0L305.7 204.9L300.3 204.9L301.6 202.8L298.2 202.1L300.3 198.6L296.2 199.3L294.8 196.5L287.4 202.1L284.0 193.7L265.6 194.4L267.6 192.3L263.6 191.6L263.6 195.1L250.6 199.3L240.4 207.0L239.1 212.0L241.1 214.1L240.4 210.6L242.5 211.3L241.8 216.2L244.5 219.7L241.8 217.6L238.4 218.3L238.4 216.2L236.4 216.2L235.7 219.0L234.3 214.1L237.7 214.8L236.4 209.9L239.1 209.9L234.3 208.5L234.3 203.5L228.9 201.4L230.9 203.5L228.2 206.3L224.8 202.8L219.4 205.6L220.1 211.3L216.7 211.3L216.7 213.4L217.3 212.0L214.6 212.0L213.3 214.8L216.0 214.1L216.7 216.2L214.6 219.0L210.5 219.7L215.3 219.7L213.3 223.2L218.0 221.8L219.4 219.0L222.1 219.7L224.1 227.4L221.4 226.7L214.6 233.0L211.9 232.3L211.9 230.2L211.2 233.0L205.1 233.0L215.3 235.1L210.5 235.1L204.4 244.2L197.6 257.5L189.5 284.8L186.7 314.1L190.1 337.9L182.0 335.8L173.8 339.3L175.2 346.9L172.5 350.4L174.5 360.2L173.1 365.7L164.3 365.7L156.2 362.3L154.1 365.0L162.3 369.9L160.2 372.0L150.0 367.8L146.0 369.2L142.6 364.3L138.5 363.6L135.1 353.9L137.8 350.4L135.8 343.4L137.8 340.0L131.0 336.5L123.5 336.5L120.1 332.3L116.0 335.1L110.6 330.2L109.2 333.7L92.2 336.5L88.8 329.5L90.2 323.9L87.5 321.8L80.7 321.8L75.9 319.0L75.9 316.2L73.2 316.2L70.5 321.8L64.4 320.4L59.6 322.5L46.7 314.1L46.7 310.6L50.1 307.2L46.7 300.9L48.1 292.5L67.8 293.2L70.5 289.0L74.6 289.0L78.7 284.8L79.3 275.7L84.1 272.9L83.4 269.4L88.8 265.2L91.6 258.9L88.8 244.2L89.5 233.7L94.3 231.6L94.3 224.6L97.0 221.1L100.4 222.5L102.4 219.7L100.4 211.3L101.8 209.2L105.8 207.8L113.3 199.3L111.3 193.7L113.3 186.7L117.4 187.4L122.2 181.8L119.4 181.1L118.8 174.7L110.6 169.1L111.3 161.4L108.6 161.4L107.9 157.9L113.3 150.1L104.5 131.8L105.8 127.6L109.2 127.6L112.0 131.1L118.1 130.4L122.8 118.4L122.8 113.5L119.4 112.8L119.4 107.9L127.6 94.4L126.2 91.6L118.8 90.2L116.0 75.4L105.2 68.3L104.5 64.1L106.5 60.5L109.2 64.8L120.8 59.1L126.2 62.0L133.0 58.4L136.4 52.8L143.2 49.9L146.0 43.6L152.1 40.7L167.0 39.3L179.3 49.2L184.7 49.2L186.7 52.8L190.1 51.4L196.3 54.9L202.4 64.1L209.9 61.3L214.6 63.4L226.2 60.5L228.9 63.4L235.7 63.4L237.7 69.0L232.3 75.4L228.2 74.7L228.2 78.9L232.3 78.2L232.3 81.0L236.4 81.7L235.7 88.1L242.5 91.6L245.2 89.5L252.7 99.4L256.8 100.1L255.4 98.7L261.5 95.9L264.9 86.0L271.7 87.4L273.1 78.9L278.5 83.2L282.6 81.7L286.7 83.2L288.7 86.7L291.4 85.3L292.1 88.1L296.2 89.5L295.5 94.4L298.2 93.0L297.6 90.9L301.0 90.2L299.6 82.4L305.7 81.0L303.7 75.4L307.1 69.0L304.4 67.6L304.4 64.1L313.2 52.8L311.2 35.1L312.5 29.4L317.3 28.0L320.0 31.5L329.5 30.1L331.5 33.0L337.7 33.0L343.1 37.2L343.8 37.2Z"/><circle class="capital" cx="177.3" cy="234.0" r="6"/></svg>