<svg xmlns="http://www.w3.org/2000/svg" viewBox="0 0 400 400" class="pref-shape" data-mapno="40" data-name="福岡県" role="img" aria-label="福岡県の形"><style>.pref-shape path{fill:#FFFFFF;stroke:#1E293B;stroke-width:1.1;stroke-linejoin:round}.pref-shape.is-active path{fill:#0D9488}.pref-shape.is-correct path{fill:#16A34A}.pref-shape .capital{fill:#DC2626;stroke:#FFFFFF;stroke-width:1.5}</style><path d="M369.4 153.5L365.7 167.9L370.3 173.2L370.3 178.6L363.9 184.8L363.9 189.3L366.6 191.1L364.8 193.8L363.0 192.0L353.8 192.9L352.8 194.7L328.0 192.0L323.4 188.4L318.8 192.0L306.8 192.9L299.4 200.0L292.1 202.7L293.9 207.2L292.1 210.8L282.9 214.3L281.0 237.5L274.6 238.4L272.7 240.2L273.7 243.8L265.4 250.9L271.8 256.3L274.6 268.8L270.9 274.1L272.7 277.7L275.5 277.7L269.1 281.2L263.5 281.2L262.6 288.4L272.7 291.0L265.4 297.3L273.7 304.4L281.0 306.2L277.3 312.4L278.3 318.6L270.9 333.8L260.8 334.7L258.9 331.1L242.4 325.8L235.0 317.8L223.0 318.6L219.3 311.5L219.3 314.2L215.7 316.9L215.7 324.0L212.0 332.0L213.8 333.8L188.0 332.0L184.3 335.5L185.3 341.8L177.9 343.6L175.1 349.8L171.5 349.8L165.0 354.2L170.5 368.4L167.8 371.1L134.6 371.1L142.0 370.2L142.9 366.7L139.2 368.4L138.3 366.7L142.9 362.2L142.0 360.4L144.8 359.6L142.0 359.6L143.8 354.2L139.2 341.8L132.8 339.1L135.6 334.7L128.2 330.2L129.1 323.1L123.6 323.1L122.7 308.8L119.0 306.2L118.1 300.8L130.0 294.6L130.0 291.0L127.3 288.4L129.1 285.7L131.9 287.5L133.7 285.7L133.7 280.3L136.5 280.3L137.4 283.9L141.1 283.0L142.0 276.8L144.8 276.8L145.7 272.3L143.8 270.5L145.7 268.8L147.5 269.6L146.6 275.9L149.4 279.5L151.2 278.6L150.3 275.0L152.1 272.3L156.7 270.5L153.0 266.1L161.3 264.3L162.3 259.8L159.5 257.2L161.3 254.5L165.9 257.2L167.8 251.8L177.0 250.9L178.8 242.9L177.0 217.0L169.6 213.4L168.7 215.2L158.6 217.0L154.0 223.3L149.4 225.0L147.5 230.4L139.2 232.2L141.1 226.8L135.6 221.5L130.0 222.4L127.3 217.9L123.6 218.8L113.5 209.9L106.1 209.0L99.6 202.7L91.4 205.4L86.8 202.7L76.6 201.8L72.9 207.2L67.4 207.2L62.8 203.6L59.1 205.4L49.0 203.6L44.4 206.3L29.7 206.3L31.5 196.5L43.5 193.8L47.2 192.0L47.2 189.3L49.0 192.0L54.5 192.0L57.3 187.5L54.5 186.6L62.8 182.2L66.5 173.2L60.1 177.7L55.5 175.0L52.7 178.6L51.8 176.8L55.5 173.2L57.3 174.1L58.2 171.4L53.6 168.7L47.2 172.3L46.2 168.7L43.5 167.9L44.4 165.2L49.0 165.2L49.9 160.7L54.5 163.4L61.0 161.6L65.6 157.1L64.7 150.0L76.6 145.5L80.3 135.6L87.7 141.9L87.7 144.6L84.0 147.3L86.8 153.5L93.2 156.2L98.7 155.3L99.6 158.0L96.9 161.6L98.7 166.1L105.2 167.0L110.7 163.4L109.8 160.7L113.5 159.8L113.5 161.6L114.4 159.8L122.7 161.6L130.0 158.0L130.0 160.7L132.8 161.6L134.6 160.7L131.9 159.8L133.7 156.2L134.6 159.8L136.5 159.8L135.6 156.2L138.3 157.1L136.5 153.5L141.1 153.5L137.4 151.7L139.2 149.1L137.4 147.3L138.3 144.6L142.9 145.5L142.0 141.9L137.4 141.0L146.6 137.4L143.8 132.9L145.7 128.5L127.3 136.5L123.6 144.6L110.7 137.4L105.2 137.4L102.4 132.1L103.3 128.5L107.9 128.5L111.6 137.4L118.1 138.3L135.6 129.4L142.9 117.7L144.8 118.6L150.3 115.0L156.7 105.2L157.6 98.0L154.0 91.7L151.2 93.5L149.4 82.8L154.9 84.6L157.6 81.9L160.4 75.6L159.5 67.5L161.3 70.2L165.0 70.2L171.5 66.6L175.1 58.5L173.3 56.7L185.3 55.8L186.2 59.4L202.8 59.4L212.0 53.1L215.7 54.0L212.9 49.6L214.7 49.6L213.8 46.9L218.4 46.0L220.3 39.7L234.1 39.7L234.1 42.4L239.6 41.5L239.6 44.2L241.4 36.1L246.0 36.1L243.3 38.8L246.0 42.4L241.4 43.3L241.4 45.1L247.0 43.3L247.9 40.6L257.1 41.5L260.8 46.0L257.1 46.9L257.1 48.7L259.8 47.8L259.8 51.4L254.3 55.8L247.9 55.8L244.2 58.5L246.0 56.7L249.7 57.6L241.4 60.3L238.7 56.7L239.6 61.2L237.7 62.1L247.0 60.3L247.0 62.1L247.9 59.4L249.7 59.4L248.8 61.2L256.2 55.8L255.2 62.1L257.1 55.8L261.7 51.4L261.7 46.0L271.8 42.4L272.7 44.2L269.1 46.0L270.0 47.8L275.5 46.0L269.1 50.5L270.9 51.4L276.4 46.9L280.1 50.5L273.7 54.0L281.0 52.3L282.9 54.0L278.3 55.8L281.9 54.9L281.9 56.7L293.9 50.5L298.5 38.8L304.0 34.3L303.1 30.7L311.4 31.6L314.2 28.0L316.9 28.0L314.2 29.8L316.0 30.7L316.9 28.9L320.6 29.8L320.6 37.0L316.9 38.8L315.1 44.2L318.8 46.9L315.1 47.8L316.0 50.5L310.5 52.3L311.4 54.9L316.0 55.8L314.2 62.1L311.4 57.6L308.6 64.8L314.2 64.8L312.3 70.2L310.5 68.4L307.7 76.5L302.2 74.7L301.3 77.4L304.0 85.5L309.6 85.5L314.2 82.8L316.0 86.3L313.2 84.6L314.2 88.1L308.6 93.5L313.2 89.9L315.1 94.4L312.3 98.0L314.2 97.1L314.2 99.8L317.8 96.2L319.7 99.8L314.2 103.4L315.1 106.1L316.9 108.8L316.9 106.1L319.7 107.0L318.8 112.3L326.1 127.6L330.7 127.6L328.9 129.4L333.5 134.7L333.5 139.2L338.1 142.8L341.8 150.9L346.4 153.5L346.4 150.9L348.2 150.9L348.2 153.5L348.2 149.1L353.8 151.7L352.8 148.2L352.8 150.0L362.0 153.5L367.6 152.6L369.4 153.5Z"/><circle class="capital" cx="142.0" cy="157.2" r="6"/></svg>