<svg xmlns="http://www.w3.org/2000/svg" viewBox="0 0 400 400" class="pref-shape" data-mapno="41" data-name="佐賀県" role="img" aria-label="佐賀県の形"><style>.pref-shape path{fill:#FFFFFF;stroke:#1E293B;stroke-width:1.1;stroke-linejoin:round}.pref-shape.is-active path{fill:#0D9488}.pref-shape.is-correct path{fill:#16A34A}.pref-shape .capital{fill:#DC2626;stroke:#FFFFFF;stroke-width:1.5}</style><path d="M150.9 88.5L172.7 88.5L179.5 84.5L187.7 84.5L194.5 87.2L200.0 84.5L204.1 85.8L206.8 89.8L215.0 89.8L216.4 84.5L220.5 84.5L220.5 81.9L231.4 84.5L235.5 83.2L242.3 87.2L254.6 83.2L264.2 92.5L268.3 91.1L271.0 93.8L275.1 93.8L281.9 101.7L284.6 101.7L290.1 107.0L295.6 105.7L299.7 112.3L303.7 109.7L307.8 111.0L316.0 118.9L313.3 126.9L317.4 124.2L325.6 124.2L328.3 116.3L335.1 113.6L335.1 111.0L342.0 104.4L344.7 105.7L355.6 100.4L357.0 101.7L358.3 99.1L369.3 104.4L372.0 128.2L372.0 142.8L369.3 154.7L367.9 153.3L363.8 156.0L355.6 156.0L352.9 163.9L346.1 160.0L344.7 161.3L343.3 163.9L347.4 167.9L346.1 174.5L333.8 177.1L333.8 179.8L339.2 183.8L332.4 186.4L329.7 190.4L331.0 195.6L328.3 197.0L324.2 191.7L325.6 182.4L322.9 181.1L320.1 183.8L322.9 186.4L321.5 193.0L317.4 193.0L316.0 202.3L310.6 203.6L309.2 198.3L305.1 198.3L305.1 206.2L302.4 208.9L298.3 206.2L296.9 207.5L295.6 210.2L299.7 214.1L299.7 219.4L283.3 226.0L281.9 228.7L283.3 236.6L288.7 240.6L287.4 245.8L290.1 261.7L260.1 257.7L256.0 245.8L249.1 241.9L243.7 235.3L246.4 231.3L245.0 228.7L241.0 228.7L242.3 234.0L236.9 232.6L235.5 230.0L228.7 230.0L230.0 234.0L235.5 235.3L231.4 248.5L216.4 257.7L217.7 260.4L198.6 276.2L190.4 273.5L190.4 269.6L187.7 269.6L189.1 277.5L183.6 281.5L190.4 280.1L193.2 284.1L189.1 285.4L194.5 285.4L197.3 289.4L195.9 292.0L194.5 290.7L198.6 299.9L202.7 302.6L204.1 306.5L208.2 307.8L206.8 310.5L216.4 332.9L215.0 335.5L217.7 335.5L219.1 340.8L223.2 339.5L225.9 342.1L224.6 346.0L230.0 347.4L230.0 356.6L223.2 357.9L200.0 353.9L197.3 350.0L190.4 351.3L171.3 348.7L167.2 342.1L160.4 342.1L153.6 335.5L153.6 332.9L145.4 328.9L144.0 323.6L137.2 325.0L133.1 321.0L130.4 314.4L131.7 311.8L129.0 307.8L107.2 297.3L104.4 289.4L99.0 288.1L100.3 278.8L105.8 276.2L111.3 277.5L114.0 273.5L114.0 268.3L107.2 252.4L108.5 248.5L84.0 252.4L82.6 249.8L71.7 245.8L69.0 241.9L64.9 241.9L62.1 244.5L53.9 239.2L52.6 231.3L48.5 226.0L51.2 219.4L51.2 207.5L43.0 200.9L28.0 182.4L34.8 160.0L41.7 156.0L44.4 160.0L47.1 160.0L49.8 165.2L52.6 165.2L51.2 169.2L53.9 170.5L51.2 173.2L53.9 171.9L59.4 182.4L63.5 183.8L64.9 181.1L69.0 181.1L66.2 177.1L59.4 175.8L58.0 170.5L60.8 171.9L63.5 165.2L67.6 162.6L60.8 161.3L58.0 157.3L59.4 156.0L62.1 158.6L64.9 156.0L66.2 158.6L66.2 145.4L73.0 137.5L74.4 138.8L74.4 128.2L77.1 128.2L74.4 126.9L75.8 120.3L73.0 121.6L73.0 117.6L69.0 122.9L59.4 117.6L55.3 118.9L55.3 115.0L59.4 113.6L53.9 112.3L51.2 107.0L47.1 105.7L44.4 101.7L41.7 103.1L40.3 97.8L38.9 99.1L37.6 96.4L40.3 93.8L43.0 93.8L44.4 96.4L48.5 95.1L48.5 92.5L43.0 87.2L47.1 84.5L48.5 80.5L51.2 83.2L53.9 80.5L56.7 83.2L56.7 88.5L62.1 92.5L60.8 101.7L62.1 97.8L66.2 101.7L69.0 95.1L71.7 96.4L67.6 84.5L63.5 88.5L59.4 85.8L64.9 83.2L60.8 77.9L63.5 75.2L58.0 69.9L60.8 66.0L58.0 63.3L64.9 63.3L70.3 69.9L70.3 66.0L66.2 63.3L66.2 60.7L63.5 60.7L66.2 59.3L70.3 62.0L70.3 55.4L66.2 52.7L67.6 43.4L64.9 43.4L67.6 42.1L71.7 50.1L78.5 52.7L81.2 56.7L78.5 59.3L78.5 63.3L79.9 60.7L82.6 60.7L81.2 51.4L86.7 50.1L86.7 52.7L85.3 47.4L88.1 46.1L90.8 48.7L93.5 46.1L93.5 48.7L96.3 50.1L101.7 47.4L101.7 44.8L101.7 52.7L109.9 58.0L114.0 56.7L115.4 64.6L119.5 64.6L116.7 69.9L112.6 69.9L108.5 75.2L109.9 80.5L107.2 80.5L105.8 83.2L109.9 87.2L111.3 83.2L114.0 88.5L112.6 85.8L114.0 84.5L115.4 87.2L114.0 83.2L116.7 80.5L120.8 84.5L116.7 88.5L118.1 91.1L115.4 91.1L119.5 92.5L116.7 93.8L131.7 100.4L142.7 100.4L148.1 99.1L150.9 95.1L149.5 91.1L150.9 88.5Z"/><circle class="capital" cx="265.5" cy="204.2" r="6"/></svg>