<svg xmlns="http://www.w3.org/2000/svg" viewBox="0 0 400 400" class="pref-shape" data-mapno="42" data-name="長崎県" role="img" aria-label="長崎県の形"><style>.pref-shape path{fill:#FFFFFF;stroke:#1E293B;stroke-width:1.1;stroke-linejoin:round}.pref-shape.is-active path{fill:#0D9488}.pref-shape.is-correct path{fill:#16A34A}.pref-shape .capital{fill:#DC2626;stroke:#FFFFFF;stroke-width:1.5}</style><path d="M258.5 171.8L255.5 173.5L252.5 183.4L262.7 194.5L261.5 202.6L263.9 208.4L267.5 210.7L270.5 209.6L277.1 214.2L288.0 212.5L290.4 223.5L284.3 225.8L283.7 229.9L286.2 230.4L287.4 233.9L295.8 237.4L300.6 246.1L303.6 245.5L315.6 256.5L327.0 257.1L338.4 260.6L337.8 266.4L334.2 270.4L325.2 273.3L316.2 282.0L322.2 279.7L325.8 284.3L324.0 287.2L326.4 284.9L329.4 287.2L334.8 287.2L345.6 279.1L358.2 278.5L364.2 283.7L369.0 293.0L372.0 299.3L370.2 304.5L371.4 310.3L365.4 317.3L367.8 320.7L366.6 324.8L358.8 330.0L349.2 330.5L349.2 334.6L343.2 340.3L338.4 341.5L335.4 339.8L337.2 342.1L331.2 344.4L331.2 337.5L324.0 333.4L323.4 321.9L326.4 324.8L329.4 323.0L329.4 320.7L331.8 321.3L331.8 319.0L339.0 312.6L339.0 306.9L334.8 305.1L336.0 300.5L331.8 297.6L322.8 299.3L315.0 297.6L303.6 306.3L298.2 305.1L297.0 307.4L292.8 304.5L289.2 305.7L290.4 309.7L284.3 317.8L281.9 316.7L282.5 320.7L278.9 328.2L274.1 332.3L268.1 332.8L267.5 337.5L256.1 346.7L256.7 349.0L252.5 346.7L248.3 349.6L247.7 347.3L257.9 339.8L260.9 331.1L263.3 330.0L263.9 323.0L260.9 324.8L259.1 320.7L260.9 321.9L263.3 317.8L265.7 317.8L263.9 320.7L266.9 322.5L266.9 319.6L268.7 320.1L269.9 314.9L274.1 310.3L272.9 308.0L268.7 314.9L268.1 313.2L263.9 314.9L265.7 309.7L261.5 309.2L262.1 305.1L261.5 306.9L258.5 304.5L260.3 302.2L253.7 296.5L255.5 292.4L250.1 291.2L248.3 295.3L243.5 288.4L241.1 289.5L236.3 281.4L236.9 277.4L233.3 269.3L229.7 265.8L229.1 269.3L227.9 267.5L229.1 262.9L226.1 261.2L227.9 261.7L226.7 255.4L233.3 250.7L230.3 242.0L232.7 241.5L233.9 235.7L236.9 236.2L233.3 234.5L236.9 232.2L233.3 232.8L236.9 230.4L236.3 227.5L240.5 229.3L241.7 232.2L242.3 230.4L244.7 231.6L243.5 233.9L246.5 233.3L247.7 236.2L245.9 239.7L250.1 236.8L252.5 239.1L247.1 246.7L248.3 253.0L253.7 250.7L253.1 249.0L250.7 249.6L253.1 245.5L257.3 249.0L259.7 248.4L263.3 251.3L262.1 254.2L264.5 254.2L264.5 257.1L261.5 258.3L263.3 261.2L262.1 269.8L259.7 268.1L259.7 261.2L257.3 262.3L257.9 273.3L261.5 271.6L262.1 274.5L260.9 277.9L258.5 276.8L257.9 281.4L258.5 279.7L260.3 282.0L262.7 281.4L269.3 289.5L269.9 283.2L273.5 286.6L275.9 277.4L278.3 280.8L278.9 277.9L286.2 283.2L289.2 282.0L291.0 286.0L294.0 284.9L294.6 288.4L300.0 287.8L300.6 286.0L291.6 279.1L293.4 276.2L289.2 275.1L290.4 272.2L285.5 268.1L284.9 257.7L289.2 253.6L288.6 247.3L274.7 235.7L270.5 236.2L268.7 239.7L268.1 237.4L266.3 241.5L263.9 241.5L263.9 238.0L267.5 236.8L259.7 235.1L261.5 232.8L259.1 231.0L253.7 232.8L254.3 227.0L251.9 231.6L256.7 236.2L254.3 236.2L253.7 238.6L251.3 237.4L251.9 235.1L248.9 236.2L248.3 233.9L250.7 232.8L249.5 231.0L248.3 232.2L246.5 226.4L251.3 227.5L249.5 222.3L252.5 224.1L251.9 221.2L254.9 221.2L251.9 219.4L257.3 217.7L253.7 216.5L252.5 218.3L251.3 216.5L248.9 220.0L247.1 218.8L247.1 221.7L244.7 218.8L246.5 215.9L245.3 212.5L240.5 213.0L242.9 221.7L240.5 221.7L242.9 224.1L235.1 222.9L233.9 227.0L232.7 220.0L236.9 221.2L240.5 217.7L237.5 217.1L235.7 211.9L228.5 211.9L232.7 207.8L229.1 199.1L229.1 204.3L226.7 207.2L225.5 200.3L224.3 203.7L221.9 203.2L224.3 198.5L220.7 202.0L220.7 200.3L218.9 202.0L218.9 200.3L212.3 199.7L214.1 198.5L212.9 196.8L215.3 197.4L215.3 194.5L212.9 193.9L216.5 190.4L215.9 187.5L217.1 185.7L217.7 189.2L219.5 187.5L218.9 182.2L222.5 178.2L226.1 178.8L223.1 177.6L218.3 179.9L214.1 175.3L214.1 173.5L216.5 174.1L217.1 166.5L215.3 163.6L217.1 162.5L221.3 162.5L220.1 165.4L224.9 163.6L226.1 167.1L227.3 164.8L232.7 165.4L235.7 158.4L238.1 161.3L236.3 161.3L234.5 166.5L236.9 168.9L240.5 167.1L239.3 168.9L241.7 170.6L249.5 166.0L251.9 166.0L253.1 168.9L257.3 164.2L258.5 170.0L258.5 171.8ZM61.6 348.4L58.0 347.3L55.0 340.9L45.4 342.1L41.2 340.3L39.4 344.4L35.8 344.4L32.8 340.3L28.0 339.8L30.4 331.7L32.2 334.6L31.0 338.6L32.8 335.7L32.8 338.0L37.0 339.8L36.4 341.5L41.2 336.3L35.2 336.9L35.8 333.4L38.8 332.8L36.4 330.0L41.2 332.3L37.6 329.4L41.8 330.5L40.6 327.1L43.0 325.9L37.6 324.2L37.6 319.0L40.0 319.6L40.0 317.3L37.0 314.9L38.2 309.2L36.4 305.1L40.6 299.9L47.2 304.0L46.0 310.3L48.4 310.9L49.0 308.0L55.0 306.3L52.0 308.6L55.6 308.0L55.0 310.9L57.4 307.4L55.0 307.4L59.2 304.0L62.2 311.5L61.6 308.0L65.2 305.7L66.4 306.9L65.8 304.5L62.2 306.9L60.4 304.5L62.2 301.7L65.8 301.7L65.2 299.3L68.8 297.0L67.6 301.7L71.8 305.7L67.6 307.4L69.4 308.6L73.6 305.7L71.8 310.3L73.0 307.4L73.6 309.2L76.0 307.4L77.8 309.2L74.8 310.3L74.2 316.7L76.6 321.9L85.6 330.5L85.0 332.8L70.6 334.0L68.8 330.0L61.6 332.3L59.2 338.0L65.2 340.3L65.2 343.8L61.6 347.8L61.6 348.4ZM116.9 292.4L113.8 291.8L115.7 290.1L113.2 279.7L113.2 277.9L115.7 279.1L113.8 276.8L116.3 278.5L116.9 276.2L113.2 274.5L112.6 271.6L116.9 272.2L117.5 274.5L118.7 272.7L115.7 271.6L114.5 268.1L110.2 268.7L111.4 265.8L113.2 266.4L112.0 262.3L109.6 266.4L107.8 262.3L104.2 263.5L106.6 261.7L104.8 258.3L107.8 255.9L109.0 258.8L109.0 255.9L111.4 259.4L114.5 255.9L115.1 260.6L115.7 255.4L116.9 256.5L118.1 254.8L114.5 253.6L113.2 246.1L115.1 240.9L118.1 240.3L118.7 245.5L122.9 244.4L121.1 243.8L119.9 237.4L125.9 230.4L126.5 227.0L124.7 227.0L123.5 222.3L127.7 212.5L125.3 221.7L128.9 225.8L127.7 236.2L124.7 237.4L124.1 250.2L121.7 253.6L127.1 254.8L131.3 250.2L136.7 250.2L137.3 248.4L140.9 249.6L139.1 250.7L140.9 256.5L134.3 260.6L132.5 265.2L130.7 262.9L128.3 264.6L125.3 259.4L126.5 267.5L121.7 267.5L124.1 269.3L124.1 272.7L121.1 274.5L123.5 275.6L121.7 277.9L124.1 277.9L124.7 282.6L118.7 282.0L116.9 285.5L118.1 292.4L116.9 292.4ZM178.1 211.3L172.7 208.4L175.1 206.1L173.3 203.7L175.7 203.7L176.3 207.2L182.9 209.0L184.1 204.9L178.7 202.0L179.3 197.9L182.9 195.0L187.7 198.5L186.5 195.0L189.5 196.2L188.3 193.3L184.1 192.1L185.3 190.4L183.5 188.1L187.7 185.7L187.7 183.4L191.9 183.4L188.9 178.2L191.3 174.1L190.1 170.0L202.1 168.3L204.5 162.5L206.3 163.6L206.3 168.9L208.1 166.0L206.9 162.5L209.9 164.2L212.3 162.5L210.5 160.1L206.9 161.3L205.7 160.1L207.5 159.0L205.7 158.4L212.3 156.1L214.1 159.6L212.3 165.4L215.9 167.7L211.1 170.0L210.5 174.1L205.1 174.1L207.5 180.5L202.1 181.1L204.5 183.4L203.3 184.6L199.1 184.6L203.3 188.1L202.7 190.4L189.5 206.7L178.7 211.3L178.1 211.3ZM244.1 87.3L239.3 85.5L239.9 82.0L239.3 83.8L236.3 82.0L239.3 77.9L237.5 78.5L235.7 74.4L232.7 79.7L230.9 76.7L232.1 74.4L229.7 72.7L232.1 71.5L238.1 74.4L236.3 70.3L232.7 69.7L231.5 65.1L234.5 65.1L230.9 63.9L232.1 62.1L235.7 65.6L238.7 63.9L235.7 61.0L235.1 56.3L238.7 51.6L241.1 52.8L241.1 50.4L254.9 55.1L253.1 62.7L249.5 63.3L259.7 68.0L259.1 69.7L253.7 68.6L251.9 70.9L259.7 73.8L257.9 79.1L247.1 79.7L244.1 85.5L244.1 87.3ZM94.0 296.5L92.8 290.1L92.2 292.4L89.2 291.8L91.6 291.2L89.8 286.6L84.4 282.0L84.4 284.3L80.8 282.6L83.8 281.4L83.8 278.5L89.2 280.3L92.2 288.4L93.4 284.9L91.0 279.7L94.0 285.5L94.0 277.4L97.0 279.7L97.6 290.1L95.2 288.9L94.0 290.7L96.4 292.4L94.6 295.9L94.0 296.5ZM110.8 286.0L107.8 284.3L109.6 283.7L107.8 283.7L109.6 282.6L107.8 280.8L107.2 282.6L104.8 280.3L101.2 283.2L101.8 280.3L98.8 280.3L100.6 278.5L98.2 272.7L101.8 274.5L103.0 277.9L104.2 275.1L106.0 279.1L106.0 272.7L103.6 273.9L101.2 269.8L103.6 265.8L105.4 268.7L108.4 267.5L107.8 269.8L112.0 274.5L109.6 276.2L111.4 275.6L109.6 279.1L110.8 284.9L110.8 286.0ZM79.6 305.1L73.6 300.5L74.2 287.8L79.0 288.9L80.8 294.7L79.0 295.9L80.8 297.0L82.0 292.4L79.0 286.6L87.4 293.0L88.0 297.0L83.2 304.5L80.8 304.5L79.6 305.1ZM128.3 193.9L124.1 193.3L119.3 188.1L123.5 184.0L128.9 184.0L129.5 180.5L131.9 180.5L132.5 185.7L135.5 188.1L130.1 190.4L131.3 192.1L129.5 193.9L128.3 193.9ZM247.1 156.7L244.7 153.2L249.5 151.4L248.3 149.7L252.5 145.0L250.7 144.4L251.9 142.1L254.9 145.6L253.7 148.5L258.5 150.8L256.1 152.0L253.1 150.2L251.9 154.3L250.1 153.2L250.7 155.5L247.7 156.7L247.1 156.7ZM262.7 170.0L260.9 167.1L262.7 166.0L262.7 157.2L259.7 154.9L266.3 157.2L267.5 163.1L268.1 160.7L271.7 163.1L267.5 166.5L263.9 166.0L264.5 167.7L262.7 170.0ZM185.9 169.5L182.3 167.1L188.9 148.5L189.5 168.3L185.9 169.5ZM212.3 142.1L207.5 138.0L204.5 139.2L206.3 141.5L201.5 140.9L211.1 132.8L212.9 132.8L213.5 137.4L215.3 136.9L214.7 134.5L218.3 135.7L212.9 140.9L212.3 142.1Z"/><circle class="capital" cx="274.6" cy="309.2" r="6"/></svg>