<svg xmlns="http://www.w3.org/2000/svg" viewBox="0 0 400 400" class="pref-shape" data-mapno="43" data-name="熊本県" role="img" aria-label="熊本県の形"><style>.pref-shape path{fill:#FFFFFF;stroke:#1E293B;stroke-width:1.1;stroke-linejoin:round}.pref-shape.is-active path{fill:#0D9488}.pref-shape.is-correct path{fill:#16A34A}.pref-shape .capital{fill:#DC2626;stroke:#FFFFFF;stroke-width:1.5}</style><path d="M372.0 143.8L358.6 145.3L353.2 149.1L353.2 152.9L348.4 159.7L350.8 162.0L348.4 170.3L334.3 180.1L333.5 192.2L324.9 190.7L317.8 202.0L319.4 211.8L315.5 220.1L302.1 217.9L299.7 219.4L299.0 226.9L293.5 229.2L295.0 237.5L291.9 239.0L290.3 245.8L293.5 253.3L293.5 262.3L299.7 271.4L306.0 271.4L307.6 275.9L306.0 278.2L309.2 281.9L307.6 286.4L312.3 288.7L317.0 295.5L308.4 309.0L302.1 307.5L299.7 318.8L306.8 322.5L306.0 326.3L310.0 331.6L313.9 333.1L316.2 345.8L313.1 348.1L306.8 345.8L303.7 347.3L298.2 342.8L291.9 341.3L281.7 353.3L282.5 357.1L272.3 358.6L265.2 353.3L258.1 357.1L252.6 363.8L247.9 361.6L243.2 365.3L232.2 363.1L227.5 364.6L226.7 362.3L222.8 363.8L222.0 360.8L220.4 363.1L213.4 361.6L201.6 352.6L200.8 348.1L193.7 346.6L190.6 337.6L185.9 337.6L186.6 340.6L183.5 347.3L174.9 348.1L172.5 352.6L156.8 351.8L156.0 357.1L151.3 359.3L137.2 357.1L134.0 349.6L127.0 343.6L127.7 339.1L130.1 338.3L129.3 340.6L132.5 340.6L130.1 332.3L133.2 331.6L131.7 330.0L136.4 327.0L138.0 323.3L139.5 324.8L142.7 322.5L145.8 324.8L147.4 322.5L143.5 318.8L146.6 318.0L144.2 314.3L149.7 312.0L148.2 310.5L149.7 307.5L152.1 306.7L153.7 310.5L153.7 305.2L155.2 308.3L159.9 305.2L159.9 303.7L157.6 304.5L158.4 303.0L155.2 303.7L153.7 297.7L154.4 295.5L157.6 295.5L158.4 290.2L164.7 286.4L159.2 285.7L159.9 284.2L174.1 266.9L181.2 263.8L178.8 257.1L180.4 251.0L173.3 249.5L173.3 245.0L179.6 242.8L176.4 240.5L181.2 241.2L171.7 236.0L172.5 233.7L176.4 230.7L178.0 232.2L189.8 215.6L192.1 217.9L196.1 213.3L192.1 208.8L193.7 207.3L197.6 206.5L201.6 210.3L203.1 204.3L200.8 201.3L185.9 207.3L185.1 205.8L184.3 207.3L173.3 206.5L166.2 210.3L152.1 211.8L152.9 209.6L149.7 206.5L152.1 204.3L162.3 197.5L171.7 194.5L179.6 183.9L189.8 180.1L189.0 167.3L187.4 164.2L185.1 164.2L187.4 164.2L187.4 160.5L191.4 155.9L185.1 146.1L181.9 145.3L183.5 141.6L180.4 139.3L178.8 140.8L168.6 138.5L168.6 129.4L156.0 121.9L152.9 123.4L151.3 121.9L152.9 118.1L150.5 121.1L148.2 119.6L143.5 95.4L145.0 94.6L141.1 95.4L140.3 92.3L165.4 91.6L161.5 77.9L170.2 74.1L172.5 68.8L178.8 67.3L178.0 62.0L181.2 59.0L203.1 60.5L201.6 59.0L204.7 52.1L204.7 46.1L207.9 41.5L211.0 47.6L221.2 46.8L229.8 55.2L247.9 62.0L249.5 65.8L260.5 67.3L262.8 74.1L268.3 77.9L276.2 77.9L280.9 86.3L286.4 86.3L291.9 81.0L293.5 74.1L291.9 71.9L295.0 67.3L283.3 51.4L284.8 50.6L284.0 46.8L287.2 38.5L292.7 40.0L299.0 34.7L303.7 34.7L317.0 38.5L319.4 43.0L321.7 43.0L329.6 50.6L332.7 68.1L339.0 71.1L342.9 77.2L346.1 90.1L351.6 94.6L351.6 99.2L355.5 100.7L353.9 104.5L350.8 105.2L353.2 126.4L372.0 143.1L372.0 143.8ZM125.4 272.1L125.4 267.6L119.1 274.4L114.4 275.1L106.5 273.6L105.8 269.9L101.8 270.6L99.5 277.4L95.5 278.2L97.9 275.1L97.1 269.1L94.0 267.6L93.2 270.6L89.3 264.6L90.8 267.6L87.7 267.6L89.3 267.6L86.1 272.1L86.9 275.9L84.5 277.4L86.1 278.2L87.7 275.1L91.6 275.9L92.4 284.2L89.3 286.4L87.7 296.2L79.8 300.7L78.3 296.2L80.6 291.7L77.5 295.5L75.9 293.2L75.9 297.0L74.3 297.0L75.9 300.0L72.0 298.5L71.2 304.5L72.8 303.0L78.3 304.5L73.6 309.0L70.4 306.7L63.3 314.3L63.3 317.3L58.6 318.0L61.8 318.8L61.0 324.8L58.6 325.5L57.1 321.8L59.4 321.0L57.1 320.3L55.5 323.3L57.1 324.0L53.9 326.3L57.8 327.8L54.7 330.8L50.8 330.0L47.6 333.8L46.1 330.0L46.1 331.6L42.9 329.3L43.7 335.3L42.1 336.8L39.0 336.8L39.0 333.1L35.9 336.8L33.5 334.6L35.1 328.5L37.4 327.0L37.4 330.0L39.0 327.8L39.0 322.5L32.7 321.8L35.9 318.0L32.7 321.0L28.0 320.3L34.3 308.3L42.1 303.7L44.5 311.3L42.9 303.7L47.6 304.5L48.4 302.2L48.4 309.0L51.6 310.5L53.1 307.5L51.6 305.2L53.9 303.7L46.8 299.2L43.7 303.0L42.9 299.2L42.1 300.7L37.4 299.2L36.6 302.2L34.3 300.7L34.3 297.0L32.7 298.5L30.4 294.7L29.6 286.4L34.3 281.2L32.7 278.9L36.6 272.9L35.1 272.1L37.4 270.6L37.4 265.4L45.3 254.8L46.8 249.5L45.3 248.8L47.6 247.3L43.7 237.5L39.0 235.2L42.9 232.2L46.8 235.2L44.5 234.5L46.8 240.5L59.4 235.2L65.7 229.2L83.0 229.9L86.1 233.0L84.5 245.0L88.5 251.8L85.3 257.1L87.7 256.3L86.1 256.3L86.9 259.3L95.5 255.6L101.0 250.3L108.9 248.8L116.0 239.0L120.7 237.5L122.2 239.7L123.8 236.7L128.5 235.2L129.3 239.0L133.2 236.7L131.7 239.7L134.0 239.7L135.6 244.3L141.1 236.7L144.2 239.0L148.2 235.2L150.5 237.5L152.1 234.5L144.2 257.1L140.3 260.8L141.9 262.3L139.5 261.6L139.5 263.8L142.7 264.6L140.3 267.6L138.0 266.1L139.5 268.4L138.0 275.1L134.8 275.1L132.5 278.9L130.1 276.7L125.4 280.4L124.6 272.9L125.4 272.1Z"/><circle class="capital" cx="223.8" cy="156.7" r="6"/></svg>