<svg xmlns="http://www.w3.org/2000/svg" viewBox="0 0 400 400" class="pref-shape" data-mapno="44" data-name="大分県" role="img" aria-label="大分県の形"><style>.pref-shape path{fill:#FFFFFF;stroke:#1E293B;stroke-width:1.1;stroke-linejoin:round}.pref-shape.is-active path{fill:#0D9488}.pref-shape.is-correct path{fill:#16A34A}.pref-shape .capital{fill:#DC2626;stroke:#FFFFFF;stroke-width:1.5}</style><path d="M316.9 352.9L306.8 356.2L305.9 343.1L310.1 333.3L309.3 327.6L303.4 328.4L300.8 325.2L292.4 327.6L290.7 324.3L284.7 322.7L276.3 325.2L274.6 335.0L270.3 343.1L258.5 345.6L237.3 343.1L231.3 349.6L222.0 348.8L214.4 343.1L216.9 335.0L208.5 328.4L205.1 322.7L202.5 325.2L194.9 326.0L190.7 330.9L182.2 330.9L173.7 334.1L171.2 331.7L170.3 326.0L165.3 324.3L144.9 305.6L144.1 284.3L142.4 282.7L145.8 281.9L147.5 277.8L143.2 276.2L143.2 271.2L137.3 266.3L133.9 252.4L129.7 245.9L126.3 245.9L122.9 242.6L119.5 223.8L102.6 209.0L86.5 206.6L79.7 212.3L73.8 210.7L69.5 224.6L73.8 227.9L74.6 232.0L82.2 241.8L78.8 246.7L80.5 249.2L78.8 256.5L72.9 262.2L67.0 262.2L61.9 253.2L53.4 253.2L50.0 249.2L47.5 249.2L44.9 241.8L38.2 239.3L33.1 240.2L31.4 236.1L35.6 234.4L39.0 229.5L39.9 223.0L42.4 220.5L41.6 214.8L44.9 209.0L38.2 207.4L30.5 200.8L37.3 195.1L28.0 192.6L28.8 186.1L33.9 186.1L39.9 182.8L37.3 182.8L35.6 179.5L39.0 174.6L36.5 163.1L30.5 158.2L38.2 151.6L39.0 146.7L44.9 145.9L46.6 124.5L55.1 121.2L56.8 117.9L55.1 113.8L61.9 111.3L68.7 104.8L79.7 103.9L83.9 100.7L88.2 103.9L109.3 106.4L120.4 103.9L122.0 105.6L123.7 103.1L121.2 101.5L121.2 97.4L127.1 91.6L127.1 86.7L122.9 81.7L126.3 68.6L133.1 69.4L131.4 68.6L134.8 71.0L133.9 72.7L138.1 73.5L140.7 73.5L142.4 70.2L151.7 80.9L167.0 80.1L167.8 83.4L178.0 80.9L185.6 83.4L193.2 82.6L191.5 76.8L201.7 67.7L203.4 70.2L207.6 62.8L206.8 60.3L208.5 58.7L210.2 60.3L210.2 57.0L213.6 55.4L211.0 53.7L211.9 51.3L213.6 49.6L220.3 50.4L217.8 46.3L225.4 48.8L228.8 45.5L229.7 49.6L232.2 49.6L232.2 46.3L235.6 43.8L241.5 45.5L240.7 48.0L243.2 49.6L244.9 48.0L245.8 51.3L249.1 47.1L253.4 50.4L251.7 52.9L253.4 54.6L255.9 51.3L261.9 61.1L264.4 61.1L266.9 70.2L274.6 78.4L278.0 86.7L278.8 93.3L274.6 105.6L275.4 110.5L277.1 108.9L277.1 118.7L276.3 116.3L270.3 126.1L267.8 137.7L255.9 136.8L259.3 134.4L255.1 131.9L246.6 132.7L248.3 133.5L246.6 136.0L252.5 144.2L251.7 147.5L238.1 149.1L237.3 156.5L234.7 154.9L235.6 157.4L226.3 155.7L222.9 150.0L211.9 152.4L210.2 159.8L212.7 164.7L212.7 173.0L215.3 182.8L235.6 190.2L241.5 187.7L239.0 186.9L243.2 184.4L245.8 185.3L248.3 181.2L246.6 183.6L255.9 181.2L257.6 186.1L259.3 185.3L257.6 180.3L260.2 179.5L261.9 183.6L261.0 179.5L264.4 178.7L264.4 182.8L266.9 182.8L267.8 180.3L270.3 185.3L272.0 183.6L276.3 186.9L274.6 188.5L278.0 189.4L278.8 187.7L279.6 191.0L282.2 191.8L281.3 187.7L284.7 187.7L285.6 190.2L288.1 187.7L285.6 191.8L287.3 190.2L305.1 189.4L309.3 186.9L313.5 189.4L311.8 186.1L322.0 182.8L319.5 189.4L314.4 191.0L314.4 197.6L310.1 203.3L312.7 204.1L302.5 211.5L300.0 216.4L301.7 221.3L293.2 228.7L304.2 229.5L303.4 231.1L305.9 232.8L312.7 227.1L315.2 227.9L314.4 230.3L316.9 230.3L321.2 226.2L321.2 228.7L325.4 229.5L320.3 232.0L321.2 234.4L314.4 235.2L316.1 236.1L312.7 241.0L309.3 240.2L308.5 241.8L311.8 242.6L311.0 245.9L317.8 245.9L316.1 245.1L316.9 242.6L321.2 245.9L323.7 243.4L324.6 248.3L326.2 246.7L328.8 248.3L327.9 246.7L330.5 244.2L328.8 240.2L332.2 238.5L333.0 247.5L339.8 246.7L339.0 249.2L341.5 250.0L345.7 246.7L344.9 240.2L349.1 238.5L347.4 245.1L350.0 250.0L353.4 250.0L342.3 254.9L328.8 253.2L327.1 261.4L321.2 266.3L323.7 269.6L322.0 272.9L321.2 268.0L318.6 272.9L322.0 277.8L323.7 277.0L327.9 279.4L327.9 281.9L330.5 281.9L331.3 286.0L333.9 283.5L337.3 287.6L339.0 286.8L337.3 282.7L339.8 285.1L341.5 281.9L340.7 287.6L343.2 290.0L346.6 287.6L345.7 285.1L350.0 284.3L347.4 286.8L349.1 292.5L354.2 289.2L357.6 290.0L357.6 285.1L360.1 287.6L361.8 285.1L364.4 287.6L367.8 286.8L372.0 292.5L361.8 290.0L361.0 294.1L355.9 290.9L352.5 294.9L350.8 294.1L350.8 300.7L346.6 298.2L346.6 295.8L341.5 295.8L344.0 298.2L344.9 306.4L347.4 303.1L349.1 305.6L352.5 305.6L348.3 307.2L349.1 309.6L344.0 314.5L340.7 313.7L341.5 316.2L338.1 320.3L334.7 317.0L336.4 321.9L333.0 323.5L337.3 323.5L338.1 329.2L339.8 327.6L338.1 322.7L342.3 326.8L344.9 326.0L342.3 322.7L343.2 320.3L341.5 321.1L344.0 320.3L350.8 323.5L350.8 326.0L344.9 329.2L340.7 334.1L340.7 337.4L339.0 337.4L339.0 333.3L333.9 333.3L333.9 337.4L331.3 339.8L327.1 337.4L327.9 335.0L326.2 335.0L326.2 339.8L322.9 337.4L322.0 339.8L319.5 339.0L321.2 334.1L318.6 333.3L316.9 338.2L320.3 341.5L320.3 346.4L315.2 338.2L312.7 343.1L315.2 346.4L313.5 351.3L316.9 352.1L316.9 352.9Z"/><circle class="capital" cx="243.0" cy="192.5" r="6"/></svg>