<svg xmlns="http://www.w3.org/2000/svg" viewBox="0 0 400 400" class="pref-shape" data-mapno="45" data-name="宮崎県" role="img" aria-label="宮崎県の形"><style>.pref-shape path{fill:#FFFFFF;stroke:#1E293B;stroke-width:1.1;stroke-linejoin:round}.pref-shape.is-active path{fill:#0D9488}.pref-shape.is-correct path{fill:#16A34A}.pref-shape .capital{fill:#DC2626;stroke:#FFFFFF;stroke-width:1.5}</style><path d="M316.3 49.8L314.5 52.8L310.8 53.3L312.7 56.3L309.6 55.7L309.6 62.2L307.1 62.2L304.7 58.6L302.9 59.2L302.9 63.4L298.0 66.3L298.0 69.2L296.7 66.3L294.9 66.9L292.5 74.0L290.0 73.4L291.2 75.7L294.3 74.0L292.5 80.4L288.2 85.7L281.4 86.9L276.5 96.9L277.1 105.1L280.2 105.7L279.6 103.4L282.7 102.8L282.0 106.9L285.7 108.7L279.0 114.5L275.3 113.4L275.9 111.0L271.6 111.0L271.6 119.8L268.6 121.6L272.9 119.2L272.2 122.2L274.1 121.6L274.7 118.0L275.9 123.3L271.0 123.9L277.8 125.1L268.6 128.6L266.1 135.1L267.4 137.4L264.9 139.8L265.5 144.5L262.5 145.0L256.9 156.8L233.7 243.9L236.7 242.2L233.1 245.1L231.2 266.1L238.0 273.7L233.1 285.9L234.3 288.3L232.5 288.8L231.8 294.1L234.3 296.4L230.6 298.2L234.3 306.3L231.8 306.3L231.8 311.0L225.7 314.5L222.7 319.7L223.3 323.2L220.8 320.9L220.2 326.1L217.1 326.7L217.8 337.2L215.3 335.4L215.3 338.3L217.8 338.9L218.4 343.0L213.5 346.4L215.3 355.7L207.3 363.9L211.0 370.3L208.6 372.0L204.9 370.3L203.1 365.0L192.0 367.4L188.4 361.6L189.6 356.3L187.1 356.9L182.2 350.5L176.7 351.1L173.7 348.8L175.5 339.5L181.0 336.6L181.6 332.5L179.2 326.1L182.2 321.4L178.6 314.5L179.2 311.0L174.3 307.5L171.8 309.8L164.5 309.8L157.8 302.8L152.2 308.6L151.0 304.6L146.7 301.1L144.9 281.9L141.2 283.0L137.5 281.3L139.4 274.9L128.4 273.7L125.3 269.0L122.2 270.2L117.3 266.7L117.3 260.3L124.7 249.8L121.6 249.8L118.6 242.2L113.7 238.1L102.6 235.8L98.4 220.6L89.8 212.4L83.7 210.1L83.7 205.4L89.8 198.4L90.4 200.7L106.3 201.9L110.0 198.9L113.7 200.7L123.5 192.5L129.0 196.6L136.9 195.4L136.3 192.5L144.3 183.1L153.5 187.8L160.8 188.4L163.3 186.7L161.4 176.7L155.3 171.4L155.9 168.5L150.4 165.6L152.2 156.8L157.1 157.9L163.9 147.4L156.5 140.4L157.8 136.8L155.3 133.9L155.3 128.6L150.4 128.6L145.5 121.6L143.1 108.7L144.3 103.4L146.7 102.2L145.5 95.7L149.8 94.0L152.2 86.9L162.7 88.7L165.7 82.2L164.5 74.5L170.0 65.7L176.7 66.9L177.3 57.5L188.4 49.8L190.2 44.5L188.4 41.6L194.5 30.9L209.2 29.2L211.0 34.5L214.1 36.3L225.1 33.9L228.2 30.4L235.5 28.0L244.1 36.8L242.2 42.7L247.8 46.9L254.5 47.5L258.8 42.7L274.1 44.5L282.7 42.7L286.9 29.8L293.1 28.0L298.6 31.5L304.7 29.8L306.5 32.1L310.8 31.5L311.4 35.7L308.4 42.7L309.0 52.2L316.3 49.2L316.3 49.8Z"/><circle class="capital" cx="225.6" cy="244.4" r="6"/></svg>