<svg xmlns="http://www.w3.org/2000/svg" viewBox="0 0 400 400" class="pref-shape" data-mapno="46" data-name="鹿児島県" role="img" aria-label="鹿児島県の形"><style>.pref-shape path{fill:#FFFFFF;stroke:#1E293B;stroke-width:1.1;stroke-linejoin:round}.pref-shape.is-active path{fill:#0D9488}.pref-shape.is-correct path{fill:#16A34A}.pref-shape .capital{fill:#DC2626;stroke:#FFFFFF;stroke-width:1.5}</style><path d="M242.4 50.2L240.1 57.6L251.1 65.5L254.3 76.8L262.5 78.5L268.4 87.2L270.7 87.2L265.2 95.0L265.2 99.8L268.8 102.4L271.1 101.6L273.4 105.0L281.6 105.9L280.2 110.7L285.7 111.1L287.1 125.4L291.2 131.1L294.4 126.7L300.3 131.9L307.6 130.2L311.3 132.8L313.5 140.6L311.3 144.1L312.6 151.9L308.5 154.0L307.1 160.9L299.4 158.3L291.6 164.4L286.2 172.6L285.7 178.7L299.4 183.4L298.9 186.4L294.4 189.9L295.3 193.4L301.7 190.8L302.1 192.9L293.5 200.7L284.4 202.9L283.9 207.6L281.2 209.3L283.0 211.1L279.8 211.5L277.5 216.7L264.7 223.6L253.8 225.7L248.3 230.4L246.5 229.6L241.9 232.2L241.9 235.6L237.4 235.6L236.9 239.5L235.1 238.6L233.3 240.8L236.5 230.9L232.8 228.3L246.5 216.2L249.2 209.3L247.4 204.1L252.4 196.4L254.7 182.1L246.5 165.7L239.2 160.5L239.2 144.5L236.5 146.7L236.0 144.9L230.1 146.2L223.7 138.9L228.7 133.2L236.0 131.9L241.9 136.3L240.6 140.2L242.4 143.6L240.6 144.5L248.8 143.2L257.5 127.2L253.3 119.4L243.8 118.1L243.8 115.4L242.9 116.8L237.4 113.7L228.7 117.2L226.0 122.8L227.4 127.2L219.2 137.6L220.5 140.2L218.7 146.2L216.9 145.8L214.1 149.7L215.0 153.2L212.8 153.6L215.0 154.0L214.6 157.0L211.9 155.7L212.8 159.2L215.0 159.2L211.9 160.5L215.0 172.2L218.7 173.9L216.4 173.9L220.5 186.0L228.3 192.9L234.7 194.2L231.9 198.5L232.8 202.9L228.7 205.0L231.5 205.9L228.7 208.9L224.2 209.3L222.8 213.2L218.2 209.3L216.4 211.5L212.3 211.1L211.4 203.3L204.6 197.2L188.6 197.2L181.8 194.2L179.9 195.5L179.5 193.8L177.7 197.7L171.7 195.5L168.1 197.2L170.4 194.2L168.1 192.9L170.4 192.1L168.5 190.3L166.3 191.6L165.8 189.0L169.9 187.7L167.6 184.7L164.9 186.0L162.2 184.3L167.6 180.4L164.4 179.1L164.4 176.9L162.2 177.4L154.4 168.3L152.1 169.2L153.5 167.4L156.7 169.2L159.9 164.4L161.7 168.3L164.4 169.6L164.9 166.6L164.9 169.6L169.9 171.8L176.7 167.0L184.0 152.3L185.9 139.3L183.1 126.7L180.4 126.3L177.2 118.5L174.0 118.1L175.4 117.2L173.6 114.1L168.1 110.2L164.0 111.1L161.2 103.3L169.5 83.3L165.8 69.4L162.2 69.4L167.2 57.6L164.9 53.3L163.5 55.5L162.2 54.2L162.6 49.4L169.5 45.4L175.4 47.2L175.8 45.4L178.6 48.9L182.2 48.9L188.6 44.1L189.5 38.9L195.9 47.2L203.6 48.1L206.4 46.7L206.8 43.7L216.0 44.1L217.3 41.5L222.3 41.1L223.7 35.4L226.4 35.4L228.3 40.6L232.4 41.5L232.8 44.1L241.0 49.8L242.4 50.2ZM276.1 302.2L274.8 296.7L280.7 286.8L282.5 287.2L283.9 276.9L291.6 267.5L295.8 276.9L293.9 280.3L294.8 291.9L290.7 300.5L291.6 307.4L288.5 310.4L287.5 316.0L283.4 317.2L278.0 328.8L280.7 342.9L278.9 343.4L278.9 347.2L274.3 346.8L264.7 351.9L262.5 347.6L263.8 342.5L261.6 330.9L264.7 331.4L269.3 325.0L276.1 310.8L276.1 303.9L276.1 302.2ZM213.2 372.0L200.9 369.9L197.3 365.6L197.3 360.0L194.1 356.2L191.8 347.2L192.2 343.8L200.0 341.6L204.6 336.5L204.6 332.7L209.6 333.1L209.6 330.5L210.0 333.5L216.4 334.4L235.1 346.4L232.4 360.0L222.3 369.9L214.1 371.6L213.2 372.0ZM94.7 133.2L93.8 130.6L91.0 133.2L87.8 131.1L86.5 126.7L90.1 125.9L92.9 116.3L103.3 112.8L105.6 108.1L104.7 104.2L107.4 105.0L102.9 117.2L99.7 116.8L98.3 118.9L96.5 125.0L98.3 127.6L95.1 131.9L94.7 133.2ZM159.9 52.4L153.0 45.9L153.9 42.0L149.8 36.7L154.9 33.2L152.1 32.4L152.6 30.6L155.8 30.2L159.9 34.1L158.1 30.2L159.9 28.4L160.8 31.1L162.2 28.0L166.3 33.7L164.0 35.0L164.0 39.3L166.7 38.5L167.6 40.6L161.7 44.6L162.6 48.1L160.3 52.0L159.9 52.4ZM117.9 102.4L117.9 99.0L115.6 98.5L117.0 96.8L113.8 97.2L113.4 93.7L117.0 92.0L114.3 92.9L113.4 90.3L112.5 95.9L110.6 95.0L109.7 92.0L112.5 88.1L123.4 95.0L124.8 93.3L122.9 90.7L126.6 90.7L124.8 95.5L126.6 95.9L126.1 98.5L122.5 98.1L117.9 102.0L117.9 102.4ZM167.6 338.7L164.9 335.2L165.3 332.2L162.2 333.1L158.1 327.1L171.3 330.5L175.8 335.2L168.1 338.2L167.6 338.7Z"/><circle class="capital" cx="218.7" cy="143.8" r="6"/></svg>