<svg xmlns="http://www.w3.org/2000/svg" viewBox="0 0 400 400" class="pref-shape" data-mapno="47" data-name="沖縄県" role="img" aria-label="沖縄県の形"><style>.pref-shape path{fill:#FFFFFF;stroke:#1E293B;stroke-width:1.1;stroke-linejoin:round}.pref-shape.is-active path{fill:#0D9488}.pref-shape.is-correct path{fill:#16A34A}.pref-shape .capital{fill:#DC2626;stroke:#FFFFFF;stroke-width:1.5}</style><path d="M335.7 168.6L337.0 166.2L335.0 162.0L341.0 161.4L352.2 149.4L356.8 136.9L354.8 135.1L355.5 132.1L358.8 131.5L364.7 139.2L368.0 138.6L372.0 160.8L352.9 189.5L334.4 189.5L335.0 196.7L329.1 196.1L335.0 203.9L331.7 205.1L332.4 207.4L323.8 209.8L323.1 212.2L316.5 208.0L311.9 208.6L311.9 206.2L309.9 207.4L313.9 215.2L304.7 217.0L304.0 218.8L302.7 217.6L300.7 219.4L303.3 223.6L300.7 226.0L295.4 227.7L292.1 226.6L292.1 234.9L274.9 230.7L271.6 231.9L269.0 237.9L265.7 237.9L276.9 249.2L275.6 253.4L278.2 257.6L285.5 260.6L284.2 261.8L286.2 268.9L278.9 264.1L274.3 257.0L268.3 260.0L267.7 262.4L270.3 264.1L266.4 264.7L266.4 267.1L263.7 266.5L263.7 273.1L258.4 279.0L257.8 285.0L253.2 289.2L254.5 291.0L251.2 289.8L255.8 294.5L255.1 298.1L257.8 298.7L259.8 294.5L265.0 293.3L267.0 298.7L259.1 306.4L249.2 310.6L244.6 317.1L234.0 321.3L230.0 319.5L232.0 307.0L228.7 307.6L228.1 304.7L232.7 302.9L227.4 302.3L229.4 300.5L228.1 297.5L229.4 298.1L226.7 298.1L225.4 292.1L228.7 287.4L233.3 289.8L230.7 288.0L235.3 285.6L234.7 282.0L233.3 283.2L232.0 280.8L234.0 279.6L236.0 281.4L236.0 277.8L240.6 274.3L244.6 274.9L244.6 272.5L247.9 272.5L251.8 265.3L247.9 260.0L248.5 256.4L241.9 242.1L241.3 234.3L243.9 234.3L246.5 239.1L253.8 233.1L259.8 235.5L263.1 228.9L269.7 224.8L269.7 219.4L271.6 220.6L274.3 217.0L278.9 219.4L282.9 215.8L285.5 216.4L288.1 210.4L294.7 210.4L299.4 201.5L298.7 199.1L288.1 194.9L280.2 194.9L276.9 187.1L276.9 183.5L280.2 182.3L275.6 175.8L276.9 170.4L281.5 172.8L292.8 171.0L296.7 174.6L298.0 173.4L304.7 176.4L298.7 184.7L304.0 189.5L308.0 190.1L319.8 185.9L326.4 180.5L326.4 182.3L329.7 182.9L327.1 179.3L325.1 180.5L325.1 175.8L327.8 172.2L333.7 169.8L335.7 168.6ZM32.0 257.0L29.3 251.6L28.0 253.4L28.7 251.0L43.2 246.2L52.4 255.8L48.5 261.8L49.8 270.1L43.2 266.5L37.9 258.8L39.2 258.2L32.0 256.4L32.0 257.0ZM288.8 102.7L288.1 96.1L292.1 90.7L302.0 79.9L307.3 78.7L302.0 84.7L300.7 90.7L294.7 93.1L295.4 95.5L291.4 96.7L290.1 100.3L288.8 102.7ZM288.8 260.6L291.4 257.0L290.8 254.0L296.1 252.8L300.7 248.6L299.4 250.4L302.0 252.8L294.1 258.8L290.1 258.8L288.8 260.6ZM261.7 171.6L250.5 170.4L249.9 165.0L261.7 163.2L267.0 168.0L266.4 170.4L261.7 171.6Z"/><circle class="capital" cx="235.1" cy="288.5" r="6"/></svg>