<svg xmlns="http://www.w3.org/2000/svg" viewBox="0 0 400 400" class="pref-shape" data-mapno="5" data-name="秋田県" role="img" aria-label="秋田県の形"><style>.pref-shape path{fill:#FFFFFF;stroke:#1E293B;stroke-width:1.1;stroke-linejoin:round}.pref-shape.is-active path{fill:#0D9488}.pref-shape.is-correct path{fill:#16A34A}.pref-shape .capital{fill:#DC2626;stroke:#FFFFFF;stroke-width:1.5}</style><path d="M298.8 84.0L296.8 84.5L296.8 88.2L290.8 89.3L288.8 95.7L283.3 99.9L287.3 103.1L284.8 108.9L286.8 113.7L280.7 120.6L282.8 127.0L281.3 145.0L286.3 163.0L282.3 164.6L277.7 160.3L270.7 164.6L271.7 173.6L277.2 175.1L281.3 179.4L274.2 189.9L269.7 192.0L277.2 202.1L277.2 210.0L273.2 220.0L270.7 219.5L266.2 226.8L262.7 227.4L263.7 236.9L259.7 241.6L261.7 245.3L254.7 250.5L254.7 258.4L250.7 258.9L250.2 264.2L253.7 265.2L253.7 268.9L259.2 276.8L257.2 277.3L256.7 283.1L260.2 284.1L261.2 289.4L271.7 296.2L267.7 301.4L268.2 304.6L275.2 308.8L270.2 310.3L265.7 316.6L268.7 319.8L266.7 320.8L266.2 327.6L274.2 329.7L275.2 333.9L267.7 345.9L269.7 354.3L262.2 356.3L260.2 361.0L255.2 363.1L250.2 368.9L247.6 369.9L243.6 367.8L235.1 372.0L231.1 366.3L225.6 367.3L222.6 363.1L219.1 362.6L217.6 351.7L214.0 347.5L205.5 347.0L203.0 340.2L197.5 338.6L195.0 342.8L186.5 338.1L181.4 340.2L176.9 338.6L176.4 332.8L168.9 335.5L166.9 331.8L154.9 326.6L154.4 317.7L145.8 320.3L143.8 323.4L123.3 320.8L128.8 310.3L129.3 304.1L127.3 303.5L127.3 300.9L131.3 288.3L132.8 285.7L139.3 284.1L148.8 258.4L154.4 221.1L153.9 193.1L146.8 170.9L135.3 158.8L127.8 156.6L122.8 157.7L121.3 161.4L119.8 160.9L122.3 164.6L117.2 164.0L114.2 166.2L110.7 164.0L105.2 166.7L102.7 164.0L101.7 156.6L98.7 155.6L96.7 150.3L99.7 146.6L97.2 145.5L94.7 137.0L96.2 134.9L99.7 140.2L109.2 142.9L111.7 145.5L119.3 142.9L130.8 130.2L140.3 110.0L143.3 98.3L142.3 94.1L146.8 90.3L144.3 89.8L148.8 67.5L146.3 57.3L141.8 55.2L134.3 45.6L143.8 44.5L147.8 47.7L147.8 41.3L152.9 37.6L157.4 37.6L161.9 44.0L168.9 44.5L174.4 42.4L180.4 45.1L190.0 41.9L198.5 43.5L203.0 34.9L213.5 34.4L215.5 41.3L219.6 39.7L222.1 42.9L229.6 45.1L229.1 49.3L235.1 52.5L236.6 51.5L234.6 46.1L239.6 45.6L239.6 44.0L245.6 46.7L246.6 50.9L251.7 50.4L257.7 45.6L263.2 48.3L262.7 43.5L266.2 43.5L268.7 40.3L274.2 41.3L277.2 31.2L286.8 28.0L283.8 43.5L288.8 46.7L303.8 46.1L305.3 61.6L303.3 63.7L299.8 62.7L300.8 65.3L296.8 73.8L298.8 76.0L297.3 80.8L298.8 83.4L298.8 84.0Z"/><circle class="capital" cx="161.0" cy="195.5" r="6"/></svg>