<svg xmlns="http://www.w3.org/2000/svg" viewBox="0 0 400 400" class="pref-shape" data-mapno="6" data-name="山形県" role="img" aria-label="山形県の形"><style>.pref-shape path{fill:#FFFFFF;stroke:#1E293B;stroke-width:1.1;stroke-linejoin:round}.pref-shape.is-active path{fill:#0D9488}.pref-shape.is-correct path{fill:#16A34A}.pref-shape .capital{fill:#DC2626;stroke:#FFFFFF;stroke-width:1.5}</style><path d="M157.0 31.7L181.5 34.9L183.9 31.1L194.0 28.0L194.6 38.6L209.0 44.8L211.4 49.2L220.3 46.1L220.9 52.9L226.3 54.8L232.3 52.3L241.2 57.9L245.4 52.9L252.0 54.8L255.0 62.9L265.1 63.5L268.1 66.0L271.1 81.6L275.3 82.2L278.9 87.1L285.5 85.9L287.9 88.4L286.7 95.8L296.2 102.1L298.6 115.1L305.2 116.3L306.4 118.8L299.2 130.6L302.2 139.9L298.0 150.4L292.6 151.1L290.2 148.0L287.3 148.0L286.1 151.7L293.8 167.8L289.1 174.6L289.6 177.7L292.0 177.7L291.4 184.5L298.6 189.4L299.2 195.0L301.6 195.6L297.4 200.5L293.8 199.9L292.0 206.1L293.8 211.0L283.7 219.7L284.3 228.9L282.5 231.4L279.5 230.1L277.1 233.2L277.1 239.4L272.9 241.2L274.7 263.4L272.3 268.9L267.5 272.6L268.1 275.7L263.9 278.2L262.2 288.0L256.2 289.8L253.8 293.5L235.9 293.5L235.3 300.3L238.3 305.8L235.3 308.9L236.5 313.2L234.7 318.1L236.5 321.8L233.5 327.3L232.9 347.5L240.0 353.6L228.1 368.9L214.3 366.5L204.8 372.0L201.2 370.8L198.8 366.5L195.8 366.5L192.2 361.0L189.2 364.0L180.3 365.9L174.3 356.7L174.3 352.4L169.5 348.7L167.7 352.4L162.9 353.6L159.4 353.6L155.2 349.4L145.6 355.5L140.8 348.1L132.5 351.2L127.7 343.2L121.1 344.5L110.9 333.4L110.4 326.7L113.9 316.9L112.7 311.3L115.7 308.3L115.7 299.1L122.9 293.5L122.9 289.2L119.3 288.6L119.3 286.2L123.5 279.4L121.1 265.9L124.1 257.9L127.1 256.6L135.5 260.3L136.6 258.5L141.4 260.3L156.4 249.2L162.9 240.0L162.9 235.7L153.4 223.4L146.8 220.3L142.0 222.1L138.4 220.9L130.7 216.6L128.9 211.0L125.9 211.6L128.9 185.7L123.5 183.2L115.7 183.2L109.8 178.3L105.0 178.9L93.6 170.2L108.0 141.8L124.1 128.1L125.9 123.2L131.3 120.1L136.6 110.8L146.2 74.7L150.4 72.8L151.0 70.4L147.4 71.0L151.6 64.8L157.6 44.2L157.6 33.0L157.0 31.7Z"/><circle class="capital" cx="252.3" cy="248.6" r="6"/></svg>