<svg xmlns="http://www.w3.org/2000/svg" viewBox="0 0 400 400" class="pref-shape" data-mapno="7" data-name="福島県" role="img" aria-label="福島県の形"><style>.pref-shape path{fill:#FFFFFF;stroke:#1E293B;stroke-width:1.1;stroke-linejoin:round}.pref-shape.is-active path{fill:#0D9488}.pref-shape.is-correct path{fill:#16A34A}.pref-shape .capital{fill:#DC2626;stroke:#FFFFFF;stroke-width:1.5}</style><path d="M232.7 63.6L242.4 69.4L246.3 67.7L251.5 68.8L252.0 65.3L256.0 64.2L256.0 66.5L260.0 68.8L262.8 67.7L267.9 70.6L266.8 75.3L269.7 81.1L283.9 78.8L285.0 75.9L289.6 79.9L293.0 77.6L295.8 81.1L302.1 81.1L307.7 84.0L306.0 85.8L307.7 91.0L305.5 95.7L306.6 100.9L314.6 108.5L318.0 107.3L326.5 110.8L328.2 109.1L321.4 105.0L323.1 102.7L329.9 105.6L337.3 105.6L337.9 83.4L344.7 80.5L351.5 82.3L354.4 92.2L356.1 90.4L356.6 96.8L361.8 98.6L362.3 111.4L366.3 117.2L366.3 130.6L369.2 135.3L367.5 136.4L372.0 178.2L371.4 205.5L369.2 211.3L370.9 215.3L369.2 214.7L369.2 216.5L370.9 215.9L368.6 217.0L366.3 230.9L367.5 236.1L369.2 234.4L365.2 240.2L364.0 263.3L359.5 280.0L361.2 289.8L358.4 295.6L350.4 303.6L348.1 301.3L345.3 301.9L340.2 304.2L341.3 306.5L331.1 310.0L327.6 312.8L325.9 321.5L320.3 318.0L312.9 318.0L300.9 311.7L294.1 311.1L289.6 305.3L290.1 303.0L286.7 301.9L284.4 308.8L287.3 310.5L289.6 318.0L279.9 320.9L275.9 328.4L270.2 330.7L266.2 336.4L261.7 329.5L260.0 330.7L257.1 327.2L250.3 326.1L248.6 316.3L241.2 314.0L235.0 304.2L229.3 304.2L225.3 301.3L227.6 297.3L225.3 289.8L227.0 282.9L218.5 283.5L216.8 274.2L212.8 272.5L206.5 264.4L185.5 255.8L162.2 253.5L150.8 258.1L147.4 261.5L148.5 269.0L140.0 267.9L136.0 272.5L121.2 275.4L119.5 279.4L112.7 281.1L109.9 285.8L104.8 285.2L96.2 293.3L88.8 296.1L86.6 294.4L82.0 295.6L82.0 299.0L76.9 305.3L72.9 305.3L70.1 309.4L66.1 307.6L62.1 308.8L60.4 305.3L53.6 305.9L46.8 302.5L42.2 304.8L40.5 302.5L43.9 299.0L42.8 285.2L45.6 277.7L41.1 262.1L44.5 251.1L38.8 240.7L34.3 244.2L28.0 234.4L37.1 222.8L39.4 215.3L37.7 211.8L41.1 209.5L41.6 202.0L34.3 194.5L37.7 186.9L57.6 182.3L59.3 183.4L64.4 180.5L70.6 182.9L73.5 173.0L76.3 170.7L81.4 169.5L84.9 173.0L88.8 170.7L97.4 170.7L101.9 173.0L105.3 170.7L106.5 167.8L102.5 164.9L102.5 156.2L98.5 148.0L98.5 139.3L106.5 135.8L112.7 130.0L112.2 125.4L117.3 120.7L118.4 114.9L133.8 100.3L129.2 92.2L123.0 93.3L127.5 91.6L133.8 99.8L141.7 96.8L146.3 103.8L155.4 98.0L159.3 102.1L162.8 102.1L167.3 100.9L169.0 97.4L173.6 100.9L173.6 105.0L179.2 113.7L187.8 112.0L190.6 109.1L194.0 114.3L196.9 114.3L199.1 118.4L202.6 119.6L211.7 114.3L224.7 116.6L236.1 102.1L229.3 96.3L232.1 63.6L232.7 63.6Z"/><circle class="capital" cx="266.8" cy="116.0" r="6"/></svg>