<svg xmlns="http://www.w3.org/2000/svg" viewBox="0 0 400 400" class="pref-shape" data-mapno="8" data-name="茨城県" role="img" aria-label="茨城県の形"><style>.pref-shape path{fill:#FFFFFF;stroke:#1E293B;stroke-width:1.1;stroke-linejoin:round}.pref-shape.is-active path{fill:#0D9488}.pref-shape.is-correct path{fill:#16A34A}.pref-shape .capital{fill:#DC2626;stroke:#FFFFFF;stroke-width:1.5}</style><path d="M320.2 52.5L323.0 60.5L314.5 64.1L309.5 74.9L302.3 100.1L302.3 109.5L298.8 111.6L295.9 121.0L288.1 133.9L282.4 156.9L280.9 156.2L280.2 159.8L278.1 159.1L280.9 160.5L278.1 161.9L277.4 168.4L277.4 172.7L281.7 172.0L281.7 175.6L277.4 174.9L277.4 180.6L279.5 181.3L278.1 184.9L281.7 189.2L280.9 194.9L275.2 200.7L273.1 209.3L268.1 210.0L266.7 227.9L270.2 250.1L278.1 274.4L288.8 299.3L298.8 315.7L293.8 320.7L290.2 317.9L293.1 327.2L296.6 331.4L293.1 322.9L300.2 319.3L328.7 367.7L333.7 370.6L332.3 372.0L325.9 372.0L309.5 359.9L305.2 355.6L299.5 343.5L283.1 337.8L276.0 325.7L255.3 310.0L249.6 318.6L253.1 325.0L243.1 318.6L241.0 322.2L221.8 326.4L211.1 336.4L202.5 333.6L193.9 339.3L185.4 337.1L173.3 342.8L166.1 333.6L158.3 330.7L155.4 332.9L141.9 323.6L136.2 323.6L124.0 315.0L121.9 312.2L122.6 307.2L111.2 301.5L108.4 293.6L94.1 279.4L89.1 268.6L84.8 275.1L75.6 272.9L74.8 266.5L67.0 250.1L67.0 239.3L70.6 240.8L70.6 237.9L73.4 237.9L75.6 240.8L96.9 230.0L101.2 220.0L99.8 214.3L103.4 209.3L111.2 206.4L110.5 210.0L116.9 212.1L117.6 202.8L129.8 197.8L131.9 189.9L135.5 193.5L138.3 193.5L137.6 190.6L148.3 191.3L154.0 187.0L153.3 182.7L161.1 185.6L167.6 179.9L171.1 179.9L174.0 184.9L180.4 184.9L181.8 182.7L184.7 168.4L190.4 159.1L190.4 155.5L197.5 150.4L194.7 146.1L194.7 122.4L191.8 120.3L193.2 113.1L188.2 102.3L191.1 98.7L205.3 95.1L203.2 88.6L198.2 85.0L196.1 77.1L196.1 74.2L198.9 72.7L198.9 62.6L196.1 55.4L194.7 35.2L197.5 31.6L205.3 31.6L211.1 37.4L213.2 43.9L222.5 46.8L224.6 59.0L233.2 60.5L236.7 64.8L238.9 63.4L244.6 72.0L247.4 70.6L249.6 64.8L256.7 61.9L261.7 52.5L273.8 48.9L271.0 39.6L267.4 37.4L268.1 30.2L272.4 28.0L279.5 40.3L288.1 41.0L303.1 48.9L308.0 48.2L312.3 50.4L312.3 48.9L313.8 51.8L316.6 50.4L319.5 53.3L320.2 52.5Z"/><circle class="capital" cx="240.5" cy="200.7" r="6"/></svg>