<svg xmlns="http://www.w3.org/2000/svg" viewBox="0 0 400 400" class="pref-shape" data-mapno="9" data-name="栃木県" role="img" aria-label="栃木県の形"><style>.pref-shape path{fill:#FFFFFF;stroke:#1E293B;stroke-width:1.1;stroke-linejoin:round}.pref-shape.is-active path{fill:#0D9488}.pref-shape.is-correct path{fill:#16A34A}.pref-shape .capital{fill:#DC2626;stroke:#FFFFFF;stroke-width:1.5}</style><path d="M330.5 108.0L326.0 112.6L328.7 128.9L327.8 138.0L331.4 147.1L331.4 159.8L327.8 161.6L327.8 165.2L330.5 175.2L336.8 179.7L339.5 187.9L331.4 191.5L321.5 192.4L318.0 196.9L324.2 210.5L322.4 219.5L326.0 222.3L326.0 252.1L329.6 257.5L320.6 263.8L320.6 268.3L313.5 280.1L312.6 292.7L308.1 300.8L300.0 300.8L296.4 294.5L291.9 294.5L288.4 295.4L283.9 301.7L281.2 299.0L280.3 300.8L274.0 298.1L274.9 303.5L267.7 309.0L258.8 308.0L257.9 309.9L254.3 308.0L255.2 311.7L251.6 311.7L247.1 307.1L244.4 317.1L231.8 320.7L229.2 323.4L230.0 332.4L228.3 335.1L225.6 336.0L224.7 332.4L220.2 332.4L221.1 327.9L213.0 332.4L211.2 331.5L206.7 337.8L208.5 345.0L203.1 357.6L192.4 361.2L176.2 371.1L173.5 367.5L170.0 367.5L170.0 371.1L165.5 369.3L164.6 372.0L160.1 368.4L157.4 369.3L159.2 367.5L158.3 363.0L156.5 363.9L157.4 361.2L152.0 356.7L151.1 358.5L147.5 352.2L151.1 347.7L145.7 345.0L128.7 347.7L126.0 343.2L121.5 344.1L117.9 341.4L100.0 345.9L98.2 344.1L100.9 343.2L98.2 339.6L90.1 337.8L85.6 329.7L86.5 326.1L87.4 327.9L89.2 327.0L86.5 322.5L79.4 318.9L72.2 311.7L70.4 305.3L84.7 281.9L83.8 279.2L85.6 277.4L90.1 279.2L91.9 272.9L90.1 274.7L89.2 267.4L87.4 267.4L86.5 263.8L93.7 253.0L91.0 252.1L91.9 246.7L98.2 244.9L105.4 234.0L100.0 225.9L89.2 227.7L84.7 225.0L80.3 226.8L75.8 223.2L68.6 223.2L65.9 218.6L61.4 218.6L60.5 206.0L64.1 197.8L63.2 195.1L70.4 185.1L73.1 175.2L69.5 174.3L66.8 168.8L67.7 165.2L74.0 161.6L74.9 154.3L77.6 154.3L82.9 147.1L81.1 143.4L74.0 142.5L66.8 137.1L68.6 128.0L72.2 128.0L74.0 121.7L80.3 118.0L79.4 116.2L83.8 109.9L90.1 109.9L91.9 104.4L98.2 99.9L98.2 94.4L105.4 92.6L109.0 95.3L120.6 90.8L124.2 86.2L132.3 82.6L134.1 78.1L142.1 79.0L145.7 76.2L146.6 71.7L157.4 69.0L160.1 62.6L168.2 61.7L173.5 58.0L183.4 58.0L189.7 50.8L203.1 52.6L201.3 40.8L215.7 30.7L224.7 28.0L228.3 29.8L243.5 28.0L248.0 30.7L261.4 31.6L272.2 38.0L283.9 38.9L291.9 46.2L294.6 45.3L304.5 58.0L310.8 60.8L313.5 75.3L318.0 77.1L326.9 74.4L326.9 80.8L325.1 79.9L324.2 85.3L326.9 88.1L325.1 94.4L327.8 97.1L324.2 103.5L330.5 106.2L330.5 108.0Z"/><circle class="capital" cx="221.0" cy="240.3" r="6"/></svg>