<?xml version="1.0" encoding="UTF-8"?>
<svg id="_3col-1" data-name="3col-1" xmlns="http://www.w3.org/2000/svg" viewBox="0 0 1024 1024">
  <defs>
    <style>
      .cls-1 {
        fill: #2563eb;
      }
    </style>
  </defs>
  <g>
    <path class="cls-1" d="M935.52,751.18l-19.45-19.45v-119.29h-119.29l-55.75-55.75h175.04v-47.11h-222.15l-25.93-25.93h248.08c6.92,0,12.97,2.59,18.15,7.78s7.78,11.24,7.78,18.15v224.81c0,3.12-.58,6.13-1.73,9.01-1.15,2.88-2.74,5.47-4.75,7.78ZM722.44,612.44h-100.27v121.88h222.15l-121.88-121.88ZM913.04,803.04l-42.79-42.79h-248.08c-6.92,0-12.97-2.59-18.15-7.78-5.19-5.19-7.78-11.24-7.78-18.15v-224.74c0-6.92,2.59-12.97,7.78-18.15,5.19-5.19,11.24-7.78,18.15-7.78h8.64l25.93,25.93h-34.58v47.11h44.52l-93.79-93.79,18.58-18.58,340.14,340.14-18.58,18.58Z"/>
    <path class="cls-1" d="M456.2,959.2v36.73h-119.19v-243.06h175.83c1.67,0,3.46.17,5.33.51,1.83.33,3.6.84,5.25,1.5l133.13,50.08c14.45,5.32,26.85,13.98,36.91,25.74,9.91,11.6,14.73,24.69,14.73,40.03v6h60.92c19.22,0,35.07,6.78,48.45,20.73,13.45,14.02,19.99,30.23,19.99,49.54v11.43l-185.05,56.76-196.32-56ZM456.2,933.2l193.39,56.69,157.26-49.46v-4.4c0-9.91-3.88-18.31-11.52-24.97-7.4-6.44-16.22-9.71-26.21-9.71h-127.53c-6.16,0-12.3-.49-18.27-1.45-5.96-.96-11.9-2.42-17.67-4.35l-52.95-16,7.96-25.56,51.47,17.52c4.77,1.73,9.71,3.05,14.69,3.91,5,.87,9.96,1.31,14.76,1.31h40.17v-6c0-10.03-3.39-18.88-10.09-26.29-6.29-6.96-14.02-12.31-22.97-15.89l-134.15-51.07h-58.36v155.72ZM361.62,971.32h69.36v-193.83h-69.36v193.83Z"/>
  </g>
  <path class="cls-1" d="M354.67,480.02c11.66-.92,23.45-2.91,35.09-5.92,11.66-3.02,23.09-6.94,33.99-11.69l16.94,29.36c-13.51,6.21-27.57,11.16-41.83,14.72s-29.14,6.04-44.2,7.34v-33.83ZM312.81,513.85c-15.06-1.3-29.92-3.77-44.2-7.34-14.25-3.56-28.31-8.51-41.83-14.73l16.94-29.36c10.91,4.74,22.34,8.67,33.99,11.69,11.64,3.01,23.44,5,35.09,5.92v33.83ZM460.04,441.55c10-6.93,19.34-14.72,27.79-23.17,8.45-8.45,16.24-17.8,23.17-27.79l29.98,16.97c-8.45,12.61-18.14,24.42-28.85,35.13-10.7,10.7-22.51,20.4-35.13,28.85l-16.97-29.98ZM190.49,471.49c-12.63-8.83-24.56-18.73-35.48-29.45-10.9-10.7-20.7-22.51-29.15-35.11l29.98-16.97c6.94,10.01,14.83,19.45,23.49,28.11,8.65,8.65,18.1,16.55,28.11,23.49l-16.94,29.94ZM531.88,354.3c4.74-10.91,8.67-22.34,11.69-33.99,3.01-11.64,5-23.44,5.92-35.09h33.83c-1.3,15.06-3.77,29.92-7.34,44.2-3.56,14.25-8.51,28.31-14.73,41.83l-29.36-16.94ZM316.81,271.02v-124.62h33.86v111.13l90.02,90.02-23.67,23.67-100.21-100.21ZM105.66,370.6c-5.83-13.51-10.59-27.57-14.15-41.82-3.57-14.26-6.03-28.91-7.33-43.57h33.82c.93,11.66,3.03,23.37,6.24,34.82,3.21,11.43,7.04,22.72,11.4,33.6l-29.98,16.97ZM549.48,243.35c-.92-12.06-3.02-23.98-6.25-35.45-3.21-11.44-7.24-22.74-11.98-33.63l30.02-16.99c6.59,13.52,11.63,27.58,15,41.84,3.37,14.29,5.74,29.16,7.03,44.23h-33.82ZM84.17,243.35c1.3-15.06,3.77-29.92,7.34-44.2,3.56-14.25,8.51-28.31,14.73-41.83l29.36,16.94c-4.74,10.91-8.67,22.34-11.69,33.99-3.01,11.64-5,23.44-5.92,35.09h-33.83ZM126.48,121.02c8.45-12.62,18.15-24.43,28.86-35.14s22.51-20.4,35.13-28.85l16.97,29.98c-10,6.92-19.44,14.71-28.09,23.16-8.66,8.46-16.55,17.8-23.49,27.8l-29.36-16.94ZM511,137.96c-6.93-9.99-14.71-19.33-23.16-27.78-8.45-8.45-17.8-16.24-27.79-23.17l16.97-29.98c12.6,8.44,24.3,18.13,34.8,28.83,10.52,10.71,20.11,22.53,28.55,35.15l-29.36,16.94ZM423.75,66.14c-10.91-4.74-22.33-8.67-33.99-11.69-11.64-3.01-23.43-5-35.09-5.92V14.71c15.07,1.29,29.94,3.66,44.23,7.03,14.25,3.37,28.31,8.41,41.83,14.99l-16.96,29.41ZM226.78,36.78c13.52-6.21,27.58-11.16,41.83-14.73,14.28-3.57,29.14-6.04,44.2-7.34v33.83c-11.66.92-23.46,2.91-35.09,5.92-11.66,3.02-23.09,6.94-33.99,11.69l-16.94-29.36Z"/>
</svg>