<?xml version="1.0" encoding="UTF-8"?>
<svg id="_3col-3" data-name="3col-3" xmlns="http://www.w3.org/2000/svg" viewBox="0 0 1024 1024">
  <defs>
    <style>
      .cls-1 {
        fill: #2563eb;
      }
    </style>
  </defs>
  <g>
    <g>
      <path class="cls-1" d="M382.01,735.67h-32.5v227.48c0,17.87,14.62,32.5,32.5,32.5h227.48v-32.5h-227.48v-227.48Z"/>
      <path class="cls-1" d="M641.99,670.68h-194.98c-17.87,0-32.5,14.62-32.5,32.5v194.98c0,17.87,14.62,32.5,32.5,32.5h194.98c17.87,0,32.5-14.62,32.5-32.5v-194.98c0-17.87-14.62-32.5-32.5-32.5ZM544.66,881.91c-9.59,0-17.06-7.64-17.06-17.06s7.64-16.9,17.06-16.9,16.9,7.31,16.9,16.9c-.16,9.42-7.31,17.06-16.9,17.06ZM585.28,781.65c-10.24,15.11-19.99,19.66-25.35,29.41-2.11,3.9-2.92,6.5-2.92,19.17h-24.7c0-6.66-.97-17.55,4.22-26.81,6.66-11.86,19.17-18.85,26.49-29.25,7.8-11.05,3.41-31.52-18.52-31.52-14.3,0-21.45,10.89-24.37,19.99l-22.26-9.26c6.17-18.36,22.59-33.96,46.47-33.96,19.99,0,33.8,9.1,40.78,20.47,6.01,9.91,9.42,28.11.16,41.76Z"/>
    </g>
    <g>
      <g>
        <path class="cls-1" d="M935.5,76.28c-27.1-23.01-61.23-37.63-98.66-40.75v29.25c29.44,2.92,56.16,14.62,77.8,32.37l20.86-20.86Z"/>
        <path class="cls-1" d="M822.22,356.47c-51.87,0-97.1-27.49-123.04-68.24h40.17v-29.25h-92.62v92.62h29.25v-44.65c31.39,47.38,85.01,78.77,146.24,78.77,78.19,0,144.48-51.28,167.1-121.87l-28.66-6.63c-19.69,57.52-74.29,99.25-138.44,99.25Z"/>
        <path class="cls-1" d="M807.59,64.78v-29.25c-37.44,2.92-71.56,17.94-98.47,40.95l20.67,20.67c21.64-17.74,48.36-29.44,77.8-32.37Z"/>
        <path class="cls-1" d="M709.12,117.81l-20.67-20.67c-23.01,27.1-37.83,61.03-40.95,98.47h29.25c2.92-29.44,14.62-56.16,32.37-77.8Z"/>
        <polygon class="cls-1" points="744.22 210.24 797.84 234.61 822.22 288.23 846.59 234.61 900.21 210.24 846.59 185.86 822.22 132.24 797.84 185.86 744.22 210.24"/>
        <path class="cls-1" d="M967.67,195.61h29.44c-3.12-37.44-17.94-71.56-40.95-98.66l-20.86,20.86c17.74,21.64,29.44,48.36,32.37,77.8Z"/>
      </g>
      <path class="cls-1" d="M201.98,385.33c-48.96,0-90.39-7.54-124.27-22.62-33.88-15.08-50.83-33.48-50.83-55.2V112.96c0-21.4,17.1-39.72,51.31-54.96,34.21-15.24,75.47-22.86,123.78-22.86s89.57,7.62,123.78,22.86c34.21,15.24,51.31,33.56,51.31,54.96v194.55c0,21.72-16.94,40.13-50.83,55.2-33.88,15.08-75.31,22.62-124.27,22.62ZM201.98,147.98c27.89,0,56.5-4.3,85.85-12.89,29.34-8.59,48.23-18.24,56.66-28.94-8.75-10.38-27.8-19.94-57.15-28.7-29.34-8.75-57.8-13.13-85.36-13.13s-57.23,4.22-86.09,12.65c-28.86,8.43-47.83,18.16-56.91,29.18,9.08,11.35,27.89,21.16,56.42,29.43,28.53,8.27,57.39,12.4,86.58,12.4ZM201.49,252.06c13.62,0,27.24-.73,40.86-2.19s26.67-3.65,39.15-6.57c12.48-2.92,24.4-6.49,35.75-10.7,11.35-4.22,21.56-8.92,30.64-14.1v-75.39c-9.4,5.19-19.78,9.89-31.13,14.1-11.35,4.22-23.35,7.78-35.99,10.7-12.65,2.92-25.62,5.19-38.91,6.81-13.29,1.62-26.75,2.43-40.37,2.43s-27.24-.81-40.86-2.43c-13.62-1.62-26.67-3.89-39.15-6.81-12.48-2.92-24.32-6.49-35.51-10.7-11.19-4.22-21.16-8.92-29.91-14.1v75.39c8.75,5.19,18.64,9.89,29.67,14.1,11.02,4.22,22.78,7.78,35.26,10.7,12.48,2.92,25.53,5.11,39.15,6.57s27.4,2.19,41.34,2.19ZM201.98,356.15c15.56,0,31.61-1.38,48.15-4.13,16.54-2.76,31.7-6.4,45.48-10.94,13.78-4.54,25.45-9.57,35.02-15.08,9.57-5.51,15.32-11.19,17.27-17.02v-60.8c-9.08,5.19-19.29,9.81-30.64,13.86s-23.27,7.54-35.75,10.46c-12.48,2.92-25.45,5.11-38.91,6.57-13.46,1.46-27.16,2.19-41.1,2.19s-27.72-.73-41.34-2.19c-13.62-1.46-26.67-3.65-39.15-6.57-12.48-2.92-24.24-6.4-35.26-10.46-11.02-4.05-20.91-8.67-29.67-13.86v61.28c1.62,5.51,7.13,11.11,16.54,16.78,9.4,5.67,21.08,10.7,35.02,15.08,13.94,4.38,29.18,7.94,45.72,10.7,16.54,2.76,32.75,4.13,48.64,4.13Z"/>
    </g>
  </g>
  <g>
    <path class="cls-1" d="M140.08,548.18l25.97-96.93,97.44,26.11-5.71,21.32-60.9-16.32,120,207.85-19.3,11.15-120-207.85-16.18,60.39-21.32-5.71ZM326.16,620.07l5.71-21.32,60.39,16.18-120-207.85,19.3-11.15,120,207.85,16.32-60.9,21.32,5.71-26.11,97.44-96.93-25.97Z"/>
    <path class="cls-1" d="M807.66,682.74l-96.93,25.97-26.11-97.44,21.32-5.71,16.32,60.9,120-207.85,19.3,11.15-120,207.85,60.39-16.18,5.71,21.32ZM776.88,485.64l-21.32,5.71-16.18-60.39-120,207.85-19.3-11.15,120-207.85-60.9,16.32-5.71-21.32,97.44-26.11,25.97,96.93Z"/>
  </g>
</svg>