<?xml version="1.0" encoding="UTF-8"?>
<svg id="prim" xmlns="http://www.w3.org/2000/svg" viewBox="0 0 1024 1024">
  <defs>
    <style>
      .cls-1 {
        fill: #0d9488;
      }

      .cls-2 {
        fill: #0d9488;
      }
    </style>
  </defs>
  <g id="_3col-3-2" data-name="3col-3">
    <g>
      <path class="cls-2" d="M442.41,1002.35c-10.47,0-19.63-3.95-27.48-11.84-7.85-7.89-11.78-17.1-11.78-27.62v-36.83c0-19.73,4.91-37.7,14.72-53.93,9.82-16.22,24.1-30.47,42.86-42.75l-21.59-124.95h-75.25c-10.47,0-19.63-3.95-27.48-11.84-7.85-7.89-11.78-17.1-11.78-27.62v-122.98c0-10.96,3.82-20.28,11.45-27.95,7.63-7.67,16.9-11.51,27.81-11.51h138.73v-26.31h108.63v26.31h105.35l-56.93,326.84c18.76,12.28,33.05,26.52,42.86,42.75,9.82,16.22,14.72,34.2,14.72,53.93v36.83c0,10.52-3.93,19.73-11.78,27.62-7.85,7.89-17.01,11.84-27.48,11.84h-235.57ZM431.94,664.99l-20.94-122.98h-47.11v122.98h68.05ZM578.85,915.87c5.02-5.04,7.53-11.29,7.53-18.74s-2.51-13.7-7.53-18.74c-5.02-5.04-11.23-7.56-18.65-7.56s-13.63,2.52-18.65,7.56c-5.02,5.04-7.53,11.29-7.53,18.74s2.51,13.7,7.53,18.74c5.02,5.04,11.23,7.56,18.65,7.56s13.63-2.52,18.65-7.56ZM496.07,805.06h128.26l45.81-263.05h-219.87l45.81,263.05ZM442.41,962.89h235.57v-36.83c0-23.67-8.72-43.18-26.17-58.53-17.45-15.34-39.04-23.02-64.78-23.02h-53.66c-25.74,0-47.33,7.67-64.78,23.02-17.45,15.34-26.17,34.85-26.17,58.53v36.83Z"/>
      <g id="q">
        <g>
          <path class="cls-1" d="M756.95,312.01h-21v146.99c0,11.55,9.45,21,21,21h146.99v-21h-146.99v-146.99h0Z"/>
          <path class="cls-1" d="M924.9,291.01s.03.02.04.04v125.91s-.02.03-.04.04h-125.91s-.03-.02-.04-.04v-125.91s.02-.03.04-.04h125.91M924.94,270.01h-125.99c-11.55,0-21,9.45-21,21v125.99c0,11.55,9.45,21,21,21h125.99c11.55,0,21-9.45,21-21v-125.99c0-11.55-9.45-21-21-21h0Z"/>
          <path class="cls-1" d="M862.05,384.55c-6.09,0-11.02,4.72-11.02,10.92s4.83,11.02,11.02,11.02,10.81-4.93,10.92-11.02c0-6.19-4.72-10.92-10.92-10.92h0Z"/>
          <path class="cls-1" d="M861.84,301.51c-15.43,0-26.04,10.08-30.03,21.94l14.38,5.98c1.89-5.88,6.51-12.91,15.75-12.91,14.17,0,17.01,13.23,11.97,20.37-4.72,6.72-12.81,11.23-17.11,18.9-3.36,5.98-2.73,13.02-2.73,17.32h15.96c0-8.19.53-9.87,1.89-12.39,3.46-6.3,9.76-9.24,16.38-19,5.98-8.82,3.78-20.58-.1-26.98-4.51-7.35-13.44-13.23-26.35-13.23h0Z"/>
        </g>
        <g>
          <path class="cls-1" d="M123.39,241.64h-27.45v192.13c0,15.1,12.35,27.45,27.45,27.45h192.13v-27.45H123.39v-192.13h0Z"/>
          <path class="cls-1" d="M342.96,211.74c1.28,0,2.45,1.17,2.45,2.45v164.68c0,1.28-1.17,2.45-2.45,2.45h-164.68c-1.28,0-2.45-1.17-2.45-2.45v-164.68c0-1.28,1.17-2.45,2.45-2.45h164.68M342.96,186.74h-164.68c-15.1,0-27.45,12.35-27.45,27.45v164.68c0,15.1,12.35,27.45,27.45,27.45h164.68c15.1,0,27.45-12.35,27.45-27.45v-164.68c0-15.1-12.35-27.45-27.45-27.45h0Z"/>
          <path class="cls-1" d="M260.76,336.47c-7.96,0-14.41,6.18-14.41,14.27s6.31,14.41,14.41,14.41,14.14-6.45,14.27-14.41c0-8.1-6.18-14.27-14.27-14.27h0Z"/>
          <path class="cls-1" d="M260.48,227.91c-20.17,0-34.03,13.17-39.25,28.68l18.8,7.82c2.47-7.69,8.51-16.88,20.59-16.88,18.53,0,22.23,17.29,15.64,26.62-6.18,8.78-16.74,14.68-22.37,24.7-4.39,7.82-3.57,17.02-3.57,22.64h20.86c0-10.7.69-12.9,2.47-16.19,4.53-8.23,12.76-12.08,21.41-24.84,7.82-11.53,4.94-26.9-.14-35.27-5.9-9.61-17.57-17.29-34.45-17.29h0Z"/>
        </g>
        <g>
          <path class="cls-1" d="M448.53,88.09h-33.22v232.53c0,18.27,14.95,33.22,33.22,33.22h232.53v-33.22h-232.53V88.09Z"/>
          <path class="cls-1" d="M714.28,21.65h-199.31c-18.27,0-33.22,14.95-33.22,33.22v199.31c0,18.27,14.95,33.22,33.22,33.22h199.31c18.27,0,33.22-14.95,33.22-33.22V54.87c0-18.27-14.95-33.22-33.22-33.22ZM614.79,237.57c-9.8,0-17.44-7.81-17.44-17.44s7.81-17.27,17.44-17.27,17.27,7.47,17.27,17.27c-.17,9.63-7.47,17.44-17.27,17.44ZM656.31,135.09c-10.46,15.45-20.43,20.1-25.91,30.06-2.16,3.99-2.99,6.64-2.99,19.6h-25.25c0-6.81-1-17.94,4.32-27.4,6.81-12.12,19.6-19.27,27.07-29.9,7.97-11.29,3.49-32.22-18.93-32.22-14.62,0-21.92,11.13-24.91,20.43l-22.75-9.47c6.31-18.77,23.09-34.71,47.5-34.71,20.43,0,34.55,9.3,41.69,20.93,6.15,10.13,9.63,28.73.17,42.69Z"/>
        </g>
      </g>
    </g>
  </g>
</svg>