<?xml version="1.0" encoding="UTF-8"?>
<svg id="_3col-2" data-name="3col-2" xmlns="http://www.w3.org/2000/svg" xmlns:xlink="http://www.w3.org/1999/xlink" viewBox="0 0 1024 1024">
  <defs>
    <style>
      .cls-1 {
        mask: url(#mask-1);
      }

      .cls-2 {
        stroke-width: 50px;
      }

      .cls-2, .cls-3 {
        stroke: #000;
        stroke-miterlimit: 10;
      }

      .cls-2, .cls-3, .cls-4 {
        fill: #2563eb;
      }

      .cls-5 {
        mask: url(#mask);
      }

      .cls-6 {
        fill: #2563eb;
      }

      .cls-3 {
        stroke-width: 60px;
      }

      .cls-7 {
        filter: url(#luminosity-noclip-2);
      }

      .cls-8 {
        filter: url(#luminosity-noclip);
      }
    </style>
    <filter id="luminosity-noclip" x="36.97" y="422.72" width="668.73" height="450.75" color-interpolation-filters="sRGB" filterUnits="userSpaceOnUse">
      <feFlood flood-color="#fff" result="bg"/>
      <feBlend in="SourceGraphic" in2="bg"/>
    </filter>
    <mask id="mask" x="36.97" y="422.72" width="668.73" height="450.75" maskUnits="userSpaceOnUse">
      <g class="cls-8">
        <polygon class="cls-2" points="599.36 797.18 526.4 722.34 505.07 788.43 453.87 613.35 624.53 665.87 560.11 687.76 633.06 762.6 599.36 797.18"/>
      </g>
    </mask>
    <filter id="luminosity-noclip-2" x="109.5" y="14.6" width="895.79" height="633.22" color-interpolation-filters="sRGB" filterUnits="userSpaceOnUse">
      <feFlood flood-color="#fff" result="bg"/>
      <feBlend in="SourceGraphic" in2="bg"/>
    </filter>
    <mask id="mask-1" x="109.5" y="14.6" width="895.79" height="633.22" maskUnits="userSpaceOnUse">
      <g class="cls-7">
        <path class="cls-3" d="M818.42,374.22l-41.75,18.68-52.74-119.22c-7.69-17.31-28.02-25.27-45.32-17.58h0c-17.58,7.69-25.27,28.02-17.58,45.32l97.24,219.76-60.98,5.77c-15.66,1.37-28.84,11.54-34.61,26.1l-4.94,12.36,129.11,49.72c10.16,3.85,21.43,3.57,31.59-.82l132.4-58.51c18.4-8.24,28.29-28.57,23.07-48.07l-25.27-98.62c-4.4-17.03-20.05-29.67-37.91-30.49l-92.3-4.4Z"/>
      </g>
    </mask>
  </defs>
  <path class="cls-4" d="M699.34,1000.25v-22.71h33.31v-48.07c0-17.92,5.05-34.19,15.14-48.83,10.09-14.64,23.47-25.24,40.12-31.8-16.66-6.81-30.03-17.54-40.12-32.18-10.09-14.64-15.14-30.91-15.14-48.83v-47.7h-33.31v-22.71h242.26v22.71h-33.31v47.7c0,17.92-5.05,34.19-15.14,48.83-10.09,14.64-23.47,25.36-40.12,32.18,3.03,1.26,6.37,2.84,10.03,4.73s6.75,3.85,9.27,5.87c-2.52,1.26-5.55,3.09-9.08,5.49-3.53,2.4-7.07,5.11-10.6,8.14-4.79-2.78-9.9-4.86-15.33-6.25-5.43-1.39-11.04-2.08-16.84-2.08-18.17,0-33.56,6.25-46.18,18.74-12.62,12.49-18.93,27.82-18.93,45.99v48.07h71.54c1.77,4.29,3.66,8.26,5.68,11.92,2.02,3.66,4.42,7.26,7.19,10.79h-140.44ZM866.65,814.02c12.62-12.62,18.93-28.01,18.93-46.18v-47.7h-130.22v47.7c0,18.17,6.31,33.56,18.93,46.18,12.62,12.62,28.01,18.93,46.18,18.93s33.56-6.31,46.18-18.93ZM864.38,994.43c-14.13-13.98-21.2-30.89-21.2-50.72s7.07-36.82,21.2-50.95c14.13-14.13,31.04-21.2,50.72-21.2s36.59,7.05,50.72,21.15c14.13,14.1,21.2,31.15,21.2,51.15s-7.07,36.66-21.2,50.62c-14.13,13.95-31.04,20.93-50.72,20.93s-36.59-6.99-50.72-20.97ZM904.89,975.65l53.37-53.75-10.6-10.6-42.77,43.15-22.33-22.71-10.6,10.98,32.93,32.93Z"/>
  <g>
    <g>
      <g class="cls-5">
        <g>
          <path class="cls-4" d="M502.85,447.72c48.7,0,88.33,39.62,88.33,88.33v17.22c0,48.7-39.62,88.33-88.33,88.33H150.3c-48.7,0-88.33-39.62-88.33-88.33v-17.22c0-48.7,39.62-88.33,88.33-88.33h352.55M502.85,422.72H150.3c-62.59,0-113.33,50.74-113.33,113.33v17.22c0,62.59,50.74,113.33,113.33,113.33h352.55c62.59,0,113.33-50.74,113.33-113.33v-17.22c0-62.59-50.74-113.33-113.33-113.33h0Z"/>
          <g>
            <path class="cls-6" d="M180.89,544.31c0,7.86-6.34,14.2-14.2,14.2s-14.2-6.34-14.2-14.2,6.34-14.2,14.2-14.2,14.2,6.62,14.2,14.2Z"/>
            <path class="cls-6" d="M260.83,544.31c0,7.86-6.34,14.2-14.2,14.2s-14.2-6.34-14.2-14.2,6.34-14.2,14.2-14.2,14.2,6.62,14.2,14.2Z"/>
            <path class="cls-6" d="M340.77,544.31c0,7.86-6.34,14.2-14.2,14.2s-14.2-6.34-14.2-14.2,6.34-14.2,14.2-14.2,14.2,6.62,14.2,14.2Z"/>
            <path class="cls-6" d="M420.71,544.31c0,7.86-6.34,14.2-14.2,14.2s-14.2-6.34-14.2-14.2,6.34-14.2,14.2-14.2,14.2,6.62,14.2,14.2Z"/>
            <path class="cls-6" d="M500.66,544.31c0,7.86-6.34,14.2-14.2,14.2s-14.2-6.34-14.2-14.2,6.34-14.2,14.2-14.2,14.2,6.62,14.2,14.2Z"/>
          </g>
        </g>
      </g>
      <polygon class="cls-4" points="602.37 797.18 529.41 722.34 508.08 788.43 456.88 613.35 627.54 665.87 563.11 687.76 636.07 762.6 602.37 797.18"/>
    </g>
    <g>
      <g class="cls-1">
        <g>
          <path class="cls-4" d="M754.69,39.6c35.24,0,68.38,13.72,93.3,38.65,24.92,24.92,38.65,58.06,38.65,93.3v23.84c0,35.24-13.72,68.38-38.65,93.3-24.92,24.92-58.06,38.65-93.3,38.65h-488.24c-35.24,0-68.38-13.72-93.3-38.65-24.92-24.92-38.65-58.06-38.65-93.3v-23.84c0-35.24,13.72-68.38,38.65-93.3,24.92-24.92,58.06-38.65,93.3-38.65h488.24M754.69,14.6h-488.24c-86.68,0-156.95,70.27-156.95,156.95v23.84c0,86.68,70.27,156.95,156.95,156.95h488.24c86.68,0,156.95-70.27,156.95-156.95v-23.84c0-86.68-70.27-156.95-156.95-156.95h0Z"/>
          <g>
            <path class="cls-6" d="M308.81,182.99c0,10.88-8.78,19.66-19.66,19.66s-19.66-8.78-19.66-19.66,8.78-19.66,19.66-19.66,19.66,9.16,19.66,19.66Z"/>
            <path class="cls-6" d="M419.52,182.99c0,10.88-8.78,19.66-19.66,19.66s-19.66-8.78-19.66-19.66,8.78-19.66,19.66-19.66,19.66,9.16,19.66,19.66Z"/>
            <path class="cls-6" d="M530.23,182.99c0,10.88-8.78,19.66-19.66,19.66s-19.66-8.78-19.66-19.66,8.78-19.66,19.66-19.66,19.66,9.16,19.66,19.66Z"/>
            <path class="cls-6" d="M640.94,182.99c0,10.88-8.78,19.66-19.66,19.66s-19.66-8.78-19.66-19.66,8.78-19.66,19.66-19.66,19.66,9.16,19.66,19.66Z"/>
            <path class="cls-6" d="M751.65,182.99c0,10.88-8.78,19.66-19.66,19.66s-19.66-8.78-19.66-19.66,8.78-19.66,19.66-19.66,19.66,9.16,19.66,19.66Z"/>
          </g>
        </g>
      </g>
      <path class="cls-4" d="M818.4,374.2l-41.75,18.68-52.73-119.2c-7.69-17.3-28.01-25.27-45.32-17.58h0c-17.58,7.69-25.27,28.01-17.58,45.32l97.23,219.72-60.97,5.77c-15.66,1.37-28.84,11.54-34.61,26.09l-4.94,12.36,129.09,49.71c10.16,3.85,21.42,3.57,31.58-.82l132.38-58.5c18.4-8.24,28.29-28.56,23.07-48.06l-25.27-98.6c-4.39-17.03-20.05-29.66-37.9-30.49l-92.28-4.39Z"/>
    </g>
  </g>
</svg>